<svg width="113" height="109" viewBox="0 0 113 109" fill="none" xmlns="http://www.w3.org/2000/svg"><path d="M.578 20.9c0-2.489.206-5.16.621-8.012.412-2.855 1.605-5.372 3.575-7.55C6.849 3.055 9.286 1.602 12.085.98c2.802-.617 5.244-.93 7.32-.93h59.277c1.654 0 3.624.055 5.909.16 2.283.102 4.616.49 7 1.162 2.39.674 4.723 1.74 7.001 3.194 2.284 1.45 4.306 3.471 6.07 6.06 2.39 3.526 3.92 7.521 4.596 11.986.672 4.46 1.01 8.764 1.01 12.91 0 1.242-.025 2.93-.08 5.057-.052 2.124-.236 4.43-.55 6.92a104.03 104.03 0 0 1-1.24 7.63c-.515 2.59-1.24 4.975-2.175 7.15-2.075 4.876-4.903 8.352-8.48 10.426-3.58 2.076-7.495 3.114-11.748 3.114h-4.666v.62l31.115 32.518H70.12l-21.001-28.32a199.677 199.677 0 0 1-5.058-7.152c-1.61-2.388-2.414-4.928-2.414-7.62v-2.343c0-3.625 1.478-6.58 4.437-8.864 2.956-2.283 6.716-3.425 11.276-3.425h5.609c1.553 0 3.264-.18 5.127-.542 1.868-.366 3.427-1.273 4.676-2.724.827-1.14 1.421-2.567 1.783-4.277.366-1.715.55-3.296.55-4.747 0-3.01-.34-5.19-1.012-6.539-.674-1.346-1.222-2.229-1.64-2.644-1.35-1.448-2.907-2.249-4.668-2.404a57.75 57.75 0 0 0-5.128-.24H43.21c-1.043 0-2.003.081-2.884.239-.882.154-1.736.644-2.564 1.472-1.142 1.036-1.768 2.1-1.872 3.194-.102 1.089-.15 2.309-.15 3.655v73.278H.577V20.9z"/></svg>