<svg width="131" height="110" viewBox="0 0 131 111" fill="none" xmlns="http://www.w3.org/2000/svg">
  <path
    d="M53.988 63.66h22.403l-9.803-27.54a42.644 42.644 0 0 1-.7-1.473c-.256-.572-.487-.86-.693-.86-.213 0-.45.288-.71.86-.255.568-.485 1.06-.692 1.473l-9.804 27.54zm-13.69-49.633a30.12 30.12 0 0 1 2.955-5.438c1.14-1.663 2.644-3.065 4.507-4.207 1.868-1.14 4.179-2.023 6.93-2.644 2.748-.62 6.25-.932 10.504-.932 2.589 0 5.104.13 7.542.39 2.435.255 4.715.823 6.84 1.704 2.127.882 4.102 2.207 5.918 3.974 1.814 1.764 3.345 4.148 4.587 7.151l40.3 96.93H93.354l-8.562-22.402H45.586l-8.562 22.403H0l40.298-96.93z" />
</svg>