<svg width="97" height="110" viewBox="0 0 97 110" fill="none" xmlns="http://www.w3.org/2000/svg"><path d="M47.735 109.958c-4.283 0-8.23-.182-11.836-.55-3.603-.366-6.92-1.043-9.947-2.032a35.26 35.26 0 0 1-8.464-4.072c-2.616-1.726-5.02-4.002-7.214-6.823-1.668-1.985-3.13-4.207-4.383-6.663-1.256-2.453-2.303-5.272-3.14-8.455C1.917 78.175 1.29 74.544.87 70.467c-.414-4.075-.62-8.724-.62-13.948 0-9.197.599-17.244 1.801-24.142 1.201-6.896 3.785-12.85 7.756-17.86 2.506-3.24 5.327-5.803 8.464-7.684a41.657 41.657 0 0 1 9.795-4.303A50.018 50.018 0 0 1 38.33.651c3.447-.264 6.739-.4 9.875-.4H94.6v27.275H65.283c-2.923 0-5.638.026-8.144.08-2.51.048-4.811.36-6.903.94-2.09.574-3.97 1.435-5.643 2.582-1.668 1.149-3.13 2.82-4.383 5.013-.833 1.362-1.487 2.905-1.96 4.631a36.01 36.01 0 0 0-1.02 5.325c-.208 1.827-.366 3.58-.47 5.252a74.82 74.82 0 0 0-.15 4.543c0 3.03.1 5.591.31 7.683.21 2.09.448 3.84.71 5.252.259 1.41.545 2.531.86 3.363.313.834.572 1.462.78 1.881 1.152 2.195 2.645 3.865 4.472 5.012 1.826 1.149 3.889 1.985 6.184 2.51 2.3.522 4.81.837 7.524.941 2.72.102 5.54.151 8.464.151H96.32v27.274H47.735z"/></svg>