<svg width="104" height="110" viewBox="0 0 104 110" fill="none" xmlns="http://www.w3.org/2000/svg"><path d="M1.172 82.684h60.812c2.606 0 4.276-.364 5.004-1.091.732-.732 1.1-1.517 1.1-2.351 0-1.773-.732-3.001-2.192-3.682a34.953 34.953 0 0 0-4.853-1.801L18.571 61.841c-3.242-.832-5.857-2.06-7.842-3.682C8.745 56.543 7.18 55 6.034 53.539c-2.615-3.446-4.263-7.366-4.941-11.755-.681-4.388-1.02-8.62-1.02-12.697 0-3.447.339-7.155 1.02-11.126.678-3.968 2.637-7.572 5.873-10.815C8.746 5.373 11.15 3.78 14.18 2.37 17.206.96 21.072.251 25.774.251h72.408v27.275h-55.79c-2.093 0-3.509.055-4.24.16-.728.101-1.25.254-1.562.46-1.148.628-1.72 1.622-1.72 2.982 0 1.774 1.016 3.083 3.052 3.921a44.99 44.99 0 0 0 6.193 2.032l36.989 9.875c2.4.628 5.035 1.568 7.905 2.821 2.871 1.256 5.304 2.877 7.292 4.863a20.985 20.985 0 0 1 4.072 5.712 28.008 28.008 0 0 1 2.272 6.584c.472 2.249.785 4.47.94 6.663.158 2.195.24 4.233.24 6.112 0 3.236-.264 6.843-.79 10.815-.52 3.97-2.036 7.626-4.543 10.967-1.568 2.09-3.24 3.71-5.012 4.862-1.774 1.15-3.63 1.985-5.562 2.51-1.935.522-3.87.837-5.803.94-1.93.103-3.835.152-5.714.152H1.173V82.684z"/></svg>