<svg width="133" height="83" viewBox="0 0 133 83" fill="none" xmlns="http://www.w3.org/2000/svg">
<path d="M4.28548 3.5048V0.828336L129.661 19.8098C130.682 19.9662 131.434 20.8392 131.434 21.8654V21.8663L131.536 79.0187C131.536 79.019 131.536 79.0194 131.536 79.0196C131.536 80.7351 130.143 82.1271 128.428 82.1271H17.7636C16.3866 82.1271 15.2055 81.1476 14.9541 79.8033L14.9539 79.8022L0.528954 3.63403L3.72843 4.00153L4.28548 4.06552V3.5048Z" stroke="black"/>
<path d="M22.157 61.1476H18.7422V46.8849H22.157V61.1476ZM38.9012 61.1476V46.8849H35.4864V55.7749L28.4745 46.8849H25.4125V61.1476H28.8274V52.2576L35.6116 61.1476H38.9012ZM55.4633 46.8849H52.0257L47.9165 56.4921L44.2057 46.8849H40.5404L46.2773 61.1363L49.4532 61.159L55.4405 46.8849H55.4633ZM69.1797 61.1476H65.4575L64.3761 58.6548H58.0131L56.9431 61.159H53.2437L59.6067 46.8963H62.7483L69.1797 61.1476ZM62.8963 55.2399L61.1661 51.2218L59.4587 55.2399H62.8963ZM98.149 61.159H94.4155L93.3341 58.6548H86.9597L85.8214 61.3412L82.0992 61.159L88.5533 46.8963L91.695 46.8735L98.1377 61.159H98.149ZM91.8657 55.2399L90.1241 51.2218L88.4167 55.2399H91.8657ZM82.9302 54.9098V53.1227C82.9302 49.5599 79.7316 46.8735 74.9849 46.8735H69.6691V61.3298H74.9849C79.7316 61.3298 82.9302 58.9735 82.9302 54.8985V54.9098ZM73.084 50.2998H74.9849C76.3509 50.2998 79.5153 50.8234 79.5153 53.1341V54.9212C79.5153 57.9832 76.3509 57.9377 74.9849 57.9377H73.084V50.3112V50.2998ZM30.0112 68.2506V64.8357H18.7991V65.1658H18.7422V79.1667H22.157V73.8737H28.9185V70.4588H22.157V68.2506H30.0112ZM35.6116 65.1658H32.1967V79.1781H35.6116V65.1658ZM42.3047 75.8998V65.1658H38.8899V79.1667H38.9809V79.3147H49.4304V75.8998H42.3047ZM58.3204 76.3096L62.3158 70.5954V79.1781H65.7307V65.1658H62.3727L58.3204 70.345L54.4047 65.1658H50.9215V79.1667H54.3364V70.584L58.3318 76.2982L58.3204 76.3096Z" fill="black"/>
</svg>
