<svg width="116" height="57" viewBox="0 0 116 57" fill="none" xmlns="http://www.w3.org/2000/svg">
<path d="M12.19 56.48H8.31C3.73 56.48 0.00999999 52.76 0.00999999 48.18V36.73H8.01V46.24C8.01 47.47 9.02 48.48 10.25 48.48C11.49 48.48 12.49 47.48 12.49 46.24V37.04C12.49 35.27 11.59 33.63 10.09 32.69L6.13 30.19C2.32 27.78 0 23.59 0 19.08V8.55C0 3.97 3.72 0.25 8.3 0.25H12.18C16.76 0.25 20.48 3.97 20.48 8.55V20.15H12.48V10.48C12.48 9.25 11.47 8.24 10.24 8.24C9.01 8.24 8 9.25 8 10.48V19.07C8 20.84 8.9 22.48 10.4 23.42L14.36 25.92C18.17 28.33 20.49 32.52 20.49 37.03V48.16C20.49 52.74 16.77 56.46 12.19 56.46V56.48ZM23.86 0.25V8.25H28.96V56.49H36.96V8.25H42.07V0.25H23.86ZM68.24 56.49L59.37 56.47L58.35 40.74H52.52L51.52 56.5H42.51L48.19 0.259998H62.79L68.24 56.5V56.49ZM57.63 32.73L55.53 9.09L53.27 32.73H57.63ZM71.62 56.49H79.62V33.1L85.53 33.15V53.08C85.62 54.71 85.48 55.88 86.78 56.49H94.12C93.13 55.91 93.1 54.13 93.07 52.48V38.87C93.07 33.51 90.39 29.63 84.84 28.71C89.16 27.93 92.9 27.51 93.54 22.13V10.87C93.54 5 88.79 0.25 82.92 0.25H71.63V56.49H71.62ZM79.62 8.25H82.91C84.36 8.25 85.53 9.42 85.53 10.87V22.13C85.53 23.36 84.53 24.36 83.3 24.36H79.62V8.24V8.25ZM96.49 0.25V8.25H101.8V56.49H109.8V8.25H115.11V0.25H96.49Z" fill="black"/>
</svg>
