<svg width="128" height="109" viewBox="0 0 128 109" fill="none" xmlns="http://www.w3.org/2000/svg">
<path d="M6.51497 71.9139V85.935H5.38781V79.4862H1.53293V85.935H0.405776V71.9139H1.53293V78.3627H5.38781V71.9139H6.51497ZM46.4389 83.3959V74.4418C46.4389 72.7341 45.0525 71.3522 43.3392 71.3522C41.6259 71.3522 40.2395 72.7453 40.2395 74.4418V83.3959C40.2395 85.1036 41.6259 86.4855 43.3392 86.4855C45.0525 86.4855 46.4389 85.1036 46.4389 83.3959ZM45.3117 74.4418V83.3959C45.3117 84.4857 44.4213 85.362 43.3392 85.362C42.2571 85.362 41.3667 84.4744 41.3667 83.3959V74.4418C41.3667 73.352 42.2571 72.4757 43.3392 72.4757C44.4213 72.4757 45.3117 73.3632 45.3117 74.4418ZM85.9458 78.4526L89.2371 72.1723L88.2452 71.6555L84.9764 77.8796H83.838V71.9139H82.7108V77.8796H81.9556L78.5967 71.6555L77.6048 72.1836L80.9863 78.4526L77.5935 85.6878L78.608 86.1709L81.9782 79.0031H82.7108V85.935H83.838V79.0031H84.9651L88.2226 86.1597L89.2483 85.699L85.9458 78.4526ZM125.498 75.1496V85.699H126.625V71.9252L125.532 71.7342L121.575 82.7106V71.9252H120.448V85.935L121.541 86.126L125.498 75.1496ZM4.22684 100.068H0V107.27H0.845368V100.911H3.38147V107.27H4.22684V100.068ZM11.5984 102.405C11.5984 103.686 10.5502 104.742 9.26523 104.742H8.57767V107.27H7.7323V100.068H9.26523C10.5502 100.068 11.5984 101.113 11.5984 102.405ZM10.7531 102.405C10.7531 101.585 10.0881 100.911 9.26523 100.911H8.57767V103.899H9.26523C10.0881 103.899 10.7531 103.225 10.7531 102.405ZM55.4561 104.821H56.1324C57.4287 104.821 58.4769 103.776 58.4769 102.484C58.4769 101.192 57.4287 100.147 56.1324 100.147H54.6108V107.348H55.4561V104.821ZM55.4561 101.001H56.1324C56.9553 101.001 57.6316 101.675 57.6316 102.495C57.6316 103.315 56.9553 103.989 56.1324 103.989H55.4561V101.012V101.001ZM124.979 104.596H125.656C126.952 104.596 128 103.551 128 102.259C128 100.967 126.952 99.9223 125.656 99.9223H124.134V107.124H124.979V104.596ZM124.979 100.776H125.656C126.478 100.776 127.155 101.45 127.155 102.27C127.155 103.09 126.478 103.765 125.656 103.765H124.979V100.787V100.776ZM19.3307 105.124V102.36C19.3307 101.102 18.305 100.08 17.0426 100.08C15.7802 100.08 14.7545 101.102 14.7545 102.36V105.124C14.7545 106.382 15.7802 107.405 17.0426 107.405C18.305 107.405 19.3307 106.382 19.3307 105.124ZM18.4854 102.36V105.124C18.4854 105.91 17.8429 106.562 17.0426 106.562C16.2423 106.562 15.5999 105.922 15.5999 105.124V102.36C15.5999 101.574 16.2423 100.922 17.0426 100.922C17.8429 100.922 18.4854 101.563 18.4854 102.36ZM27.8521 106.337V109H27.0067V107.393H22.7122V109H21.8669V106.551H22.7686C23.7605 104.585 23.8056 102.765 23.8732 100.495V100.08H27.2209V106.337H27.8521ZM23.7041 106.551H26.3755V100.922H24.7073C24.6509 102.911 24.5495 104.686 23.7041 106.551ZM37.5569 102.371V105.102C37.5569 106.36 36.5312 107.393 35.2575 107.393C33.9838 107.393 32.9581 106.36 32.9581 105.102V103.776H31.6731V106.966H30.8278V100.506H31.6731V102.933H32.9581V102.371C32.9581 101.113 33.9838 100.08 35.2575 100.08C36.5312 100.08 37.5569 101.113 37.5569 102.371ZM36.7115 102.371C36.7115 101.574 36.069 100.922 35.2575 100.922C34.4459 100.922 33.8035 101.574 33.8035 102.371V105.102C33.8035 105.899 34.4572 106.551 35.2575 106.551C36.0578 106.551 36.7115 105.899 36.7115 105.102V102.371ZM45.7513 106.933L45.1765 106.315C44.8609 106.607 44.5678 106.742 44.2635 106.742C43.1814 106.742 42.3135 105.865 42.3135 104.798V102.416C42.3135 101.742 42.8658 101.181 43.5534 101.181H44.7932V100.338H43.5534C42.4037 100.338 41.4681 101.27 41.4681 102.416V104.798C41.4681 106.337 42.7193 107.584 44.2747 107.584C44.7932 107.584 45.2779 107.36 45.7513 106.933ZM65.5104 106.798L64.9355 106.18C64.6199 106.472 64.3269 106.607 64.0225 106.607C62.9405 106.607 62.0726 105.731 62.0726 104.663V102.282C62.0726 101.607 62.6249 101.046 63.3124 101.046H64.5523V100.203H63.3124C62.1627 100.203 61.2272 101.136 61.2272 102.282V104.663C61.2272 106.203 62.4783 107.45 64.0338 107.45C64.5636 107.45 65.037 107.225 65.5104 106.798ZM51.2293 100.922V100.08H48.1409V107.584H51.2293V106.742H48.9863V104.158H50.7446V103.315H48.9863V100.922H51.2293ZM106.64 100.821V99.9784H103.552V107.483H106.64V106.641H104.397V104.057H106.156V103.214H104.397V100.821H106.64ZM69.726 103.72L72.093 100.765L71.428 100.237L69.2526 102.956V100.506H68.4072V107.382H69.2526V104.461L71.9915 107.45L72.6228 106.888L69.726 103.72ZM79.0025 102.349V107.382H79.8478V100.506H79.025L76.5115 105.54V100.506H75.6661V107.382H76.4776L79.0025 102.349ZM86.9827 102.248V107.281H87.8281V100.405H87.0053L84.4917 105.439V100.405H83.6464V107.281H84.4579L86.9827 102.248ZM84.5819 98.5292C85.3596 99.6077 86.1261 99.6077 86.9038 98.5292H84.5819ZM99.3138 106.742V100.506H98.4685V106.742H96.2592V100.506H95.4139V107.584H99.3815V108.933H100.227V106.742H99.3138ZM113.11 100.506V103.416H110.822V100.506H109.977V107.169H110.822V104.259H113.11V107.169H113.956V100.506H113.11ZM117.191 100.08V100.922H118.859V107.393H119.704V100.922H121.372V100.08H117.191ZM15.0926 93.1814H30.9517C31.5379 68.9592 32.2592 44.2763 28.2917 34.7605C17.764 44.7594 15.6111 78.9244 15.0926 93.1814ZM52.9651 0L52.7284 0.53927C49.2568 8.52721 47.397 17.1106 47.2279 25.8176L46.6192 58.4097C52.2663 59.14 57.2483 64.4316 57.5527 69.3299L59.1307 93.1814H67.528C64.1803 53.3765 60.4269 15.8635 52.9651 0ZM96.4847 23.7391C95.2448 45.6133 95.9436 68.9479 97.8147 93.1814H106.64L106.685 92.6983C107.001 89.0695 109.74 86.1147 113.347 85.5193C109.887 57.7469 104.983 34.7492 96.4959 23.7391H96.4847Z" fill="black"/>
</svg>
