<svg width="178" height="63" viewBox="0 0 178 63" fill="none" xmlns="http://www.w3.org/2000/svg">
<path d="M44.62 11.56H14.62L4.62 1.56H54.62L44.62 11.56ZM4.62 58.8H54.62L44.62 48.8H14.62L4.62 58.8ZM1 5.18V55.18L11 45.18V15.18L1 5.18ZM58.24 55.18V5.18L48.24 15.18V45.18L58.24 55.18ZM79.24 9.68C79.24 8.8 78.94 7.98 78.44 7.33C78.94 6.68 79.24 5.86 79.24 4.98C79.24 2.86 77.51 1.13 75.39 1.13H69.52V13.54H75.39C77.51 13.54 79.24 11.81 79.24 9.69V9.68ZM72.51 8.83H75.38C75.85 8.83 76.23 9.21 76.23 9.68C76.23 10.15 75.85 10.53 75.38 10.53H72.51V8.83ZM72.51 4.13H75.38C75.85 4.13 76.23 4.51 76.23 4.98C76.23 5.45 75.85 5.83 75.38 5.83H72.51V4.13ZM75.38 24.97H69.51V37.38H75.38C77.5 37.38 79.23 35.65 79.23 33.53C79.23 32.65 78.93 31.83 78.43 31.18C78.93 30.53 79.23 29.71 79.23 28.83C79.23 26.71 77.5 24.98 75.38 24.98V24.97ZM72.51 27.97H75.38C75.85 27.97 76.23 28.35 76.23 28.82C76.23 29.29 75.85 29.67 75.38 29.67H72.51V27.97ZM72.51 32.67H75.38C75.85 32.67 76.23 33.05 76.23 33.52C76.23 33.99 75.85 34.37 75.38 34.37H72.51V32.67ZM87.63 10.54H83.57V1.56H80.57V13.54H87.63V10.54ZM96.64 11.64H91.84L91.27 13.12L88.47 13.17L92.71 1.03L95.5 1L100.03 13.14L97.26 13.16L96.64 11.65V11.64ZM95.41 8.64L94.17 5.62L93.01 8.64H95.42H95.41ZM111.01 10.7L108.42 9.18C107.82 10.2 106.71 10.83 105.53 10.83C103.68 10.83 102.18 9.33 102.18 7.48C102.18 5.63 103.68 4.13 105.53 4.13C106.56 4.13 107.52 4.59 108.16 5.4L110.51 3.54C109.3 2.01 107.48 1.13 105.53 1.13C102.03 1.13 99.18 3.98 99.18 7.48C99.18 10.98 102.03 13.83 105.53 13.83C107.77 13.83 109.87 12.63 111 10.7H111.01ZM138.4 58.09L135.81 56.57C135.21 57.59 134.1 58.22 132.92 58.22C131.07 58.22 129.57 56.72 129.57 54.87C129.57 53.02 131.07 51.52 132.92 51.52C133.95 51.52 134.91 51.98 135.55 52.79L137.9 50.93C136.69 49.4 134.87 48.52 132.92 48.52C129.42 48.52 126.57 51.37 126.57 54.87C126.57 58.37 129.42 61.22 132.92 61.22C135.16 61.22 137.26 60.02 138.39 58.09H138.4ZM121.45 1.9L117.64 1.71L114.59 5.21V1.56H111.59V13.01H114.59V9.77L114.77 9.57L118.19 13.16H121.67L116.76 7.29L121.45 1.91V1.9ZM104.17 37.15L99.43 30.8L103.71 25.13H100.25L97.58 28.24L94.93 25.13H91.56L95.73 30.8L91.25 37.16H94.67L97.59 33.36L100.61 37.16H104.18L104.17 37.15ZM92.27 31.05C92.27 27.52 89.56 24.65 86.24 24.65C82.92 24.65 80.21 27.52 80.21 31.05C80.21 34.58 82.92 37.45 86.24 37.45C89.56 37.45 92.27 34.58 92.27 31.05ZM89.27 31.05C89.27 32.92 87.91 34.45 86.24 34.45C84.57 34.45 83.21 32.93 83.21 31.05C83.21 29.17 84.57 27.65 86.24 27.65C87.91 27.65 89.27 29.17 89.27 31.05ZM164.59 55.18C164.59 51.65 161.88 48.78 158.56 48.78C155.24 48.78 152.53 51.65 152.53 55.18C152.53 58.71 155.24 61.58 158.56 61.58C161.88 61.58 164.59 58.71 164.59 55.18ZM161.59 55.18C161.59 57.05 160.23 58.58 158.56 58.58C156.89 58.58 155.53 57.06 155.53 55.18C155.53 53.3 156.89 51.78 158.56 51.78C160.23 51.78 161.59 53.3 161.59 55.18ZM102.06 54.87C102.06 51.34 99.35 48.47 96.03 48.47C92.71 48.47 90 51.34 90 54.87C90 58.4 92.71 61.27 96.03 61.27C99.35 61.27 102.06 58.4 102.06 54.87ZM99.06 54.87C99.06 56.74 97.7 58.27 96.03 58.27C94.36 58.27 93 56.75 93 54.87C93 52.99 94.36 51.47 96.03 51.47C97.7 51.47 99.06 52.99 99.06 54.87ZM72.52 56.77H74.37C76.57 56.77 78.36 54.98 78.36 52.78C78.36 50.58 76.57 48.79 74.37 48.79H69.52V60.23H72.52V56.76V56.77ZM72.52 51.8H74.37C74.91 51.8 75.36 52.24 75.36 52.79C75.36 53.34 74.92 53.78 74.37 53.78H72.52V51.81V51.8ZM86.88 56.29L89.46 60.71H86.14L83.63 56.68H83.2V60.24H80.2V48.8H85.2C87.37 48.8 89.14 50.57 89.14 52.74C89.14 54.31 88.21 55.66 86.88 56.29ZM83.21 53.68H85.21C85.73 53.68 86.15 53.26 86.15 52.74C86.15 52.22 85.73 51.8 85.21 51.8H83.21V53.68ZM114.16 54.76C114.16 51.48 111.49 48.81 108.21 48.81H102.92V60.72H108.21C111.49 60.72 114.16 58.05 114.16 54.77V54.76ZM105.92 51.81H108.21C109.84 51.81 111.16 53.14 111.16 54.76C111.16 56.38 109.83 57.71 108.21 57.71H105.92V51.8V51.81ZM125.75 55.31V49.17H122.75V55.31C122.75 56.64 121.67 57.72 120.34 57.72C119.01 57.72 117.93 56.64 117.93 55.31V49.17H114.93V55.31C114.93 58.29 117.35 60.72 120.34 60.72C123.33 60.72 125.75 58.3 125.75 55.31ZM147.16 48.81H138.27V51.81H141.21V60.56H144.21V51.81H147.15V48.81H147.16ZM151.37 49.17H148.37V60.56H151.37V49.17ZM176.41 60.56V49.17H173.41V55.65L168.82 49.17H165.75V60.58H168.75V54.09L173.11 60.57H176.42L176.41 60.56Z" stroke="black" stroke-miterlimit="10"/>
</svg>
