<svg width="112" height="73" viewBox="0 0 112 73" fill="none" xmlns="http://www.w3.org/2000/svg">
<path d="M64.06 69.624L63.49 72.404H48.53L49.22 71.284C49.51 70.804 49.67 70.254 49.66 69.694L49.53 44.664C49.53 44.034 49.32 43.414 48.95 42.904L48.53 42.334H52.95L52.69 42.674C52.3 43.194 52.09 43.824 52.09 44.474V68.974C52.09 70.314 53.18 71.404 54.52 71.404H61.22C62.16 71.404 63.04 70.964 63.61 70.224L64.06 69.624ZM15.11 29.454C14.53 30.224 13.62 30.674 12.66 30.674H6.81C5.01 30.674 3.55 29.234 3.53 27.434L3.25 4.03401C3.24 3.18401 3.59 2.37401 4.21 1.80401L4.43 1.60401H0L0.22 1.82401C0.78 2.38401 1.1 3.15401 1.1 3.94401L1.14 28.964C1.14 29.524 0.99 30.064 0.69 30.544L0 31.674H14.96L15.53 28.894L15.1 29.464L15.11 29.454ZM32.27 30.734L26.93 30.694C25.38 30.684 24.12 29.414 24.12 27.864V16.064H31.5C32.1 16.064 32.67 16.334 33.05 16.804L33.38 17.204V14.284L33.2 14.534C32.82 15.044 32.22 15.354 31.59 15.354H24.12V2.31401L31.56 2.19401C32.63 2.17401 33.62 2.77401 34.1 3.73401L34.03 1.52401H20.71L21.08 1.96401C21.39 2.32401 21.56 2.78401 21.56 3.26401V29.264C21.56 29.764 21.43 30.264 21.19 30.704L20.7 31.604H34.17L35.17 29.394L34.04 30.184C33.52 30.544 32.91 30.744 32.27 30.734ZM34.08 71.534L28.9 71.494C27.25 71.484 25.92 70.144 25.92 68.494V56.864H33.3C33.9 56.864 34.47 57.134 34.85 57.604L35.18 58.004V55.084L35 55.334C34.62 55.844 34.02 56.154 33.39 56.154H25.92V43.114L33.37 43.144C34.38 43.144 35.31 43.654 35.86 44.494L35.89 44.534L35.82 42.324H22.5L22.87 42.764C23.18 43.124 23.35 43.584 23.35 44.064V70.064C23.35 70.564 23.22 71.064 22.98 71.504L22.49 72.404H35.96L36.96 70.194L35.82 70.994C35.31 71.354 34.7 71.544 34.07 71.544L34.08 71.534ZM71.11 1.98401C71.36 2.43401 71.5 2.94401 71.5 3.45401V29.244C71.5 29.664 71.41 30.084 71.24 30.474L70.86 31.314H74.99L74.66 30.714C74.41 30.264 74.28 29.764 74.28 29.254V3.47401C74.28 2.81401 74.5 2.17401 74.9 1.64401L74.99 1.52401H70.86L71.12 1.98401H71.11ZM73.18 43.074C73.43 43.524 73.57 44.034 73.57 44.544V70.334C73.57 70.754 73.48 71.174 73.31 71.564L72.93 72.404H77.06L76.73 71.804C76.48 71.354 76.35 70.854 76.35 70.344V44.564C76.35 43.904 76.57 43.264 76.97 42.734L77.06 42.614H72.93L73.19 43.074H73.18ZM111.86 16.564C111.86 25.244 104.83 32.274 96.15 32.274C87.47 32.274 80.44 25.244 80.44 16.564C80.44 7.88401 87.47 0.854011 96.15 0.854011C104.83 0.854011 111.86 7.88401 111.86 16.564ZM109.11 16.564C109.11 8.22401 103.31 1.45401 96.15 1.45401C88.99 1.45401 83.19 8.21401 83.19 16.564C83.19 24.914 88.99 31.674 96.15 31.674C103.31 31.674 109.11 24.914 109.11 16.564ZM1.2 42.324C1.76 42.884 2.08 43.654 2.08 44.444V70.204C2.08 70.934 1.81 71.644 1.33 72.194L1.15 72.394H5.71L5.53 72.194C5.05 71.644 4.78 70.934 4.78 70.204V56.654H11.81C12.84 56.654 13.81 57.184 14.35 58.064L14.5 58.314V55.514H4.77V43.194H12.74C13.83 43.194 14.83 43.784 15.36 44.734L15.54 45.054V42.254H1.15L1.2 42.304V42.324ZM106.97 70.084L98.83 56.124L106.26 44.574C106.45 44.284 106.69 44.024 106.97 43.804L108.57 42.594H104.52L104.66 43.184C104.84 43.964 104.7 44.794 104.27 45.474L98.19 55.024L92.26 44.854C91.86 44.164 91.82 43.314 92.17 42.604H86.94L88.6 43.534C89.07 43.794 89.46 44.184 89.73 44.644L96.93 57.014L88.73 69.894C88.73 69.894 88.67 69.984 88.64 70.024L86.94 72.404H90.08L89.91 71.584C89.75 70.814 89.9 70.014 90.33 69.354L97.57 58.104L104.54 70.074C104.77 70.464 104.9 70.894 104.94 71.344L105.03 72.404H109.22L107.49 70.734C107.29 70.544 107.12 70.324 106.98 70.084H106.97ZM61.93 28.844C61.93 29.104 61.8 29.344 61.58 29.484C58.81 31.334 57.79 30.954 54.35 30.954C47.19 30.954 41.1 24.484 41.1 16.144C41.1 7.80401 46.6 1.46401 53.76 1.46401C57.94 1.46401 62.66 2.77401 65.03 6.35401L64.96 2.30401C61.87 1.29401 58.61 0.764011 54.63 0.704011C45.93 0.574011 38.39 7.26401 38.15 15.964C37.91 24.844 45.03 32.114 53.85 32.114C59.97 32.114 61.53 31.694 65.03 29.984V19.174C65.03 18.774 65.15 18.394 65.37 18.064L66.03 17.084H60.98L61.65 18.064C61.88 18.404 62 18.804 62 19.214L61.93 28.844Z" fill="black"/>
</svg>
