<svg width="99" height="77" viewBox="0 0 99 77" fill="none" xmlns="http://www.w3.org/2000/svg">
<path d="M37.1776 20.5188L36.7089 20.3449C35.1343 24.5878 34.8263 29.3874 35.1788 34.4734L35.1793 34.4803C35.2526 35.3597 36.5069 35.5558 36.7931 34.6735C38.5856 29.2265 40.7787 24.5071 43.8071 21.1857L43.8073 21.1855C45.6697 19.1407 48.2068 17.7847 50.9473 17.3424L50.9489 17.3422C53.3513 16.9464 56.152 16.2099 59.0994 15.3427C50.7271 24.7898 45.845 34.4681 44.1312 44.3559C42.3756 54.4852 43.9521 64.7938 48.4483 75.2464L48.4504 75.2511C48.537 75.447 48.399 75.6488 48.1976 75.6488H42.0676C41.0624 75.6488 40.1016 75.2027 39.4918 74.4212L39.4904 74.4194C27.6977 59.4457 24.6593 41.7399 28.2695 21.9184L28.3035 21.7318C28.4404 21.3876 28.7623 21.1267 29.1445 21.0743C29.1447 21.0743 29.1449 21.0743 29.1452 21.0742L36.4843 20.0843C36.4844 20.0843 36.4844 20.0843 36.4845 20.0843C36.6443 20.0629 36.7539 20.2222 36.7083 20.3464L37.1776 20.5188ZM37.1776 20.5188C37.3576 20.0288 36.9376 19.5188 36.4176 19.5888L35.6776 34.4388C35.3276 29.3888 35.6376 24.6688 37.1776 20.5188ZM95.4362 60.391L95.4358 60.3908C92.0962 58.4443 88.3394 56.8619 84.0242 55.7533C82.5965 55.3924 81.8933 53.7747 82.5985 52.4797L82.5996 52.4776C83.0859 51.5947 84.112 51.1273 85.0982 51.3736C88.8927 52.3021 92.568 53.6348 96.0928 55.4124L96.0931 55.4126C96.7065 55.7226 97.4599 55.3038 97.5195 54.6157L97.5195 54.6153C97.6987 52.5641 97.8282 50.4828 97.9079 48.3713C97.9384 47.5016 97.265 46.7586 96.4023 46.6976L96.4018 46.6975C92.5092 46.4181 88.8218 46.2488 85.4276 46.2488C84.2856 46.2488 83.3476 45.3291 83.3476 44.1788C83.3476 43.0726 84.2265 42.1523 85.3235 42.0994L85.325 42.0993C89.3053 41.9189 93.1365 41.8687 96.8484 41.9489L96.8487 41.9489C97.4722 41.9628 97.9712 41.4669 97.9577 40.8599L97.9577 40.8592C97.9178 38.9448 97.8481 37.0122 97.7286 35.0508C97.7043 34.6845 97.4092 34.3952 97.0631 34.3782L97.0604 34.3781C92.8687 34.1496 88.5926 34.2785 84.2499 34.647C76.7524 35.3007 70.2749 40.2531 67.8407 47.3706L67.8405 47.3713C66.9687 49.9074 66.296 52.4902 65.861 55.1301L65.8605 55.1326C65.7361 55.8648 66.1944 56.5785 66.9447 56.8109C66.9449 56.811 66.9451 56.8111 66.9454 56.8111L66.7976 57.2888C75.3576 59.9088 83.8876 63.8688 92.3776 68.9788L95.4362 60.391ZM95.4362 60.391C96.2459 60.862 96.6896 61.7632 96.5439 62.6695L96.5437 62.6708C96.3044 64.1865 96.0456 65.6892 95.7475 67.1701L95.7473 67.1707C95.4649 68.583 93.8675 69.2911 92.6355 68.5504L95.4362 60.391ZM98.4576 40.8488C98.4776 41.7488 97.7376 42.4688 96.8376 42.4488C93.1376 42.3688 89.3176 42.4188 85.3476 42.5988L98.4576 40.8488ZM98.4576 40.8488C98.4176 38.9288 98.3476 36.9888 98.2276 35.0188L98.4576 40.8488ZM21.3176 21.2288C21.7267 21.2288 22.0572 21.5372 22.1015 21.9274L22.6076 47.4288L22.1097 47.4747C22.1098 47.4751 22.1098 47.4754 22.1098 47.4758C22.1528 47.9494 21.7859 48.3488 21.3276 48.3488H15.6876C15.2932 48.3488 14.9528 48.0573 14.8914 47.6704L14.8909 47.6672C14.4119 44.7731 14.0948 42.6609 13.8865 39.9552C13.8587 39.5001 13.478 39.1488 13.0276 39.1488H9.57762C9.10732 39.1488 8.73209 39.5579 8.77969 40.0249C8.98138 42.6331 9.28407 44.6389 9.7443 47.4103C9.82457 47.8992 9.44546 48.3388 8.96762 48.3388H3.23762C2.89624 48.3388 2.59578 48.1305 2.49011 47.8253L2.48966 47.824C0.251597 41.4154 -0.54784 30.3533 2.48911 21.7352C2.59572 21.4332 2.90096 21.2188 3.23762 21.2188H8.87762C9.37968 21.2188 9.76317 21.6863 9.65828 22.1861L9.65808 22.1871C9.1203 24.7745 8.92873 27.1144 8.7883 29.8027L8.78824 29.8027L8.78796 29.8103C8.76808 30.3471 9.18808 30.8288 9.75762 30.8288H12.8876C13.4398 30.8288 13.8485 30.396 13.8863 29.8857L13.8864 29.8858L13.887 29.873C14.0265 26.9944 14.2447 24.5273 14.8455 21.8482L14.8459 21.8464C14.9239 21.4925 15.2552 21.2288 15.6276 21.2288H21.3176ZM98.1076 28.7437V28.7488C98.1076 29.3687 97.5932 29.8947 96.9466 29.9089L96.9458 29.9089L85.0758 30.1889L85.0756 30.1889C75.7084 30.4137 67.4635 36.1383 64.5129 45.0618L64.5129 45.062L61.5129 54.1419L61.5121 54.1443C61.3322 54.6979 60.7575 55.0231 60.1905 54.8917L60.1878 54.8911L49.0778 52.3811L49.0754 52.3806C48.5523 52.2651 48.186 51.7731 48.226 51.2294C49.2576 39.5121 53.5168 29.0178 61.708 19.9847L61.7081 19.9845C65.9957 15.2524 71.3506 11.577 77.3084 9.26496C82.962 7.07195 88.1255 4.35092 92.6105 0.936647L92.3076 0.538808L92.6105 0.936642C93.8699 -0.0221236 95.6925 0.683377 95.9654 2.21643L95.9656 2.21768C97.5992 11.2624 98.1974 20.0106 98.1076 28.7437ZM87.9439 15.6683L87.9428 15.6684C87.832 14.7742 86.9338 14.1347 86.0409 14.4108C79.9871 16.2482 75.1704 18.7809 72.7196 22.5144L72.7195 22.5144L72.7136 22.5238C72.5367 22.8069 72.5966 23.1271 72.7653 23.3337C72.9292 23.5345 73.2132 23.6534 73.5114 23.5706L73.5235 23.5672L73.5354 23.5632C78.403 21.944 82.8899 20.7571 86.4173 20.6887C87.2353 20.6733 87.8316 20.0385 87.9423 19.2921L87.943 19.2864C88.0994 18.1393 88.0985 16.936 87.9439 15.6683Z" stroke="black"/>
</svg>
