<svg width="115" height="50" viewBox="0 0 115 50" fill="none" xmlns="http://www.w3.org/2000/svg">
<path d="M79.26 4.4502L69.98 30.2702L55.8 31.9302C56.16 31.6602 56.53 31.3602 56.94 31.0202C57.59 30.4702 58.24 29.8802 58.91 29.2602C59.57 28.6302 60.24 27.9702 60.92 27.2802C61.6 26.5902 62.22 25.9002 62.8 25.2202C63.55 24.3302 64.19 23.5102 64.73 22.7502C65.26 21.9902 65.7 21.2502 66.03 20.5402C66.36 19.8202 66.61 19.1002 66.77 18.3802C66.93 17.6602 67.01 16.8802 67.01 16.0502C67.01 14.8502 66.75 13.7902 66.23 12.8802C65.71 11.9702 65.01 11.2002 64.13 10.5902C63.25 9.9802 62.24 9.5102 61.1 9.2002C59.96 8.89019 58.77 8.73019 57.53 8.73019C55.6 8.73019 53.26 8.7802 50.5 11.1002C48.74 12.5702 47.43 15.8302 47.43 17.7002L52.67 17.6402C52.87 16.3002 53.67 14.6402 54.42 14.1502C55.26 13.6002 55.79 13.4402 56.83 13.4402C57.61 13.4402 57.52 13.4202 58.26 13.5702C58.93 13.7102 59.46 14.0902 59.93 14.4702C60.39 14.8502 60.75 15.2902 61.01 15.7802C61.27 16.2802 61.4 16.7902 61.4 17.3102C61.4 18.0402 61.28 18.7502 61.05 19.4502C60.82 20.1402 60.47 20.8502 59.99 21.5702C59.51 22.2902 58.91 23.0502 58.17 23.8602C57.43 24.6702 56.58 25.5702 55.59 26.5602C54.9 27.2702 54.19 27.9402 53.47 28.6002C52.75 29.2502 52.06 29.8502 51.42 30.4002C50.77 30.9502 50.19 31.4402 49.67 31.8702C49.21 32.2502 48.84 32.5502 48.52 32.8002L35.76 34.2902L45.04 8.4702L79.28 4.4602L79.26 4.4502ZM102.72 25.7002C102.38 25.1802 101.92 24.7702 101.33 24.4602C100.74 24.1602 100.03 23.9402 99.2 23.8102C98.37 23.6802 97.47 23.6202 96.5 23.6202H94.25V20.8702L101.01 13.0102H90.83V8.80019H107.25V12.2902L100.17 19.9902H101.1C102.04 19.9902 102.95 20.1402 103.84 20.4502C104.73 20.7602 105.51 21.2202 106.19 21.8302C106.87 22.4402 107.42 23.2102 107.84 24.1302C108.07 24.6402 108.23 25.1902 108.33 25.7902L114.3 25.0902L111.44 0.700195L86.73 3.59019L77.45 29.4102L103.04 26.4102C102.96 26.1602 102.86 25.9202 102.72 25.7102V25.7002ZM17.24 11.7202L0 13.7402L2.86 38.1302L17.24 36.4402V11.7102V11.7202ZM22.24 11.1302V35.8602L28.27 35.1502L37.55 9.3302L22.24 11.1202V11.1302ZM4.23 47.8302H4.84C6.17 47.8302 7.25 46.7502 7.25 45.4202C7.25 44.0902 6.17 43.0102 4.84 43.0102H2.23V49.2202H4.23V47.8202V47.8302ZM4.23 45.0102H4.84C5.06 45.0102 5.25 45.1902 5.25 45.4202C5.25 45.6502 5.07 45.8302 4.84 45.8302H4.23V45.0102ZM18.1 46.9902L19.14 49.2202H16.82L16.04 47.5902H15.87V49.2202H13.87V43.0102H16.57C17.83 43.0102 18.86 44.0402 18.86 45.3002C18.86 45.9702 18.57 46.5702 18.1 46.9902ZM15.87 45.5902H16.57C16.73 45.5902 16.86 45.4602 16.86 45.3002C16.86 45.1402 16.73 45.0102 16.57 45.0102H15.87V45.6002V45.5902ZM31.82 46.1702V46.0402C31.82 44.3602 30.46 43.0002 28.78 43.0002C27.1 43.0002 25.74 44.3602 25.74 46.0402V46.1702C25.74 47.8502 27.1 49.2102 28.78 49.2102C30.46 49.2102 31.82 47.8502 31.82 46.1702ZM29.82 46.0402V46.1702C29.82 46.7402 29.35 47.2102 28.78 47.2102C28.21 47.2102 27.74 46.7402 27.74 46.1702V46.0402C27.74 45.4702 28.21 45.0002 28.78 45.0002C29.35 45.0002 29.82 45.4702 29.82 46.0402ZM101.82 46.3602V46.2302C101.82 44.5502 100.46 43.1902 98.78 43.1902C97.1 43.1902 95.74 44.5502 95.74 46.2302V46.3602C95.74 48.0402 97.1 49.4002 98.78 49.4002C100.46 49.4002 101.82 48.0402 101.82 46.3602ZM99.82 46.2302V46.3602C99.82 46.9302 99.35 47.4002 98.78 47.4002C98.21 47.4002 97.74 46.9302 97.74 46.3602V46.2302C97.74 45.6602 98.21 45.1902 98.78 45.1902C99.35 45.1902 99.82 45.6602 99.82 46.2302ZM44.53 46.1002C44.53 44.3902 43.14 42.9902 41.42 42.9902H38.6V49.2002H41.42C43.13 49.2002 44.53 47.8102 44.53 46.0902V46.1002ZM40.6 44.9902H41.42C42.03 44.9902 42.53 45.4902 42.53 46.1002C42.53 46.7102 42.03 47.2102 41.42 47.2102H40.6V45.0002V44.9902ZM56.47 46.4302V43.3902H54.47V46.4302C54.47 46.8602 54.12 47.2002 53.7 47.2002C53.28 47.2002 52.93 46.8502 52.93 46.4302V43.3902H50.93V46.4302C50.93 47.9602 52.17 49.2002 53.7 49.2002C55.23 49.2002 56.47 47.9602 56.47 46.4302ZM68.38 47.1302L66.43 46.6702C66.36 46.9902 66.08 47.2102 65.75 47.2102C65.37 47.2102 65.05 46.9002 65.05 46.5102V45.6902C65.05 45.3102 65.36 44.9902 65.75 44.9902C66.07 44.9902 66.35 45.2102 66.43 45.5202L68.38 45.0602C68.09 43.8402 67.01 42.9802 65.76 42.9802C64.27 42.9802 63.06 44.1902 63.06 45.6802V46.5002C63.06 47.9902 64.27 49.2002 65.76 49.2002C67.02 49.2002 68.1 48.3502 68.38 47.1202V47.1302ZM79.66 43.1802H75.34V44.9902H76.5V49.2002H78.5V44.9902H79.66V43.1802ZM88.9 43.1802H86.9V49.2002H88.9V43.1802ZM114.09 49.3902V43.1802H112.09V45.2502L110.53 43.1802H108.67V49.3902H110.67V46.7202L112.23 49.3902H114.1H114.09Z" fill="black"/>
</svg>
