<svg width="99" height="100" viewBox="0 0 99 100" fill="none" xmlns="http://www.w3.org/2000/svg">
<path d="M86.99 91.5H51.39V77.9276C68.2255 77.0341 81.7262 63.3894 82.4292 46.4793C83.5445 45.8007 84.31 44.582 84.31 43.16C84.31 41.0139 82.5661 39.27 80.42 39.27C78.2738 39.27 76.53 41.0139 76.53 43.16C76.53 44.7794 77.5237 46.1514 78.9225 46.7349C78.0703 62.1786 65.296 74.48 49.65 74.48C33.992 74.48 21.1614 62.1107 20.3746 46.6113C21.6199 45.9605 22.47 44.6637 22.47 43.16C22.47 41.0139 20.7261 39.27 18.58 39.27C16.4339 39.27 14.69 41.0139 14.69 43.16C14.69 44.6952 15.581 46.021 16.8734 46.6527C17.6514 63.4875 31.1256 77.0355 47.9 77.9276V91.5H12C9.51614 91.5 7.5 89.4839 7.5 87V12C7.5 9.51614 9.51614 7.5 12 7.5H86.99C89.4739 7.5 91.49 9.51614 91.49 12V87C91.49 89.4839 89.4739 91.5 86.99 91.5ZM87 0.51H87.4843C93.6133 0.763593 98.5 5.80838 98.5 12V87.01C98.5 93.3638 93.3539 98.51 87 98.51H12C5.64614 98.51 0.5 93.3638 0.5 87.01V12.01C0.5 5.65614 5.64614 0.51 12 0.51H87ZM23.86 45.36C23.86 59.7361 35.5139 71.39 49.89 71.39C64.2661 71.39 75.92 59.7361 75.92 45.36C75.92 30.9839 64.2661 19.33 49.89 19.33C35.5139 19.33 23.86 30.9839 23.86 45.36ZM64.96 45.36C64.96 53.6839 58.2139 60.43 49.89 60.43C41.5661 60.43 34.82 53.6839 34.82 45.36C34.82 37.0361 41.5661 30.29 49.89 30.29C58.2139 30.29 64.96 37.0361 64.96 45.36ZM87 95.51C91.6961 95.51 95.5 91.7061 95.5 87.01V87V12C95.5 7.30386 91.6961 3.5 87 3.5H12C7.30386 3.5 3.5 7.30386 3.5 12V87.01C3.5 91.7061 7.30386 95.51 12 95.51H87Z" stroke="black"/>
</svg>
