<svg width="99" height="100" viewBox="0 0 99 100" fill="none" xmlns="http://www.w3.org/2000/svg">
<path d="M87 7.00977H12C9.24 7.00977 7 9.24977 7 12.0098V87.0098C7 89.7698 9.24 92.0098 12 92.0098H48.4V77.4598C31.56 76.8098 17.98 63.2098 17.36 46.3298C16.09 45.8398 15.19 44.6098 15.19 43.1698C15.19 41.2998 16.71 39.7798 18.58 39.7798C20.45 39.7798 21.97 41.2998 21.97 43.1698C21.97 44.5898 21.1 45.7998 19.86 46.3098C20.49 62.2298 33.61 74.9898 49.65 74.9898C65.69 74.9898 78.76 62.2798 79.44 46.3998C78.05 45.9798 77.03 44.6998 77.03 43.1698C77.03 41.2998 78.55 39.7798 80.42 39.7798C82.29 39.7798 83.81 41.2998 83.81 43.1698C83.81 44.4998 83.04 45.6298 81.94 46.1898C81.38 63.1298 67.78 76.8098 50.89 77.4598V92.0098H86.99C89.75 92.0098 91.99 89.7698 91.99 87.0098V12.0098C91.99 9.24977 89.75 7.00977 86.99 7.00977H87ZM49.89 70.8998C35.79 70.8998 24.36 59.4698 24.36 45.3698C24.36 31.2698 35.79 19.8398 49.89 19.8398C63.99 19.8398 75.42 31.2698 75.42 45.3698C75.42 59.4698 63.99 70.8998 49.89 70.8998ZM65.46 45.3698C65.46 53.9698 58.49 60.9398 49.89 60.9398C41.29 60.9398 34.32 53.9698 34.32 45.3698C34.32 36.7698 41.29 29.7998 49.89 29.7998C58.49 29.7998 65.46 36.7698 65.46 45.3698ZM87 0.0197659H12C5.37 0.0197659 0 5.38977 0 12.0198V87.0198C0 93.6498 5.37 99.0198 12 99.0198H87C93.63 99.0198 99 93.6498 99 87.0198V12.0098C99 5.37977 93.63 0.00976562 87 0.00976562V0.0197659ZM95 87.0198C95 91.4398 91.42 95.0198 87 95.0198H12C7.58 95.0198 4 91.4398 4 87.0198V12.0098C4 7.58977 7.58 4.00977 12 4.00977H87C91.42 4.00977 95 7.58977 95 12.0098V87.0098V87.0198Z" fill="black"/>
</svg>
