<svg width="147" height="48" viewBox="0 0 147 48" fill="none" xmlns="http://www.w3.org/2000/svg">
<path d="M16.9 15.1218H0.5V6.4553C0.5 3.16812 3.16811 0.5 6.4553 0.5H41.8949C45.1821 0.5 47.8502 3.16812 47.8502 6.4553V15.1218H31.4502H30.9502V15.6218V46.9464H17.4V15.6218V15.1218H16.9ZM116.05 15.6218V15.1218H115.55H99.1498V6.4553C99.1498 3.16812 101.818 0.5 105.105 0.5H140.545C143.832 0.5 146.5 3.16812 146.5 6.4553V15.1218H130.1H129.6V15.6218V46.9464H116.05V15.6218ZM81.8015 16.4833H82.3015V15.9833V0.5H90.9551C94.2423 0.5 96.9104 3.16812 96.9104 6.4553V40.9911C96.9104 44.2783 94.2423 46.9464 90.9551 46.9464H82.3015V30.5335V30.0335H81.8015H64.9661H64.4661V30.5335V46.9464H55.8125C52.5253 46.9464 49.8572 44.2783 49.8572 40.9911V6.4553C49.8572 3.16812 52.5253 0.5 55.8125 0.5H64.4661V15.9833V16.4833H64.9661H81.8015Z" stroke="black"/>
<mask id="path-2-inside-1_899_4516" fill="white">
<path d="M16.2544 16.2676V46.8012H6.4553C3.25347 46.8012 0.64553 44.1932 0.64553 40.9914V16.2676H16.2544ZM16.9 15.6221H0V40.9914C0 44.5547 2.89197 47.4467 6.4553 47.4467H16.9V15.6221Z"/>
</mask>
<path d="M16.2544 16.2676H17.2544V15.2676H16.2544V16.2676ZM16.2544 46.8012V47.8012H17.2544V46.8012H16.2544ZM0.64553 16.2676V15.2676H-0.35447V16.2676H0.64553ZM16.9 15.6221H17.9V14.6221H16.9V15.6221ZM0 15.6221V14.6221H-1V15.6221H0ZM16.9 47.4467V48.4467H17.9V47.4467H16.9ZM15.2544 16.2676V46.8012H17.2544V16.2676H15.2544ZM16.2544 45.8012H6.4553V47.8012H16.2544V45.8012ZM6.4553 45.8012C3.80575 45.8012 1.64553 43.6409 1.64553 40.9914H-0.35447C-0.35447 44.7455 2.70118 47.8012 6.4553 47.8012V45.8012ZM1.64553 40.9914V16.2676H-0.35447V40.9914H1.64553ZM0.64553 17.2676H16.2544V15.2676H0.64553V17.2676ZM16.9 14.6221H0V16.6221H16.9V14.6221ZM-1 15.6221V40.9914H1V15.6221H-1ZM-1 40.9914C-1 45.107 2.33969 48.4467 6.4553 48.4467V46.4467C3.44426 46.4467 1 44.0024 1 40.9914H-1ZM6.4553 48.4467H16.9V46.4467H6.4553V48.4467ZM17.9 47.4467V15.6221H15.9V47.4467H17.9Z" fill="black" mask="url(#path-2-inside-1_899_4516)"/>
<mask id="path-4-inside-2_899_4516" fill="white">
<path d="M47.7076 16.2676V40.9914C47.7076 44.1932 45.0996 46.8012 41.8978 46.8012H32.0987V16.2676H47.7076ZM48.3531 15.6221H31.4531V47.4467H41.8978C45.4611 47.4467 48.3531 44.5547 48.3531 40.9914V15.6221Z"/>
</mask>
<path d="M47.7076 16.2676H48.7076V15.2676H47.7076V16.2676ZM32.0987 46.8012H31.0987V47.8012H32.0987V46.8012ZM32.0987 16.2676V15.2676H31.0987V16.2676H32.0987ZM48.3531 15.6221H49.3531V14.6221H48.3531V15.6221ZM31.4531 15.6221V14.6221H30.4531V15.6221H31.4531ZM31.4531 47.4467H30.4531V48.4467H31.4531V47.4467ZM46.7076 16.2676V40.9914H48.7076V16.2676H46.7076ZM46.7076 40.9914C46.7076 43.6409 44.5473 45.8012 41.8978 45.8012V47.8012C45.6519 47.8012 48.7076 44.7455 48.7076 40.9914H46.7076ZM41.8978 45.8012H32.0987V47.8012H41.8978V45.8012ZM33.0987 46.8012V16.2676H31.0987V46.8012H33.0987ZM32.0987 17.2676H47.7076V15.2676H32.0987V17.2676ZM48.3531 14.6221H31.4531V16.6221H48.3531V14.6221ZM30.4531 15.6221V47.4467H32.4531V15.6221H30.4531ZM31.4531 48.4467H41.8978V46.4467H31.4531V48.4467ZM41.8978 48.4467C46.0134 48.4467 49.3531 45.107 49.3531 40.9914H47.3531C47.3531 44.0024 44.9088 46.4467 41.8978 46.4467V48.4467ZM49.3531 40.9914V15.6221H47.3531V40.9914H49.3531Z" fill="black" mask="url(#path-4-inside-2_899_4516)"/>
<mask id="path-6-inside-3_899_4516" fill="white">
<path d="M114.903 16.2676V46.8012H105.104C101.902 46.8012 99.294 44.1932 99.294 40.9914V16.2676H114.903ZM115.548 15.6221H98.6484V40.9914C98.6484 44.5547 101.54 47.4467 105.104 47.4467H115.548V15.6221Z"/>
</mask>
<path d="M114.903 16.2676H115.903V15.2676H114.903V16.2676ZM114.903 46.8012V47.8012H115.903V46.8012H114.903ZM99.294 16.2676V15.2676H98.294V16.2676H99.294ZM115.548 15.6221H116.548V14.6221H115.548V15.6221ZM98.6484 15.6221V14.6221H97.6484V15.6221H98.6484ZM115.548 47.4467V48.4467H116.548V47.4467H115.548ZM113.903 16.2676V46.8012H115.903V16.2676H113.903ZM114.903 45.8012H105.104V47.8012H114.903V45.8012ZM105.104 45.8012C102.454 45.8012 100.294 43.6409 100.294 40.9914H98.294C98.294 44.7455 101.35 47.8012 105.104 47.8012V45.8012ZM100.294 40.9914V16.2676H98.294V40.9914H100.294ZM99.294 17.2676H114.903V15.2676H99.294V17.2676ZM115.548 14.6221H98.6484V16.6221H115.548V14.6221ZM97.6484 15.6221V40.9914H99.6484V15.6221H97.6484ZM97.6484 40.9914C97.6484 45.107 100.988 48.4467 105.104 48.4467V46.4467C102.093 46.4467 99.6484 44.0024 99.6484 40.9914H97.6484ZM105.104 48.4467H115.548V46.4467H105.104V48.4467ZM116.548 47.4467V15.6221H114.548V47.4467H116.548Z" fill="black" mask="url(#path-6-inside-3_899_4516)"/>
<mask id="path-8-inside-4_899_4516" fill="white">
<path d="M146.356 16.2676V40.9914C146.356 44.1932 143.748 46.8012 140.546 46.8012H130.747V16.2676H146.356ZM147.002 15.6221H130.102V47.4467H140.546C144.11 47.4467 147.002 44.5547 147.002 40.9914V15.6221Z"/>
</mask>
<path d="M146.356 16.2676H147.356V15.2676H146.356V16.2676ZM130.747 46.8012H129.747V47.8012H130.747V46.8012ZM130.747 16.2676V15.2676H129.747V16.2676H130.747ZM147.002 15.6221H148.002V14.6221H147.002V15.6221ZM130.102 15.6221V14.6221H129.102V15.6221H130.102ZM130.102 47.4467H129.102V48.4467H130.102V47.4467ZM145.356 16.2676V40.9914H147.356V16.2676H145.356ZM145.356 40.9914C145.356 43.6409 143.196 45.8012 140.546 45.8012V47.8012C144.3 47.8012 147.356 44.7455 147.356 40.9914H145.356ZM140.546 45.8012H130.747V47.8012H140.546V45.8012ZM131.747 46.8012V16.2676H129.747V46.8012H131.747ZM130.747 17.2676H146.356V15.2676H130.747V17.2676ZM147.002 14.6221H130.102V16.6221H147.002V14.6221ZM129.102 15.6221V47.4467H131.102V15.6221H129.102ZM130.102 48.4467H140.546V46.4467H130.102V48.4467ZM140.546 48.4467C144.662 48.4467 148.002 45.107 148.002 40.9914H146.002C146.002 44.0024 143.557 46.4467 140.546 46.4467V48.4467ZM148.002 40.9914V15.6221H146.002V40.9914H148.002Z" fill="black" mask="url(#path-8-inside-4_899_4516)"/>
<mask id="path-10-inside-5_899_4516" fill="white">
<path d="M81.1586 0.64553V15.3378H65.6143V0.64553H81.1586ZM81.8042 0H64.9688V15.9833H81.8042V0Z"/>
</mask>
<path d="M81.1586 0.64553H82.1586V-0.35447H81.1586V0.64553ZM81.1586 15.3378V16.3378H82.1586V15.3378H81.1586ZM65.6143 15.3378H64.6143V16.3378H65.6143V15.3378ZM65.6143 0.64553V-0.35447H64.6143V0.64553H65.6143ZM81.8042 0H82.8042V-1H81.8042V0ZM64.9688 0V-1H63.9688V0H64.9688ZM64.9688 15.9833H63.9688V16.9833H64.9688V15.9833ZM81.8042 15.9833V16.9833H82.8042V15.9833H81.8042ZM80.1586 0.64553V15.3378H82.1586V0.64553H80.1586ZM81.1586 14.3378H65.6143V16.3378H81.1586V14.3378ZM66.6143 15.3378V0.64553H64.6143V15.3378H66.6143ZM65.6143 1.64553H81.1586V-0.35447H65.6143V1.64553ZM81.8042 -1H64.9688V1H81.8042V-1ZM63.9688 0V15.9833H65.9688V0H63.9688ZM64.9688 16.9833H81.8042V14.9833H64.9688V16.9833ZM82.8042 15.9833V0H80.8042V15.9833H82.8042Z" fill="black" mask="url(#path-10-inside-5_899_4516)"/>
<mask id="path-12-inside-6_899_4516" fill="white">
<path d="M81.1586 31.1787V46.8005H65.6143V31.1787H81.1586ZM81.8042 30.5332H64.9688V47.4461H81.8042V30.5332Z"/>
</mask>
<path d="M81.1586 31.1787H82.1586V30.1787H81.1586V31.1787ZM81.1586 46.8005V47.8005H82.1586V46.8005H81.1586ZM65.6143 46.8005H64.6143V47.8005H65.6143V46.8005ZM65.6143 31.1787V30.1787H64.6143V31.1787H65.6143ZM81.8042 30.5332H82.8042V29.5332H81.8042V30.5332ZM64.9688 30.5332V29.5332H63.9688V30.5332H64.9688ZM64.9688 47.4461H63.9688V48.4461H64.9688V47.4461ZM81.8042 47.4461V48.4461H82.8042V47.4461H81.8042ZM80.1586 31.1787V46.8005H82.1586V31.1787H80.1586ZM81.1586 45.8005H65.6143V47.8005H81.1586V45.8005ZM66.6143 46.8005V31.1787H64.6143V46.8005H66.6143ZM65.6143 32.1787H81.1586V30.1787H65.6143V32.1787ZM81.8042 29.5332H64.9688V31.5332H81.8042V29.5332ZM63.9688 30.5332V47.4461H65.9688V30.5332H63.9688ZM64.9688 48.4461H81.8042V46.4461H64.9688V48.4461ZM82.8042 47.4461V30.5332H80.8042V47.4461H82.8042Z" fill="black" mask="url(#path-12-inside-6_899_4516)"/>
</svg>
