<svg width="114" height="82" viewBox="0 0 114 82" fill="none" xmlns="http://www.w3.org/2000/svg">
<path d="M32.7578 73.2363C30.4178 73.2363 28.5078 75.1463 28.5078 77.4863C28.5078 79.8263 30.4178 81.7363 32.7578 81.7363C35.0978 81.7363 37.0078 79.8263 37.0078 77.4863C37.0078 75.1463 35.0978 73.2363 32.7578 73.2363ZM32.7578 79.2263C31.7978 79.2263 31.0078 78.4463 31.0078 77.4763C31.0078 76.5063 31.7878 75.7263 32.7578 75.7263C33.7278 75.7263 34.5078 76.5063 34.5078 77.4763C34.5078 78.4463 33.7278 79.2263 32.7578 79.2263Z" fill="black"/>
<path d="M62.2684 48.8965L62.2284 49.4865C62.1184 51.1765 63.4084 52.6265 65.0984 52.6965C67.8084 52.8265 70.5084 52.8165 73.2084 52.6765C82.6184 52.1865 90.2084 44.7865 91.2884 35.4265C91.4284 34.2465 91.5484 33.0565 91.6484 31.8765C92.4284 23.1865 85.7084 15.6865 76.9884 15.4065C74.5984 15.3265 72.3684 15.3765 70.3584 15.5765C66.2784 15.9765 63.3484 19.8265 64.0984 23.7365C64.1984 24.3065 64.0984 24.7365 63.5684 25.2365C61.6484 26.9465 60.0584 28.9265 58.6284 31.0365C57.4484 32.7765 58.3784 35.1365 60.4284 35.6165C61.4884 35.8665 62.5684 36.0365 63.6784 36.1365C64.0384 36.1665 64.1184 36.6465 63.7984 36.8065C62.9684 37.2365 62.1884 37.7965 61.4684 38.4965C60.8384 39.1065 60.9084 40.1465 61.5884 40.6965C62.2084 41.1965 62.3184 42.0965 61.8384 42.7365L61.4184 43.2965C61.0384 43.8065 61.3784 44.5365 62.0184 44.5665C63.1184 44.6165 64.0884 45.3365 64.4384 46.3865C63.2384 46.6465 62.3484 47.6665 62.2684 48.8965ZM73.4184 25.2265C73.6084 24.9665 73.8284 24.7465 74.0884 24.5465C74.8584 23.9765 75.8984 23.8665 76.8184 24.1265C77.8084 24.4065 78.4984 24.7765 78.9784 25.2065C79.2984 25.4865 79.1884 26.0065 78.7784 26.1265C77.6884 26.4265 75.8584 26.2665 73.6884 25.8865C73.3784 25.8365 73.2284 25.4665 73.4084 25.2165L73.4184 25.2265Z" fill="black"/>
<path d="M50.3922 14.1966C47.7922 15.3566 44.1822 15.9166 40.1022 16.1966C39.4322 16.2466 38.9522 16.8566 39.0822 17.5066C39.1822 18.0366 39.6522 18.4266 40.1922 18.4166C45.4922 18.3366 50.4022 17.5066 54.8922 15.8666C55.5322 15.6366 56.2522 15.7966 56.7022 16.3066C57.2622 16.9366 57.2622 17.8866 56.7022 18.5066L54.7722 20.6666C53.7322 21.8366 53.8522 23.6466 55.0522 24.6566L55.3122 24.8766C55.8022 25.2966 56.6022 25.0466 56.7122 24.4066C57.2622 20.9766 61.7222 19.3866 64.6722 15.9766C66.2922 14.1066 68.5922 12.9666 71.0722 12.9266C75.1522 12.8666 79.1622 12.9766 83.1022 13.2166C89.7722 13.6266 94.8222 19.4066 94.2922 26.0666C94.1122 28.3466 93.9622 30.6866 93.8422 33.0866C93.5922 38.2266 97.6622 42.5466 102.812 42.5466C105.382 42.5466 107.482 40.4966 107.542 37.9266C107.752 29.7366 107.542 21.7866 106.822 14.1266C106.312 8.64658 101.702 4.45658 96.2022 4.52658C84.8222 4.65658 74.0422 5.12658 64.1022 6.07658C62.8722 6.19658 61.6522 6.15658 60.4322 5.96658C59.1222 5.76658 57.8422 5.58658 56.6022 5.43658C54.4922 5.17658 52.4722 4.47658 50.6922 3.31658C49.1222 2.29658 47.3722 1.37658 45.5022 0.536583C45.1322 0.366583 44.6822 0.446581 44.3922 0.736581C43.9322 1.19658 44.0422 1.97658 44.6222 2.29658C46.8822 3.55658 49.0222 4.94658 51.0222 6.45658C51.2422 6.62658 51.1022 6.98658 50.8222 6.95658L40.8522 5.86658C40.2522 5.79658 39.6922 6.20658 39.5622 6.79658C39.4222 7.43658 39.8322 8.06658 40.4722 8.20658L49.4422 10.1366C49.6022 10.1666 49.5922 10.4066 49.4322 10.4166C46.0922 10.6566 42.2422 10.5166 38.0422 10.0966C37.2122 10.0166 36.4922 10.6566 36.4922 11.4866C36.4922 12.2066 37.0422 12.8166 37.7622 12.8866C42.0122 13.3066 46.2022 13.6366 50.3322 13.8666C50.5022 13.8666 50.5522 14.1066 50.3922 14.1766V14.1966Z" fill="black"/>
<path d="M20.2998 63.4467V68.2267H23.2998V58.5767H20.5598L16.5898 63.5067V58.5767H13.5898V68.2267H16.4798L20.2998 63.4467Z" fill="black"/>
<path d="M11.7891 77.7267V73.6567H9.28906V81.3067H11.8791L15.3891 77.2267V81.3067H17.8891V73.6567H15.3991L11.7891 77.7267Z" fill="black"/>
<path d="M33.9619 63.4667V68.2267H36.9619V58.5867H33.7219L30.8419 62.6767L27.9819 58.5967L24.9519 58.5767L24.9219 68.2267H27.9219V63.6967L30.9419 67.7567L33.9619 63.4667Z" fill="black"/>
<path d="M12.04 68.2267V58.5867H8.8L5.92 62.6767L3.07 58.5967L0.03 58.5767L0 68.2267H3V63.6967L6.02 67.7567L9.04 63.4667V68.2267H12.04Z" fill="black"/>
<path d="M8.44 73.6567H5.53L2.75 76.4967V73.6567H0.25V81.3067H2.75V80.2367L3.93 78.9167L5.72 81.3067H8.63L5.64 77.0167L8.44 73.6567Z" fill="black"/>
<path d="M24.7419 76.2267H21.9219V73.6567H19.4219V81.3067H21.9219V78.7267H24.7419V81.3067H27.2419V73.6567H24.7419V76.2267Z" fill="black"/>
<path d="M77.3605 73.4666L77.8505 75.9166C78.6405 75.7566 80.2505 75.7166 80.7605 75.7366C80.3805 75.7966 79.0205 75.8866 78.7105 76.0066C76.9305 76.7366 76.7305 78.0066 76.7305 78.9066C76.7305 79.6966 77.1305 80.5166 77.7905 81.1166C78.3605 81.6266 79.0505 81.8966 79.7605 81.8966C79.8605 81.8966 79.9705 81.8966 80.0705 81.8766C80.8405 81.7866 81.4605 81.5566 81.9605 81.1966H84.1805V75.9066L84.0305 75.6266C83.1605 73.2166 80.9205 72.4866 77.3505 73.4566L77.3605 73.4666ZM79.8005 79.3966C79.5305 79.4266 79.2505 79.0566 79.2305 78.9066C79.2305 78.5066 79.2305 78.4966 79.6605 78.3166C79.9205 78.2066 80.2405 78.1666 80.5205 78.1666C80.6105 78.1666 80.6905 78.1666 80.7705 78.1766C80.7705 79.0466 80.6405 79.2966 79.8105 79.3866L79.8005 79.3966Z" fill="black"/>
<path d="M97.8672 77.7267V73.6567H95.3672V81.3067H97.9672L101.467 77.2267V81.3067H103.967V73.6567H101.477L97.8672 77.7267Z" fill="black"/>
<path d="M91.3208 73.6567H90.6208V76.2267H88.5008V73.6567H87.8008H86.0008H85.3008V81.3067H86.0008H87.8008H88.5008V78.7267H90.6208V81.3067H91.3208H93.1208H93.8208V73.6567H93.1208H91.3208Z" fill="black"/>
<path d="M105.002 76.3864C105.002 77.3864 105.492 78.2664 106.232 78.8264L104.602 81.6464H107.492L108.872 79.4464H109.922V81.6464H112.422V73.3364H108.052C106.362 73.3364 104.992 74.7064 104.992 76.3964L105.002 76.3864ZM109.922 76.9464H108.052C107.742 76.9464 107.492 76.6964 107.492 76.3864C107.492 76.0764 107.742 75.8264 108.052 75.8264H109.922V76.9464Z" fill="black"/>
<path d="M111.9 56.7167C107.65 56.2967 103.46 55.9667 99.3304 55.7367C99.1604 55.7367 99.1104 55.4967 99.2704 55.4267C101.87 54.2667 105.48 53.7067 109.56 53.4267C110.23 53.3767 110.71 52.7667 110.58 52.1167C110.48 51.5867 110.01 51.1967 109.47 51.2067C104.17 51.2867 99.2604 52.1167 94.7704 53.7567C94.1304 53.9867 93.4104 53.8267 92.9604 53.3167C92.4004 52.6867 92.4004 51.7367 92.9604 51.1167L94.8904 48.9567C95.9404 47.7867 95.8104 45.9767 94.6104 44.9667L94.3504 44.7467C93.8504 44.3267 93.0604 44.5767 92.9504 45.2167C92.4004 48.6467 87.9404 50.2367 84.9904 53.6467C83.3704 55.5167 81.0704 56.6567 78.5904 56.6967C74.5104 56.7567 70.5004 56.6467 66.5604 56.4067C59.8904 55.9967 54.8404 50.2167 55.3704 43.5567C55.5504 41.2767 55.7004 38.9367 55.8204 36.5367C56.0704 31.3967 52.0004 27.0767 46.8504 27.0767C44.2804 27.0767 42.1804 29.1267 42.1204 31.6967C41.9104 39.8867 42.1204 47.8367 42.8404 55.4967C43.3504 60.9767 47.9604 65.1667 53.4604 65.0967C64.8404 64.9667 75.6204 64.4967 85.5604 63.5467C86.7904 63.4267 88.0104 63.4667 89.2304 63.6567C90.5404 63.8567 91.8204 64.0367 93.0604 64.1867C95.1704 64.4467 97.1904 65.1467 98.9704 66.3067C100.54 67.3267 102.29 68.2467 104.16 69.0867C104.53 69.2567 104.98 69.1767 105.27 68.8867C105.73 68.4267 105.62 67.6467 105.04 67.3267C102.78 66.0667 100.64 64.6767 98.6404 63.1667C98.4204 62.9967 98.5604 62.6367 98.8404 62.6667L108.81 63.7567C109.41 63.8267 109.97 63.4167 110.1 62.8267C110.24 62.1867 109.83 61.5567 109.19 61.4167L100.22 59.4867C100.06 59.4567 100.07 59.2167 100.23 59.2067C103.57 58.9667 107.42 59.1067 111.62 59.5267C112.45 59.6067 113.17 58.9667 113.17 58.1367C113.17 57.4167 112.62 56.8067 111.9 56.7367V56.7167Z" fill="black"/>
<path d="M46.0416 73.6567H43.1316L40.3516 76.4967V73.6567H37.8516V81.3067H40.3516V80.2367L41.5316 78.9167L43.3216 81.3067H46.2316L43.2416 77.0167L46.0416 73.6567Z" fill="black"/>
<path d="M51.1875 73.2363C48.8475 73.2363 46.9375 75.1463 46.9375 77.4863C46.9375 79.8263 48.8475 81.7363 51.1875 81.7363C53.5275 81.7363 55.4375 79.8263 55.4375 77.4863C55.4375 75.1463 53.5275 73.2363 51.1875 73.2363ZM51.1875 79.2263C50.2275 79.2263 49.4375 78.4463 49.4375 77.4763C49.4375 76.5063 50.2175 75.7263 51.1875 75.7263C52.1575 75.7263 52.9375 76.5063 52.9375 77.4763C52.9375 78.4463 52.1575 79.2263 51.1875 79.2263Z" fill="black"/>
<path d="M67.6875 81.5465H70.1875V75.9165H72.7175V81.5465H75.2175V73.4165H67.6875V81.5465Z" fill="black"/>
<path d="M61.0884 76.8068L58.9084 73.4668L56.1484 73.5168V81.4968H58.6484V77.6968L61.0384 80.8068L63.4284 77.8368V81.4968H65.9284V73.5168L63.1184 73.5668L61.0884 76.8068Z" fill="black"/>
</svg>
