<svg width="116" height="97" viewBox="0 0 116 97" fill="none" xmlns="http://www.w3.org/2000/svg">
  <mask id="path-1-inside-1_1719_1605" fill="white">
    <path fill-rule="evenodd" clip-rule="evenodd"
      d="M99.6468 41.425C99.6468 64.3034 81.1002 82.8499 58.2218 82.8499C35.3435 82.8499 16.7969 64.3034 16.7969 41.425C16.7969 18.5466 35.3435 0 58.2218 0C81.1002 0 99.6468 18.5466 99.6468 41.425ZM60.3684 56.9765C57.9329 57.7826 55.329 58.2189 52.6233 58.2189C39.0199 58.2189 27.9922 47.1912 27.9922 33.5878C27.9922 19.9844 39.0199 8.95673 52.6233 8.95673C66.2266 8.95673 77.2543 19.9844 77.2543 33.5878C77.2543 36.2937 76.818 38.8978 76.0118 41.3333C78.8008 43.3696 80.6128 46.664 80.6128 50.3817C80.6128 56.565 75.6002 61.5776 69.4168 61.5776C65.6991 61.5776 62.4046 59.7656 60.3684 56.9765Z" />
  </mask>
  <path
    d="M60.3684 56.9765L61.176 56.3868L60.7462 55.7981L60.0542 56.0271L60.3684 56.9765ZM76.0118 41.3333L75.0625 41.0191L74.8334 41.7111L75.4221 42.141L76.0118 41.3333ZM58.2218 83.8499C81.6525 83.8499 100.647 64.8556 100.647 41.425H98.6468C98.6468 63.7511 80.5479 81.8499 58.2218 81.8499V83.8499ZM15.7969 41.425C15.7969 64.8556 34.7912 83.8499 58.2218 83.8499V81.8499C35.8958 81.8499 17.7969 63.7511 17.7969 41.425H15.7969ZM58.2218 -1C34.7912 -1 15.7969 17.9943 15.7969 41.425H17.7969C17.7969 19.0989 35.8958 1 58.2218 1V-1ZM100.647 41.425C100.647 17.9943 81.6525 -1 58.2218 -1V1C80.5479 1 98.6468 19.0989 98.6468 41.425H100.647ZM52.6233 59.2189C55.4371 59.2189 58.147 58.765 60.6826 57.9258L60.0542 56.0271C57.7188 56.8001 55.2209 57.2189 52.6233 57.2189V59.2189ZM26.9922 33.5878C26.9922 47.7434 38.4676 59.2189 52.6233 59.2189V57.2189C39.5722 57.2189 28.9922 46.6389 28.9922 33.5878H26.9922ZM52.6233 7.95673C38.4676 7.95673 26.9922 19.4321 26.9922 33.5878H28.9922C28.9922 20.5367 39.5722 9.95673 52.6233 9.95673V7.95673ZM78.2543 33.5878C78.2543 19.4321 66.7789 7.95673 52.6233 7.95673V9.95673C65.6743 9.95673 76.2543 20.5367 76.2543 33.5878H78.2543ZM76.9612 41.6476C77.8004 39.1119 78.2543 36.4018 78.2543 33.5878H76.2543C76.2543 36.1856 75.8355 38.6836 75.0625 41.0191L76.9612 41.6476ZM75.4221 42.141C77.9644 43.9971 79.6128 46.9968 79.6128 50.3817H81.6128C81.6128 46.3313 79.6372 42.7421 76.6015 40.5257L75.4221 42.141ZM79.6128 50.3817C79.6128 56.0128 75.0479 60.5776 69.4168 60.5776V62.5776C76.1525 62.5776 81.6128 57.1173 81.6128 50.3817H79.6128ZM69.4168 60.5776C66.0319 60.5776 63.0321 58.9291 61.176 56.3868L59.5607 57.5661C61.7771 60.602 65.3663 62.5776 69.4168 62.5776V60.5776Z"
    fill="black" mask="url(#path-1-inside-1_1719_1605)" />
  <circle cx="69.4147" cy="50.3817" r="11.6959" stroke="black" />
  <path fill-rule="evenodd" clip-rule="evenodd"
    d="M0 89.5676H1.2217L2.65588 91.5861L4.19629 89.5676H5.31175L3.24017 92.5953V94.8794H2.17782V92.5953L0 89.5676ZM6.32099 90.5237V94.8794H10.411V94.1357H7.2771V93.0734H9.29557V92.3829H7.2771V91.3736H10.411V90.5237H6.32099ZM11.5265 94.8794V90.5237H12.4295V94.1357H15.351V94.8794H11.5265ZM16.254 90.5237V94.8794H20.0253V94.1357H17.157V90.5237H16.254ZM27.9398 94.8794L26.2932 90.5237H27.3024L28.3116 93.1265L29.6396 90.5237H30.4363L31.6049 93.1265L32.6142 90.5237H33.6234L31.8705 94.8794H31.18L29.9583 91.9579L28.6835 94.8794H27.9398ZM39.307 89.5676V94.8794H43.4501C45.0437 94.8794 45.203 92.4891 43.7157 92.1704C44.8843 91.8517 44.9374 89.727 43.4501 89.5676H39.307ZM45.7342 94.8794V90.5237H46.7434V94.1889H49.4524V94.8794H45.7342ZM49.9836 94.8794L52.2145 90.5237H52.8519L55.136 94.8794H54.1268L53.4894 93.8701H51.524L50.9397 94.8794H49.9836ZM61.7226 94.8794V90.5237H62.7318V92.2766L65.069 90.5237H66.2907L64.166 92.436L66.2907 94.8794H65.069L63.4223 92.9671L62.7318 93.4452V94.8794H61.7226ZM68.9997 94.8794L71.1244 90.5237H71.8149L74.0458 94.8794H73.0897L72.5054 93.8701H70.487L70.062 94.8794H68.9997ZM75.1082 90.5237V94.8794H75.9581V92.1173L78.8264 94.8794H79.7825V90.5237H78.8264V93.2327L75.9581 90.5237H75.1082ZM81.1636 90.5237V94.8794H84.4038C85.1474 94.8263 85.7317 94.0295 85.8379 93.4452V91.9579C85.8379 91.7454 85.2005 90.5237 84.4038 90.5237H81.1636ZM90.5123 94.9325L88.4407 89.5676H89.6624L90.9903 92.914L92.4245 89.5676H93.4337L94.8148 92.914L96.1959 89.5676H97.2582L95.2397 94.9325H94.443L92.8494 91.3205L91.2559 94.9325H90.5123ZM98.2143 90.4706V94.9325H99.0642V93.0734H101.72V94.9325H102.676V90.4706H101.72V92.2235H99.0642V90.4706H98.2143ZM105.013 90.4706H104.057V94.9325H105.013V90.4706ZM105.81 90.4706V91.4799H107.669V94.9325H108.625V91.4799H110.272V90.4706H105.81ZM111.122 94.9325V90.4706H115.106V91.3205H112.131V92.2766H114.15V93.1265H112.131V94.1889H115.318V94.9325H111.122ZM82.1187 94.136V91.3739H83.1014H84.0841C85.2527 91.7988 85.1464 93.7111 84.0841 94.136H82.1187ZM71.389 91.9582L70.8047 93.1799H72.0264L71.389 91.9582ZM40.3164 90.4175V91.5861H42.9723C43.5035 91.4267 43.769 90.8424 42.9723 90.4175H40.3164ZM40.3164 92.6484V94.0826H43.0254C43.5566 93.8701 43.8753 93.1265 43.0254 92.6484H40.3164ZM52.4261 92.011L51.8418 93.1796H51.8438L51.8438 93.1797H53.0655L52.428 92.0111L52.4271 92.0129L52.4261 92.011Z"
    fill="black" />
  <path fill-rule="evenodd" clip-rule="evenodd"
    d="M23.1067 95.1451C24.5441 95.1451 25.7094 94.0749 25.7094 92.7548C25.7094 91.4347 24.5441 90.3645 23.1067 90.3645C21.6692 90.3645 20.5039 91.4347 20.5039 92.7548C20.5039 94.0749 21.6692 95.1451 23.1067 95.1451ZM23.1598 94.2952C24.0399 94.2952 24.7533 93.6293 24.7533 92.8079C24.7533 91.9865 24.0399 91.3206 23.1598 91.3206C22.2797 91.3206 21.5663 91.9865 21.5663 92.8079C21.5663 93.6293 22.2797 94.2952 23.1598 94.2952Z"
    fill="black" />
  <path
    d="M59.485 94.9314C60.0371 94.7082 60.4905 94.3247 60.7729 93.8421L59.8389 93.3975C59.5715 93.8683 59.0409 94.189 58.4301 94.189C57.5499 94.189 56.8366 93.5231 56.8366 92.7017C56.8366 91.8803 57.5499 91.2144 58.4301 91.2144C59.0405 91.2144 59.5707 91.5346 59.8383 92.0048L60.7718 91.5596C60.489 91.0771 60.0352 90.694 59.4829 90.4712C58.9305 90.2484 58.3114 90.1988 57.7242 90.3303C57.1368 90.4619 56.6154 90.7669 56.2427 91.1969C55.8701 91.6268 55.6678 92.157 55.668 92.7027C55.6682 93.2485 55.8711 93.7784 56.244 94.2081C56.617 94.6378 57.1389 94.9425 57.7263 95.0736C58.3137 95.2047 58.9326 95.1546 59.485 94.9314Z"
    fill="black" />
  <path
    d="M34.5312 94.4547C34.5312 94.8361 34.7928 95.1452 35.1155 95.1452C35.484 95.3577 35.0091 95.6764 34.85 95.8889C34.85 95.8889 34.6904 96.1013 34.85 96.1013C35.7464 96.1013 35.7884 94.9682 35.6998 94.4547C35.6998 94.0733 35.4382 93.7642 35.1155 93.7642C34.7928 93.7642 34.5312 94.0733 34.5312 94.4547Z"
    fill="black" />
</svg>