<svg width="128" height="109" viewBox="0 0 128 109" fill="none" xmlns="http://www.w3.org/2000/svg">
<mask id="path-1-inside-1_899_4545" fill="white">
<path d="M6.51497 71.9139V85.935H5.38781V79.4862H1.53293V85.935H0.405776V71.9139H1.53293V78.3627H5.38781V71.9139H6.51497ZM46.4389 83.3959V74.4418C46.4389 72.7341 45.0525 71.3522 43.3392 71.3522C41.6259 71.3522 40.2395 72.7453 40.2395 74.4418V83.3959C40.2395 85.1036 41.6259 86.4855 43.3392 86.4855C45.0525 86.4855 46.4389 85.1036 46.4389 83.3959ZM45.3117 74.4418V83.3959C45.3117 84.4857 44.4213 85.362 43.3392 85.362C42.2571 85.362 41.3667 84.4744 41.3667 83.3959V74.4418C41.3667 73.352 42.2571 72.4757 43.3392 72.4757C44.4213 72.4757 45.3117 73.3632 45.3117 74.4418ZM85.9458 78.4526L89.2371 72.1723L88.2452 71.6555L84.9764 77.8796H83.838V71.9139H82.7108V77.8796H81.9556L78.5967 71.6555L77.6048 72.1836L80.9863 78.4526L77.5935 85.6878L78.608 86.1709L81.9782 79.0031H82.7108V85.935H83.838V79.0031H84.9651L88.2226 86.1597L89.2483 85.699L85.9458 78.4526ZM125.498 75.1496V85.699H126.625V71.9252L125.532 71.7342L121.575 82.7106V71.9252H120.448V85.935L121.541 86.126L125.498 75.1496ZM4.22684 100.068H0V107.27H0.845368V100.911H3.38147V107.27H4.22684V100.068ZM11.5984 102.405C11.5984 103.686 10.5502 104.742 9.26523 104.742H8.57767V107.27H7.7323V100.068H9.26523C10.5502 100.068 11.5984 101.113 11.5984 102.405ZM10.7531 102.405C10.7531 101.585 10.0881 100.911 9.26523 100.911H8.57767V103.899H9.26523C10.0881 103.899 10.7531 103.225 10.7531 102.405ZM55.4561 104.821H56.1324C57.4287 104.821 58.4769 103.776 58.4769 102.484C58.4769 101.192 57.4287 100.147 56.1324 100.147H54.6108V107.348H55.4561V104.821ZM55.4561 101.001H56.1324C56.9553 101.001 57.6316 101.675 57.6316 102.495C57.6316 103.315 56.9553 103.989 56.1324 103.989H55.4561V101.012V101.001ZM124.979 104.596H125.656C126.952 104.596 128 103.551 128 102.259C128 100.967 126.952 99.9223 125.656 99.9223H124.134V107.124H124.979V104.596ZM124.979 100.776H125.656C126.478 100.776 127.155 101.45 127.155 102.27C127.155 103.09 126.478 103.765 125.656 103.765H124.979V100.787V100.776ZM19.3307 105.124V102.36C19.3307 101.102 18.305 100.08 17.0426 100.08C15.7802 100.08 14.7545 101.102 14.7545 102.36V105.124C14.7545 106.382 15.7802 107.405 17.0426 107.405C18.305 107.405 19.3307 106.382 19.3307 105.124ZM18.4854 102.36V105.124C18.4854 105.91 17.8429 106.562 17.0426 106.562C16.2423 106.562 15.5999 105.922 15.5999 105.124V102.36C15.5999 101.574 16.2423 100.922 17.0426 100.922C17.8429 100.922 18.4854 101.563 18.4854 102.36ZM27.8521 106.337V109H27.0067V107.393H22.7122V109H21.8669V106.551H22.7686C23.7605 104.585 23.8056 102.765 23.8732 100.495V100.08H27.2209V106.337H27.8521ZM23.7041 106.551H26.3755V100.922H24.7073C24.6509 102.911 24.5495 104.686 23.7041 106.551ZM37.5569 102.371V105.102C37.5569 106.36 36.5312 107.393 35.2575 107.393C33.9838 107.393 32.9581 106.36 32.9581 105.102V103.776H31.6731V106.966H30.8278V100.506H31.6731V102.933H32.9581V102.371C32.9581 101.113 33.9838 100.08 35.2575 100.08C36.5312 100.08 37.5569 101.113 37.5569 102.371ZM36.7115 102.371C36.7115 101.574 36.069 100.922 35.2575 100.922C34.4459 100.922 33.8035 101.574 33.8035 102.371V105.102C33.8035 105.899 34.4572 106.551 35.2575 106.551C36.0578 106.551 36.7115 105.899 36.7115 105.102V102.371ZM45.7513 106.933L45.1765 106.315C44.8609 106.607 44.5678 106.742 44.2635 106.742C43.1814 106.742 42.3135 105.865 42.3135 104.798V102.416C42.3135 101.742 42.8658 101.181 43.5534 101.181H44.7932V100.338H43.5534C42.4037 100.338 41.4681 101.27 41.4681 102.416V104.798C41.4681 106.337 42.7193 107.584 44.2747 107.584C44.7932 107.584 45.2779 107.36 45.7513 106.933ZM65.5104 106.798L64.9355 106.18C64.6199 106.472 64.3269 106.607 64.0225 106.607C62.9405 106.607 62.0726 105.731 62.0726 104.663V102.282C62.0726 101.607 62.6249 101.046 63.3124 101.046H64.5523V100.203H63.3124C62.1627 100.203 61.2272 101.136 61.2272 102.282V104.663C61.2272 106.203 62.4783 107.45 64.0338 107.45C64.5636 107.45 65.037 107.225 65.5104 106.798ZM51.2293 100.922V100.08H48.1409V107.584H51.2293V106.742H48.9863V104.158H50.7446V103.315H48.9863V100.922H51.2293ZM106.64 100.821V99.9784H103.552V107.483H106.64V106.641H104.397V104.057H106.156V103.214H104.397V100.821H106.64ZM69.726 103.72L72.093 100.765L71.428 100.237L69.2526 102.956V100.506H68.4072V107.382H69.2526V104.461L71.9915 107.45L72.6228 106.888L69.726 103.72ZM79.0025 102.349V107.382H79.8478V100.506H79.025L76.5115 105.54V100.506H75.6661V107.382H76.4776L79.0025 102.349ZM86.9827 102.248V107.281H87.8281V100.405H87.0053L84.4917 105.439V100.405H83.6464V107.281H84.4579L86.9827 102.248ZM84.5819 98.5292C85.3596 99.6077 86.1261 99.6077 86.9038 98.5292H84.5819ZM99.3138 106.742V100.506H98.4685V106.742H96.2592V100.506H95.4139V107.584H99.3815V108.933H100.227V106.742H99.3138ZM113.11 100.506V103.416H110.822V100.506H109.977V107.169H110.822V104.259H113.11V107.169H113.956V100.506H113.11ZM117.191 100.08V100.922H118.859V107.393H119.704V100.922H121.372V100.08H117.191ZM15.0926 93.1814H30.9517C31.5379 68.9592 32.2592 44.2763 28.2917 34.7605C17.764 44.7594 15.6111 78.9244 15.0926 93.1814ZM52.9651 0L52.7284 0.53927C49.2568 8.52721 47.397 17.1106 47.2279 25.8176L46.6192 58.4097C52.2663 59.14 57.2483 64.4316 57.5527 69.3299L59.1307 93.1814H67.528C64.1803 53.3765 60.4269 15.8635 52.9651 0ZM96.4847 23.7391C95.2448 45.6133 95.9436 68.9479 97.8147 93.1814H106.64L106.685 92.6983C107.001 89.0695 109.74 86.1147 113.347 85.5193C109.887 57.7469 104.983 34.7492 96.4959 23.7391H96.4847Z"/>
</mask>
<path d="M6.51497 71.9139H7.51497V70.9139H6.51497V71.9139ZM6.51497 85.935V86.935H7.51497V85.935H6.51497ZM5.38781 85.935H4.38781V86.935H5.38781V85.935ZM5.38781 79.4862H6.38781V78.4862H5.38781V79.4862ZM1.53293 79.4862V78.4862H0.532934V79.4862H1.53293ZM1.53293 85.935V86.935H2.53293V85.935H1.53293ZM0.405776 85.935H-0.594224V86.935H0.405776V85.935ZM0.405776 71.9139V70.9139H-0.594224V71.9139H0.405776ZM1.53293 71.9139H2.53293V70.9139H1.53293V71.9139ZM1.53293 78.3627H0.532934V79.3627H1.53293V78.3627ZM5.38781 78.3627V79.3627H6.38781V78.3627H5.38781ZM5.38781 71.9139V70.9139H4.38781V71.9139H5.38781ZM85.9458 78.4526L85.06 77.9884L84.8328 78.4219L85.0358 78.8673L85.9458 78.4526ZM89.2371 72.1723L90.1228 72.6365L90.5881 71.7487L89.6991 71.2855L89.2371 72.1723ZM88.2452 71.6555L88.7072 70.7687L87.8233 70.3081L87.3598 71.1906L88.2452 71.6555ZM84.9764 77.8796V78.8796H85.5807L85.8617 78.3446L84.9764 77.8796ZM83.838 77.8796H82.838V78.8796H83.838V77.8796ZM83.838 71.9139H84.838V70.9139H83.838V71.9139ZM82.7108 71.9139V70.9139H81.7108V71.9139H82.7108ZM82.7108 77.8796V78.8796H83.7108V77.8796H82.7108ZM81.9556 77.8796L81.0756 78.3545L81.359 78.8796H81.9556V77.8796ZM78.5967 71.6555L79.4767 71.1806L79.0045 70.3056L78.1268 70.7728L78.5967 71.6555ZM77.6048 72.1836L77.1349 71.3008L76.2473 71.7733L76.7247 72.6583L77.6048 72.1836ZM80.9863 78.4526L81.8917 78.8771L82.1055 78.4211L81.8664 77.9778L80.9863 78.4526ZM77.5935 85.6878L76.6881 85.2632L76.2661 86.1632L77.1636 86.5906L77.5935 85.6878ZM78.608 86.1709L78.178 87.0737L79.0853 87.5058L79.5129 86.5964L78.608 86.1709ZM81.9782 79.0031V78.0031H81.3433L81.0732 78.5776L81.9782 79.0031ZM82.7108 79.0031H83.7108V78.0031H82.7108V79.0031ZM82.7108 85.935H81.7108V86.935H82.7108V85.935ZM83.838 85.935V86.935H84.838V85.935H83.838ZM83.838 79.0031V78.0031H82.838V79.0031H83.838ZM84.9651 79.0031L85.8753 78.5888L85.6087 78.0031H84.9651V79.0031ZM88.2226 86.1597L87.3125 86.5739L87.7247 87.4795L88.6323 87.0719L88.2226 86.1597ZM89.2483 85.699L89.658 86.6113L90.5753 86.1993L90.1583 85.2843L89.2483 85.699ZM125.498 75.1496H126.498L124.557 74.8105L125.498 75.1496ZM125.498 85.699H124.498V86.699H125.498V85.699ZM126.625 85.699V86.699H127.625V85.699H126.625ZM126.625 71.9252H127.625V71.0847L126.797 70.9401L126.625 71.9252ZM125.532 71.7342L125.704 70.7491L124.876 70.6045L124.591 71.3951L125.532 71.7342ZM121.575 82.7106H120.575L122.516 83.0497L121.575 82.7106ZM121.575 71.9252H122.575V70.9252H121.575V71.9252ZM120.448 71.9252V70.9252H119.448V71.9252H120.448ZM120.448 85.935H119.448V86.7754L120.276 86.92L120.448 85.935ZM121.541 86.126L121.369 87.111L122.197 87.2557L122.482 86.465L121.541 86.126ZM4.22684 100.068H5.22684V99.0683H4.22684V100.068ZM0 100.068V99.0683H-1V100.068H0ZM0 107.27H-1V108.27H0V107.27ZM0.845368 107.27V108.27H1.84537V107.27H0.845368ZM0.845368 100.911V99.9109H-0.154632V100.911H0.845368ZM3.38147 100.911H4.38147V99.9109H3.38147V100.911ZM3.38147 107.27H2.38147V108.27H3.38147V107.27ZM4.22684 107.27V108.27H5.22684V107.27H4.22684ZM8.57767 104.742V103.742H7.57767V104.742H8.57767ZM8.57767 107.27V108.27H9.57767V107.27H8.57767ZM7.7323 107.27H6.7323V108.27H7.7323V107.27ZM7.7323 100.068V99.0683H6.7323V100.068H7.7323ZM8.57767 100.911V99.9109H7.57767V100.911H8.57767ZM8.57767 103.899H7.57767V104.899H8.57767V103.899ZM55.4561 104.821V103.821H54.4561V104.821H55.4561ZM54.6108 100.147V99.147H53.6108V100.147H54.6108ZM54.6108 107.348H53.6108V108.348H54.6108V107.348ZM55.4561 107.348V108.348H56.4561V107.348H55.4561ZM55.4561 101.001V100.001H54.4561V101.001H55.4561ZM55.4561 103.989H54.4561V104.989H55.4561V103.989ZM124.979 104.596V103.596H123.979V104.596H124.979ZM124.134 99.9223V98.9223H123.134V99.9223H124.134ZM124.134 107.124H123.134V108.124H124.134V107.124ZM124.979 107.124V108.124H125.979V107.124H124.979ZM124.979 100.776V99.7761H123.979V100.776H124.979ZM124.979 103.765H123.979V104.765H124.979V103.765ZM27.8521 106.337H28.8521V105.337H27.8521V106.337ZM27.8521 109V110H28.8521V109H27.8521ZM27.0067 109H26.0067V110H27.0067V109ZM27.0067 107.393H28.0067V106.393H27.0067V107.393ZM22.7122 107.393V106.393H21.7122V107.393H22.7122ZM22.7122 109V110H23.7122V109H22.7122ZM21.8669 109H20.8669V110H21.8669V109ZM21.8669 106.551V105.551H20.8669V106.551H21.8669ZM22.7686 106.551V107.551H23.3841L23.6614 107.001L22.7686 106.551ZM23.8732 100.495L24.8727 100.525L24.8732 100.51V100.495H23.8732ZM23.8732 100.08V99.0796H22.8732V100.08H23.8732ZM27.2209 100.08H28.2209V99.0796H27.2209V100.08ZM27.2209 106.337H26.2209V107.337H27.2209V106.337ZM23.7041 106.551L22.7933 106.138L22.1529 107.551H23.7041V106.551ZM26.3755 106.551V107.551H27.3755V106.551H26.3755ZM26.3755 100.922H27.3755V99.9222H26.3755V100.922ZM24.7073 100.922V99.9222H23.7352L23.7077 100.894L24.7073 100.922ZM32.9581 103.776H33.9581V102.776H32.9581V103.776ZM31.6731 103.776V102.776H30.6731V103.776H31.6731ZM31.6731 106.966V107.966H32.6731V106.966H31.6731ZM30.8278 106.966H29.8278V107.966H30.8278V106.966ZM30.8278 100.506V99.5065H29.8278V100.506H30.8278ZM31.6731 100.506H32.6731V99.5065H31.6731V100.506ZM31.6731 102.933H30.6731V103.933H31.6731V102.933ZM32.9581 102.933V103.933H33.9581V102.933H32.9581ZM45.7513 106.933L46.421 107.675L47.1753 106.995L46.4835 106.252L45.7513 106.933ZM45.1765 106.315L45.9086 105.634L45.2292 104.903L44.4972 105.581L45.1765 106.315ZM44.7932 101.181V102.181H45.7932V101.181H44.7932ZM44.7932 100.338H45.7932V99.338H44.7932V100.338ZM65.5104 106.798L66.1801 107.541L66.9343 106.86L66.2425 106.117L65.5104 106.798ZM64.9355 106.18L65.6677 105.499L64.9883 104.769L64.2563 105.446L64.9355 106.18ZM64.5523 101.046V102.046H65.5523V101.046H64.5523ZM64.5523 100.203H65.5523V99.2031H64.5523V100.203ZM51.2293 100.922V101.922H52.2293V100.922H51.2293ZM51.2293 100.08H52.2293V99.0796H51.2293V100.08ZM48.1409 100.08V99.0796H47.1409V100.08H48.1409ZM48.1409 107.584H47.1409V108.584H48.1409V107.584ZM51.2293 107.584V108.584H52.2293V107.584H51.2293ZM51.2293 106.742H52.2293V105.742H51.2293V106.742ZM48.9863 106.742H47.9863V107.742H48.9863V106.742ZM48.9863 104.158V103.158H47.9863V104.158H48.9863ZM50.7446 104.158V105.158H51.7446V104.158H50.7446ZM50.7446 103.315H51.7446V102.315H50.7446V103.315ZM48.9863 103.315H47.9863V104.315H48.9863V103.315ZM48.9863 100.922V99.9222H47.9863V100.922H48.9863ZM106.64 100.821V101.821H107.64V100.821H106.64ZM106.64 99.9784H107.64V98.9784H106.64V99.9784ZM103.552 99.9784V98.9784H102.552V99.9784H103.552ZM103.552 107.483H102.552V108.483H103.552V107.483ZM106.64 107.483V108.483H107.64V107.483H106.64ZM106.64 106.641H107.64V105.641H106.64V106.641ZM104.397 106.641H103.397V107.641H104.397V106.641ZM104.397 104.057V103.057H103.397V104.057H104.397ZM106.156 104.057V105.057H107.156V104.057H106.156ZM106.156 103.214H107.156V102.214H106.156V103.214ZM104.397 103.214H103.397V104.214H104.397V103.214ZM104.397 100.821V99.8211H103.397V100.821H104.397ZM69.726 103.72L68.9455 103.094L68.4102 103.763L68.9879 104.394L69.726 103.72ZM72.093 100.765L72.8734 101.39L73.5014 100.606L72.7148 99.9817L72.093 100.765ZM71.428 100.237L72.0498 99.4537L71.2696 98.8342L70.6472 99.6121L71.428 100.237ZM69.2526 102.956H68.2526V105.806L70.0334 103.58L69.2526 102.956ZM69.2526 100.506H70.2526V99.5065H69.2526V100.506ZM68.4072 100.506V99.5065H67.4072V100.506H68.4072ZM68.4072 107.382H67.4072V108.382H68.4072V107.382ZM69.2526 107.382V108.382H70.2526V107.382H69.2526ZM69.2526 104.461L69.9898 103.785L68.2526 101.89V104.461H69.2526ZM71.9915 107.45L71.2543 108.125L71.9202 108.852L72.6564 108.197L71.9915 107.45ZM72.6228 106.888L73.2876 107.635L74.0447 106.961L73.3608 106.213L72.6228 106.888ZM79.0025 102.349H80.0025L78.1086 101.901L79.0025 102.349ZM79.0025 107.382H78.0025V108.382H79.0025V107.382ZM79.8478 107.382V108.382H80.8478V107.382H79.8478ZM79.8478 100.506H80.8478V99.5065H79.8478V100.506ZM79.025 100.506V99.5065H78.4066L78.1304 100.06L79.025 100.506ZM76.5115 105.54H75.5115L77.4061 105.986L76.5115 105.54ZM76.5115 100.506H77.5115V99.5065H76.5115V100.506ZM75.6661 100.506V99.5065H74.6661V100.506H75.6661ZM75.6661 107.382H74.6661V108.382H75.6661V107.382ZM76.4776 107.382V108.382H77.0948L77.3715 107.831L76.4776 107.382ZM86.9827 102.248H87.9827L86.0889 101.799L86.9827 102.248ZM86.9827 107.281H85.9827V108.281H86.9827V107.281ZM87.8281 107.281V108.281H88.8281V107.281H87.8281ZM87.8281 100.405H88.8281V99.4054H87.8281V100.405ZM87.0053 100.405V99.4054H86.3869L86.1106 99.9586L87.0053 100.405ZM84.4917 105.439H83.4917L85.3864 105.885L84.4917 105.439ZM84.4917 100.405H85.4917V99.4054H84.4917V100.405ZM83.6464 100.405V99.4054H82.6464V100.405H83.6464ZM83.6464 107.281H82.6464V108.281H83.6464V107.281ZM84.4579 107.281V108.281H85.075L85.3517 107.729L84.4579 107.281ZM99.3138 106.742H98.3138V107.742H99.3138V106.742ZM99.3138 100.506H100.314V99.5065H99.3138V100.506ZM98.4685 100.506V99.5065H97.4685V100.506H98.4685ZM98.4685 106.742V107.742H99.4685V106.742H98.4685ZM96.2592 106.742H95.2592V107.742H96.2592V106.742ZM96.2592 100.506H97.2592V99.5065H96.2592V100.506ZM95.4139 100.506V99.5065H94.4139V100.506H95.4139ZM95.4139 107.584H94.4139V108.584H95.4139V107.584ZM99.3815 107.584H100.381V106.584H99.3815V107.584ZM99.3815 108.933H98.3815V109.933H99.3815V108.933ZM100.227 108.933V109.933H101.227V108.933H100.227ZM100.227 106.742H101.227V105.742H100.227V106.742ZM113.11 100.506V99.5065H112.11V100.506H113.11ZM113.11 103.416V104.416H114.11V103.416H113.11ZM110.822 103.416H109.822V104.416H110.822V103.416ZM110.822 100.506H111.822V99.5065H110.822V100.506ZM109.977 100.506V99.5065H108.977V100.506H109.977ZM109.977 107.169H108.977V108.169H109.977V107.169ZM110.822 107.169V108.169H111.822V107.169H110.822ZM110.822 104.259V103.259H109.822V104.259H110.822ZM113.11 104.259H114.11V103.259H113.11V104.259ZM113.11 107.169H112.11V108.169H113.11V107.169ZM113.956 107.169V108.169H114.956V107.169H113.956ZM113.956 100.506H114.956V99.5065H113.956V100.506ZM117.191 100.08V99.0796H116.191V100.08H117.191ZM117.191 100.922H116.191V101.922H117.191V100.922ZM118.859 100.922H119.859V99.9222H118.859V100.922ZM118.859 107.393H117.859V108.393H118.859V107.393ZM119.704 107.393V108.393H120.704V107.393H119.704ZM119.704 100.922V99.9222H118.704V100.922H119.704ZM121.372 100.922V101.922H122.372V100.922H121.372ZM121.372 100.08H122.372V99.0796H121.372V100.08ZM15.0926 93.1814L14.0933 93.1451L14.0556 94.1814H15.0926V93.1814ZM30.9517 93.1814V94.1814H31.9278L31.9515 93.2056L30.9517 93.1814ZM28.2917 34.7605L29.2146 34.3756L28.6558 33.0354L27.603 34.0354L28.2917 34.7605ZM52.9651 0L53.87 -0.425638L52.9336 -2.41635L52.0495 -0.401918L52.9651 0ZM52.7284 0.53927L51.8127 0.13735L51.8113 0.140677L52.7284 0.53927ZM47.2279 25.8176L46.2281 25.7981L46.2281 25.7989L47.2279 25.8176ZM46.6192 58.4097L45.6194 58.391L45.6027 59.2866L46.491 59.4014L46.6192 58.4097ZM57.5527 69.3299L56.5546 69.3919L56.5548 69.3959L57.5527 69.3299ZM59.1307 93.1814L58.1329 93.2474L58.1947 94.1814H59.1307V93.1814ZM67.528 93.1814V94.1814H68.6156L68.5245 93.0976L67.528 93.1814ZM96.4847 23.7391V22.7391H95.5398L95.4863 23.6825L96.4847 23.7391ZM97.8147 93.1814L96.8177 93.2584L96.889 94.1814H97.8147V93.1814ZM106.64 93.1814V94.1814H107.551L107.636 93.2743L106.64 93.1814ZM106.685 92.6983L107.681 92.7912L107.682 92.785L106.685 92.6983ZM113.347 85.5193L113.51 86.5059L114.458 86.3494L114.339 85.3956L113.347 85.5193ZM96.4959 23.7391L97.2879 23.1286L96.9877 22.7391H96.4959V23.7391ZM5.51497 71.9139V85.935H7.51497V71.9139H5.51497ZM6.51497 84.935H5.38781V86.935H6.51497V84.935ZM6.38781 85.935V79.4862H4.38781V85.935H6.38781ZM5.38781 78.4862H1.53293V80.4862H5.38781V78.4862ZM0.532934 79.4862V85.935H2.53293V79.4862H0.532934ZM1.53293 84.935H0.405776V86.935H1.53293V84.935ZM1.40578 85.935V71.9139H-0.594224V85.935H1.40578ZM0.405776 72.9139H1.53293V70.9139H0.405776V72.9139ZM0.532934 71.9139V78.3627H2.53293V71.9139H0.532934ZM1.53293 79.3627H5.38781V77.3627H1.53293V79.3627ZM6.38781 78.3627V71.9139H4.38781V78.3627H6.38781ZM5.38781 72.9139H6.51497V70.9139H5.38781V72.9139ZM47.4389 83.3959V74.4418H45.4389V83.3959H47.4389ZM47.4389 74.4418C47.4389 72.1787 45.6017 70.3522 43.3392 70.3522V72.3522C44.5033 72.3522 45.4389 73.2894 45.4389 74.4418H47.4389ZM43.3392 70.3522C41.0744 70.3522 39.2395 72.1923 39.2395 74.4418H41.2395C41.2395 73.2983 42.1775 72.3522 43.3392 72.3522V70.3522ZM39.2395 74.4418V83.3959H41.2395V74.4418H39.2395ZM39.2395 83.3959C39.2395 85.659 41.0767 87.4855 43.3392 87.4855V85.4855C42.1751 85.4855 41.2395 84.5482 41.2395 83.3959H39.2395ZM43.3392 87.4855C45.6017 87.4855 47.4389 85.659 47.4389 83.3959H45.4389C45.4389 84.5482 44.5033 85.4855 43.3392 85.4855V87.4855ZM44.3117 74.4418V83.3959H46.3117V74.4418H44.3117ZM44.3117 83.3959C44.3117 83.9266 43.8758 84.362 43.3392 84.362V86.362C44.9667 86.362 46.3117 85.0447 46.3117 83.3959H44.3117ZM43.3392 84.362C42.8063 84.362 42.3667 83.9191 42.3667 83.3959H40.3667C40.3667 85.0298 41.7079 86.362 43.3392 86.362V84.362ZM42.3667 83.3959V74.4418H40.3667V83.3959H42.3667ZM42.3667 74.4418C42.3667 73.9111 42.8026 73.4757 43.3392 73.4757V71.4757C41.7117 71.4757 40.3667 72.7929 40.3667 74.4418H42.3667ZM43.3392 73.4757C43.8721 73.4757 44.3117 73.9186 44.3117 74.4418H46.3117C46.3117 72.8079 44.9705 71.4757 43.3392 71.4757V73.4757ZM86.8315 78.9168L90.1228 72.6365L88.3513 71.7081L85.06 77.9884L86.8315 78.9168ZM89.6991 71.2855L88.7072 70.7687L87.7831 72.5424L88.775 73.0592L89.6991 71.2855ZM87.3598 71.1906L84.0911 77.4146L85.8617 78.3446L89.1305 72.1205L87.3598 71.1906ZM84.9764 76.8796H83.838V78.8796H84.9764V76.8796ZM84.838 77.8796V71.9139H82.838V77.8796H84.838ZM83.838 70.9139H82.7108V72.9139H83.838V70.9139ZM81.7108 71.9139V77.8796H83.7108V71.9139H81.7108ZM82.7108 76.8796H81.9556V78.8796H82.7108V76.8796ZM82.8356 77.4047L79.4767 71.1806L77.7167 72.1304L81.0756 78.3545L82.8356 77.4047ZM78.1268 70.7728L77.1349 71.3008L78.0747 73.0663L79.0666 72.5382L78.1268 70.7728ZM76.7247 72.6583L80.1061 78.9273L81.8664 77.9778L78.4849 71.7088L76.7247 72.6583ZM80.0809 78.028L76.6881 85.2632L78.4989 86.1124L81.8917 78.8771L80.0809 78.028ZM77.1636 86.5906L78.178 87.0737L79.0379 85.268L78.0235 84.7849L77.1636 86.5906ZM79.5129 86.5964L82.8831 79.4286L81.0732 78.5776L77.703 85.7454L79.5129 86.5964ZM81.9782 80.0031H82.7108V78.0031H81.9782V80.0031ZM81.7108 79.0031V85.935H83.7108V79.0031H81.7108ZM82.7108 86.935H83.838V84.935H82.7108V86.935ZM84.838 85.935V79.0031H82.838V85.935H84.838ZM83.838 80.0031H84.9651V78.0031H83.838V80.0031ZM84.055 79.4174L87.3125 86.5739L89.1328 85.7454L85.8753 78.5888L84.055 79.4174ZM88.6323 87.0719L89.658 86.6113L88.8387 84.7868L87.813 85.2474L88.6323 87.0719ZM90.1583 85.2843L86.8557 78.0379L85.0358 78.8673L88.3384 86.1137L90.1583 85.2843ZM124.498 75.1496V85.699H126.498V75.1496H124.498ZM125.498 86.699H126.625V84.699H125.498V86.699ZM127.625 85.699V71.9252H125.625V85.699H127.625ZM126.797 70.9401L125.704 70.7491L125.359 72.7193L126.453 72.9102L126.797 70.9401ZM124.591 71.3951L120.634 82.3715L122.516 83.0497L126.472 72.0733L124.591 71.3951ZM122.575 82.7106V71.9252H120.575V82.7106H122.575ZM121.575 70.9252H120.448V72.9252H121.575V70.9252ZM119.448 71.9252V85.935H121.448V71.9252H119.448ZM120.276 86.92L121.369 87.111L121.713 85.1409L120.62 84.9499L120.276 86.92ZM122.482 86.465L126.438 75.4886L124.557 74.8105L120.601 85.7869L122.482 86.465ZM4.22684 99.0683H0V101.068H4.22684V99.0683ZM-1 100.068V107.27H1V100.068H-1ZM0 108.27H0.845368V106.27H0V108.27ZM1.84537 107.27V100.911H-0.154632V107.27H1.84537ZM0.845368 101.911H3.38147V99.9109H0.845368V101.911ZM2.38147 100.911V107.27H4.38147V100.911H2.38147ZM3.38147 108.27H4.22684V106.27H3.38147V108.27ZM5.22684 107.27V100.068H3.22684V107.27H5.22684ZM10.5984 102.405C10.5984 103.137 9.99473 103.742 9.26523 103.742V105.742C11.1057 105.742 12.5984 104.235 12.5984 102.405H10.5984ZM9.26523 103.742H8.57767V105.742H9.26523V103.742ZM7.57767 104.742V107.27H9.57767V104.742H7.57767ZM8.57767 106.27H7.7323V108.27H8.57767V106.27ZM8.7323 107.27V100.068H6.7323V107.27H8.7323ZM7.7323 101.068H9.26523V99.0683H7.7323V101.068ZM9.26523 101.068C9.99785 101.068 10.5984 101.665 10.5984 102.405H12.5984C12.5984 100.561 11.1025 99.0683 9.26523 99.0683V101.068ZM11.7531 102.405C11.7531 101.039 10.6471 99.9109 9.26523 99.9109V101.911C9.52904 101.911 9.75308 102.131 9.75308 102.405H11.7531ZM9.26523 99.9109H8.57767V101.911H9.26523V99.9109ZM7.57767 100.911V103.899H9.57767V100.911H7.57767ZM8.57767 104.899H9.26523V102.899H8.57767V104.899ZM9.26523 104.899C10.6471 104.899 11.7531 103.771 11.7531 102.405H9.75308C9.75308 102.68 9.52904 102.899 9.26523 102.899V104.899ZM55.4561 105.821H56.1324V103.821H55.4561V105.821ZM56.1324 105.821C57.9779 105.821 59.4769 104.331 59.4769 102.484H57.4769C57.4769 103.22 56.8795 103.821 56.1324 103.821V105.821ZM59.4769 102.484C59.4769 100.636 57.9779 99.147 56.1324 99.147V101.147C56.8795 101.147 57.4769 101.747 57.4769 102.484H59.4769ZM56.1324 99.147H54.6108V101.147H56.1324V99.147ZM53.6108 100.147V107.348H55.6108V100.147H53.6108ZM54.6108 108.348H55.4561V106.348H54.6108V108.348ZM56.4561 107.348V104.821H54.4561V107.348H56.4561ZM55.4561 102.001H56.1324V100.001H55.4561V102.001ZM56.1324 102.001C56.4061 102.001 56.6316 102.23 56.6316 102.495H58.6316C58.6316 101.12 57.5045 100.001 56.1324 100.001V102.001ZM56.6316 102.495C56.6316 102.76 56.4061 102.989 56.1324 102.989V104.989C57.5045 104.989 58.6316 103.871 58.6316 102.495H56.6316ZM56.1324 102.989H55.4561V104.989H56.1324V102.989ZM56.4561 103.989V101.012H54.4561V103.989H56.4561ZM56.4561 101.012V101.001H54.4561V101.012H56.4561ZM124.979 105.596H125.656V103.596H124.979V105.596ZM125.656 105.596C127.501 105.596 129 104.106 129 102.259H127C127 102.996 126.403 103.596 125.656 103.596V105.596ZM129 102.259C129 100.412 127.501 98.9223 125.656 98.9223V100.922C126.403 100.922 127 101.522 127 102.259H129ZM125.656 98.9223H124.134V100.922H125.656V98.9223ZM123.134 99.9223V107.124H125.134V99.9223H123.134ZM124.134 108.124H124.979V106.124H124.134V108.124ZM125.979 107.124V104.596H123.979V107.124H125.979ZM124.979 101.776H125.656V99.7761H124.979V101.776ZM125.656 101.776C125.929 101.776 126.155 102.006 126.155 102.27H128.155C128.155 100.895 127.028 99.7761 125.656 99.7761V101.776ZM126.155 102.27C126.155 102.535 125.929 102.765 125.656 102.765V104.765C127.028 104.765 128.155 103.646 128.155 102.27H126.155ZM125.656 102.765H124.979V104.765H125.656V102.765ZM125.979 103.765V100.787H123.979V103.765H125.979ZM125.979 100.787V100.776H123.979V100.787H125.979ZM20.3307 105.124V102.36H18.3307V105.124H20.3307ZM20.3307 102.36C20.3307 100.547 18.8542 99.0796 17.0426 99.0796V101.08C17.7558 101.08 18.3307 101.657 18.3307 102.36H20.3307ZM17.0426 99.0796C15.231 99.0796 13.7545 100.547 13.7545 102.36H15.7545C15.7545 101.657 16.3294 101.08 17.0426 101.08V99.0796ZM13.7545 102.36V105.124H15.7545V102.36H13.7545ZM13.7545 105.124C13.7545 106.938 15.231 108.405 17.0426 108.405V106.405C16.3294 106.405 15.7545 105.827 15.7545 105.124H13.7545ZM17.0426 108.405C18.8542 108.405 20.3307 106.938 20.3307 105.124H18.3307C18.3307 105.827 17.7558 106.405 17.0426 106.405V108.405ZM17.4854 102.36V105.124H19.4854V102.36H17.4854ZM17.4854 105.124C17.4854 105.36 17.2886 105.562 17.0426 105.562V107.562C18.3972 107.562 19.4854 106.461 19.4854 105.124H17.4854ZM17.0426 105.562C16.7915 105.562 16.5999 105.366 16.5999 105.124H14.5999C14.5999 106.477 15.6931 107.562 17.0426 107.562V105.562ZM16.5999 105.124V102.36H14.5999V105.124H16.5999ZM16.5999 102.36C16.5999 102.124 16.7966 101.922 17.0426 101.922V99.9222C15.6881 99.9222 14.5999 101.024 14.5999 102.36H16.5999ZM17.0426 101.922C17.2937 101.922 17.4854 102.118 17.4854 102.36H19.4854C19.4854 101.007 18.3921 99.9222 17.0426 99.9222V101.922ZM26.8521 106.337V109H28.8521V106.337H26.8521ZM27.8521 108H27.0067V110H27.8521V108ZM28.0067 109V107.393H26.0067V109H28.0067ZM27.0067 106.393H22.7122V108.393H27.0067V106.393ZM21.7122 107.393V109H23.7122V107.393H21.7122ZM22.7122 108H21.8669V110H22.7122V108ZM22.8669 109V106.551H20.8669V109H22.8669ZM21.8669 107.551H22.7686V105.551H21.8669V107.551ZM23.6614 107.001C24.768 104.808 24.8059 102.767 24.8727 100.525L22.8736 100.465C22.8052 102.763 22.753 104.362 21.8758 106.1L23.6614 107.001ZM24.8732 100.495V100.08H22.8732V100.495H24.8732ZM23.8732 101.08H27.2209V99.0796H23.8732V101.08ZM26.2209 100.08V106.337H28.2209V100.08H26.2209ZM27.2209 107.337H27.8521V105.337H27.2209V107.337ZM23.7041 107.551H26.3755V105.551H23.7041V107.551ZM27.3755 106.551V100.922H25.3755V106.551H27.3755ZM26.3755 99.9222H24.7073V101.922H26.3755V99.9222ZM23.7077 100.894C23.6515 102.878 23.5483 104.472 22.7933 106.138L24.6149 106.964C25.5507 104.899 25.6504 102.944 25.7069 100.951L23.7077 100.894ZM36.5569 102.371V105.102H38.5569V102.371H36.5569ZM36.5569 105.102C36.5569 105.808 35.9788 106.393 35.2575 106.393V108.393C37.0836 108.393 38.5569 106.912 38.5569 105.102H36.5569ZM35.2575 106.393C34.5362 106.393 33.9581 105.808 33.9581 105.102H31.9581C31.9581 106.912 33.4314 108.393 35.2575 108.393V106.393ZM33.9581 105.102V103.776H31.9581V105.102H33.9581ZM32.9581 102.776H31.6731V104.776H32.9581V102.776ZM30.6731 103.776V106.966H32.6731V103.776H30.6731ZM31.6731 105.966H30.8278V107.966H31.6731V105.966ZM31.8278 106.966V100.506H29.8278V106.966H31.8278ZM30.8278 101.506H31.6731V99.5065H30.8278V101.506ZM30.6731 100.506V102.933H32.6731V100.506H30.6731ZM31.6731 103.933H32.9581V101.933H31.6731V103.933ZM33.9581 102.933V102.371H31.9581V102.933H33.9581ZM33.9581 102.371C33.9581 101.665 34.5362 101.08 35.2575 101.08V99.0796C33.4314 99.0796 31.9581 100.561 31.9581 102.371H33.9581ZM35.2575 101.08C35.9788 101.08 36.5569 101.665 36.5569 102.371H38.5569C38.5569 100.561 37.0836 99.0796 35.2575 99.0796V101.08ZM37.7115 102.371C37.7115 101.023 36.6233 99.9222 35.2575 99.9222V101.922C35.5148 101.922 35.7115 102.124 35.7115 102.371H37.7115ZM35.2575 99.9222C33.8917 99.9222 32.8035 101.023 32.8035 102.371H34.8035C34.8035 102.124 35.0002 101.922 35.2575 101.922V99.9222ZM32.8035 102.371V105.102H34.8035V102.371H32.8035ZM32.8035 105.102C32.8035 106.455 33.908 107.551 35.2575 107.551V105.551C35.0064 105.551 34.8035 105.344 34.8035 105.102H32.8035ZM35.2575 107.551C36.607 107.551 37.7115 106.455 37.7115 105.102H35.7115C35.7115 105.344 35.5086 105.551 35.2575 105.551V107.551ZM37.7115 105.102V102.371H35.7115V105.102H37.7115ZM46.4835 106.252L45.9086 105.634L44.4443 106.996L45.0192 107.614L46.4835 106.252ZM44.4972 105.581C44.3943 105.676 44.3271 105.716 44.2935 105.731C44.2777 105.739 44.2693 105.741 44.2671 105.741C44.2653 105.742 44.2647 105.742 44.2635 105.742V107.742C44.902 107.742 45.4262 107.446 45.8557 107.049L44.4972 105.581ZM44.2635 105.742C43.7344 105.742 43.3135 105.314 43.3135 104.798H41.3135C41.3135 106.417 42.6284 107.742 44.2635 107.742V105.742ZM43.3135 104.798V102.416H41.3135V104.798H43.3135ZM43.3135 102.416C43.3135 102.292 43.4209 102.181 43.5534 102.181V100.181C42.3107 100.181 41.3135 101.193 41.3135 102.416H43.3135ZM43.5534 102.181H44.7932V100.181H43.5534V102.181ZM45.7932 101.181V100.338H43.7932V101.181H45.7932ZM44.7932 99.338H43.5534V101.338H44.7932V99.338ZM43.5534 99.338C41.8545 99.338 40.4681 100.715 40.4681 102.416H42.4681C42.4681 101.826 42.9529 101.338 43.5534 101.338V99.338ZM40.4681 102.416V104.798H42.4681V102.416H40.4681ZM40.4681 104.798C40.4681 106.895 42.1727 108.584 44.2747 108.584V106.584C43.2658 106.584 42.4681 105.779 42.4681 104.798H40.4681ZM44.2747 108.584C45.1114 108.584 45.8243 108.214 46.421 107.675L45.0816 106.19C44.7315 106.506 44.475 106.584 44.2747 106.584V108.584ZM66.2425 106.117L65.6677 105.499L64.2034 106.861L64.7782 107.479L66.2425 106.117ZM64.2563 105.446C64.1534 105.541 64.0861 105.581 64.0526 105.597C64.0368 105.604 64.0283 105.606 64.0262 105.607C64.0244 105.607 64.0238 105.607 64.0225 105.607V107.607C64.661 107.607 65.1852 107.312 65.6148 106.914L64.2563 105.446ZM64.0225 105.607C63.4934 105.607 63.0726 105.179 63.0726 104.663H61.0726C61.0726 106.282 62.3875 107.607 64.0225 107.607V105.607ZM63.0726 104.663V102.282H61.0726V104.663H63.0726ZM63.0726 102.282C63.0726 102.157 63.18 102.046 63.3124 102.046V100.046C62.0698 100.046 61.0726 101.058 61.0726 102.282H63.0726ZM63.3124 102.046H64.5523V100.046H63.3124V102.046ZM65.5523 101.046V100.203H63.5523V101.046H65.5523ZM64.5523 99.2031H63.3124V101.203H64.5523V99.2031ZM63.3124 99.2031C61.6135 99.2031 60.2272 100.58 60.2272 102.282H62.2272C62.2272 101.691 62.7119 101.203 63.3124 101.203V99.2031ZM60.2272 102.282V104.663H62.2272V102.282H60.2272ZM60.2272 104.663C60.2272 106.761 61.9318 108.45 64.0338 108.45V106.45C63.0249 106.45 62.2272 105.645 62.2272 104.663H60.2272ZM64.0338 108.45C64.8844 108.45 65.586 108.076 66.1801 107.541L64.8407 106.055C64.488 106.373 64.2427 106.45 64.0338 106.45V108.45ZM52.2293 100.922V100.08H50.2293V100.922H52.2293ZM51.2293 99.0796H48.1409V101.08H51.2293V99.0796ZM47.1409 100.08V107.584H49.1409V100.08H47.1409ZM48.1409 108.584H51.2293V106.584H48.1409V108.584ZM52.2293 107.584V106.742H50.2293V107.584H52.2293ZM51.2293 105.742H48.9863V107.742H51.2293V105.742ZM49.9863 106.742V104.158H47.9863V106.742H49.9863ZM48.9863 105.158H50.7446V103.158H48.9863V105.158ZM51.7446 104.158V103.315H49.7446V104.158H51.7446ZM50.7446 102.315H48.9863V104.315H50.7446V102.315ZM49.9863 103.315V100.922H47.9863V103.315H49.9863ZM48.9863 101.922H51.2293V99.9222H48.9863V101.922ZM107.64 100.821V99.9784H105.64V100.821H107.64ZM106.64 98.9784H103.552V100.978H106.64V98.9784ZM102.552 99.9784V107.483H104.552V99.9784H102.552ZM103.552 108.483H106.64V106.483H103.552V108.483ZM107.64 107.483V106.641H105.64V107.483H107.64ZM106.64 105.641H104.397V107.641H106.64V105.641ZM105.397 106.641V104.057H103.397V106.641H105.397ZM104.397 105.057H106.156V103.057H104.397V105.057ZM107.156 104.057V103.214H105.156V104.057H107.156ZM106.156 102.214H104.397V104.214H106.156V102.214ZM105.397 103.214V100.821H103.397V103.214H105.397ZM104.397 101.821H106.64V99.8211H104.397V101.821ZM70.5064 104.345L72.8734 101.39L71.3125 100.14L68.9455 103.094L70.5064 104.345ZM72.7148 99.9817L72.0498 99.4537L70.8061 101.02L71.4712 101.548L72.7148 99.9817ZM70.6472 99.6121L68.4717 102.331L70.0334 103.58L72.2088 100.862L70.6472 99.6121ZM70.2526 102.956V100.506H68.2526V102.956H70.2526ZM69.2526 99.5065H68.4072V101.506H69.2526V99.5065ZM67.4072 100.506V107.382H69.4072V100.506H67.4072ZM68.4072 108.382H69.2526V106.382H68.4072V108.382ZM70.2526 107.382V104.461H68.2526V107.382H70.2526ZM68.5154 105.137L71.2543 108.125L72.7288 106.774L69.9898 103.785L68.5154 105.137ZM72.6564 108.197L73.2876 107.635L71.9579 106.141L71.3267 106.703L72.6564 108.197ZM73.3608 106.213L70.464 103.045L68.9879 104.394L71.8847 107.563L73.3608 106.213ZM78.0025 102.349V107.382H80.0025V102.349H78.0025ZM79.0025 108.382H79.8478V106.382H79.0025V108.382ZM80.8478 107.382V100.506H78.8478V107.382H80.8478ZM79.8478 99.5065H79.025V101.506H79.8478V99.5065ZM78.1304 100.06L75.6168 105.093L77.4061 105.986L79.9197 100.953L78.1304 100.06ZM77.5115 105.54V100.506H75.5115V105.54H77.5115ZM76.5115 99.5065H75.6661V101.506H76.5115V99.5065ZM74.6661 100.506V107.382H76.6661V100.506H74.6661ZM75.6661 108.382H76.4776V106.382H75.6661V108.382ZM77.3715 107.831L79.8963 102.797L78.1086 101.901L75.5838 106.934L77.3715 107.831ZM85.9827 102.248V107.281H87.9827V102.248H85.9827ZM86.9827 108.281H87.8281V106.281H86.9827V108.281ZM88.8281 107.281V100.405H86.8281V107.281H88.8281ZM87.8281 99.4054H87.0053V101.405H87.8281V99.4054ZM86.1106 99.9586L83.5971 104.992L85.3864 105.885L87.8999 100.852L86.1106 99.9586ZM85.4917 105.439V100.405H83.4917V105.439H85.4917ZM84.4917 99.4054H83.6464V101.405H84.4917V99.4054ZM82.6464 100.405V107.281H84.6464V100.405H82.6464ZM83.6464 108.281H84.4579V106.281H83.6464V108.281ZM85.3517 107.729L87.8766 102.696L86.0889 101.799L83.5641 106.833L85.3517 107.729ZM83.7708 99.1141C84.2133 99.7277 84.8596 100.338 85.7429 100.338C86.6261 100.338 87.2725 99.7277 87.715 99.1141L86.0927 97.9443C85.9391 98.1573 85.8217 98.2658 85.7504 98.3155C85.687 98.3597 85.6897 98.3381 85.7429 98.3381C85.7961 98.3381 85.7988 98.3597 85.7353 98.3155C85.664 98.2658 85.5466 98.1573 85.393 97.9443L83.7708 99.1141ZM100.314 106.742V100.506H98.3138V106.742H100.314ZM99.3138 99.5065H98.4685V101.506H99.3138V99.5065ZM97.4685 100.506V106.742H99.4685V100.506H97.4685ZM98.4685 105.742H96.2592V107.742H98.4685V105.742ZM97.2592 106.742V100.506H95.2592V106.742H97.2592ZM96.2592 99.5065H95.4139V101.506H96.2592V99.5065ZM94.4139 100.506V107.584H96.4139V100.506H94.4139ZM95.4139 108.584H99.3815V106.584H95.4139V108.584ZM98.3815 107.584V108.933H100.381V107.584H98.3815ZM99.3815 109.933H100.227V107.933H99.3815V109.933ZM101.227 108.933V106.742H99.2268V108.933H101.227ZM100.227 105.742H99.3138V107.742H100.227V105.742ZM112.11 100.506V103.416H114.11V100.506H112.11ZM113.11 102.416H110.822V104.416H113.11V102.416ZM111.822 103.416V100.506H109.822V103.416H111.822ZM110.822 99.5065H109.977V101.506H110.822V99.5065ZM108.977 100.506V107.169H110.977V100.506H108.977ZM109.977 108.169H110.822V106.169H109.977V108.169ZM111.822 107.169V104.259H109.822V107.169H111.822ZM110.822 105.259H113.11V103.259H110.822V105.259ZM112.11 104.259V107.169H114.11V104.259H112.11ZM113.11 108.169H113.956V106.169H113.11V108.169ZM114.956 107.169V100.506H112.956V107.169H114.956ZM113.956 99.5065H113.11V101.506H113.956V99.5065ZM116.191 100.08V100.922H118.191V100.08H116.191ZM117.191 101.922H118.859V99.9222H117.191V101.922ZM117.859 100.922V107.393H119.859V100.922H117.859ZM118.859 108.393H119.704V106.393H118.859V108.393ZM120.704 107.393V100.922H118.704V107.393H120.704ZM119.704 101.922H121.372V99.9222H119.704V101.922ZM122.372 100.922V100.08H120.372V100.922H122.372ZM121.372 99.0796H117.191V101.08H121.372V99.0796ZM15.0926 94.1814H30.9517V92.1814H15.0926V94.1814ZM31.9515 93.2056C32.2443 81.104 32.5721 68.85 32.3291 58.4327C32.2075 53.2228 31.9429 48.4534 31.4565 44.3785C30.9718 40.3184 30.26 36.8828 29.2146 34.3756L27.3687 35.1453C28.3071 37.3961 28.9929 40.6142 29.4706 44.6155C29.9465 48.6019 30.2088 53.3013 30.3296 58.4794C30.5713 68.838 30.2453 81.0366 29.952 93.1572L31.9515 93.2056ZM27.603 34.0354C24.799 36.6985 22.6258 40.8875 20.917 45.7719C19.2006 50.6782 17.9168 56.3932 16.9522 62.2106C15.0227 73.8469 14.3531 86.0024 14.0933 93.1451L16.092 93.2177C16.3507 86.1034 17.0167 74.0479 18.9252 62.5378C19.8796 56.7819 21.1404 51.1898 22.8048 46.4324C24.4767 41.6532 26.5205 37.8219 28.9803 35.4855L27.603 34.0354ZM52.0495 -0.401918L51.8128 0.137352L53.6441 0.941188L53.8808 0.401918L52.0495 -0.401918ZM51.8113 0.140677C48.2872 8.24922 46.3997 16.9615 46.2281 25.7981L48.2277 25.837C48.3943 17.2597 50.2263 8.8052 53.6456 0.937864L51.8113 0.140677ZM46.2281 25.7989L45.6194 58.391L47.6191 58.4284L48.2277 25.8362L46.2281 25.7989ZM46.491 59.4014C49.0541 59.7329 51.5142 61.111 53.3759 63.0073C55.2437 64.91 56.421 67.2423 56.5546 69.3919L58.5507 69.2679C58.38 66.5192 56.9141 63.7565 54.8031 61.6062C52.6859 59.4496 49.8314 57.8168 46.7475 57.418L46.491 59.4014ZM56.5548 69.3959L58.1329 93.2474L60.1285 93.1154L58.5505 69.2639L56.5548 69.3959ZM59.1307 94.1814H67.528V92.1814H59.1307V94.1814ZM68.5245 93.0976C66.8507 73.1954 65.0735 53.8411 62.7797 37.4739C60.491 21.1433 57.6729 7.65922 53.87 -0.425638L52.0602 0.425638C55.7191 8.20431 58.5086 21.4085 60.799 37.7515C63.0843 54.0579 64.8577 73.3625 66.5315 93.2652L68.5245 93.0976ZM95.4863 23.6825C94.2431 45.6154 94.9445 68.9974 96.8177 93.2584L98.8118 93.1044C96.9428 68.8985 96.2465 45.6112 97.4831 23.7957L95.4863 23.6825ZM97.8147 94.1814H106.64V92.1814H97.8147V94.1814ZM107.636 93.2743L107.681 92.7912L105.69 92.6054L105.645 93.0885L107.636 93.2743ZM107.682 92.785C107.958 89.6128 110.352 87.0272 113.51 86.5059L113.184 84.5326C109.128 85.2022 106.045 88.5262 105.689 92.6117L107.682 92.785ZM114.339 85.3956C112.607 71.4915 110.51 58.7514 107.775 48.0948C105.047 37.4613 101.659 28.7983 97.2879 23.1286L95.704 24.3497C99.8208 29.69 103.128 38.0309 105.838 48.5919C108.542 59.1297 110.627 71.7746 112.355 85.6429L114.339 85.3956ZM96.4959 22.7391H96.4847V24.7391H96.4959V22.7391Z" fill="black" mask="url(#path-1-inside-1_899_4545)"/>
</svg>
