<svg width="114" height="108" viewBox="0 0 114 108" fill="none" xmlns="http://www.w3.org/2000/svg">
<mask id="path-1-outside-1_899_4534" maskUnits="userSpaceOnUse" x="-1" y="0" width="115" height="108" fill="black">
<rect fill="white" x="-1" width="115" height="108"/>
<path d="M33.8783 60.4H26.4983C25.7583 60.4 25.0783 59.99 24.7283 59.34L16.6183 44.02C16.1983 43.22 15.3683 42.72 14.4683 42.72H14.1483C12.6083 42.72 11.3483 43.97 11.3483 45.52V58.4C11.3483 59.5 10.4483 60.4 9.3483 60.4H3.3483C2.2483 60.4 1.3483 59.5 1.3483 58.4V17.04C1.3483 15.94 2.2483 15.04 3.3483 15.04H9.3483C10.4483 15.04 11.3483 15.94 11.3483 17.04V30.96C11.3483 31.93 12.1383 32.72 13.1083 32.72H14.3583C15.3683 32.72 16.3083 32.17 16.7983 31.28L25.2583 16.06C25.6083 15.43 26.2783 15.03 27.0083 15.03H35.0083C36.5083 15.03 37.4783 16.62 36.7783 17.95L25.1383 36.45C24.7783 37.13 24.7983 37.95 25.1683 38.62L35.6183 57.41C36.3583 58.74 35.3983 60.38 33.8683 60.38L33.8783 60.4ZM70.9083 51.07C71.5883 50.11 71.3183 48.78 70.3083 48.18L65.1283 45.11C64.2483 44.59 63.1183 44.82 62.5083 45.64C60.7983 47.94 58.2383 50.41 56.5383 50.41H53.6683C50.9783 50.41 48.2383 48.17 48.2383 45.98V42.79C48.2383 42.79 48.2683 42.73 48.2983 42.73H66.3483C69.3583 42.73 71.7983 40.29 71.7983 37.28V31.84C71.7983 23.05 64.9983 15.81 56.3783 15.11C46.4183 14.3 38.2283 22.38 38.2283 32.38V45.99C38.2283 53.68 45.4383 60.42 53.6583 60.42H56.5283C63.3483 60.42 68.6083 54.31 70.8983 51.09L70.9083 51.07ZM48.2383 31.82C48.2383 27.8 51.7483 24.59 55.8583 25.09C59.3083 25.51 61.8083 28.63 61.8083 32.11V32.65C61.8083 32.65 61.7783 32.71 61.7483 32.71H48.2483V31.81L48.2383 31.82ZM84.3883 3.89L87.6883 18.56C88.1483 20.62 89.9783 22.08 92.0883 22.08C94.2183 22.08 96.0583 20.59 96.5083 18.5L99.6283 3.78C99.9083 2.34 98.7983 1 97.3283 1H86.6583C85.1483 1 84.0383 2.41 84.3783 3.88L84.3883 3.89ZM101.928 16.32C99.7083 16.32 97.7983 17.88 97.3383 20.04L96.3883 24.5C95.8783 26.9 93.5183 28.51 90.9883 27.97C89.2483 27.6 87.9283 26.17 87.4183 23.89L86.5483 20.01C86.0683 17.86 84.1483 16.34 81.9483 16.35C78.5883 16.35 75.6083 16.37 73.3883 16.37C71.7483 16.37 70.8183 18.25 71.7983 19.57L85.7583 38.27C86.0183 38.62 86.1583 39.03 86.1583 39.47V57.97C86.1683 59.07 87.0583 59.96 88.1483 59.97L96.0583 60.04C97.1683 60.04 98.0783 59.15 98.0783 58.04V38.85C98.0883 38.42 98.2283 38 98.4883 37.66L111.938 19.51C112.918 18.19 111.978 16.32 110.328 16.32C108.138 16.32 105.208 16.32 101.918 16.33L101.928 16.32ZM15.8383 87.93C17.6383 86.36 18.6483 84.08 18.5983 81.69C18.5383 78.79 16.5183 76.3 13.7483 75.45L7.7183 73.61C6.6183 73.27 6.1883 71.91 6.9383 71.04C7.1583 70.78 7.6583 70.35 8.4583 70.35H10.7083C12.1183 70.39 13.1283 71.37 13.6683 72.08C13.9683 72.47 14.5083 72.59 14.9483 72.35L17.6983 70.83C18.1483 70.58 18.3183 70.01 18.0683 69.55C16.6383 66.96 13.9183 65.35 10.9583 65.35H8.5383C7.5183 65.35 6.4883 65.53 5.5683 65.96C2.5483 67.37 1.0283 70.5 1.5483 73.55C1.9383 75.8 3.6483 77.6 5.8383 78.27L12.4483 80.29C13.0883 80.49 13.5783 81.06 13.5983 81.73C13.6383 82.75 13.2083 83.67 12.3983 84.3C11.7183 84.82 10.8383 85 9.9983 84.88L8.6283 84.69C7.3183 84.51 6.1783 83.73 5.5283 82.58L5.4783 82.49C5.2083 82.01 4.5983 81.84 4.1183 82.11L1.5083 83.58C1.0283 83.85 0.858297 84.46 1.1283 84.94L1.1783 85.03C2.5883 87.54 5.0983 89.25 7.9583 89.64L9.4483 89.84C9.8183 89.89 10.1783 89.92 10.5483 89.92C12.4883 89.92 14.3683 89.22 15.8483 87.93H15.8383ZM37.2383 65.34H21.1683C20.6183 65.34 20.1683 65.79 20.1683 66.34V69.34C20.1683 69.89 20.6183 70.34 21.1683 70.34H25.8083C26.2983 70.34 26.6983 70.74 26.6983 71.23V88.62C26.6983 89.17 27.1483 89.62 27.6983 89.62H30.6983C31.2483 89.62 31.6983 89.17 31.6983 88.62V71.23C31.6983 70.74 32.0983 70.34 32.5883 70.34H37.2383C37.7883 70.34 38.2383 69.89 38.2383 69.34V66.34C38.2383 65.79 37.7883 65.34 37.2383 65.34ZM57.5183 80.71V74.56C57.5183 69.48 53.3783 65.34 48.2983 65.34C43.2183 65.34 39.0783 69.48 39.0783 74.56V80.71C39.0783 85.79 43.2183 89.93 48.2983 89.93C53.3783 89.93 57.5183 85.79 57.5183 80.71ZM52.5183 74.56V80.71C52.5183 83.04 50.6283 84.93 48.2983 84.93C45.9683 84.93 44.0783 83.04 44.0783 80.71V74.56C44.0783 72.23 45.9683 70.34 48.2983 70.34C50.6283 70.34 52.5183 72.23 52.5183 74.56ZM75.5483 89.93H79.4883C80.0383 89.93 80.4883 89.48 80.4883 88.93V67.35C80.4883 66.8 80.0383 66.35 79.4883 66.35H76.4883C75.9383 66.35 75.4883 66.8 75.4883 67.35V77.34C75.4883 78.36 74.1483 78.72 73.6283 77.85L67.0883 66.83C66.9083 66.53 66.5783 66.34 66.2283 66.34H62.3983C61.8483 66.34 61.3983 66.79 61.3983 67.35V88.93C61.3983 89.48 61.8483 89.93 62.3983 89.93H65.3983C65.9483 89.93 66.3983 89.48 66.3983 88.93V79.11C66.3983 78.09 67.7383 77.73 68.2583 78.6L74.6983 89.44C74.8783 89.74 75.2083 89.93 75.5583 89.93H75.5483ZM100.618 86.93L101.458 85.79C101.788 85.35 101.688 84.72 101.248 84.39L98.8383 82.61C98.3983 82.28 97.7683 82.38 97.4383 82.82L96.5983 83.96C96.1483 84.57 95.4383 84.93 94.6783 84.93H91.6583C90.3583 84.93 89.2783 83.86 89.2783 82.56V80.73H98.8183C100.558 80.73 101.968 79.32 101.968 77.58V74.57C101.968 69.59 98.0083 65.31 93.0283 65.35C90.4683 65.37 88.0883 66.46 86.3883 68.41C84.9083 70.11 84.2083 72.34 84.2183 74.59L84.2783 82.6C84.3083 86.63 87.6283 89.93 91.6583 89.93H94.6783C97.0183 89.93 99.2283 88.82 100.618 86.93ZM89.2283 74.93V74.42C89.2183 73.48 89.4783 72.54 90.0683 71.8C90.8783 70.79 92.0783 70.26 93.3583 70.34C95.3583 70.47 96.9783 72.39 96.9783 74.4V74.73C96.9783 75.28 96.5283 75.72 95.9883 75.72H90.0383C89.5983 75.72 89.2483 75.37 89.2383 74.93H89.2283ZM41.7683 98.03H40.5483V102.85H41.7683C43.0383 102.85 43.9983 101.81 43.9983 100.44C43.9983 99.07 43.0383 98.03 41.7683 98.03ZM34.4983 98.03C33.2983 98.03 32.3183 99.01 32.3183 100.21V100.68C32.3183 101.88 33.2983 102.86 34.4983 102.86C35.6983 102.86 36.6783 101.88 36.6783 100.68V100.21C36.6783 99.01 35.6983 98.03 34.4983 98.03ZM73.5483 98.25C72.3483 98.25 71.3683 99.23 71.3683 100.43V100.9C71.3683 102.1 72.3483 103.08 73.5483 103.08C74.7483 103.08 75.7283 102.1 75.7283 100.9V100.43C75.7283 99.23 74.7483 98.25 73.5483 98.25ZM28.4683 99.07C28.4683 98.5 27.9983 98.03 27.4183 98.03H26.2383V100.12H27.4183C27.9983 100.12 28.4683 99.65 28.4683 99.07ZM21.0183 98.03H20.0283V100.45H21.0083C21.3583 100.45 21.6383 100.33 21.8683 100.11C22.0983 99.88 22.2283 99.58 22.2283 99.25C22.2283 98.58 21.6883 98.04 21.0183 98.04V98.03ZM101.478 96.19V104.19C101.478 105.29 100.578 106.19 99.4783 106.19H3.4783C2.3783 106.19 1.4783 105.29 1.4783 104.19V96.19C1.4783 95.09 2.3783 94.19 3.4783 94.19H99.4783C100.578 94.19 101.478 95.09 101.478 96.19ZM23.2383 99.24C23.2383 98.02 22.2483 97.03 21.0283 97.03H19.0383V103.35H20.0383V101.45H21.0083C21.0083 101.45 21.0183 101.45 21.0283 101.45C21.6183 101.45 22.1683 101.22 22.5883 100.81C23.0083 100.39 23.2383 99.84 23.2383 99.24ZM29.5883 103.03L27.9483 101.05C28.8283 100.82 29.4783 100.02 29.4783 99.07C29.4783 97.95 28.5583 97.03 27.4283 97.03H25.2483V103.35H26.2483V101.12H26.7083L28.8183 103.67L29.5883 103.03ZM37.6783 100.21C37.6783 98.46 36.2583 97.03 34.4983 97.03C32.7383 97.03 31.3183 98.45 31.3183 100.21V100.68C31.3183 102.43 32.7383 103.86 34.4983 103.86C36.2583 103.86 37.6783 102.44 37.6783 100.68V100.21ZM44.9983 100.44C44.9983 98.5 43.6083 97.03 41.7683 97.03H39.5483V103.85H41.7683C43.6083 103.85 44.9983 102.38 44.9983 100.44ZM52.3783 97.53H51.3783V101.68C51.3783 102.57 50.6583 103.3 49.7683 103.3C48.8783 103.3 48.1583 102.58 48.1583 101.68V97.53H47.1583V101.68C47.1583 103.12 48.3283 104.3 49.7683 104.3C51.2083 104.3 52.3783 103.13 52.3783 101.68V97.53ZM55.1083 101.25V100.14C55.1083 99.01 56.0283 98.1 57.1483 98.1C57.6983 98.1 58.1483 98.55 58.1483 99.1H59.1483C59.1483 98 58.2483 97.1 57.1483 97.1C55.4683 97.1 54.1083 98.46 54.1083 100.14V101.25C54.1083 102.93 55.4683 104.29 57.1483 104.29C58.2483 104.29 59.1483 103.39 59.1483 102.29H58.1483C58.1483 102.84 57.6983 103.29 57.1483 103.29C56.0183 103.29 55.1083 102.37 55.1083 101.25ZM65.4083 97.36H60.6883V98.36H62.5683V103.35H63.5683V98.36H65.4083V97.36ZM68.3383 97.41H67.3383V103.79H68.3383V97.41ZM76.7383 100.42C76.7383 98.67 75.3183 97.24 73.5583 97.24C71.7983 97.24 70.3783 98.66 70.3783 100.42V100.89C70.3783 102.64 71.7983 104.07 73.5583 104.07C75.3183 104.07 76.7383 102.65 76.7383 100.89V100.42ZM84.3083 97.61H83.3083V102.26L79.6783 97.32L78.7783 97.62V103.79H79.7783V99.14L83.4083 104.08L84.3083 103.78V97.61Z"/>
</mask>
<path d="M33.8783 60.4H26.4983C25.7583 60.4 25.0783 59.99 24.7283 59.34L16.6183 44.02C16.1983 43.22 15.3683 42.72 14.4683 42.72H14.1483C12.6083 42.72 11.3483 43.97 11.3483 45.52V58.4C11.3483 59.5 10.4483 60.4 9.3483 60.4H3.3483C2.2483 60.4 1.3483 59.5 1.3483 58.4V17.04C1.3483 15.94 2.2483 15.04 3.3483 15.04H9.3483C10.4483 15.04 11.3483 15.94 11.3483 17.04V30.96C11.3483 31.93 12.1383 32.72 13.1083 32.72H14.3583C15.3683 32.72 16.3083 32.17 16.7983 31.28L25.2583 16.06C25.6083 15.43 26.2783 15.03 27.0083 15.03H35.0083C36.5083 15.03 37.4783 16.62 36.7783 17.95L25.1383 36.45C24.7783 37.13 24.7983 37.95 25.1683 38.62L35.6183 57.41C36.3583 58.74 35.3983 60.38 33.8683 60.38L33.8783 60.4ZM70.9083 51.07C71.5883 50.11 71.3183 48.78 70.3083 48.18L65.1283 45.11C64.2483 44.59 63.1183 44.82 62.5083 45.64C60.7983 47.94 58.2383 50.41 56.5383 50.41H53.6683C50.9783 50.41 48.2383 48.17 48.2383 45.98V42.79C48.2383 42.79 48.2683 42.73 48.2983 42.73H66.3483C69.3583 42.73 71.7983 40.29 71.7983 37.28V31.84C71.7983 23.05 64.9983 15.81 56.3783 15.11C46.4183 14.3 38.2283 22.38 38.2283 32.38V45.99C38.2283 53.68 45.4383 60.42 53.6583 60.42H56.5283C63.3483 60.42 68.6083 54.31 70.8983 51.09L70.9083 51.07ZM48.2383 31.82C48.2383 27.8 51.7483 24.59 55.8583 25.09C59.3083 25.51 61.8083 28.63 61.8083 32.11V32.65C61.8083 32.65 61.7783 32.71 61.7483 32.71H48.2483V31.81L48.2383 31.82ZM84.3883 3.89L87.6883 18.56C88.1483 20.62 89.9783 22.08 92.0883 22.08C94.2183 22.08 96.0583 20.59 96.5083 18.5L99.6283 3.78C99.9083 2.34 98.7983 1 97.3283 1H86.6583C85.1483 1 84.0383 2.41 84.3783 3.88L84.3883 3.89ZM101.928 16.32C99.7083 16.32 97.7983 17.88 97.3383 20.04L96.3883 24.5C95.8783 26.9 93.5183 28.51 90.9883 27.97C89.2483 27.6 87.9283 26.17 87.4183 23.89L86.5483 20.01C86.0683 17.86 84.1483 16.34 81.9483 16.35C78.5883 16.35 75.6083 16.37 73.3883 16.37C71.7483 16.37 70.8183 18.25 71.7983 19.57L85.7583 38.27C86.0183 38.62 86.1583 39.03 86.1583 39.47V57.97C86.1683 59.07 87.0583 59.96 88.1483 59.97L96.0583 60.04C97.1683 60.04 98.0783 59.15 98.0783 58.04V38.85C98.0883 38.42 98.2283 38 98.4883 37.66L111.938 19.51C112.918 18.19 111.978 16.32 110.328 16.32C108.138 16.32 105.208 16.32 101.918 16.33L101.928 16.32ZM15.8383 87.93C17.6383 86.36 18.6483 84.08 18.5983 81.69C18.5383 78.79 16.5183 76.3 13.7483 75.45L7.7183 73.61C6.6183 73.27 6.1883 71.91 6.9383 71.04C7.1583 70.78 7.6583 70.35 8.4583 70.35H10.7083C12.1183 70.39 13.1283 71.37 13.6683 72.08C13.9683 72.47 14.5083 72.59 14.9483 72.35L17.6983 70.83C18.1483 70.58 18.3183 70.01 18.0683 69.55C16.6383 66.96 13.9183 65.35 10.9583 65.35H8.5383C7.5183 65.35 6.4883 65.53 5.5683 65.96C2.5483 67.37 1.0283 70.5 1.5483 73.55C1.9383 75.8 3.6483 77.6 5.8383 78.27L12.4483 80.29C13.0883 80.49 13.5783 81.06 13.5983 81.73C13.6383 82.75 13.2083 83.67 12.3983 84.3C11.7183 84.82 10.8383 85 9.9983 84.88L8.6283 84.69C7.3183 84.51 6.1783 83.73 5.5283 82.58L5.4783 82.49C5.2083 82.01 4.5983 81.84 4.1183 82.11L1.5083 83.58C1.0283 83.85 0.858297 84.46 1.1283 84.94L1.1783 85.03C2.5883 87.54 5.0983 89.25 7.9583 89.64L9.4483 89.84C9.8183 89.89 10.1783 89.92 10.5483 89.92C12.4883 89.92 14.3683 89.22 15.8483 87.93H15.8383ZM37.2383 65.34H21.1683C20.6183 65.34 20.1683 65.79 20.1683 66.34V69.34C20.1683 69.89 20.6183 70.34 21.1683 70.34H25.8083C26.2983 70.34 26.6983 70.74 26.6983 71.23V88.62C26.6983 89.17 27.1483 89.62 27.6983 89.62H30.6983C31.2483 89.62 31.6983 89.17 31.6983 88.62V71.23C31.6983 70.74 32.0983 70.34 32.5883 70.34H37.2383C37.7883 70.34 38.2383 69.89 38.2383 69.34V66.34C38.2383 65.79 37.7883 65.34 37.2383 65.34ZM57.5183 80.71V74.56C57.5183 69.48 53.3783 65.34 48.2983 65.34C43.2183 65.34 39.0783 69.48 39.0783 74.56V80.71C39.0783 85.79 43.2183 89.93 48.2983 89.93C53.3783 89.93 57.5183 85.79 57.5183 80.71ZM52.5183 74.56V80.71C52.5183 83.04 50.6283 84.93 48.2983 84.93C45.9683 84.93 44.0783 83.04 44.0783 80.71V74.56C44.0783 72.23 45.9683 70.34 48.2983 70.34C50.6283 70.34 52.5183 72.23 52.5183 74.56ZM75.5483 89.93H79.4883C80.0383 89.93 80.4883 89.48 80.4883 88.93V67.35C80.4883 66.8 80.0383 66.35 79.4883 66.35H76.4883C75.9383 66.35 75.4883 66.8 75.4883 67.35V77.34C75.4883 78.36 74.1483 78.72 73.6283 77.85L67.0883 66.83C66.9083 66.53 66.5783 66.34 66.2283 66.34H62.3983C61.8483 66.34 61.3983 66.79 61.3983 67.35V88.93C61.3983 89.48 61.8483 89.93 62.3983 89.93H65.3983C65.9483 89.93 66.3983 89.48 66.3983 88.93V79.11C66.3983 78.09 67.7383 77.73 68.2583 78.6L74.6983 89.44C74.8783 89.74 75.2083 89.93 75.5583 89.93H75.5483ZM100.618 86.93L101.458 85.79C101.788 85.35 101.688 84.72 101.248 84.39L98.8383 82.61C98.3983 82.28 97.7683 82.38 97.4383 82.82L96.5983 83.96C96.1483 84.57 95.4383 84.93 94.6783 84.93H91.6583C90.3583 84.93 89.2783 83.86 89.2783 82.56V80.73H98.8183C100.558 80.73 101.968 79.32 101.968 77.58V74.57C101.968 69.59 98.0083 65.31 93.0283 65.35C90.4683 65.37 88.0883 66.46 86.3883 68.41C84.9083 70.11 84.2083 72.34 84.2183 74.59L84.2783 82.6C84.3083 86.63 87.6283 89.93 91.6583 89.93H94.6783C97.0183 89.93 99.2283 88.82 100.618 86.93ZM89.2283 74.93V74.42C89.2183 73.48 89.4783 72.54 90.0683 71.8C90.8783 70.79 92.0783 70.26 93.3583 70.34C95.3583 70.47 96.9783 72.39 96.9783 74.4V74.73C96.9783 75.28 96.5283 75.72 95.9883 75.72H90.0383C89.5983 75.72 89.2483 75.37 89.2383 74.93H89.2283ZM41.7683 98.03H40.5483V102.85H41.7683C43.0383 102.85 43.9983 101.81 43.9983 100.44C43.9983 99.07 43.0383 98.03 41.7683 98.03ZM34.4983 98.03C33.2983 98.03 32.3183 99.01 32.3183 100.21V100.68C32.3183 101.88 33.2983 102.86 34.4983 102.86C35.6983 102.86 36.6783 101.88 36.6783 100.68V100.21C36.6783 99.01 35.6983 98.03 34.4983 98.03ZM73.5483 98.25C72.3483 98.25 71.3683 99.23 71.3683 100.43V100.9C71.3683 102.1 72.3483 103.08 73.5483 103.08C74.7483 103.08 75.7283 102.1 75.7283 100.9V100.43C75.7283 99.23 74.7483 98.25 73.5483 98.25ZM28.4683 99.07C28.4683 98.5 27.9983 98.03 27.4183 98.03H26.2383V100.12H27.4183C27.9983 100.12 28.4683 99.65 28.4683 99.07ZM21.0183 98.03H20.0283V100.45H21.0083C21.3583 100.45 21.6383 100.33 21.8683 100.11C22.0983 99.88 22.2283 99.58 22.2283 99.25C22.2283 98.58 21.6883 98.04 21.0183 98.04V98.03ZM101.478 96.19V104.19C101.478 105.29 100.578 106.19 99.4783 106.19H3.4783C2.3783 106.19 1.4783 105.29 1.4783 104.19V96.19C1.4783 95.09 2.3783 94.19 3.4783 94.19H99.4783C100.578 94.19 101.478 95.09 101.478 96.19ZM23.2383 99.24C23.2383 98.02 22.2483 97.03 21.0283 97.03H19.0383V103.35H20.0383V101.45H21.0083C21.0083 101.45 21.0183 101.45 21.0283 101.45C21.6183 101.45 22.1683 101.22 22.5883 100.81C23.0083 100.39 23.2383 99.84 23.2383 99.24ZM29.5883 103.03L27.9483 101.05C28.8283 100.82 29.4783 100.02 29.4783 99.07C29.4783 97.95 28.5583 97.03 27.4283 97.03H25.2483V103.35H26.2483V101.12H26.7083L28.8183 103.67L29.5883 103.03ZM37.6783 100.21C37.6783 98.46 36.2583 97.03 34.4983 97.03C32.7383 97.03 31.3183 98.45 31.3183 100.21V100.68C31.3183 102.43 32.7383 103.86 34.4983 103.86C36.2583 103.86 37.6783 102.44 37.6783 100.68V100.21ZM44.9983 100.44C44.9983 98.5 43.6083 97.03 41.7683 97.03H39.5483V103.85H41.7683C43.6083 103.85 44.9983 102.38 44.9983 100.44ZM52.3783 97.53H51.3783V101.68C51.3783 102.57 50.6583 103.3 49.7683 103.3C48.8783 103.3 48.1583 102.58 48.1583 101.68V97.53H47.1583V101.68C47.1583 103.12 48.3283 104.3 49.7683 104.3C51.2083 104.3 52.3783 103.13 52.3783 101.68V97.53ZM55.1083 101.25V100.14C55.1083 99.01 56.0283 98.1 57.1483 98.1C57.6983 98.1 58.1483 98.55 58.1483 99.1H59.1483C59.1483 98 58.2483 97.1 57.1483 97.1C55.4683 97.1 54.1083 98.46 54.1083 100.14V101.25C54.1083 102.93 55.4683 104.29 57.1483 104.29C58.2483 104.29 59.1483 103.39 59.1483 102.29H58.1483C58.1483 102.84 57.6983 103.29 57.1483 103.29C56.0183 103.29 55.1083 102.37 55.1083 101.25ZM65.4083 97.36H60.6883V98.36H62.5683V103.35H63.5683V98.36H65.4083V97.36ZM68.3383 97.41H67.3383V103.79H68.3383V97.41ZM76.7383 100.42C76.7383 98.67 75.3183 97.24 73.5583 97.24C71.7983 97.24 70.3783 98.66 70.3783 100.42V100.89C70.3783 102.64 71.7983 104.07 73.5583 104.07C75.3183 104.07 76.7383 102.65 76.7383 100.89V100.42ZM84.3083 97.61H83.3083V102.26L79.6783 97.32L78.7783 97.62V103.79H79.7783V99.14L83.4083 104.08L84.3083 103.78V97.61Z" stroke="black" stroke-width="2" mask="url(#path-1-outside-1_899_4534)"/>
</svg>
