<svg width="93" height="82" viewBox="0 0 93 82" fill="none" xmlns="http://www.w3.org/2000/svg">
<path d="M17.2009 68.0499V43.4399C17.2009 37.2199 12.1609 32.1899 5.95094 32.1899H3.46094V80.6699C3.46094 73.7399 10.2509 68.8599 17.2009 68.0599V68.0499Z" stroke="black" stroke-miterlimit="10"/>
<path d="M27.4909 80.66H3.46094C3.46094 76.86 5.50094 73.68 8.48094 71.44C11.4709 69.21 15.4109 67.92 19.2009 67.92H34.7209C41.4009 67.83 45.2609 63.56 47.2609 56.54V57.12C47.2609 72.22 39.1009 79.64 27.4909 80.66Z" stroke="black" stroke-miterlimit="10"/>
<path d="M47.26 34.5301C47.26 34.5301 47.22 34.5701 47.21 34.5301C45.12 27.4401 38.99 24.0601 32.25 23.9801H21.74C17.95 23.9801 13.82 23.2901 10.11 21.3601C6.4 19.4201 3.11 16.2301 1 11.2301H28.17C35.59 10.8801 47.72 18.6601 47.27 34.5201L47.26 34.5301Z" stroke="black" stroke-miterlimit="10"/>
<path d="M47.2622 52.77L59.3122 64.26C58.0722 69.24 55.1322 73.49 51.1722 76.41C47.5422 79.09 43.0622 80.66 38.2622 80.66H27.4922C39.1022 79.64 47.2622 72.22 47.2622 57.12V52.77Z" stroke="black" stroke-miterlimit="10"/>
<path d="M60.8522 46.2301C60.7222 46.0701 60.6122 45.9001 60.4922 45.7301L60.8422 45.3701C60.8522 45.6601 60.8522 45.9401 60.8522 46.2301Z" stroke="black" stroke-miterlimit="10"/>
<path d="M47.4305 34.8002L59.2005 24.1002C59.2005 24.1002 59.2405 24.0302 59.2205 24.0002C56.0505 16.4402 48.6505 11.2402 40.1205 11.2402H28.4805C40.0305 11.2402 48.4105 24.5302 47.2805 34.7302C47.2805 34.8102 47.3605 34.8602 47.4205 34.8002H47.4305Z" stroke="black" stroke-miterlimit="10"/>
<path d="M91.4281 76.7698L89.9381 77.8198C84.4481 81.6798 77.0081 81.1298 72.1481 76.4998L59.3081 64.2598L47.2581 52.7698L41.3681 47.1498C40.3581 46.1898 40.3581 44.5798 41.3581 43.6098L44.8281 40.5098L44.8681 40.4698L58.5781 28.2198L58.8081 28.0098L58.1181 29.4998C56.7781 32.3198 56.5781 35.3598 57.1981 38.3298C57.7381 40.9198 58.9081 43.4498 60.4881 45.7298C60.6081 45.8998 60.7181 46.0698 60.8481 46.2298C61.7981 47.5598 62.8981 48.7798 64.0881 49.8698L91.4281 76.7698Z" stroke="black" stroke-miterlimit="10"/>
<path d="M86.4475 19.0103C86.5475 18.9303 86.6675 19.0603 86.5775 19.1503L60.8275 45.3803L60.4775 45.7403C58.8975 43.4603 57.7275 40.9303 57.1875 38.3403C56.5675 35.3703 56.7675 32.3303 58.1075 29.5103L58.7875 28.0403C58.7875 28.0403 58.7975 28.0203 58.8075 28.0103L60.3675 26.5203C60.3675 26.5203 60.4175 26.4903 60.4475 26.4903C69.4775 28.0103 77.9975 25.9903 86.4375 19.0203L86.4475 19.0103Z" stroke="black" stroke-miterlimit="10"/>
<path d="M69.6422 26.2902C72.6245 26.2902 75.0422 23.8726 75.0422 20.8902C75.0422 17.9079 72.6245 15.4902 69.6422 15.4902C66.6599 15.4902 64.2422 17.9079 64.2422 20.8902C64.2422 23.8726 66.6599 26.2902 69.6422 26.2902Z" stroke="black" stroke-miterlimit="10"/>
<path d="M84.3486 19.56C86.7179 19.56 88.6386 17.6393 88.6386 15.27C88.6386 12.9007 86.7179 10.98 84.3486 10.98C81.9793 10.98 80.0586 12.9007 80.0586 15.27C80.0586 17.6393 81.9793 19.56 84.3486 19.56Z" stroke="black" stroke-miterlimit="10"/>
<path d="M76.4212 5.78C77.7412 5.78 78.8112 4.70996 78.8112 3.39C78.8112 2.07004 77.7412 1 76.4212 1C75.1013 1 74.0312 2.07004 74.0312 3.39C74.0312 4.70996 75.1013 5.78 76.4212 5.78Z" stroke="black" stroke-miterlimit="10"/>
</svg>
