<svg width="57" height="73" viewBox="0 0 57 73" fill="none" xmlns="http://www.w3.org/2000/svg">
<path d="M32.8803 14.252L33.6967 14.0221L33.5026 14.8478L20.9566 68.1927L39.1302 62.6721L56.2831 0.715652C55.9703 0.801674 55.576 0.910187 55.1081 1.03902C53.815 1.39512 51.9599 1.90649 49.7123 2.5276C45.2171 3.76981 39.1519 5.4509 32.8717 7.20645C20.5708 10.645 7.47638 14.3607 3.71071 15.6299L0.77643 24.7502C0.902264 24.7089 1.03998 24.6636 1.18904 24.6145C2.05103 24.3308 3.29241 23.921 4.8097 23.4167C7.8441 22.4079 11.9816 21.0211 16.3947 19.5082C20.8674 17.9416 24.9875 16.628 27.9894 15.7059C29.4907 15.2448 30.7127 14.8815 31.5597 14.6334C31.9832 14.5094 32.313 14.4141 32.5371 14.3498C32.6491 14.3177 32.7348 14.2933 32.7925 14.2769L32.8579 14.2583L32.8746 14.2536L32.8788 14.2524L32.8799 14.2521L32.8802 14.252C32.8803 14.252 32.8803 14.252 33.0158 14.7333L32.8803 14.252ZM27.9726 19.396L19.4816 22.7758L5.53859 72.4952C5.55697 72.4939 5.57617 72.4924 5.59622 72.4905C5.90826 72.4617 6.33555 72.3691 6.85422 72.2207C7.88594 71.9256 9.19236 71.4356 10.486 70.9077C11.7764 70.3812 13.0401 69.8227 13.9823 69.3953C14.4531 69.1817 14.843 69.0012 15.115 68.8742C15.1976 68.8356 15.2694 68.8019 15.3292 68.7738L27.9726 19.396ZM5.23518 72.4822C5.23362 72.4815 5.23276 72.4812 5.23272 72.4813C5.23268 72.4813 5.23346 72.4816 5.23518 72.4822Z" stroke="black"/>
</svg>
