<svg width="147" height="48" viewBox="0 0 147 48" fill="none" xmlns="http://www.w3.org/2000/svg">
<path d="M48.3502 6.90159V16.0681H31.4502V47.8927H16.9V16.0681H0V6.90159C0 3.33826 2.89197 0.446289 6.4553 0.446289H41.8949C45.4582 0.446289 48.3502 3.33826 48.3502 6.90159ZM140.545 0.446289H105.105C101.542 0.446289 98.6498 3.33826 98.6498 6.90159V16.0681H115.55V47.8927H130.1V16.0681H147V6.90159C147 3.33826 144.108 0.446289 140.545 0.446289ZM81.8015 0.446289V16.4296H64.9661V0.446289H55.8125C52.2492 0.446289 49.3572 3.33826 49.3572 6.90159V41.4374C49.3572 45.0007 52.2492 47.8927 55.8125 47.8927H64.9661V30.9798H81.8015V47.8927H90.9551C94.5184 47.8927 97.4104 45.0007 97.4104 41.4374V6.90159C97.4104 3.33826 94.5184 0.446289 90.9551 0.446289H81.8015Z" fill="black"/>
<mask id="path-2-inside-1_899_4524" fill="white">
<path d="M16.2544 16.7139V47.2474H6.4553C3.25347 47.2474 0.64553 44.6395 0.64553 41.4377V16.7139H16.2544ZM16.9 16.0684H0V41.4377C0 45.001 2.89197 47.893 6.4553 47.893H16.9V16.0684Z"/>
</mask>
<path d="M16.2544 16.7139H17.2544V15.7139H16.2544V16.7139ZM16.2544 47.2474V48.2474H17.2544V47.2474H16.2544ZM0.64553 16.7139V15.7139H-0.35447V16.7139H0.64553ZM16.9 16.0684H17.9V15.0684H16.9V16.0684ZM0 16.0684V15.0684H-1V16.0684H0ZM16.9 47.893V48.893H17.9V47.893H16.9ZM15.2544 16.7139V47.2474H17.2544V16.7139H15.2544ZM16.2544 46.2474H6.4553V48.2474H16.2544V46.2474ZM6.4553 46.2474C3.80575 46.2474 1.64553 44.0872 1.64553 41.4377H-0.35447C-0.35447 45.1918 2.70118 48.2474 6.4553 48.2474V46.2474ZM1.64553 41.4377V16.7139H-0.35447V41.4377H1.64553ZM0.64553 17.7139H16.2544V15.7139H0.64553V17.7139ZM16.9 15.0684H0V17.0684H16.9V15.0684ZM-1 16.0684V41.4377H1V16.0684H-1ZM-1 41.4377C-1 45.5533 2.33969 48.893 6.4553 48.893V46.893C3.44426 46.893 1 44.4487 1 41.4377H-1ZM6.4553 48.893H16.9V46.893H6.4553V48.893ZM17.9 47.893V16.0684H15.9V47.893H17.9Z" fill="black" mask="url(#path-2-inside-1_899_4524)"/>
<mask id="path-4-inside-2_899_4524" fill="white">
<path d="M47.7076 16.7139V41.4377C47.7076 44.6395 45.0996 47.2474 41.8978 47.2474H32.0987V16.7139H47.7076ZM48.3531 16.0684H31.4531V47.893H41.8978C45.4611 47.893 48.3531 45.001 48.3531 41.4377V16.0684Z"/>
</mask>
<path d="M47.7076 16.7139H48.7076V15.7139H47.7076V16.7139ZM32.0987 47.2474H31.0987V48.2474H32.0987V47.2474ZM32.0987 16.7139V15.7139H31.0987V16.7139H32.0987ZM48.3531 16.0684H49.3531V15.0684H48.3531V16.0684ZM31.4531 16.0684V15.0684H30.4531V16.0684H31.4531ZM31.4531 47.893H30.4531V48.893H31.4531V47.893ZM46.7076 16.7139V41.4377H48.7076V16.7139H46.7076ZM46.7076 41.4377C46.7076 44.0872 44.5473 46.2474 41.8978 46.2474V48.2474C45.6519 48.2474 48.7076 45.1918 48.7076 41.4377H46.7076ZM41.8978 46.2474H32.0987V48.2474H41.8978V46.2474ZM33.0987 47.2474V16.7139H31.0987V47.2474H33.0987ZM32.0987 17.7139H47.7076V15.7139H32.0987V17.7139ZM48.3531 15.0684H31.4531V17.0684H48.3531V15.0684ZM30.4531 16.0684V47.893H32.4531V16.0684H30.4531ZM31.4531 48.893H41.8978V46.893H31.4531V48.893ZM41.8978 48.893C46.0134 48.893 49.3531 45.5533 49.3531 41.4377H47.3531C47.3531 44.4487 44.9088 46.893 41.8978 46.893V48.893ZM49.3531 41.4377V16.0684H47.3531V41.4377H49.3531Z" fill="black" mask="url(#path-4-inside-2_899_4524)"/>
<mask id="path-6-inside-3_899_4524" fill="white">
<path d="M114.903 16.7139V47.2474H105.104C101.902 47.2474 99.294 44.6395 99.294 41.4377V16.7139H114.903ZM115.548 16.0684H98.6484V41.4377C98.6484 45.001 101.54 47.893 105.104 47.893H115.548V16.0684Z"/>
</mask>
<path d="M114.903 16.7139H115.903V15.7139H114.903V16.7139ZM114.903 47.2474V48.2474H115.903V47.2474H114.903ZM99.294 16.7139V15.7139H98.294V16.7139H99.294ZM115.548 16.0684H116.548V15.0684H115.548V16.0684ZM98.6484 16.0684V15.0684H97.6484V16.0684H98.6484ZM115.548 47.893V48.893H116.548V47.893H115.548ZM113.903 16.7139V47.2474H115.903V16.7139H113.903ZM114.903 46.2474H105.104V48.2474H114.903V46.2474ZM105.104 46.2474C102.454 46.2474 100.294 44.0872 100.294 41.4377H98.294C98.294 45.1918 101.35 48.2474 105.104 48.2474V46.2474ZM100.294 41.4377V16.7139H98.294V41.4377H100.294ZM99.294 17.7139H114.903V15.7139H99.294V17.7139ZM115.548 15.0684H98.6484V17.0684H115.548V15.0684ZM97.6484 16.0684V41.4377H99.6484V16.0684H97.6484ZM97.6484 41.4377C97.6484 45.5533 100.988 48.893 105.104 48.893V46.893C102.093 46.893 99.6484 44.4487 99.6484 41.4377H97.6484ZM105.104 48.893H115.548V46.893H105.104V48.893ZM116.548 47.893V16.0684H114.548V47.893H116.548Z" fill="black" mask="url(#path-6-inside-3_899_4524)"/>
<mask id="path-8-inside-4_899_4524" fill="white">
<path d="M146.356 16.7139V41.4377C146.356 44.6395 143.748 47.2474 140.546 47.2474H130.747V16.7139H146.356ZM147.002 16.0684H130.102V47.893H140.546C144.11 47.893 147.002 45.001 147.002 41.4377V16.0684Z"/>
</mask>
<path d="M146.356 16.7139H147.356V15.7139H146.356V16.7139ZM130.747 47.2474H129.747V48.2474H130.747V47.2474ZM130.747 16.7139V15.7139H129.747V16.7139H130.747ZM147.002 16.0684H148.002V15.0684H147.002V16.0684ZM130.102 16.0684V15.0684H129.102V16.0684H130.102ZM130.102 47.893H129.102V48.893H130.102V47.893ZM145.356 16.7139V41.4377H147.356V16.7139H145.356ZM145.356 41.4377C145.356 44.0872 143.196 46.2474 140.546 46.2474V48.2474C144.3 48.2474 147.356 45.1918 147.356 41.4377H145.356ZM140.546 46.2474H130.747V48.2474H140.546V46.2474ZM131.747 47.2474V16.7139H129.747V47.2474H131.747ZM130.747 17.7139H146.356V15.7139H130.747V17.7139ZM147.002 15.0684H130.102V17.0684H147.002V15.0684ZM129.102 16.0684V47.893H131.102V16.0684H129.102ZM130.102 48.893H140.546V46.893H130.102V48.893ZM140.546 48.893C144.662 48.893 148.002 45.5533 148.002 41.4377H146.002C146.002 44.4487 143.557 46.893 140.546 46.893V48.893ZM148.002 41.4377V16.0684H146.002V41.4377H148.002Z" fill="black" mask="url(#path-8-inside-4_899_4524)"/>
<mask id="path-10-inside-5_899_4524" fill="white">
<path d="M81.1586 1.09182V15.7841H65.6143V1.09182H81.1586ZM81.8042 0.446289H64.9688V16.4296H81.8042V0.446289Z"/>
</mask>
<path d="M81.1586 1.09182H82.1586V0.0918187H81.1586V1.09182ZM81.1586 15.7841V16.7841H82.1586V15.7841H81.1586ZM65.6143 15.7841H64.6143V16.7841H65.6143V15.7841ZM65.6143 1.09182V0.0918187H64.6143V1.09182H65.6143ZM81.8042 0.446289H82.8042V-0.553711H81.8042V0.446289ZM64.9688 0.446289V-0.553711H63.9688V0.446289H64.9688ZM64.9688 16.4296H63.9688V17.4296H64.9688V16.4296ZM81.8042 16.4296V17.4296H82.8042V16.4296H81.8042ZM80.1586 1.09182V15.7841H82.1586V1.09182H80.1586ZM81.1586 14.7841H65.6143V16.7841H81.1586V14.7841ZM66.6143 15.7841V1.09182H64.6143V15.7841H66.6143ZM65.6143 2.09182H81.1586V0.0918187H65.6143V2.09182ZM81.8042 -0.553711H64.9688V1.44629H81.8042V-0.553711ZM63.9688 0.446289V16.4296H65.9688V0.446289H63.9688ZM64.9688 17.4296H81.8042V15.4296H64.9688V17.4296ZM82.8042 16.4296V0.446289H80.8042V16.4296H82.8042Z" fill="black" mask="url(#path-10-inside-5_899_4524)"/>
<mask id="path-12-inside-6_899_4524" fill="white">
<path d="M81.1586 31.625V47.2468H65.6143V31.625H81.1586ZM81.8042 30.9795H64.9688V47.8924H81.8042V30.9795Z"/>
</mask>
<path d="M81.1586 31.625H82.1586V30.625H81.1586V31.625ZM81.1586 47.2468V48.2468H82.1586V47.2468H81.1586ZM65.6143 47.2468H64.6143V48.2468H65.6143V47.2468ZM65.6143 31.625V30.625H64.6143V31.625H65.6143ZM81.8042 30.9795H82.8042V29.9795H81.8042V30.9795ZM64.9688 30.9795V29.9795H63.9688V30.9795H64.9688ZM64.9688 47.8924H63.9688V48.8924H64.9688V47.8924ZM81.8042 47.8924V48.8924H82.8042V47.8924H81.8042ZM80.1586 31.625V47.2468H82.1586V31.625H80.1586ZM81.1586 46.2468H65.6143V48.2468H81.1586V46.2468ZM66.6143 47.2468V31.625H64.6143V47.2468H66.6143ZM65.6143 32.625H81.1586V30.625H65.6143V32.625ZM81.8042 29.9795H64.9688V31.9795H81.8042V29.9795ZM63.9688 30.9795V47.8924H65.9688V30.9795H63.9688ZM64.9688 48.8924H81.8042V46.8924H64.9688V48.8924ZM82.8042 47.8924V30.9795H80.8042V47.8924H82.8042Z" fill="black" mask="url(#path-12-inside-6_899_4524)"/>
</svg>
