<svg width="149" height="90" viewBox="0 0 149 90" fill="none" xmlns="http://www.w3.org/2000/svg">
<mask id="path-1-outside-1_899_4447" maskUnits="userSpaceOnUse" x="0" y="0" width="149" height="90" fill="black">
<rect fill="white" width="149" height="90"/>
<path d="M38.3458 11.6029C38.3458 5.81325 43.0347 1.11002 48.8066 1.11002H56.3061C62.5991 1.11002 67.713 6.22582 67.713 12.5518V29.0131C67.713 34.5552 63.6274 39.2447 58.157 39.9873C57.5126 39.9873 57.6086 41.115 58.157 41.115C63.4354 41.115 67.713 45.9145 67.713 51.2091V62.3483H56.1005V48.9675C56.1005 46.6571 54.2359 44.7868 51.9326 44.7868H48.7929V35.6829H51.2059C53.9068 35.6829 56.1005 33.4826 56.1005 30.7734V13.9958C56.1005 9.6776 48.7244 9.40256 48.7244 13.9958V27.2254H38.3458V11.6304V11.6029ZM38.3458 62.3346H48.8204V52.8319H38.3458V62.3346ZM73.9786 62.3346H85.221V13.7895C85.221 9.56759 92.3914 9.56759 92.3914 13.7895V62.3346H104.059V13.2807C104.059 6.55587 98.6295 1.11002 91.9252 1.11002H85.8242C79.2844 1.11002 73.9649 6.4321 73.9649 13.0056V62.3483L73.9786 62.3346ZM125.227 60.8769L121.073 60.9456L117.193 62.5959V61.1932L119.277 60.2443L117.193 59.2541V57.9201L121.046 59.5704L125.214 59.5016V60.8769H125.227ZM124.144 44.8556V46.4509H121.526V44.8556H120.155V46.4509H118.633V44.8556H117.262V47.1385H117.303V47.8261H125.255H125.515V44.8694H124.144V44.8556ZM126.009 32.8362V34.2389L117.262 32.6987V31.3372L125.995 30.3196V31.6948L124.35 31.8873V32.5199L126.009 32.8362ZM122.17 32.1486L122.979 32.2861V32.0524L122.17 32.1486ZM125.968 17.6126H123.719L126.379 15.5498L125.543 14.4634L122.321 16.9525C122.143 15.6323 121.018 14.6421 119.661 14.6421C118.057 14.6421 116.768 15.9486 116.768 17.5438V18.9603H117.454L125.968 18.9741V17.5988V17.6126ZM118.139 17.5576C118.139 16.7187 118.825 16.0311 119.661 16.0311C120.36 16.0311 120.936 16.5812 120.977 17.2825V17.6126H118.139V17.5576ZM126.036 3.03532C126.036 1.90764 125.131 1 124.007 1H123.541C122.622 1 121.759 1.44007 121.224 2.18269L120.511 3.17284C120.168 3.65416 119.606 3.92921 119.03 3.92921H118.619C118.194 3.92921 117.851 3.58541 117.851 3.15909V3.02157C117.851 2.66401 118.139 2.37521 118.496 2.37521H120.059V1H118.496C117.385 1 116.48 1.90764 116.48 3.02157V3.15909C116.48 4.34177 117.44 5.30442 118.619 5.30442H119.03C120.059 5.30442 121.032 4.80935 121.622 3.97047L122.334 2.98031C122.609 2.59525 123.061 2.36146 123.541 2.36146H124.007C124.364 2.36146 124.665 2.66401 124.665 3.02157C124.665 3.51664 124.268 3.91546 123.774 3.91546H122.43V5.29067H123.774C125.022 5.29067 126.036 4.27301 126.036 3.02157V3.03532ZM18.8224 75.8392V77.4344H20.9612V88.9725H23.2234V77.3932H25.3622V75.0003H18.8087L18.8224 75.8392ZM54.9077 75.8392V77.4344H57.0465V88.9725H59.3087V77.3932H61.4475V75.0003H54.894L54.9077 75.8392ZM110.653 75.8392V77.4344H112.792V88.9725H115.054V77.3932H117.193V75.0003H110.64L110.653 75.8392ZM42.1024 75.0003V88.9862H44.7073V75.0003H42.1024ZM136.346 75.0003V88.9862H138.951V75.0003H136.346ZM50.918 79.9236H53.1391V77.517C53.1391 76.128 52.0148 75.0003 50.6301 75.0003H49.451C48.0937 75.0003 46.9969 76.1005 46.9969 77.4619V86.4971C46.9969 87.8723 48.1074 89 49.4922 89H50.5478C51.9737 89 53.1391 87.8311 53.1391 86.4008V83.7329H50.918V86.7309C50.918 87.7761 49.451 87.7623 49.451 86.7309V77.8195C49.451 76.348 50.8769 76.3343 50.8769 77.8195L50.918 79.9373V79.9236ZM63.2435 75.0003V86.7034C63.2435 87.9686 64.258 88.9862 65.5194 88.9862H66.9041C68.2477 88.9862 69.3308 87.8861 69.3171 86.5384L69.2074 75.0003H66.9178L67.0138 87.0472C67.0138 87.8311 65.492 87.9686 65.492 87.0472L65.5194 75.0003H63.2298H63.2435ZM119.181 75.0003V86.7034C119.181 87.9686 120.196 88.9862 121.457 88.9862H122.842C124.185 88.9862 125.268 87.8861 125.255 86.5384L125.145 75.0003H122.855L122.951 87.0472C122.951 87.8311 121.43 87.9686 121.43 87.0472L121.457 75.0003H119.167H119.181ZM80.82 75.0003V88.9862H85.9339V86.6209H82.9999V82.0002H85.9339V80.0749H82.9999V77.0494H85.9339V75.0141H80.82V75.0003ZM91.7333 79.9511H93.9407V76.9531C93.9407 75.8804 93.0769 75.0003 91.9938 75.0003H89.526C88.5251 75.0003 87.7025 75.8117 87.7025 76.8294V78.0395C87.7025 79.2635 88.1961 80.4324 89.0598 81.2988L91.0341 83.2516C91.4043 83.6229 91.6099 84.118 91.6099 84.6406V87.2672C91.6099 87.8448 90.2663 87.8448 90.2663 87.2672V83.7054L88.0316 83.6779V86.7721C88.0316 87.9961 89.0187 88.9862 90.2389 88.9862H91.8704C93.0084 88.9862 93.9269 88.0648 93.9269 86.9234V84.5306C93.9269 83.5954 93.5294 82.7153 92.8438 82.0964L90.8833 80.3499C90.4857 80.0061 90.2663 79.4973 90.2663 78.9747V76.5681C90.2663 76.0455 91.6922 76.0455 91.6922 76.5681L91.7196 79.9786L91.7333 79.9511ZM106.828 79.9511H109.036V76.9531C109.036 75.8804 108.172 75.0003 107.089 75.0003H104.621C103.62 75.0003 102.797 75.8117 102.797 76.8294V78.0395C102.797 79.2635 103.291 80.4324 104.155 81.2988L106.129 83.2516C106.499 83.6229 106.705 84.118 106.705 84.6406V87.2672C106.705 87.8448 105.361 87.8448 105.361 87.2672V83.7054L103.126 83.6779V86.7721C103.126 87.9961 104.114 88.9862 105.334 88.9862H106.965C108.103 88.9862 109.022 88.0648 109.022 86.9234V84.5306C109.022 83.5954 108.624 82.7153 107.939 82.0964L105.978 80.3499C105.581 80.0061 105.361 79.4973 105.361 78.9747V76.5681C105.361 76.0455 106.787 76.0455 106.787 76.5681L106.815 79.9786L106.828 79.9511ZM8.67687 88.9862H6.8397L6.40098 85.4519H4.22105L3.80975 88.9862H2L3.63151 75.0003H7.15504L8.66316 88.9862H8.67687ZM6.49695 83.8154L5.37271 77.1181L4.24847 83.8154H6.48324H6.49695ZM17.328 88.9862H15.0658L13.0916 83.4304V88.9862H11.5012V75.0003H14.8602C15.9433 75.0003 16.8344 75.8942 16.8207 76.9806L16.8619 80.8587C16.8619 81.8076 16.3683 82.6878 15.532 83.1278L15.3263 83.2378L17.3417 88.9725L17.328 88.9862ZM15.1892 78.1083C15.1892 77.6545 14.819 76.4443 14.3666 76.4443H12.9819V81.7664H14.2981C14.7916 81.7664 15.1892 81.3676 15.1892 80.8725V77.2557V78.1083ZM77.982 88.9862H75.7198L73.7455 83.4304V88.9862H72.1551V75.0003H75.5141C76.5972 75.0003 77.4884 75.8942 77.4747 76.9806L77.5158 80.8587C77.5158 81.8076 77.0223 82.6878 76.1859 83.1278L75.9803 83.2378L77.9957 88.9725L77.982 88.9862ZM75.8432 78.1083C75.8432 76.8156 75.473 76.4443 75.0206 76.4443H73.6358V81.7664H74.952C75.4456 81.7664 75.8432 81.3676 75.8432 80.8725V77.2557V78.1083ZM39.9224 77.2969V81.6701C39.9224 83.0316 38.8119 84.1455 37.4546 84.1455H36.1384V88.9862H34.0819V75.0003H37.6328C38.8942 75.0003 39.9224 76.0317 39.9224 77.2969ZM37.8111 77.3932C37.8111 76.8706 37.386 76.4443 36.8651 76.4443H35.6037V82.4127H36.8651C37.386 82.4127 37.8111 81.9864 37.8111 81.4638V77.3932ZM134.084 78.2321V86.3321C134.084 87.8036 132.905 88.9862 131.438 88.9862H128.106V75.0141H130.862C132.645 75.0141 134.084 76.458 134.084 78.2458V78.2321ZM131.849 76.9944C131.849 76.8844 131.671 76.5406 131.479 76.5406H130.328V87.391H131.479C131.74 87.391 131.836 87.1572 131.836 86.8959V76.9944H131.849ZM148 86.5521C148 87.8861 146.931 88.9862 145.601 88.9862H143.764C142.447 88.9862 141.378 87.9273 141.364 86.6071L141.227 77.4619C141.213 76.1142 142.283 75.0141 143.626 75.0141H145.518C146.835 75.0141 147.918 76.0867 147.918 77.4069L148 86.5521ZM145.395 85.4519V78.5071C145.368 77.5032 145.121 76.6918 144.819 76.6918H144.381C144.065 76.6918 143.818 77.5307 143.818 78.5484L143.846 85.4932C143.846 86.4971 144.106 87.2947 144.408 87.2947H144.833C145.148 87.2947 145.395 86.4696 145.395 85.4519Z"/>
</mask>
<path d="M120.895 60.758H120.909V59.758H120.895V60.758ZM58.157 39.9873V40.9873H58.2246L58.2915 40.9783L58.157 39.9873ZM67.713 62.3483V63.3483H68.713V62.3483H67.713ZM56.1005 62.3483H55.1005V63.3483H56.1005V62.3483ZM48.7929 44.7868H47.7929V45.7868H48.7929V44.7868ZM48.7929 35.6829V34.6829H47.7929V35.6829H48.7929ZM48.7244 27.2254V28.2254H49.7244V27.2254H48.7244ZM38.3458 27.2254H37.3458V28.2254H38.3458V27.2254ZM38.3458 62.3346H37.3458V63.3346H38.3458V62.3346ZM48.8204 62.3346V63.3346H49.8204V62.3346H48.8204ZM48.8204 52.8319H49.8204V51.8319H48.8204V52.8319ZM38.3458 52.8319V51.8319H37.3458V52.8319H38.3458ZM73.9786 62.3346V61.3346H73.5634L73.2703 61.6287L73.9786 62.3346ZM85.221 62.3346V63.3346H86.221V62.3346H85.221ZM92.3914 62.3346H91.3914V63.3346H92.3914V62.3346ZM104.059 62.3346V63.3346H105.059V62.3346H104.059ZM73.9649 62.3483H72.9649V64.7683L74.6732 63.0543L73.9649 62.3483ZM125.227 60.8769L125.244 61.8767L125.227 59.8769V60.8769ZM121.073 60.9456L121.057 59.9458L120.861 59.949L120.682 60.0254L121.073 60.9456ZM117.193 62.5959H116.193V64.1079L117.585 63.5161L117.193 62.5959ZM117.193 61.1932L116.779 60.2831L116.193 60.5497V61.1932H117.193ZM119.277 60.2443L119.692 61.1544L121.648 60.2636L119.706 59.341L119.277 60.2443ZM117.193 59.2541H116.193V59.8861L116.764 60.1573L117.193 59.2541ZM117.193 57.9201L117.587 57.0009L116.193 56.4039V57.9201H117.193ZM121.046 59.5704L120.652 60.4896L120.848 60.5738L121.062 60.5703L121.046 59.5704ZM125.214 59.5016H126.214V58.485L125.197 58.5018L125.214 59.5016ZM125.214 60.8769H124.214V61.8769H125.214V60.8769ZM124.144 46.4509V47.4509H125.144V46.4509H124.144ZM121.526 46.4509H120.526V47.4509H121.526V46.4509ZM121.526 44.8556H122.526V43.8556H121.526V44.8556ZM120.155 44.8556V43.8556H119.155V44.8556H120.155ZM120.155 46.4509V47.4509H121.155V46.4509H120.155ZM118.633 46.4509H117.633V47.4509H118.633V46.4509ZM118.633 44.8556H119.633V43.8556H118.633V44.8556ZM117.262 44.8556V43.8556H116.262V44.8556H117.262ZM117.262 47.1385H116.262V48.1385H117.262V47.1385ZM117.303 47.1385H118.303V46.1385H117.303V47.1385ZM117.303 47.8261H116.303V48.8261H117.303V47.8261ZM125.515 47.8261V48.8261H126.515V47.8261H125.515ZM125.515 44.8694H126.515V43.8694H125.515V44.8694ZM124.144 44.8694H123.144V45.8694H124.144V44.8694ZM126.009 32.8362H127.009V32.0089L126.196 31.8539L126.009 32.8362ZM126.009 34.2389L125.835 35.2238L127.009 35.4304V34.2389H126.009ZM117.262 32.6987H116.262V33.538L117.088 33.6836L117.262 32.6987ZM117.262 31.3372L117.146 30.344L116.262 30.447V31.3372H117.262ZM125.995 30.3196H126.995V29.1963L125.879 29.3263L125.995 30.3196ZM125.995 31.6948L126.111 32.688L126.995 32.5846V31.6948H125.995ZM124.35 31.8873L124.234 30.8941L123.35 30.9975V31.8873H124.35ZM124.35 32.5199H123.35V33.3473L124.163 33.5022L124.35 32.5199ZM122.17 32.1486L122.052 31.1556L122.002 33.1345L122.17 32.1486ZM122.979 32.2861L122.811 33.272L123.979 33.4705V32.2861H122.979ZM122.979 32.0524H123.979V30.9263L122.861 31.0594L122.979 32.0524ZM125.968 17.6126V18.6126H126.968V17.6126H125.968ZM123.719 17.6126L123.106 16.8224L120.798 18.6126H123.719V17.6126ZM126.379 15.5498L126.992 16.34L127.779 15.7293L127.171 14.9398L126.379 15.5498ZM125.543 14.4634L126.335 13.8534L125.724 13.0596L124.931 13.672L125.543 14.4634ZM122.321 16.9525L121.33 17.0863L121.562 18.8028L122.932 17.7438L122.321 16.9525ZM116.768 18.9603H115.768V19.9603H116.768V18.9603ZM117.454 18.9603L117.455 17.9603H117.454V18.9603ZM125.968 18.9741L125.966 19.9741L126.968 19.9757V18.9741H125.968ZM120.977 17.2825H121.977V17.2533L121.975 17.224L120.977 17.2825ZM120.977 17.6126V18.6126H121.977V17.6126H120.977ZM118.139 17.6126H117.139V18.6126H118.139V17.6126ZM121.224 2.18269L120.412 1.59837L120.412 1.59837L121.224 2.18269ZM120.511 3.17284L119.7 2.58852L119.696 2.59278L120.511 3.17284ZM120.059 2.37521V3.37522H121.059V2.37521H120.059ZM120.059 1H121.059V0H120.059V1ZM121.622 3.97047L120.81 3.38612L120.803 3.39549L121.622 3.97047ZM122.334 2.98031L123.146 3.56463L123.149 3.56037L122.334 2.98031ZM122.43 3.91546V2.91546H121.43V3.91546H122.43ZM122.43 5.29067H121.43V6.29067H122.43V5.29067ZM18.8224 75.8392H19.8224V75.831L19.8223 75.8229L18.8224 75.8392ZM18.8224 77.4344H17.8224V78.4344H18.8224V77.4344ZM20.9612 77.4344H21.9612V76.4344H20.9612V77.4344ZM20.9612 88.9725H19.9612V89.9725H20.9612V88.9725ZM23.2234 88.9725V89.9725H24.2234V88.9725H23.2234ZM23.2234 77.3932V76.3932H22.2234V77.3932H23.2234ZM25.3622 77.3932V78.3932H26.3622V77.3932H25.3622ZM25.3622 75.0003H26.3622V74.0003H25.3622V75.0003ZM18.8087 75.0003V74.0003H17.7922L17.8088 75.0167L18.8087 75.0003ZM54.9077 75.8392H55.9077V75.831L55.9076 75.8229L54.9077 75.8392ZM54.9077 77.4344H53.9077V78.4344H54.9077V77.4344ZM57.0465 77.4344H58.0465V76.4344H57.0465V77.4344ZM57.0465 88.9725H56.0465V89.9725H57.0465V88.9725ZM59.3087 88.9725V89.9725H60.3087V88.9725H59.3087ZM59.3087 77.3932V76.3932H58.3087V77.3932H59.3087ZM61.4475 77.3932V78.3932H62.4475V77.3932H61.4475ZM61.4475 75.0003H62.4475V74.0003H61.4475V75.0003ZM54.894 75.0003V74.0003H53.8775L53.8941 75.0167L54.894 75.0003ZM110.653 75.8392H111.653V75.831L111.653 75.8229L110.653 75.8392ZM110.653 77.4344H109.653V78.4344H110.653V77.4344ZM112.792 77.4344H113.792V76.4344H112.792V77.4344ZM112.792 88.9725H111.792V89.9725H112.792V88.9725ZM115.054 88.9725V89.9725H116.054V88.9725H115.054ZM115.054 77.3932V76.3932H114.054V77.3932H115.054ZM117.193 77.3932V78.3932H118.193V77.3932H117.193ZM117.193 75.0003H118.193V74.0003H117.193V75.0003ZM110.64 75.0003V74.0003H109.623L109.64 75.0167L110.64 75.0003ZM42.1024 75.0003V74.0003H41.1024V75.0003H42.1024ZM42.1024 88.9862H41.1024V89.9862H42.1024V88.9862ZM44.7073 88.9862V89.9862H45.7073V88.9862H44.7073ZM44.7073 75.0003H45.7073V74.0003H44.7073V75.0003ZM136.346 75.0003V74.0003H135.346V75.0003H136.346ZM136.346 88.9862H135.346V89.9862H136.346V88.9862ZM138.951 88.9862V89.9862H139.951V88.9862H138.951ZM138.951 75.0003H139.951V74.0003H138.951V75.0003ZM50.918 79.9236V78.9236H49.918V79.9236H50.918ZM53.1391 79.9236V80.9236H54.1391V79.9236H53.1391ZM53.1391 83.7329H54.1391V82.7329H53.1391V83.7329ZM50.918 83.7329V82.7329H49.918V83.7329H50.918ZM50.8769 77.8195H49.8769V77.8292L49.8771 77.8389L50.8769 77.8195ZM50.918 79.9373L49.9182 79.9568L51.918 79.9373H50.918ZM63.2435 75.0003H64.2435V74.0003H63.2435V75.0003ZM69.3171 86.5384L68.3172 86.5479L68.3172 86.5485L69.3171 86.5384ZM69.2074 75.0003L70.2074 74.9908L70.198 74.0003H69.2074V75.0003ZM66.9178 75.0003V74.0003H65.9098L65.9179 75.0083L66.9178 75.0003ZM67.0138 87.0472H68.0138L68.0138 87.0392L67.0138 87.0472ZM65.492 87.0472L64.492 87.0449V87.0472H65.492ZM65.5194 75.0003L66.5194 75.0026L66.5217 74.0003H65.5194V75.0003ZM119.181 75.0003H120.181V74.0003H119.181V75.0003ZM125.255 86.5384L124.255 86.5479L124.255 86.5485L125.255 86.5384ZM125.145 75.0003L126.145 74.9908L126.136 74.0003H125.145V75.0003ZM122.855 75.0003V74.0003H121.847L121.856 75.0083L122.855 75.0003ZM122.951 87.0472H123.951L123.951 87.0392L122.951 87.0472ZM121.43 87.0472L120.43 87.0449V87.0472H121.43ZM121.457 75.0003L122.457 75.0026L122.459 74.0003H121.457V75.0003ZM80.82 88.9862H79.82V89.9862H80.82V88.9862ZM85.9339 88.9862V89.9862H86.9339V88.9862H85.9339ZM85.9339 86.6209H86.9339V85.6209H85.9339V86.6209ZM82.9999 86.6209H81.9999V87.6209H82.9999V86.6209ZM82.9999 82.0002V81.0002H81.9999V82.0002H82.9999ZM85.9339 82.0002V83.0002H86.9339V82.0002H85.9339ZM85.9339 80.0749H86.9339V79.0749H85.9339V80.0749ZM82.9999 80.0749H81.9999V81.0749H82.9999V80.0749ZM82.9999 77.0494V76.0494H81.9999V77.0494H82.9999ZM85.9339 77.0494V78.0494H86.9339V77.0494H85.9339ZM85.9339 75.0141H86.9339V74.0141H85.9339V75.0141ZM80.82 75.0141H79.82V76.0141H80.82V75.0141ZM91.7333 79.9511V78.9511H91.1142L90.8382 79.5053L91.7333 79.9511ZM93.9407 79.9511V80.9511H94.9407V79.9511H93.9407ZM89.0598 81.2988L88.3516 82.0048L88.3566 82.0098L89.0598 81.2988ZM91.0341 83.2516L91.7423 82.5456L91.7373 82.5406L91.0341 83.2516ZM90.2663 83.7054H91.2663V82.7177L90.2786 82.7055L90.2663 83.7054ZM88.0316 83.6779L88.0439 82.678L87.0316 82.6655V83.6779H88.0316ZM92.8438 82.0964L93.5139 81.3541L93.509 81.3497L92.8438 82.0964ZM90.8833 80.3499L91.5485 79.6032L91.5429 79.5983L91.5374 79.5935L90.8833 80.3499ZM91.6922 76.5681H90.6921L90.6922 76.5761L91.6922 76.5681ZM91.7196 79.9786L90.7196 79.9866L92.6147 80.4244L91.7196 79.9786ZM106.828 79.9511V78.9511H106.209L105.933 79.5051L106.828 79.9511ZM109.036 79.9511V80.9511H110.036V79.9511H109.036ZM104.155 81.2988L103.447 82.0048L103.452 82.0098L104.155 81.2988ZM106.129 83.2516L106.837 82.5456L106.832 82.5406L106.129 83.2516ZM105.361 83.7054H106.361V82.7177L105.374 82.7055L105.361 83.7054ZM103.126 83.6779L103.139 82.678L102.126 82.6655V83.6779H103.126ZM107.939 82.0964L108.609 81.3541L108.604 81.3497L107.939 82.0964ZM105.978 80.3499L106.643 79.6032L106.638 79.5983L106.632 79.5935L105.978 80.3499ZM106.787 76.5681H105.787L105.787 76.5761L106.787 76.5681ZM106.815 79.9786L105.815 79.9866L107.71 80.4246L106.815 79.9786ZM6.8397 88.9862L5.84732 89.1094L5.95616 89.9862H6.8397V88.9862ZM6.40098 85.4519L7.39336 85.3288L7.28452 84.4519H6.40098V85.4519ZM4.22105 85.4519V84.4519H3.33068L3.22776 85.3363L4.22105 85.4519ZM3.80975 88.9862V89.9862H4.70012L4.80304 89.1018L3.80975 88.9862ZM2 88.9862L1.00674 88.8704L0.876565 89.9862H2V88.9862ZM3.63151 75.0003V74.0003H2.74139L2.63825 74.8844L3.63151 75.0003ZM7.15504 75.0003L8.14927 74.8931L8.053 74.0003H7.15504V75.0003ZM8.66316 88.9862L7.66892 89.0935L7.7652 89.9862H8.66316V88.9862ZM6.49695 83.8154V84.8154H7.6788L7.48315 83.6499L6.49695 83.8154ZM5.37271 77.1181L6.35891 76.9526H4.38651L5.37271 77.1181ZM4.24847 83.8154L3.26227 83.6499L3.06662 84.8154H4.24847V83.8154ZM17.328 88.9862V89.9862H17.7429L18.0359 89.6926L17.328 88.9862ZM15.0658 88.9862L14.1236 89.3211L14.3599 89.9862H15.0658V88.9862ZM13.0916 83.4304L14.0338 83.0956L12.0916 83.4304H13.0916ZM13.0916 88.9862V89.9862H14.0916V88.9862H13.0916ZM11.5012 88.9862H10.5012V89.9862H11.5012V88.9862ZM11.5012 75.0003V74.0003H10.5012V75.0003H11.5012ZM16.8207 76.9806L15.8208 76.968L15.8207 76.9796L15.8208 76.9912L16.8207 76.9806ZM16.8619 80.8587H17.8619L17.8618 80.8481L16.8619 80.8587ZM15.532 83.1278L15.0663 82.2429L15.0603 82.2461L15.532 83.1278ZM15.3263 83.2378L14.8546 82.3561L14.0986 82.7605L14.3829 83.5694L15.3263 83.2378ZM17.3417 88.9725L18.0496 89.6788L18.4936 89.2339L18.2852 88.6409L17.3417 88.9725ZM12.9819 76.4443V75.4443H11.9819V76.4443H12.9819ZM12.9819 81.7664H11.9819V82.7664H12.9819V81.7664ZM77.982 88.9862V89.9862H78.3968L78.6899 89.6926L77.982 88.9862ZM75.7198 88.9862L74.7775 89.3211L75.0139 89.9862H75.7198V88.9862ZM73.7455 83.4304L74.6878 83.0956L72.7455 83.4304H73.7455ZM73.7455 88.9862V89.9862H74.7455V88.9862H73.7455ZM72.1551 88.9862H71.1551V89.9862H72.1551V88.9862ZM72.1551 75.0003V74.0003H71.1551V75.0003H72.1551ZM77.4747 76.9806L76.4748 76.968L76.4746 76.9796L76.4747 76.9912L77.4747 76.9806ZM77.5158 80.8587H78.5159L78.5158 80.8481L77.5158 80.8587ZM76.1859 83.1278L75.7203 82.2429L75.7143 82.2461L76.1859 83.1278ZM75.9803 83.2378L75.5086 82.3561L74.7526 82.7605L75.0368 83.5694L75.9803 83.2378ZM77.9957 88.9725L78.7036 89.6788L79.1475 89.2339L78.9391 88.6409L77.9957 88.9725ZM73.6358 76.4443V75.4443H72.6358V76.4443H73.6358ZM73.6358 81.7664H72.6358V82.7664H73.6358V81.7664ZM36.1384 84.1455V83.1455H35.1384V84.1455H36.1384ZM36.1384 88.9862V89.9862H37.1384V88.9862H36.1384ZM34.0819 88.9862H33.0819V89.9862H34.0819V88.9862ZM34.0819 75.0003V74.0003H33.0819V75.0003H34.0819ZM35.6037 76.4443V75.4443H34.6037V76.4443H35.6037ZM35.6037 82.4127H34.6037V83.4127H35.6037V82.4127ZM128.106 88.9862H127.106V89.9862H128.106V88.9862ZM128.106 75.0141V74.0141H127.106V75.0141H128.106ZM131.849 76.9944V77.9944H132.849V76.9944H131.849ZM130.328 76.5406V75.5406H129.328V76.5406H130.328ZM130.328 87.391H129.328V88.391H130.328V87.391ZM131.836 76.9944V75.9944H130.836V76.9944H131.836ZM148 86.5521H149L149 86.5431L148 86.5521ZM141.364 86.6071L142.364 86.5967L142.364 86.5921L141.364 86.6071ZM141.227 77.4619L140.227 77.4721L140.227 77.4769L141.227 77.4619ZM147.918 77.4069H146.918L146.918 77.4159L147.918 77.4069ZM145.395 78.5071H146.395V78.4935L146.395 78.4798L145.395 78.5071ZM143.818 78.5484H142.818L142.818 78.5523L143.818 78.5484ZM143.846 85.4932H144.846L144.846 85.4893L143.846 85.4932ZM39.3458 11.6029C39.3458 6.36266 43.5898 2.11002 48.8066 2.11002V0.110017C42.4795 0.110017 37.3458 5.26385 37.3458 11.6029H39.3458ZM48.8066 2.11002H56.3061V0.110017H48.8066V2.11002ZM56.3061 2.11002C62.0447 2.11002 66.713 6.776 66.713 12.5518H68.713C68.713 5.67563 63.1535 0.110017 56.3061 0.110017V2.11002ZM66.713 12.5518V29.0131H68.713V12.5518H66.713ZM66.713 29.0131C66.713 34.0575 62.9946 38.3215 58.0225 38.9964L58.2915 40.9783C64.2602 40.168 68.713 35.053 68.713 29.0131H66.713ZM58.157 38.9873C57.6588 38.9873 57.2402 39.2263 56.9853 39.5951C56.7581 39.924 56.6979 40.2958 56.7106 40.5937C56.7234 40.8944 56.8143 41.2324 57.0232 41.5228C57.2447 41.8307 57.6317 42.115 58.157 42.115V40.115C58.4081 40.115 58.5774 40.2584 58.6468 40.3549C58.7036 40.4338 58.708 40.4899 58.7088 40.5087C58.7095 40.5246 58.7119 40.6146 58.6307 40.732C58.5858 40.7971 58.5162 40.8671 58.4191 40.9187C58.3208 40.971 58.2265 40.9873 58.157 40.9873V38.9873ZM58.157 42.115C62.8149 42.115 66.713 46.396 66.713 51.2091H68.713C68.713 45.433 64.056 40.115 58.157 40.115V42.115ZM66.713 51.2091V62.3483H68.713V51.2091H66.713ZM67.713 61.3483H56.1005V63.3483H67.713V61.3483ZM57.1005 62.3483V48.9675H55.1005V62.3483H57.1005ZM57.1005 48.9675C57.1005 46.1077 54.791 43.7868 51.9326 43.7868V45.7868C53.6807 45.7868 55.1005 47.2065 55.1005 48.9675H57.1005ZM51.9326 43.7868H48.7929V45.7868H51.9326V43.7868ZM49.7929 44.7868V35.6829H47.7929V44.7868H49.7929ZM48.7929 36.6829H51.2059V34.6829H48.7929V36.6829ZM51.2059 36.6829C54.462 36.6829 57.1005 34.032 57.1005 30.7734H55.1005C55.1005 32.9332 53.3517 34.6829 51.2059 34.6829V36.6829ZM57.1005 30.7734V13.9958H55.1005V30.7734H57.1005ZM57.1005 13.9958C57.1005 12.599 56.4909 11.4925 55.5782 10.7517C54.6881 10.0293 53.5412 9.67488 52.4311 9.65418C51.3214 9.63349 50.159 9.94515 49.2526 10.6696C48.3191 11.4156 47.7244 12.5494 47.7244 13.9958H49.7244C49.7244 13.1456 50.0517 12.5912 50.5012 12.2319C50.9778 11.8511 51.6595 11.6401 52.3938 11.6538C53.1277 11.6675 53.8248 11.9045 54.3178 12.3046C54.788 12.6862 55.1005 13.2335 55.1005 13.9958H57.1005ZM47.7244 13.9958V27.2254H49.7244V13.9958H47.7244ZM48.7244 26.2254H38.3458V28.2254H48.7244V26.2254ZM39.3458 27.2254V11.6304H37.3458V27.2254H39.3458ZM39.3458 11.6304V11.6029H37.3458V11.6304H39.3458ZM38.3458 63.3346H48.8204V61.3346H38.3458V63.3346ZM49.8204 62.3346V52.8319H47.8204V62.3346H49.8204ZM48.8204 51.8319H38.3458V53.8319H48.8204V51.8319ZM37.3458 52.8319V62.3346H39.3458V52.8319H37.3458ZM73.9786 63.3346H85.221V61.3346H73.9786V63.3346ZM86.221 62.3346V13.7895H84.221V62.3346H86.221ZM86.221 13.7895C86.221 13.0518 86.5195 12.5462 86.9588 12.2012C87.4246 11.8356 88.0919 11.6231 88.8062 11.6231C89.5204 11.6231 90.1877 11.8356 90.6535 12.2012C91.0929 12.5462 91.3914 13.0518 91.3914 13.7895H93.3914C93.3914 12.4163 92.7936 11.3387 91.8885 10.6281C91.0098 9.93829 89.8845 9.62307 88.8062 9.62307C87.7278 9.62307 86.6025 9.93829 85.7238 10.6281C84.8187 11.3387 84.221 12.4163 84.221 13.7895H86.221ZM91.3914 13.7895V62.3346H93.3914V13.7895H91.3914ZM92.3914 63.3346H104.059V61.3346H92.3914V63.3346ZM105.059 62.3346V13.2807H103.059V62.3346H105.059ZM105.059 13.2807C105.059 6.00647 99.1847 0.110017 91.9252 0.110017V2.11002C98.0744 2.11002 103.059 7.10527 103.059 13.2807H105.059ZM91.9252 0.110017H85.8242V2.11002H91.9252V0.110017ZM85.8242 0.110017C78.73 0.110017 72.9649 5.88194 72.9649 13.0056H74.9649C74.9649 6.98226 79.8389 2.11002 85.8242 2.11002V0.110017ZM72.9649 13.0056V62.3483H74.9649V13.0056H72.9649ZM74.6732 63.0543L74.6869 63.0405L73.2703 61.6287L73.2566 61.6424L74.6732 63.0543ZM125.211 59.877L121.057 59.9458L121.09 61.9455L125.244 61.8767L125.211 59.877ZM120.682 60.0254L116.802 61.6757L117.585 63.5161L121.465 61.8658L120.682 60.0254ZM118.193 62.5959V61.1932H116.193V62.5959H118.193ZM117.608 62.1033L119.692 61.1544L118.863 59.3342L116.779 60.2831L117.608 62.1033ZM119.706 59.341L117.622 58.3509L116.764 60.1573L118.848 61.1475L119.706 59.341ZM118.193 59.2541V57.9201H116.193V59.2541H118.193ZM116.799 58.8394L120.652 60.4896L121.439 58.6512L117.587 57.0009L116.799 58.8394ZM121.062 60.5703L125.23 60.5015L125.197 58.5018L121.029 58.5705L121.062 60.5703ZM124.214 59.5016V60.8769H126.214V59.5016H124.214ZM125.214 61.8769H125.227V59.8769H125.214V61.8769ZM123.144 44.8556V46.4509H125.144V44.8556H123.144ZM124.144 45.4509H121.526V47.4509H124.144V45.4509ZM122.526 46.4509V44.8556H120.526V46.4509H122.526ZM121.526 43.8556H120.155V45.8556H121.526V43.8556ZM119.155 44.8556V46.4509H121.155V44.8556H119.155ZM120.155 45.4509H118.633V47.4509H120.155V45.4509ZM119.633 46.4509V44.8556H117.633V46.4509H119.633ZM118.633 43.8556H117.262V45.8556H118.633V43.8556ZM116.262 44.8556V47.1385H118.262V44.8556H116.262ZM117.262 48.1385H117.303V46.1385H117.262V48.1385ZM116.303 47.1385V47.8261H118.303V47.1385H116.303ZM117.303 48.8261H125.255V46.8261H117.303V48.8261ZM125.255 48.8261H125.515V46.8261H125.255V48.8261ZM126.515 47.8261V44.8694H124.515V47.8261H126.515ZM125.515 43.8694H124.144V45.8694H125.515V43.8694ZM125.144 44.8694V44.8556H123.144V44.8694H125.144ZM125.009 32.8362V34.2389H127.009V32.8362H125.009ZM126.182 33.2541L117.435 31.7139L117.088 33.6836L125.835 35.2238L126.182 33.2541ZM118.262 32.6987V31.3372H116.262V32.6987H118.262ZM117.377 32.3305L126.111 31.3129L125.879 29.3263L117.146 30.344L117.377 32.3305ZM124.995 30.3196V31.6948H126.995V30.3196H124.995ZM125.879 30.7016L124.234 30.8941L124.466 32.8806L126.111 32.688L125.879 30.7016ZM123.35 31.8873V32.5199H125.35V31.8873H123.35ZM124.163 33.5022L125.822 33.8185L126.196 31.8539L124.537 31.5376L124.163 33.5022ZM122.002 33.1345L122.811 33.272L123.146 31.3003L122.338 31.1628L122.002 33.1345ZM123.979 32.2861V32.0524H121.979V32.2861H123.979ZM122.861 31.0594L122.052 31.1556L122.288 33.1416L123.097 33.0453L122.861 31.0594ZM125.968 16.6126H123.719V18.6126H125.968V16.6126ZM124.332 18.4028L126.992 16.34L125.766 14.7596L123.106 16.8224L124.332 18.4028ZM127.171 14.9398L126.335 13.8534L124.75 15.0733L125.587 16.1598L127.171 14.9398ZM124.931 13.672L121.709 16.1611L122.932 17.7438L126.154 15.2547L124.931 13.672ZM123.312 16.8187C123.066 15.0006 121.517 13.6421 119.661 13.6421V15.6421C120.52 15.6421 121.219 16.264 121.33 17.0863L123.312 16.8187ZM119.661 13.6421C117.499 13.6421 115.768 15.4023 115.768 17.5438H117.768C117.768 16.4949 118.615 15.6421 119.661 15.6421V13.6421ZM115.768 17.5438V18.9603H117.768V17.5438H115.768ZM116.768 19.9603H117.454V17.9603H116.768V19.9603ZM117.452 19.9603L125.966 19.9741L125.969 17.9741L117.455 17.9603L117.452 19.9603ZM126.968 18.9741V17.5988H124.968V18.9741H126.968ZM124.968 17.5988V17.6126H126.968V17.5988H124.968ZM119.139 17.5576C119.139 17.2681 119.38 17.0311 119.661 17.0311V15.0311C118.27 15.0311 117.139 16.1693 117.139 17.5576H119.139ZM119.661 17.0311C119.822 17.0311 119.968 17.1596 119.979 17.3411L121.975 17.224C121.904 16.0028 120.899 15.0311 119.661 15.0311V17.0311ZM119.977 17.2825V17.6126H121.977V17.2825H119.977ZM120.977 16.6126H118.139V18.6126H120.977V16.6126ZM119.139 17.6126V17.5576H117.139V17.6126H119.139ZM127.036 3.03532C127.036 1.35824 125.687 0 124.007 0V2C124.576 2 125.036 2.45705 125.036 3.03532H127.036ZM124.007 0H123.541V2H124.007V0ZM123.541 0C122.303 0 121.136 0.592784 120.412 1.59837L122.035 2.767C122.381 2.28736 122.942 2 123.541 2V0ZM120.412 1.59837L119.7 2.58852L121.323 3.75715L122.035 2.767L120.412 1.59837ZM119.696 2.59278C119.549 2.80039 119.295 2.92921 119.03 2.92921V4.92921C119.917 4.92921 120.788 4.50794 121.326 3.7529L119.696 2.59278ZM119.03 2.92921H118.619V4.92921H119.03V2.92921ZM118.619 2.92921C118.749 2.92921 118.851 3.036 118.851 3.15909H116.851C116.851 4.13481 117.639 4.92921 118.619 4.92921V2.92921ZM118.851 3.15909V3.02157H116.851V3.15909H118.851ZM118.851 3.02157C118.851 3.21341 118.694 3.37522 118.496 3.37522V1.37521C117.584 1.37521 116.851 2.11461 116.851 3.02157H118.851ZM118.496 3.37522H120.059V1.37521H118.496V3.37522ZM121.059 2.37521V1H119.059V2.37521H121.059ZM120.059 0H118.496V2H120.059V0ZM118.496 0C116.83 0 115.48 1.35824 115.48 3.02157H117.48C117.48 2.45704 117.94 2 118.496 2V0ZM115.48 3.02157V3.15909H117.48V3.02157H115.48ZM115.48 3.15909C115.48 4.89118 116.885 6.30442 118.619 6.30442V4.30442C117.995 4.30442 117.48 3.79237 117.48 3.15909H115.48ZM118.619 6.30442H119.03V4.30442H118.619V6.30442ZM119.03 6.30442C120.377 6.30442 121.659 5.65693 122.44 4.54545L120.803 3.39549C120.405 3.96176 119.741 4.30442 119.03 4.30442V6.30442ZM122.433 4.55478L123.146 3.56462L121.523 2.396L120.81 3.38616L122.433 4.55478ZM123.149 3.56037C123.235 3.44031 123.383 3.36146 123.541 3.36146V1.36146C122.74 1.36146 121.983 1.75019 121.52 2.40025L123.149 3.56037ZM123.541 3.36146H124.007V1.36146H123.541V3.36146ZM124.007 3.36146C123.898 3.36146 123.814 3.31552 123.762 3.26346C123.71 3.21139 123.665 3.128 123.665 3.02157H125.665C125.665 2.11462 124.919 1.36146 124.007 1.36146V3.36146ZM123.665 3.02157C123.665 2.96724 123.712 2.91546 123.774 2.91546V4.91546C124.823 4.91546 125.665 4.06605 125.665 3.02157H123.665ZM123.774 2.91546H122.43V4.91546H123.774V2.91546ZM121.43 3.91546V5.29067H123.43V3.91546H121.43ZM122.43 6.29067H123.774V4.29067H122.43V6.29067ZM123.774 6.29067C125.577 6.29067 127.036 4.82242 127.036 3.02157H125.036C125.036 3.72361 124.467 4.29067 123.774 4.29067V6.29067ZM125.036 3.02157V3.03532H127.036V3.02157H125.036ZM17.8224 75.8392V77.4344H19.8224V75.8392H17.8224ZM18.8224 78.4344H20.9612V76.4344H18.8224V78.4344ZM19.9612 77.4344V88.9725H21.9612V77.4344H19.9612ZM20.9612 89.9725H23.2234V87.9725H20.9612V89.9725ZM24.2234 88.9725V77.3932H22.2234V88.9725H24.2234ZM23.2234 78.3932H25.3622V76.3932H23.2234V78.3932ZM26.3622 77.3932V75.0003H24.3622V77.3932H26.3622ZM25.3622 74.0003H18.8087V76.0003H25.3622V74.0003ZM17.8088 75.0167L17.8226 75.8555L19.8223 75.8229L19.8086 74.984L17.8088 75.0167ZM53.9077 75.8392V77.4344H55.9077V75.8392H53.9077ZM54.9077 78.4344H57.0465V76.4344H54.9077V78.4344ZM56.0465 77.4344V88.9725H58.0465V77.4344H56.0465ZM57.0465 89.9725H59.3087V87.9725H57.0465V89.9725ZM60.3087 88.9725V77.3932H58.3087V88.9725H60.3087ZM59.3087 78.3932H61.4475V76.3932H59.3087V78.3932ZM62.4475 77.3932V75.0003H60.4475V77.3932H62.4475ZM61.4475 74.0003H54.894V76.0003H61.4475V74.0003ZM53.8941 75.0167L53.9078 75.8555L55.9076 75.8229L55.8938 74.984L53.8941 75.0167ZM109.653 75.8392V77.4344H111.653V75.8392H109.653ZM110.653 78.4344H112.792V76.4344H110.653V78.4344ZM111.792 77.4344V88.9725H113.792V77.4344H111.792ZM112.792 89.9725H115.054V87.9725H112.792V89.9725ZM116.054 88.9725V77.3932H114.054V88.9725H116.054ZM115.054 78.3932H117.193V76.3932H115.054V78.3932ZM118.193 77.3932V75.0003H116.193V77.3932H118.193ZM117.193 74.0003H110.64V76.0003H117.193V74.0003ZM109.64 75.0167L109.654 75.8555L111.653 75.8229L111.64 74.984L109.64 75.0167ZM41.1024 75.0003V88.9862H43.1024V75.0003H41.1024ZM42.1024 89.9862H44.7073V87.9862H42.1024V89.9862ZM45.7073 88.9862V75.0003H43.7073V88.9862H45.7073ZM44.7073 74.0003H42.1024V76.0003H44.7073V74.0003ZM135.346 75.0003V88.9862H137.346V75.0003H135.346ZM136.346 89.9862H138.951V87.9862H136.346V89.9862ZM139.951 88.9862V75.0003H137.951V88.9862H139.951ZM138.951 74.0003H136.346V76.0003H138.951V74.0003ZM50.918 80.9236H53.1391V78.9236H50.918V80.9236ZM54.1391 79.9236V77.517H52.1391V79.9236H54.1391ZM54.1391 77.517C54.1391 75.5786 52.57 74.0003 50.6301 74.0003V76.0003C51.4597 76.0003 52.1391 76.6774 52.1391 77.517H54.1391ZM50.6301 74.0003H49.451V76.0003H50.6301V74.0003ZM49.451 74.0003C47.5386 74.0003 45.9969 75.5511 45.9969 77.4619H47.9969C47.9969 76.6499 48.6489 76.0003 49.451 76.0003V74.0003ZM45.9969 77.4619V86.4971H47.9969V77.4619H45.9969ZM45.9969 86.4971C45.9969 88.4181 47.5487 90 49.4922 90V88C48.6662 88 47.9969 87.3265 47.9969 86.4971H45.9969ZM49.4922 90H50.5478V88H49.4922V90ZM50.5478 90C52.5289 90 54.1391 88.3805 54.1391 86.4008H52.1391C52.1391 87.2817 51.4185 88 50.5478 88V90ZM54.1391 86.4008V83.7329H52.1391V86.4008H54.1391ZM53.1391 82.7329H50.918V84.7329H53.1391V82.7329ZM49.918 83.7329V86.7309H51.918V83.7329H49.918ZM49.918 86.7309C49.918 86.743 49.9216 86.6657 50.0031 86.589C50.0707 86.5253 50.1426 86.5094 50.1892 86.5096C50.2356 86.5098 50.3034 86.526 50.3672 86.5863C50.4448 86.6597 50.451 86.7356 50.451 86.7309H48.451C48.451 87.2419 48.6406 87.7063 48.9933 88.0397C49.3321 88.36 49.7667 88.5077 50.1798 88.5096C50.5932 88.5115 51.0318 88.3676 51.3745 88.0447C51.731 87.7089 51.918 87.2414 51.918 86.7309H49.918ZM50.451 86.7309V77.8195H48.451V86.7309H50.451ZM50.451 77.8195C50.451 77.6054 50.5033 77.5494 50.4844 77.5755C50.4612 77.6076 50.3581 77.7098 50.1688 77.7107C49.9778 77.7116 49.8703 77.6086 49.8442 77.5725C49.8236 77.5442 49.8769 77.5998 49.8769 77.8195H51.8769C51.8769 76.8501 51.3485 75.705 50.1591 75.7107C48.9809 75.7164 48.451 76.8514 48.451 77.8195H50.451ZM49.8771 77.8389L49.9182 79.9568L51.9178 79.9179L51.8767 77.8001L49.8771 77.8389ZM51.918 79.9373V79.9236H49.918V79.9373H51.918ZM62.2435 75.0003V86.7034H64.2435V75.0003H62.2435ZM62.2435 86.7034C62.2435 88.518 63.7029 89.9862 65.5194 89.9862V87.9862C64.8132 87.9862 64.2435 87.4192 64.2435 86.7034H62.2435ZM65.5194 89.9862H66.9041V87.9862H65.5194V89.9862ZM66.9041 89.9862C68.8083 89.9862 70.3364 88.4278 70.3171 86.5282L68.3172 86.5485C68.3253 87.3444 67.6871 87.9862 66.9041 87.9862V89.9862ZM70.3171 86.5289L70.2074 74.9908L68.2075 75.0098L68.3172 86.5479L70.3171 86.5289ZM69.2074 74.0003H66.9178V76.0003H69.2074V74.0003ZM65.9179 75.0083L66.0138 87.0552L68.0138 87.0392L67.9178 74.9923L65.9179 75.0083ZM66.0138 87.0472C66.0138 86.9775 66.0321 86.9022 66.0687 86.8345C66.1033 86.7704 66.1441 86.7318 66.1699 86.7121C66.213 86.6793 66.2268 86.6868 66.2077 86.6877C66.1865 86.6886 66.2369 86.6781 66.3204 86.7392C66.3675 86.7737 66.4164 86.8261 66.4511 86.8952C66.4858 86.9645 66.492 87.0217 66.492 87.0472H64.492C64.492 87.5901 64.7341 88.0566 65.1391 88.3531C65.508 88.6231 65.9388 88.7019 66.298 88.6857C66.6595 88.6693 67.0537 88.5531 67.3821 88.3028C67.7292 88.0384 68.0138 87.6065 68.0138 87.0472H66.0138ZM66.492 87.0495L66.5194 75.0026L64.5194 74.998L64.492 87.0449L66.492 87.0495ZM65.5194 74.0003H63.2298V76.0003H65.5194V74.0003ZM63.2298 76.0003H63.2435V74.0003H63.2298V76.0003ZM118.181 75.0003V86.7034H120.181V75.0003H118.181ZM118.181 86.7034C118.181 88.518 119.641 89.9862 121.457 89.9862V87.9862C120.751 87.9862 120.181 87.4192 120.181 86.7034H118.181ZM121.457 89.9862H122.842V87.9862H121.457V89.9862ZM122.842 89.9862C124.746 89.9862 126.274 88.4278 126.255 86.5282L124.255 86.5485C124.263 87.3444 123.625 87.9862 122.842 87.9862V89.9862ZM126.255 86.5289L126.145 74.9908L124.145 75.0098L124.255 86.5479L126.255 86.5289ZM125.145 74.0003H122.855V76.0003H125.145V74.0003ZM121.856 75.0083L121.951 87.0552L123.951 87.0392L123.855 74.9923L121.856 75.0083ZM121.951 87.0472C121.951 86.9775 121.97 86.9022 122.006 86.8345C122.041 86.7704 122.082 86.7318 122.108 86.7121C122.151 86.6793 122.164 86.6868 122.145 86.6877C122.124 86.6886 122.175 86.6781 122.258 86.7392C122.305 86.7737 122.354 86.8261 122.389 86.8952C122.423 86.9645 122.43 87.0217 122.43 87.0472H120.43C120.43 87.5901 120.672 88.0566 121.077 88.3531C121.446 88.6231 121.876 88.7019 122.236 88.6857C122.597 88.6693 122.991 88.5531 123.32 88.3028C123.667 88.0384 123.951 87.6065 123.951 87.0472H121.951ZM122.43 87.0495L122.457 75.0026L120.457 74.998L120.43 87.0449L122.43 87.0495ZM121.457 74.0003H119.167V76.0003H121.457V74.0003ZM119.167 76.0003H119.181V74.0003H119.167V76.0003ZM79.82 75.0003V88.9862H81.82V75.0003H79.82ZM80.82 89.9862H85.9339V87.9862H80.82V89.9862ZM86.9339 88.9862V86.6209H84.9339V88.9862H86.9339ZM85.9339 85.6209H82.9999V87.6209H85.9339V85.6209ZM83.9999 86.6209V82.0002H81.9999V86.6209H83.9999ZM82.9999 83.0002H85.9339V81.0002H82.9999V83.0002ZM86.9339 82.0002V80.0749H84.9339V82.0002H86.9339ZM85.9339 79.0749H82.9999V81.0749H85.9339V79.0749ZM83.9999 80.0749V77.0494H81.9999V80.0749H83.9999ZM82.9999 78.0494H85.9339V76.0494H82.9999V78.0494ZM86.9339 77.0494V75.0141H84.9339V77.0494H86.9339ZM85.9339 74.0141H80.82V76.0141H85.9339V74.0141ZM81.82 75.0141V75.0003H79.82V75.0141H81.82ZM91.7333 80.9511H93.9407V78.9511H91.7333V80.9511ZM94.9407 79.9511V76.9531H92.9407V79.9511H94.9407ZM94.9407 76.9531C94.9407 75.3356 93.6367 74.0003 91.9938 74.0003V76.0003C92.5172 76.0003 92.9407 76.4252 92.9407 76.9531H94.9407ZM91.9938 74.0003H89.526V76.0003H91.9938V74.0003ZM89.526 74.0003C87.9748 74.0003 86.7025 75.2574 86.7025 76.8294H88.7025C88.7025 76.366 89.0754 76.0003 89.526 76.0003V74.0003ZM86.7025 76.8294V78.0395H88.7025V76.8294H86.7025ZM86.7025 78.0395C86.7025 79.5339 87.3051 80.9551 88.3516 82.0048L89.768 80.5928C89.0871 79.9098 88.7025 78.9931 88.7025 78.0395H86.7025ZM88.3566 82.0098L90.3309 83.9626L91.7373 82.5406L89.7631 80.5878L88.3566 82.0098ZM90.3259 83.9576C90.5105 84.1428 90.6099 84.3845 90.6099 84.6406H92.6099C92.6099 83.8515 92.2981 83.1031 91.7423 82.5456L90.3259 83.9576ZM90.6099 84.6406V87.2672H92.6099V84.6406H90.6099ZM90.6099 87.2672C90.6099 87.1338 90.6521 87.0022 90.7247 86.8953C90.7914 86.797 90.8649 86.7462 90.9027 86.7245C90.9671 86.6876 90.9828 86.7004 90.9381 86.7004C90.8934 86.7004 90.9091 86.6876 90.9735 86.7245C91.0113 86.7462 91.0848 86.797 91.1516 86.8953C91.2241 87.0022 91.2663 87.1338 91.2663 87.2672H89.2663C89.2663 87.8726 89.6427 88.267 89.979 88.4597C90.2953 88.641 90.6469 88.7004 90.9381 88.7004C91.2293 88.7004 91.5809 88.641 91.8973 88.4597C92.2335 88.267 92.6099 87.8726 92.6099 87.2672H90.6099ZM91.2663 87.2672V83.7054H89.2663V87.2672H91.2663ZM90.2786 82.7055L88.0439 82.678L88.0192 84.6778L90.254 84.7054L90.2786 82.7055ZM87.0316 83.6779V86.7721H89.0316V83.6779H87.0316ZM87.0316 86.7721C87.0316 88.5455 88.4635 89.9862 90.2389 89.9862V87.9862C89.5739 87.9862 89.0316 87.4467 89.0316 86.7721H87.0316ZM90.2389 89.9862H91.8704V87.9862H90.2389V89.9862ZM91.8704 89.9862C93.5635 89.9862 94.9269 88.6143 94.9269 86.9234H92.9269C92.9269 87.5154 92.4532 87.9862 91.8704 87.9862V89.9862ZM94.9269 86.9234V84.5306H92.9269V86.9234H94.9269ZM94.9269 84.5306C94.9269 83.3096 94.4074 82.1607 93.5139 81.3541L92.1738 82.8387C92.6513 83.2698 92.9269 83.8812 92.9269 84.5306H94.9269ZM93.509 81.3497L91.5485 79.6032L90.2181 81.0966L92.1787 82.8431L93.509 81.3497ZM91.5374 79.5935C91.3716 79.4502 91.2663 79.2234 91.2663 78.9747H89.2663C89.2663 79.7711 89.5997 80.562 90.2292 81.1063L91.5374 79.5935ZM91.2663 78.9747V76.5681H89.2663V78.9747H91.2663ZM91.2663 76.5681C91.2663 76.7486 91.1991 76.9074 91.11 77.0193C91.0312 77.1183 90.9529 77.1605 90.9282 77.1726C90.8861 77.1931 90.9029 77.1761 90.9792 77.1761C91.0556 77.1761 91.0723 77.1931 91.0303 77.1726C91.0056 77.1605 90.9273 77.1183 90.8484 77.0193C90.7594 76.9074 90.6922 76.7486 90.6922 76.5681H92.6922C92.6922 75.8928 92.2099 75.523 91.9084 75.3756C91.5991 75.2245 91.2593 75.1761 90.9792 75.1761C90.6992 75.1761 90.3594 75.2245 90.0501 75.3756C89.7485 75.523 89.2663 75.8928 89.2663 76.5681H91.2663ZM90.6922 76.5761L90.7196 79.9866L92.7196 79.9706L92.6921 76.56L90.6922 76.5761ZM92.6147 80.4244L92.6284 80.3969L90.8382 79.5053L90.8245 79.5328L92.6147 80.4244ZM106.828 80.9511H109.036V78.9511H106.828V80.9511ZM110.036 79.9511V76.9531H108.036V79.9511H110.036ZM110.036 76.9531C110.036 75.3356 108.732 74.0003 107.089 74.0003V76.0003C107.612 76.0003 108.036 76.4252 108.036 76.9531H110.036ZM107.089 74.0003H104.621V76.0003H107.089V74.0003ZM104.621 74.0003C103.07 74.0003 101.797 75.2574 101.797 76.8294H103.797C103.797 76.366 104.17 76.0003 104.621 76.0003V74.0003ZM101.797 76.8294V78.0395H103.797V76.8294H101.797ZM101.797 78.0395C101.797 79.5339 102.4 80.9551 103.447 82.0048L104.863 80.5928C104.182 79.9098 103.797 78.9931 103.797 78.0395H101.797ZM103.452 82.0098L105.426 83.9626L106.832 82.5406L104.858 80.5878L103.452 82.0098ZM105.421 83.9576C105.605 84.1428 105.705 84.3845 105.705 84.6406H107.705C107.705 83.8515 107.393 83.103 106.837 82.5456L105.421 83.9576ZM105.705 84.6406V87.2672H107.705V84.6406H105.705ZM105.705 87.2672C105.705 87.1338 105.747 87.0022 105.82 86.8953C105.886 86.797 105.96 86.7462 105.998 86.7245C106.062 86.6876 106.078 86.7004 106.033 86.7004C105.988 86.7004 106.004 86.6876 106.068 86.7245C106.106 86.7462 106.18 86.797 106.247 86.8953C106.319 87.0022 106.361 87.1338 106.361 87.2672H104.361C104.361 87.8726 104.738 88.267 105.074 88.4597C105.39 88.641 105.742 88.7004 106.033 88.7004C106.324 88.7004 106.676 88.641 106.992 88.4597C107.328 88.267 107.705 87.8726 107.705 87.2672H105.705ZM106.361 87.2672V83.7054H104.361V87.2672H106.361ZM105.374 82.7055L103.139 82.678L103.114 84.6778L105.349 84.7054L105.374 82.7055ZM102.126 83.6779V86.7721H104.126V83.6779H102.126ZM102.126 86.7721C102.126 88.5455 103.558 89.9862 105.334 89.9862V87.9862C104.669 87.9862 104.126 87.4467 104.126 86.7721H102.126ZM105.334 89.9862H106.965V87.9862H105.334V89.9862ZM106.965 89.9862C108.658 89.9862 110.022 88.6143 110.022 86.9234H108.022C108.022 87.5154 107.548 87.9862 106.965 87.9862V89.9862ZM110.022 86.9234V84.5306H108.022V86.9234H110.022ZM110.022 84.5306C110.022 83.3096 109.502 82.1607 108.609 81.3541L107.269 82.8387C107.746 83.2698 108.022 83.8812 108.022 84.5306H110.022ZM108.604 81.3497L106.643 79.6032L105.313 81.0966L107.274 82.8431L108.604 81.3497ZM106.632 79.5935C106.467 79.4502 106.361 79.2234 106.361 78.9747H104.361C104.361 79.7711 104.695 80.562 105.324 81.1063L106.632 79.5935ZM106.361 78.9747V76.5681H104.361V78.9747H106.361ZM106.361 76.5681C106.361 76.7486 106.294 76.9074 106.205 77.0193C106.126 77.1183 106.048 77.1605 106.023 77.1726C105.981 77.1931 105.998 77.1761 106.074 77.1761C106.151 77.1761 106.167 77.1931 106.125 77.1726C106.101 77.1605 106.022 77.1183 105.943 77.0193C105.854 76.9074 105.787 76.7486 105.787 76.5681H107.787C107.787 75.8928 107.305 75.523 107.003 75.3756C106.694 75.2245 106.354 75.1761 106.074 75.1761C105.794 75.1761 105.454 75.2245 105.145 75.3756C104.843 75.523 104.361 75.8928 104.361 76.5681H106.361ZM105.787 76.5761L105.815 79.9866L107.815 79.9706L107.787 76.56L105.787 76.5761ZM107.71 80.4246L107.723 80.3971L105.933 79.5051L105.92 79.5326L107.71 80.4246ZM8.67687 87.9862H6.8397V89.9862H8.67687V87.9862ZM7.83209 88.8631L7.39336 85.3288L5.40859 85.5751L5.84732 89.1094L7.83209 88.8631ZM6.40098 84.4519H4.22105V86.4519H6.40098V84.4519ZM3.22776 85.3363L2.81645 88.8707L4.80304 89.1018L5.21435 85.5675L3.22776 85.3363ZM3.80975 87.9862H2V89.9862H3.80975V87.9862ZM2.99326 89.1021L4.62478 75.1162L2.63825 74.8844L1.00674 88.8704L2.99326 89.1021ZM3.63151 76.0003H7.15504V74.0003H3.63151V76.0003ZM6.1608 75.1075L7.66892 89.0935L9.6574 88.879L8.14927 74.8931L6.1608 75.1075ZM8.66316 89.9862H8.67687V87.9862H8.66316V89.9862ZM7.48315 83.6499L6.35891 76.9526L4.38651 77.2837L5.51075 83.981L7.48315 83.6499ZM4.38651 76.9526L3.26227 83.6499L5.23468 83.981L6.35891 77.2837L4.38651 76.9526ZM4.24847 84.8154H6.48324V82.8154H4.24847V84.8154ZM6.48324 84.8154H6.49695V82.8154H6.48324V84.8154ZM17.328 87.9862H15.0658V89.9862H17.328V87.9862ZM16.0081 88.6514L14.0338 83.0956L12.1493 83.7652L14.1236 89.3211L16.0081 88.6514ZM12.0916 83.4304V88.9862H14.0916V83.4304H12.0916ZM13.0916 87.9862H11.5012V89.9862H13.0916V87.9862ZM12.5012 88.9862V75.0003H10.5012V88.9862H12.5012ZM11.5012 76.0003H14.8602V74.0003H11.5012V76.0003ZM14.8602 76.0003C15.3906 76.0003 15.8274 76.4433 15.8208 76.968L17.8207 76.9932C17.8415 75.3451 16.496 74.0003 14.8602 74.0003V76.0003ZM15.8208 76.9912L15.8619 80.8693L17.8618 80.8481L17.8207 76.97L15.8208 76.9912ZM15.8619 80.8587C15.8619 81.4653 15.5491 81.9888 15.0663 82.2429L15.9976 84.0128C17.1875 83.3867 17.8619 82.1499 17.8619 80.8587H15.8619ZM15.0603 82.2461L14.8546 82.3561L15.798 84.1196L16.0037 84.0096L15.0603 82.2461ZM14.3829 83.5694L16.3983 89.3041L18.2852 88.6409L16.2698 82.9063L14.3829 83.5694ZM16.6339 88.2662L16.6201 88.2799L18.0359 89.6926L18.0496 89.6788L16.6339 88.2662ZM16.1892 78.1083C16.1892 77.7067 16.051 77.1562 15.8712 76.7228C15.7778 76.4978 15.645 76.2341 15.4609 76.0084C15.3022 75.8138 14.938 75.4443 14.3666 75.4443V77.4443C14.1917 77.4443 14.0632 77.3843 13.9952 77.341C13.9319 77.3007 13.9063 77.2666 13.9111 77.2726C13.9237 77.288 13.9682 77.3551 14.024 77.4894C14.0758 77.6143 14.1203 77.7561 14.151 77.8862C14.1661 77.9503 14.1764 78.0055 14.1826 78.0489C14.1893 78.0953 14.1892 78.1138 14.1892 78.1083H16.1892ZM14.3666 75.4443H12.9819V77.4443H14.3666V75.4443ZM11.9819 76.4443V81.7664H13.9819V76.4443H11.9819ZM12.9819 82.7664H14.2981V80.7664H12.9819V82.7664ZM14.2981 82.7664C15.3468 82.7664 16.1892 81.917 16.1892 80.8725H14.1892C14.1892 80.8181 14.2365 80.7664 14.2981 80.7664V82.7664ZM16.1892 80.8725V77.2557H14.1892V80.8725H16.1892ZM14.1892 77.2557V78.1083H16.1892V77.2557H14.1892ZM77.982 87.9862H75.7198V89.9862H77.982V87.9862ZM76.6621 88.6514L74.6878 83.0956L72.8032 83.7652L74.7775 89.3211L76.6621 88.6514ZM72.7455 83.4304V88.9862H74.7455V83.4304H72.7455ZM73.7455 87.9862H72.1551V89.9862H73.7455V87.9862ZM73.1551 88.9862V75.0003H71.1551V88.9862H73.1551ZM72.1551 76.0003H75.5141V74.0003H72.1551V76.0003ZM75.5141 76.0003C76.0446 76.0003 76.4814 76.4433 76.4748 76.968L78.4746 76.9932C78.4954 75.3451 77.1499 74.0003 75.5141 74.0003V76.0003ZM76.4747 76.9912L76.5159 80.8693L78.5158 80.8481L78.4746 76.97L76.4747 76.9912ZM76.5158 80.8587C76.5158 81.4653 76.2031 81.9888 75.7203 82.2429L76.6516 84.0128C77.8414 83.3867 78.5158 82.1499 78.5158 80.8587H76.5158ZM75.7143 82.2461L75.5086 82.3561L76.452 84.1196L76.6576 84.0096L75.7143 82.2461ZM75.0368 83.5694L77.0522 89.3041L78.9391 88.6409L76.9237 82.9063L75.0368 83.5694ZM77.2878 88.2662L77.2741 88.2799L78.6899 89.6926L78.7036 89.6788L77.2878 88.2662ZM76.8432 78.1083C76.8432 77.4012 76.7481 76.7702 76.4643 76.2859C76.1278 75.7118 75.5858 75.4443 75.0206 75.4443V77.4443C74.9944 77.4443 74.928 77.4379 74.8517 77.3952C74.7739 77.3517 74.7413 77.3014 74.7388 77.2971C74.7388 77.2971 74.7393 77.298 74.7402 77.2998C74.7412 77.3016 74.7425 77.3044 74.7442 77.3082C74.7477 77.3158 74.7525 77.3274 74.7581 77.3434C74.7695 77.376 74.7833 77.4243 74.7964 77.4923C74.823 77.6303 74.8432 77.8297 74.8432 78.1083H76.8432ZM75.0206 75.4443H73.6358V77.4443H75.0206V75.4443ZM72.6358 76.4443V81.7664H74.6358V76.4443H72.6358ZM73.6358 82.7664H74.952V80.7664H73.6358V82.7664ZM74.952 82.7664C76.0007 82.7664 76.8432 81.917 76.8432 80.8725H74.8432C74.8432 80.8182 74.8904 80.7664 74.952 80.7664V82.7664ZM76.8432 80.8725V77.2557H74.8432V80.8725H76.8432ZM74.8432 77.2557V78.1083H76.8432V77.2557H74.8432ZM38.9224 77.2969V81.6701H40.9224V77.2969H38.9224ZM38.9224 81.6701C38.9224 82.4822 38.2567 83.1455 37.4546 83.1455V85.1455C39.3671 85.1455 40.9224 83.581 40.9224 81.6701H38.9224ZM37.4546 83.1455H36.1384V85.1455H37.4546V83.1455ZM35.1384 84.1455V88.9862H37.1384V84.1455H35.1384ZM36.1384 87.9862H34.0819V89.9862H36.1384V87.9862ZM35.0819 88.9862V75.0003H33.0819V88.9862H35.0819ZM34.0819 76.0003H37.6328V74.0003H34.0819V76.0003ZM37.6328 76.0003C38.339 76.0003 38.9224 76.5811 38.9224 77.2969H40.9224C40.9224 75.4823 39.4493 74.0003 37.6328 74.0003V76.0003ZM38.8111 77.3932C38.8111 76.3212 37.9412 75.4443 36.8651 75.4443V77.4443C36.8471 77.4443 36.8324 77.4359 36.8252 77.4288C36.8182 77.4217 36.8111 77.4083 36.8111 77.3932H38.8111ZM36.8651 75.4443H35.6037V77.4443H36.8651V75.4443ZM34.6037 76.4443V82.4127H36.6037V76.4443H34.6037ZM35.6037 83.4127H36.8651V81.4127H35.6037V83.4127ZM36.8651 83.4127C37.9412 83.4127 38.8111 82.5358 38.8111 81.4638H36.8111C36.8111 81.4487 36.8182 81.4353 36.8252 81.4282C36.8324 81.4211 36.8471 81.4127 36.8651 81.4127V83.4127ZM38.8111 81.4638V77.3932H36.8111V81.4638H38.8111ZM133.084 78.2321V86.3321H135.084V78.2321H133.084ZM133.084 86.3321C133.084 87.2542 132.35 87.9862 131.438 87.9862V89.9862C133.46 89.9862 135.084 88.353 135.084 86.3321H133.084ZM131.438 87.9862H128.106V89.9862H131.438V87.9862ZM129.106 88.9862V75.0141H127.106V88.9862H129.106ZM128.106 76.0141H130.862V74.0141H128.106V76.0141ZM130.862 76.0141C132.089 76.0141 133.084 77.0074 133.084 78.2458H135.084C135.084 75.9086 133.2 74.0141 130.862 74.0141V76.0141ZM135.084 78.2458V78.2321H133.084V78.2458H135.084ZM132.849 76.9944C132.849 76.7652 132.776 76.5746 132.743 76.4952C132.697 76.3835 132.635 76.2682 132.56 76.1596C132.488 76.0549 132.381 75.9223 132.232 75.8063C132.088 75.6945 131.829 75.5406 131.479 75.5406V77.5406C131.226 77.5406 131.061 77.4296 131.005 77.3857C130.943 77.3376 130.916 77.2978 130.912 77.2928C130.906 77.2839 130.901 77.2752 130.894 77.2589C130.891 77.2503 130.883 77.2297 130.874 77.198C130.868 77.1749 130.849 77.1 130.849 76.9944H132.849ZM131.479 75.5406H130.328V77.5406H131.479V75.5406ZM129.328 76.5406V87.391H131.328V76.5406H129.328ZM130.328 88.391H131.479V86.391H130.328V88.391ZM131.479 88.391C131.971 88.391 132.374 88.1403 132.605 87.7688C132.798 87.4575 132.836 87.1234 132.836 86.8959H130.836C130.836 86.9297 130.825 86.8432 130.905 86.7141C130.952 86.6391 131.03 86.5495 131.15 86.4815C131.271 86.4126 131.39 86.391 131.479 86.391V88.391ZM132.836 86.8959V76.9944H130.836V86.8959H132.836ZM131.836 77.9944H131.849V75.9944H131.836V77.9944ZM147 86.5521C147 87.3515 146.361 87.9862 145.601 87.9862V89.9862C147.5 89.9862 149 88.4206 149 86.5521H147ZM145.601 87.9862H143.764V89.9862H145.601V87.9862ZM143.764 87.9862C142.997 87.9862 142.372 87.3702 142.364 86.5967L140.364 86.6175C140.384 88.4845 141.898 89.9862 143.764 89.9862V87.9862ZM142.364 86.5921L142.227 77.447L140.227 77.4769L140.364 86.6221L142.364 86.5921ZM142.227 77.4518C142.219 76.6485 142.851 76.0141 143.626 76.0141V74.0141C141.715 74.0141 140.208 75.58 140.227 77.4721L142.227 77.4518ZM143.626 76.0141H145.518V74.0141H143.626V76.0141ZM145.518 76.0141C146.287 76.0141 146.918 76.6436 146.918 77.4069H148.918C148.918 75.5299 147.382 74.0141 145.518 74.0141V76.0141ZM146.918 77.4159L147 86.5611L149 86.5431L148.918 77.3979L146.918 77.4159ZM146.395 85.4519V78.5071H144.395V85.4519H146.395ZM146.395 78.4798C146.379 77.9153 146.302 77.3648 146.164 76.9241C146.097 76.7101 145.998 76.4643 145.844 76.2505C145.709 76.0623 145.376 75.6918 144.819 75.6918V77.6918C144.413 77.6918 144.224 77.4228 144.221 77.4181C144.199 77.3878 144.22 77.4076 144.256 77.5219C144.323 77.7378 144.383 78.0951 144.395 78.5344L146.395 78.4798ZM144.819 75.6918H144.381V77.6918H144.819V75.6918ZM144.381 75.6918C143.822 75.6918 143.486 76.061 143.346 76.2579C143.189 76.4776 143.09 76.7303 143.023 76.951C142.887 77.4052 142.818 77.9708 142.818 78.5484H144.818C144.818 78.1083 144.873 77.7457 144.939 77.5259C144.974 77.4097 144.995 77.3891 144.974 77.4197C144.968 77.4275 144.781 77.6918 144.381 77.6918V75.6918ZM142.818 78.5523L142.846 85.4972L144.846 85.4893L144.818 78.5444L142.818 78.5523ZM142.846 85.4932C142.846 86.0701 142.919 86.6266 143.06 87.0722C143.129 87.2891 143.231 87.5351 143.389 87.7487C143.529 87.9386 143.862 88.2947 144.408 88.2947V86.2947C144.803 86.2947 144.99 86.5512 144.997 86.5602C145.021 86.5928 145.001 86.5767 144.967 86.4687C144.903 86.2645 144.846 85.9202 144.846 85.4932H142.846ZM144.408 88.2947H144.833V86.2947H144.408V88.2947ZM144.833 88.2947C145.384 88.2947 145.72 87.9351 145.864 87.7361C146.022 87.5171 146.123 87.265 146.189 87.0451C146.326 86.5928 146.395 86.0294 146.395 85.4519H144.395C144.395 85.8921 144.34 86.2501 144.275 86.4648C144.241 86.5784 144.22 86.5962 144.244 86.5637C144.253 86.5512 144.439 86.2947 144.833 86.2947V88.2947Z" fill="black" mask="url(#path-1-outside-1_899_4447)"/>
</svg>
