<svg width="99" height="111" viewBox="0 0 99 111" fill="none" xmlns="http://www.w3.org/2000/svg">
<mask id="path-1-inside-1_899_4555" fill="white">
<path d="M44.86 10V36.49L18.27 10H44.86ZM44.86 37.85L44.93 69.38L58.66 57.65L44.86 37.85ZM72.39 37.85L75.11 21.76L60.67 25.38L72.39 37.85ZM74.72 29.73L80.88 29.53L75.96 22.35L74.72 29.74V29.73ZM72.15 38.91L45.64 10.49L45.66 37.35L55.92 52.13L72.15 38.91ZM10.89 93.99C10.98 93.94 11.08 93.89 11.18 93.84L12.05 93.44V85.92H6.76V88.92H9.05V91.54C8.72 91.67 8.26 91.75 7.33 91.75C4.94 91.75 3 89.81 3 87.42C3 85.03 4.94 83.09 7.33 83.09H11.31V80.09H7.33C3.29 80.09 0 83.38 0 87.42C0 91.46 3.29 94.75 7.33 94.75C9.3 94.75 10.08 94.42 10.89 93.99ZM23.89 89.11C23.89 86 21.59 83.47 18.77 83.47C15.95 83.47 13.65 86 13.65 89.11C13.65 92.22 15.95 94.75 18.77 94.75C21.59 94.75 23.89 92.22 23.89 89.11ZM20.89 89.11C20.89 90.57 19.94 91.75 18.77 91.75C17.6 91.75 16.65 90.56 16.65 89.11C16.65 87.66 17.6 86.47 18.77 86.47C19.94 86.47 20.89 87.66 20.89 89.11ZM35.37 89.11C35.37 86 33.07 83.47 30.25 83.47C27.43 83.47 25.13 86 25.13 89.11C25.13 92.22 27.43 94.75 30.25 94.75C33.07 94.75 35.37 92.22 35.37 89.11ZM32.37 89.11C32.37 90.57 31.42 91.75 30.25 91.75C29.08 91.75 28.13 90.56 28.13 89.11C28.13 87.66 29.08 86.47 30.25 86.47C31.42 86.47 32.37 87.66 32.37 89.11ZM80.26 89.11C80.26 86 77.96 83.47 75.14 83.47C72.32 83.47 70.02 86 70.02 89.11C70.02 92.22 72.32 94.75 75.14 94.75C77.96 94.75 80.26 92.22 80.26 89.11ZM77.26 89.11C77.26 90.57 76.31 91.75 75.14 91.75C73.97 91.75 73.02 90.56 73.02 89.11C73.02 87.66 73.97 86.47 75.14 86.47C76.31 86.47 77.26 87.66 77.26 89.11ZM46.24 79.77V94H43.66C42.91 94.48 42.04 94.75 41.12 94.75C38.29 94.75 36 92.22 36 89.11C36 86 38.3 83.47 41.12 83.47C41.88 83.47 42.6 83.89 43.24 84.22V79.77H46.24ZM43.24 89.11C43.24 87.65 42.29 86.47 41.12 86.47C39.95 86.47 39 87.66 39 89.11C39 90.56 39.95 91.75 41.12 91.75C42.29 91.75 43.24 90.56 43.24 89.11ZM61.25 90.13C61.25 88.77 60.52 87.49 59.35 86.79L56.09 84.86C55.82 84.7 55.66 84.41 55.66 84.1V83.87C55.66 83.39 56.05 82.99 56.54 82.99H57.5C58.02 82.99 58.45 83.41 58.45 83.94H61.45C61.45 81.76 59.68 79.99 57.5 79.99H56.54C54.4 79.99 52.66 81.73 52.66 83.87V84.1C52.66 85.46 53.39 86.74 54.56 87.44L57.82 89.37C58.09 89.53 58.25 89.82 58.25 90.13C58.25 90.64 57.78 91.19 57.33 91.19H56.13C55.66 91.19 55.03 90.57 55.03 90.23H52.03C52.03 92.27 54.02 94.19 56.13 94.19H57.33C59.45 94.19 61.25 92.33 61.25 90.13ZM67.44 91.47C67.14 91.47 66.9 91.23 66.9 90.93V86.77H68.71V83.77H66.9V81.96H63.9V83.77H62.55V86.77H63.9V90.93C63.9 92.88 65.49 94.47 67.44 94.47H68.99V91.47H67.44ZM88.07 87.36V83.47C87.06 84.35 85.18 84.83 84.65 84.76V84.21H81.65V93.6H84.65V88.35C86.38 88.53 87.36 88.06 88.07 87.36ZM95.9 83.83L93.98 88.98L91.65 83.74H88.83L92.42 92.85C91.93 93.72 91.28 94.51 90.51 95.15L89.33 96.12L91.24 98.43L92.42 97.46C93.94 96.21 95.11 94.56 95.8 92.71L98.72 83.74L95.91 83.83H95.9ZM39.05 101.91C38.23 101.91 37.5 102.27 36.98 102.83C36.46 102.27 35.73 101.91 34.91 101.91C34.15 101.91 33.46 102.22 32.95 102.71H31.95V109.45H33.45V109.4H33.59V104.73C33.59 104 34.18 103.41 34.91 103.41C35.64 103.41 36.23 104 36.23 104.73V109.4H37.73V104.73C37.73 104 38.32 103.41 39.05 103.41C39.78 103.41 40.37 104 40.37 104.73V109.4H41.87V104.73C41.87 103.18 40.61 101.91 39.05 101.91ZM46.39 110.15L47.58 110.06C48.61 109.91 49.65 109.13 49.65 107.94H48.15C48.15 108.32 47.66 108.53 47.41 108.57L46.33 108.65C45.25 108.65 44.36 107.83 44.25 106.78H49.65V105.37C49.65 103.46 48.1 101.91 46.19 101.91C44.28 101.91 42.73 103.46 42.73 105.37V106.56C42.73 108.54 44.34 110.15 46.38 110.15H46.39ZM46.2 103.41C47.25 103.41 48.11 104.24 48.15 105.28H44.24C44.28 104.24 45.14 103.41 46.19 103.41H46.2ZM57.27 99.45V109.4H55.77V108.6C55.19 109.31 54.37 109.76 53.47 109.76C51.71 109.76 50.28 108.09 50.28 106.03C50.28 103.97 51.71 102.3 53.47 102.3C54.38 102.3 55.19 102.75 55.77 103.46V99.45H57.27ZM55.16 106.03C55.16 104.8 54.4 103.8 53.47 103.8C52.54 103.8 51.78 104.8 51.78 106.03C51.78 107.26 52.54 108.26 53.47 108.26C54.4 108.26 55.16 107.26 55.16 106.03ZM60.7 100.04H59.2V101.59H60.7V100.04ZM60.7 102.66H59.2V109.4H60.7V102.66ZM67.8 109.4H66.45C65.91 109.8 65.23 110.01 64.56 110.01C64.03 110.01 63.52 109.89 63.11 109.65C62.5 109.3 62.05 108.69 61.89 107.98C61.73 107.28 61.87 106.57 62.27 105.98C63.29 104.51 65.05 104.19 66.3 104.67C66.3 103.78 65.59 103.07 64.71 103.07C64.07 103.07 63.56 103.59 63.56 104.22H62.06C62.06 102.76 63.25 101.57 64.71 101.57C66.41 101.57 67.8 102.96 67.8 104.66V109.4ZM66.15 106.75C66.15 106.54 66.12 106.26 65.93 106.15C65.45 105.87 64.24 105.79 63.51 106.84C63.35 107.08 63.29 107.37 63.36 107.66C63.43 107.96 63.61 108.22 63.86 108.37C64.39 108.67 65.47 108.52 65.79 107.98C66.01 107.6 66.15 107.13 66.15 106.76V106.75Z"/>
</mask>
<path d="M44.86 10V36.49L18.27 10H44.86ZM44.86 37.85L44.93 69.38L58.66 57.65L44.86 37.85ZM72.39 37.85L75.11 21.76L60.67 25.38L72.39 37.85ZM74.72 29.73L80.88 29.53L75.96 22.35L74.72 29.74V29.73ZM72.15 38.91L45.64 10.49L45.66 37.35L55.92 52.13L72.15 38.91ZM10.89 93.99C10.98 93.94 11.08 93.89 11.18 93.84L12.05 93.44V85.92H6.76V88.92H9.05V91.54C8.72 91.67 8.26 91.75 7.33 91.75C4.94 91.75 3 89.81 3 87.42C3 85.03 4.94 83.09 7.33 83.09H11.31V80.09H7.33C3.29 80.09 0 83.38 0 87.42C0 91.46 3.29 94.75 7.33 94.75C9.3 94.75 10.08 94.42 10.89 93.99ZM23.89 89.11C23.89 86 21.59 83.47 18.77 83.47C15.95 83.47 13.65 86 13.65 89.11C13.65 92.22 15.95 94.75 18.77 94.75C21.59 94.75 23.89 92.22 23.89 89.11ZM20.89 89.11C20.89 90.57 19.94 91.75 18.77 91.75C17.6 91.75 16.65 90.56 16.65 89.11C16.65 87.66 17.6 86.47 18.77 86.47C19.94 86.47 20.89 87.66 20.89 89.11ZM35.37 89.11C35.37 86 33.07 83.47 30.25 83.47C27.43 83.47 25.13 86 25.13 89.11C25.13 92.22 27.43 94.75 30.25 94.75C33.07 94.75 35.37 92.22 35.37 89.11ZM32.37 89.11C32.37 90.57 31.42 91.75 30.25 91.75C29.08 91.75 28.13 90.56 28.13 89.11C28.13 87.66 29.08 86.47 30.25 86.47C31.42 86.47 32.37 87.66 32.37 89.11ZM80.26 89.11C80.26 86 77.96 83.47 75.14 83.47C72.32 83.47 70.02 86 70.02 89.11C70.02 92.22 72.32 94.75 75.14 94.75C77.96 94.75 80.26 92.22 80.26 89.11ZM77.26 89.11C77.26 90.57 76.31 91.75 75.14 91.75C73.97 91.75 73.02 90.56 73.02 89.11C73.02 87.66 73.97 86.47 75.14 86.47C76.31 86.47 77.26 87.66 77.26 89.11ZM46.24 79.77V94H43.66C42.91 94.48 42.04 94.75 41.12 94.75C38.29 94.75 36 92.22 36 89.11C36 86 38.3 83.47 41.12 83.47C41.88 83.47 42.6 83.89 43.24 84.22V79.77H46.24ZM43.24 89.11C43.24 87.65 42.29 86.47 41.12 86.47C39.95 86.47 39 87.66 39 89.11C39 90.56 39.95 91.75 41.12 91.75C42.29 91.75 43.24 90.56 43.24 89.11ZM61.25 90.13C61.25 88.77 60.52 87.49 59.35 86.79L56.09 84.86C55.82 84.7 55.66 84.41 55.66 84.1V83.87C55.66 83.39 56.05 82.99 56.54 82.99H57.5C58.02 82.99 58.45 83.41 58.45 83.94H61.45C61.45 81.76 59.68 79.99 57.5 79.99H56.54C54.4 79.99 52.66 81.73 52.66 83.87V84.1C52.66 85.46 53.39 86.74 54.56 87.44L57.82 89.37C58.09 89.53 58.25 89.82 58.25 90.13C58.25 90.64 57.78 91.19 57.33 91.19H56.13C55.66 91.19 55.03 90.57 55.03 90.23H52.03C52.03 92.27 54.02 94.19 56.13 94.19H57.33C59.45 94.19 61.25 92.33 61.25 90.13ZM67.44 91.47C67.14 91.47 66.9 91.23 66.9 90.93V86.77H68.71V83.77H66.9V81.96H63.9V83.77H62.55V86.77H63.9V90.93C63.9 92.88 65.49 94.47 67.44 94.47H68.99V91.47H67.44ZM88.07 87.36V83.47C87.06 84.35 85.18 84.83 84.65 84.76V84.21H81.65V93.6H84.65V88.35C86.38 88.53 87.36 88.06 88.07 87.36ZM95.9 83.83L93.98 88.98L91.65 83.74H88.83L92.42 92.85C91.93 93.72 91.28 94.51 90.51 95.15L89.33 96.12L91.24 98.43L92.42 97.46C93.94 96.21 95.11 94.56 95.8 92.71L98.72 83.74L95.91 83.83H95.9ZM39.05 101.91C38.23 101.91 37.5 102.27 36.98 102.83C36.46 102.27 35.73 101.91 34.91 101.91C34.15 101.91 33.46 102.22 32.95 102.71H31.95V109.45H33.45V109.4H33.59V104.73C33.59 104 34.18 103.41 34.91 103.41C35.64 103.41 36.23 104 36.23 104.73V109.4H37.73V104.73C37.73 104 38.32 103.41 39.05 103.41C39.78 103.41 40.37 104 40.37 104.73V109.4H41.87V104.73C41.87 103.18 40.61 101.91 39.05 101.91ZM46.39 110.15L47.58 110.06C48.61 109.91 49.65 109.13 49.65 107.94H48.15C48.15 108.32 47.66 108.53 47.41 108.57L46.33 108.65C45.25 108.65 44.36 107.83 44.25 106.78H49.65V105.37C49.65 103.46 48.1 101.91 46.19 101.91C44.28 101.91 42.73 103.46 42.73 105.37V106.56C42.73 108.54 44.34 110.15 46.38 110.15H46.39ZM46.2 103.41C47.25 103.41 48.11 104.24 48.15 105.28H44.24C44.28 104.24 45.14 103.41 46.19 103.41H46.2ZM57.27 99.45V109.4H55.77V108.6C55.19 109.31 54.37 109.76 53.47 109.76C51.71 109.76 50.28 108.09 50.28 106.03C50.28 103.97 51.71 102.3 53.47 102.3C54.38 102.3 55.19 102.75 55.77 103.46V99.45H57.27ZM55.16 106.03C55.16 104.8 54.4 103.8 53.47 103.8C52.54 103.8 51.78 104.8 51.78 106.03C51.78 107.26 52.54 108.26 53.47 108.26C54.4 108.26 55.16 107.26 55.16 106.03ZM60.7 100.04H59.2V101.59H60.7V100.04ZM60.7 102.66H59.2V109.4H60.7V102.66ZM67.8 109.4H66.45C65.91 109.8 65.23 110.01 64.56 110.01C64.03 110.01 63.52 109.89 63.11 109.65C62.5 109.3 62.05 108.69 61.89 107.98C61.73 107.28 61.87 106.57 62.27 105.98C63.29 104.51 65.05 104.19 66.3 104.67C66.3 103.78 65.59 103.07 64.71 103.07C64.07 103.07 63.56 103.59 63.56 104.22H62.06C62.06 102.76 63.25 101.57 64.71 101.57C66.41 101.57 67.8 102.96 67.8 104.66V109.4ZM66.15 106.75C66.15 106.54 66.12 106.26 65.93 106.15C65.45 105.87 64.24 105.79 63.51 106.84C63.35 107.08 63.29 107.37 63.36 107.66C63.43 107.96 63.61 108.22 63.86 108.37C64.39 108.67 65.47 108.52 65.79 107.98C66.01 107.6 66.15 107.13 66.15 106.76V106.75Z" stroke="black" stroke-width="2" mask="url(#path-1-inside-1_899_4555)"/>
</svg>
