<svg width="133" height="83" viewBox="0 0 133 83" fill="none" xmlns="http://www.w3.org/2000/svg">
<path d="M4.28548 3.19132V0.51486L129.661 19.4964C130.682 19.6528 131.434 20.5257 131.434 21.5519V21.5528L131.536 78.7053C131.536 78.7055 131.536 78.7059 131.536 78.7062C131.536 80.4216 130.143 81.8136 128.428 81.8136H17.7636C16.3866 81.8136 15.2055 80.8341 14.9541 79.4898L14.9539 79.4887L0.528954 3.32055L3.72843 3.68806L4.28548 3.75204V3.19132Z" stroke="black"/>
<path d="M22.157 60.8342H18.7422V46.5714H22.157V60.8342ZM38.9012 60.8342V46.5714H35.4864V55.4615L28.4745 46.5714H25.4125V60.8342H28.8274V51.9442L35.6116 60.8342H38.9012ZM55.4633 46.5714H52.0257L47.9165 56.1786L44.2057 46.5714H40.5404L46.2773 60.8228L49.4532 60.8456L55.4405 46.5714H55.4633ZM69.1797 60.8342H65.4575L64.3761 58.3413H58.0131L56.9431 60.8456H53.2437L59.6067 46.5828H62.7483L69.1797 60.8342ZM62.8963 54.9265L61.1661 50.9083L59.4587 54.9265H62.8963ZM98.149 60.8456H94.4155L93.3341 58.3413H86.9597L85.8214 61.0277L82.0992 60.8456L88.5533 46.5828L91.695 46.5601L98.1377 60.8456H98.149ZM91.8657 54.9265L90.1241 50.9083L88.4167 54.9265H91.8657ZM82.9302 54.5964V52.8093C82.9302 49.2464 79.7316 46.5601 74.9849 46.5601H69.6691V61.0163H74.9849C79.7316 61.0163 82.9302 58.66 82.9302 54.585V54.5964ZM73.084 49.9863H74.9849C76.3509 49.9863 79.5153 50.5099 79.5153 52.8206V54.6077C79.5153 57.6697 76.3509 57.6242 74.9849 57.6242H73.084V49.9977V49.9863ZM30.0112 67.9371V64.5222H18.7991V64.8523H18.7422V78.8532H22.157V73.5602H28.9185V70.1454H22.157V67.9371H30.0112ZM35.6116 64.8523H32.1967V78.8646H35.6116V64.8523ZM42.3047 75.5864V64.8523H38.8899V78.8532H38.9809V79.0012H49.4304V75.5864H42.3047ZM58.3204 75.9962L62.3158 70.2819V78.8646H65.7307V64.8523H62.3727L58.3204 70.0315L54.4047 64.8523H50.9215V78.8532H54.3364V70.2706L58.3318 75.9848L58.3204 75.9962Z" stroke="black"/>
</svg>
