<svg width="99" height="111" viewBox="0 0 99 111" fill="none" xmlns="http://www.w3.org/2000/svg">
<path d="M44.86 10.1499V36.6399L18.27 10.1499H44.86ZM44.86 37.9999L44.93 69.5299L58.66 57.7999L44.86 37.9999ZM72.39 37.9999L75.11 21.9099L60.67 25.5299L72.39 37.9999ZM74.72 29.8799L80.88 29.6799L75.96 22.4999L74.72 29.8899V29.8799ZM72.15 39.0599L45.64 10.6399L45.66 37.4999L55.92 52.2799L72.15 39.0599ZM10.89 94.1399C10.98 94.0899 11.08 94.0399 11.18 93.9899L12.05 93.5899V86.0699H6.76V89.0699H9.05V91.6899C8.72 91.8199 8.26 91.8999 7.33 91.8999C4.94 91.8999 3 89.9599 3 87.5699C3 85.1799 4.94 83.2399 7.33 83.2399H11.31V80.2399H7.33C3.29 80.2399 0 83.5299 0 87.5699C0 91.6099 3.29 94.8999 7.33 94.8999C9.3 94.8999 10.08 94.5699 10.89 94.1399ZM23.89 89.2599C23.89 86.1499 21.59 83.6199 18.77 83.6199C15.95 83.6199 13.65 86.1499 13.65 89.2599C13.65 92.3699 15.95 94.8999 18.77 94.8999C21.59 94.8999 23.89 92.3699 23.89 89.2599ZM20.89 89.2599C20.89 90.7199 19.94 91.8999 18.77 91.8999C17.6 91.8999 16.65 90.7099 16.65 89.2599C16.65 87.8099 17.6 86.6199 18.77 86.6199C19.94 86.6199 20.89 87.8099 20.89 89.2599ZM35.37 89.2599C35.37 86.1499 33.07 83.6199 30.25 83.6199C27.43 83.6199 25.13 86.1499 25.13 89.2599C25.13 92.3699 27.43 94.8999 30.25 94.8999C33.07 94.8999 35.37 92.3699 35.37 89.2599ZM32.37 89.2599C32.37 90.7199 31.42 91.8999 30.25 91.8999C29.08 91.8999 28.13 90.7099 28.13 89.2599C28.13 87.8099 29.08 86.6199 30.25 86.6199C31.42 86.6199 32.37 87.8099 32.37 89.2599ZM80.26 89.2599C80.26 86.1499 77.96 83.6199 75.14 83.6199C72.32 83.6199 70.02 86.1499 70.02 89.2599C70.02 92.3699 72.32 94.8999 75.14 94.8999C77.96 94.8999 80.26 92.3699 80.26 89.2599ZM77.26 89.2599C77.26 90.7199 76.31 91.8999 75.14 91.8999C73.97 91.8999 73.02 90.7099 73.02 89.2599C73.02 87.8099 73.97 86.6199 75.14 86.6199C76.31 86.6199 77.26 87.8099 77.26 89.2599ZM46.24 79.9199V94.1499H43.66C42.91 94.6299 42.04 94.8999 41.12 94.8999C38.29 94.8999 36 92.3699 36 89.2599C36 86.1499 38.3 83.6199 41.12 83.6199C41.88 83.6199 42.6 84.0399 43.24 84.3699V79.9199H46.24ZM43.24 89.2599C43.24 87.7999 42.29 86.6199 41.12 86.6199C39.95 86.6199 39 87.8099 39 89.2599C39 90.7099 39.95 91.8999 41.12 91.8999C42.29 91.8999 43.24 90.7099 43.24 89.2599ZM61.25 90.2799C61.25 88.9199 60.52 87.6399 59.35 86.9399L56.09 85.0099C55.82 84.8499 55.66 84.5599 55.66 84.2499V84.0199C55.66 83.5399 56.05 83.1399 56.54 83.1399H57.5C58.02 83.1399 58.45 83.5599 58.45 84.0899H61.45C61.45 81.9099 59.68 80.1399 57.5 80.1399H56.54C54.4 80.1399 52.66 81.8799 52.66 84.0199V84.2499C52.66 85.6099 53.39 86.8899 54.56 87.5899L57.82 89.5199C58.09 89.6799 58.25 89.9699 58.25 90.2799C58.25 90.7899 57.78 91.3399 57.33 91.3399H56.13C55.66 91.3399 55.03 90.7199 55.03 90.3799H52.03C52.03 92.4199 54.02 94.3399 56.13 94.3399H57.33C59.45 94.3399 61.25 92.4799 61.25 90.2799ZM67.44 91.6199C67.14 91.6199 66.9 91.3799 66.9 91.0799V86.9199H68.71V83.9199H66.9V82.1099H63.9V83.9199H62.55V86.9199H63.9V91.0799C63.9 93.0299 65.49 94.6199 67.44 94.6199H68.99V91.6199H67.44ZM88.07 87.5099V83.6199C87.06 84.4999 85.18 84.9799 84.65 84.9099V84.3599H81.65V93.7499H84.65V88.4999C86.38 88.6799 87.36 88.2099 88.07 87.5099ZM95.9 83.9799L93.98 89.1299L91.65 83.8899H88.83L92.42 92.9999C91.93 93.8699 91.28 94.6599 90.51 95.2999L89.33 96.2699L91.24 98.5799L92.42 97.6099C93.94 96.3599 95.11 94.7099 95.8 92.8599L98.72 83.8899L95.91 83.9799H95.9ZM39.05 102.06C38.23 102.06 37.5 102.42 36.98 102.98C36.46 102.42 35.73 102.06 34.91 102.06C34.15 102.06 33.46 102.37 32.95 102.86H31.95V109.6H33.45V109.55H33.59V104.88C33.59 104.15 34.18 103.56 34.91 103.56C35.64 103.56 36.23 104.15 36.23 104.88V109.55H37.73V104.88C37.73 104.15 38.32 103.56 39.05 103.56C39.78 103.56 40.37 104.15 40.37 104.88V109.55H41.87V104.88C41.87 103.33 40.61 102.06 39.05 102.06ZM46.39 110.3L47.58 110.21C48.61 110.06 49.65 109.28 49.65 108.09H48.15C48.15 108.47 47.66 108.68 47.41 108.72L46.33 108.8C45.25 108.8 44.36 107.98 44.25 106.93H49.65V105.52C49.65 103.61 48.1 102.06 46.19 102.06C44.28 102.06 42.73 103.61 42.73 105.52V106.71C42.73 108.69 44.34 110.3 46.38 110.3H46.39ZM46.2 103.56C47.25 103.56 48.11 104.39 48.15 105.43H44.24C44.28 104.39 45.14 103.56 46.19 103.56H46.2ZM57.27 99.5999V109.55H55.77V108.75C55.19 109.46 54.37 109.91 53.47 109.91C51.71 109.91 50.28 108.24 50.28 106.18C50.28 104.12 51.71 102.45 53.47 102.45C54.38 102.45 55.19 102.9 55.77 103.61V99.5999H57.27ZM55.16 106.18C55.16 104.95 54.4 103.95 53.47 103.95C52.54 103.95 51.78 104.95 51.78 106.18C51.78 107.41 52.54 108.41 53.47 108.41C54.4 108.41 55.16 107.41 55.16 106.18ZM60.7 100.19H59.2V101.74H60.7V100.19ZM60.7 102.81H59.2V109.55H60.7V102.81ZM67.8 109.55H66.45C65.91 109.95 65.23 110.16 64.56 110.16C64.03 110.16 63.52 110.04 63.11 109.8C62.5 109.45 62.05 108.84 61.89 108.13C61.73 107.43 61.87 106.72 62.27 106.13C63.29 104.66 65.05 104.34 66.3 104.82C66.3 103.93 65.59 103.22 64.71 103.22C64.07 103.22 63.56 103.74 63.56 104.37H62.06C62.06 102.91 63.25 101.72 64.71 101.72C66.41 101.72 67.8 103.11 67.8 104.81V109.55ZM66.15 106.9C66.15 106.69 66.12 106.41 65.93 106.3C65.45 106.02 64.24 105.94 63.51 106.99C63.35 107.23 63.29 107.52 63.36 107.81C63.43 108.11 63.61 108.37 63.86 108.52C64.39 108.82 65.47 108.67 65.79 108.13C66.01 107.75 66.15 107.28 66.15 106.91V106.9Z" fill="black"/>
</svg>
