<svg width="117" height="77" viewBox="0 0 117 77" fill="none" xmlns="http://www.w3.org/2000/svg">
<path d="M40.5994 30.1993C37.2894 30.4793 32.1694 29.1793 31.8794 27.9093C28.6394 27.9093 26.4694 26.9993 25.1494 25.6693C24.8494 25.3693 24.9494 24.8493 25.3394 24.6793C28.0394 23.4993 32.8494 22.9293 35.5094 22.7093M95.9194 13.9693C98.4494 13.5893 101.019 12.8793 103.549 11.8393C104.199 11.5693 104.239 10.6493 103.599 10.3393C101.179 9.17932 98.7594 8.62932 96.5694 8.47932M30.7794 27.8693C34.6594 34.5393 41.7294 37.4893 52.1894 33.2593C52.9694 32.9393 54.3094 32.7393 55.1594 32.7693C58.1094 32.8693 61.1194 33.3693 64.1794 34.1393C65.6994 34.5193 67.0694 35.3893 68.0694 36.5993L70.3494 39.3393L70.2094 36.9193H73.6194L71.7294 34.6893L75.0394 33.1293L71.6994 33.0693C70.3394 33.0393 68.9994 32.8293 67.6994 32.4193L67.5094 32.3593C66.4794 32.0393 65.4394 31.7693 64.3694 31.6193C64.0594 31.5793 63.7494 31.5393 63.4394 31.5093L57.4494 30.8993C62.9994 28.2293 67.5494 23.9793 71.3594 20.5293C75.1694 17.0793 80.2894 15.1793 85.4994 15.3593L91.7794 15.5693C93.5594 15.6293 95.2894 14.8693 96.3794 13.4593C96.3894 13.4393 96.3994 13.4293 96.4194 13.4093C97.5294 11.9593 97.7094 9.90932 96.5794 8.48932C96.5794 8.47932 96.5594 8.46932 96.5494 8.45932C96.1294 7.93932 95.4894 7.64932 94.8294 7.54932C94.0294 7.43932 93.2594 7.42932 92.5194 7.56932L83.7094 10.0893C74.7194 12.3493 62.1194 13.8793 48.2194 15.1393C42.1894 15.6893 36.1094 15.0593 30.3194 13.3093C28.6494 12.8093 27.0094 12.2793 25.4094 11.7393C24.8494 11.5493 24.3394 12.1393 24.6094 12.6593C26.8494 17.0493 30.8794 20.0793 36.9994 21.5193C36.4794 21.6393 36.0494 21.8293 35.6994 22.0793C35.4294 22.2793 35.3994 22.6893 35.6394 22.9293C37.5194 24.7093 40.3194 25.2093 43.8094 24.7593C43.0294 25.0593 42.3594 25.4493 41.7994 25.9593C41.5794 26.1593 41.6694 26.5393 41.9594 26.5993C44.7194 27.1793 47.4494 27.0393 50.1294 25.9993C49.6194 26.5693 49.2294 27.1293 48.9794 27.6893C48.7494 28.1993 49.0994 28.7693 49.6594 28.7893C53.9694 28.9793 57.8494 27.0993 61.3594 23.3893C64.6794 19.8793 63.4594 14.1093 59.0494 12.1293C57.2494 11.3193 55.3594 10.7293 53.4494 10.2593C47.8194 8.85932 43.0594 5.74932 38.9694 1.27932C38.4494 0.709319 37.4994 1.06932 37.4894 1.83932V2.61932C37.4594 5.83932 38.7894 8.92932 41.1694 11.1093L43.0194 12.8093L41.1294 12.3993C40.4394 12.2493 39.8794 12.9693 40.2094 13.5993L40.8994 14.9293M37.1394 34.0193C35.1494 35.5093 33.1794 36.5193 31.2394 36.9093C29.9794 37.1693 28.7294 37.4693 27.5394 37.9593L21.6094 40.4393H25.8394L23.5394 43.5693L27.5994 42.0893L27.6494 45.0493L28.3294 43.5893C29.6194 40.8493 31.9094 38.7193 34.7394 37.6393L41.1994 35.1693M93.4994 8.65932C93.0794 8.65932 92.7394 8.99932 92.7394 9.41932C92.7394 9.83932 93.0794 10.1793 93.4994 10.1793C93.9194 10.1793 94.2594 9.83932 94.2594 9.41932C94.2594 8.99932 93.9194 8.65932 93.4994 8.65932Z" stroke="black" stroke-width="0.75" stroke-miterlimit="10"/>
<path d="M4.85 76.6391H2.89C1.85 76.6391 1 75.7891 1 74.7491V60.5591C1 59.5191 1.85 58.6691 2.89 58.6691H4.85C5.89 58.6691 6.74 59.5191 6.74 60.5591V63.4691C6.74 64.0191 6.29 64.4691 5.74 64.4691C5.19 64.4691 4.74 64.0191 4.74 63.4691V60.6691H2.99V74.6391H4.74V69.7591H4.3C3.75 69.7591 3.3 69.3091 3.3 68.7591C3.3 68.2091 3.75 67.7591 4.3 67.7591H5.12C6.01 67.7591 6.74 68.4891 6.74 69.3791V74.7491C6.74 75.7891 5.89 76.6391 4.85 76.6391ZM14.91 73.6591V61.6391C14.91 59.9991 13.58 58.6591 11.93 58.6591C10.28 58.6591 8.95 59.9891 8.95 61.6391V73.6591C8.95 75.2991 10.29 76.6391 11.93 76.6391C13.57 76.6391 14.91 75.3091 14.91 73.6591ZM12.91 61.6391V73.6591C12.91 74.1991 12.47 74.6391 11.93 74.6391C11.39 74.6391 10.95 74.1991 10.95 73.6591V61.6391C10.95 61.0991 11.39 60.6591 11.93 60.6591C12.47 60.6591 12.91 61.0991 12.91 61.6391ZM22.97 73.6591V61.6391C22.97 59.9991 21.63 58.6591 19.99 58.6591C18.35 58.6591 17.01 59.9891 17.01 61.6391V73.6591C17.01 75.2991 18.34 76.6391 19.99 76.6391C21.64 76.6391 22.97 75.3091 22.97 73.6591ZM20.97 61.6391V73.6591C20.97 74.1991 20.53 74.6391 19.99 74.6391C19.45 74.6391 19.01 74.1991 19.01 73.6591V61.6391C19.01 61.0991 19.45 60.6591 19.99 60.6591C20.53 60.6591 20.97 61.0991 20.97 61.6391ZM30.47 73.9391V70.8991C30.47 69.8991 30.17 68.9291 29.6 68.0991L27.6 65.1891C27.26 64.6991 27.08 64.1191 27.08 63.5191V61.3491C27.08 60.9691 27.39 60.6591 27.78 60.6591C28.17 60.6591 28.47 60.9691 28.47 61.3491V63.4591C28.47 64.0091 28.92 64.4591 29.47 64.4591C30.02 64.4591 30.47 64.0091 30.47 63.4591V61.3491C30.47 59.8591 29.26 58.6591 27.78 58.6591C26.3 58.6591 25.08 59.8691 25.08 61.3491V63.5191C25.08 64.5191 25.38 65.4891 25.95 66.3191L27.95 69.2291C28.29 69.7191 28.47 70.2991 28.47 70.8991V73.9391C28.47 74.3191 28.16 74.6291 27.78 74.6291C27.4 74.6291 27.08 74.3191 27.08 73.9391V72.6591C27.08 72.1091 26.63 71.6591 26.08 71.6591C25.53 71.6591 25.08 72.1091 25.08 72.6591V73.9391C25.08 75.4291 26.29 76.6291 27.78 76.6291C29.27 76.6291 30.47 75.4191 30.47 73.9391ZM36.56 60.6591C37.11 60.6591 37.56 60.2091 37.56 59.6591C37.56 59.1091 37.11 58.6591 36.56 58.6591H33.89C33.03 58.6591 32.33 59.3591 32.33 60.2191V75.0691C32.33 75.9291 33.03 76.6291 33.89 76.6291H36.05C36.6 76.6291 37.05 76.1791 37.05 75.6291C37.05 75.0791 36.6 74.6291 36.05 74.6291H34.33V68.3591H36.1C36.65 68.3591 37.1 67.9091 37.1 67.3591C37.1 66.8091 36.65 66.3591 36.1 66.3591H34.33V60.6591H36.56ZM48.42 74.7391V69.3691C48.42 68.4791 47.69 67.7491 46.8 67.7491H45.98C45.43 67.7491 44.98 68.1991 44.98 68.7491C44.98 69.2991 45.43 69.7491 45.98 69.7491H46.42V74.6291H44.67V60.6591H46.42V63.4591C46.42 64.0091 46.87 64.4591 47.42 64.4591C47.97 64.4591 48.42 64.0091 48.42 63.4591V60.5491C48.42 59.5091 47.57 58.6591 46.53 58.6591H44.57C43.53 58.6591 42.68 59.5091 42.68 60.5491V74.7391C42.68 75.7791 43.53 76.6291 44.57 76.6291H46.53C47.57 76.6291 48.42 75.7791 48.42 74.7391ZM56.59 73.6591V61.6391C56.59 59.9991 55.25 58.6591 53.61 58.6591C51.97 58.6591 50.63 59.9891 50.63 61.6391V73.6591C50.63 75.2991 51.96 76.6391 53.61 76.6391C55.26 76.6391 56.59 75.3091 56.59 73.6591ZM54.59 61.6391V73.6591C54.59 74.1991 54.15 74.6391 53.61 74.6391C53.07 74.6391 52.63 74.1991 52.63 73.6591V61.6391C52.63 61.0991 53.07 60.6591 53.61 60.6591C54.15 60.6591 54.59 61.0991 54.59 61.6391ZM64.65 73.6591V61.6391C64.65 59.9991 63.32 58.6591 61.67 58.6591C60.02 58.6591 58.69 59.9891 58.69 61.6391V73.6591C58.69 75.2991 60.02 76.6391 61.67 76.6391C63.32 76.6391 64.65 75.3091 64.65 73.6591ZM62.65 61.6391V73.6591C62.65 74.1991 62.21 74.6391 61.67 74.6391C61.13 74.6391 60.69 74.1991 60.69 73.6591V61.6391C60.69 61.0991 61.13 60.6591 61.67 60.6591C62.21 60.6591 62.65 61.0991 62.65 61.6391ZM72.15 73.9391V70.8991C72.15 69.8991 71.85 68.9291 71.28 68.0991L69.28 65.1891C68.94 64.6991 68.76 64.1191 68.76 63.5191V61.3491C68.76 60.9691 69.07 60.6591 69.45 60.6591C69.83 60.6591 70.15 60.9691 70.15 61.3491V63.4591C70.15 64.0091 70.6 64.4591 71.15 64.4591C71.7 64.4591 72.15 64.0091 72.15 63.4591V61.3491C72.15 59.8591 70.94 58.6591 69.45 58.6591C67.96 58.6591 66.76 59.8691 66.76 61.3491V63.5191C66.76 64.5191 67.06 65.4891 67.63 66.3191L69.63 69.2291C69.97 69.7191 70.15 70.2991 70.15 70.8991V73.9391C70.15 74.3191 69.84 74.6291 69.45 74.6291C69.06 74.6291 68.76 74.3191 68.76 73.9391V72.6591C68.76 72.1091 68.31 71.6591 67.76 71.6591C67.21 71.6591 66.76 72.1091 66.76 72.6591V73.9391C66.76 75.4291 67.97 76.6291 69.45 76.6291C70.93 76.6291 72.15 75.4191 72.15 73.9391ZM116.27 73.9391V70.8991C116.27 69.8991 115.97 68.9291 115.4 68.0991L113.4 65.1891C113.06 64.6991 112.88 64.1191 112.88 63.5191V61.3491C112.88 60.9691 113.19 60.6591 113.57 60.6591C113.95 60.6591 114.27 60.9691 114.27 61.3491V63.4591C114.27 64.0091 114.72 64.4591 115.27 64.4591C115.82 64.4591 116.27 64.0091 116.27 63.4591V61.3491C116.27 59.8591 115.06 58.6591 113.57 58.6591C112.08 58.6591 110.88 59.8691 110.88 61.3491V63.5191C110.88 64.5191 111.18 65.4891 111.75 66.3191L113.75 69.2291C114.09 69.7191 114.27 70.2991 114.27 70.8991V73.9391C114.27 74.3191 113.96 74.6291 113.57 74.6291C113.18 74.6291 112.88 74.3191 112.88 73.9391V72.6591C112.88 72.1091 112.43 71.6591 111.88 71.6591C111.33 71.6591 110.88 72.1091 110.88 72.6591V73.9391C110.88 75.4291 112.09 76.6291 113.57 76.6291C115.05 76.6291 116.27 75.4191 116.27 73.9391ZM78.24 60.6591C78.79 60.6591 79.24 60.2091 79.24 59.6591C79.24 59.1091 78.79 58.6591 78.24 58.6591H75.57C74.71 58.6591 74.01 59.3591 74.01 60.2191V75.0691C74.01 75.9291 74.71 76.6291 75.57 76.6291H77.73C78.28 76.6291 78.73 76.1791 78.73 75.6291C78.73 75.0791 78.28 74.6291 77.73 74.6291H76.01V68.3591H77.78C78.33 68.3591 78.78 67.9091 78.78 67.3591C78.78 66.8091 78.33 66.3591 77.78 66.3591H76.01V60.6591H78.25H78.24ZM87.67 60.5391C88.22 60.5391 88.67 60.0891 88.67 59.5391C88.67 58.9891 88.22 58.5391 87.67 58.5391H85.02C84.15 58.5391 83.45 59.2491 83.45 60.1091V66.6091C83.21 66.7891 83.05 67.0691 83.05 67.3891C83.05 67.7091 83.21 67.9791 83.45 68.1691V75.7291C83.45 76.2791 83.9 76.7291 84.45 76.7291C85 76.7291 85.45 76.2791 85.45 75.7291V68.3991H87.01C87.56 68.3991 88.01 67.9491 88.01 67.3991C88.01 66.8491 87.56 66.3991 87.01 66.3991H85.45V60.5491H87.67V60.5391ZM91.49 75.7291V59.5391C91.49 58.9891 91.04 58.5391 90.49 58.5391C89.94 58.5391 89.49 58.9891 89.49 59.5391V75.7291C89.49 76.2791 89.94 76.7291 90.49 76.7291C91.04 76.7291 91.49 76.2791 91.49 75.7291ZM98.5 75.7291C98.5 75.1791 98.05 74.7291 97.5 74.7291H95.59V59.5391C95.59 58.9891 95.14 58.5391 94.59 58.5391C94.04 58.5391 93.59 58.9891 93.59 59.5391V75.1191C93.59 75.9991 94.31 76.7191 95.19 76.7191H97.5C98.05 76.7191 98.5 76.2691 98.5 75.7191V75.7291ZM109.17 75.7291V59.5391C109.17 58.9891 108.72 58.5391 108.17 58.5391H106.89C106.4 58.5391 105.98 58.8991 105.9 59.3791L104.37 69.0091L102.67 59.3691C102.59 58.8891 102.17 58.5391 101.69 58.5391H100.68C100.13 58.5391 99.68 58.9891 99.68 59.5391V75.7291C99.68 76.2791 100.13 76.7291 100.68 76.7291C101.23 76.7291 101.68 76.2791 101.68 75.7291V65.2191L103.44 75.2291C103.52 75.7091 103.94 76.0591 104.42 76.0591C104.91 76.0591 105.32 75.6991 105.4 75.2191L107.16 64.1491V75.7291C107.16 76.2791 107.61 76.7291 108.16 76.7291C108.71 76.7291 109.16 76.2791 109.16 75.7291H109.17Z" stroke="black" stroke-width="0.5" stroke-miterlimit="10"/>
</svg>
