<svg width="112" height="106" viewBox="0 0 112 106" fill="none" xmlns="http://www.w3.org/2000/svg">
<path d="M32.8783 59.5899H25.4983C24.7583 59.5899 24.0783 59.1799 23.7283 58.5299L15.6183 43.2099C15.1983 42.4099 14.3683 41.9099 13.4683 41.9099H13.1483C11.6083 41.9099 10.3483 43.1599 10.3483 44.7099V57.5899C10.3483 58.6899 9.4483 59.5899 8.3483 59.5899H2.3483C1.2483 59.5899 0.348297 58.6899 0.348297 57.5899V16.2299C0.348297 15.1299 1.2483 14.2299 2.3483 14.2299H8.3483C9.4483 14.2299 10.3483 15.1299 10.3483 16.2299V30.1499C10.3483 31.1199 11.1383 31.9099 12.1083 31.9099H13.3583C14.3683 31.9099 15.3083 31.3599 15.7983 30.4699L24.2583 15.2499C24.6083 14.6199 25.2783 14.2199 26.0083 14.2199H34.0083C35.5083 14.2199 36.4783 15.8099 35.7783 17.1399L24.1383 35.6399C23.7783 36.3199 23.7983 37.1399 24.1683 37.8099L34.6183 56.5999C35.3583 57.9299 34.3983 59.5699 32.8683 59.5699L32.8783 59.5899ZM69.9083 50.2599C70.5883 49.2999 70.3183 47.9699 69.3083 47.3699L64.1283 44.2999C63.2483 43.7799 62.1183 44.0099 61.5083 44.8299C59.7983 47.1299 57.2383 49.5999 55.5383 49.5999H52.6683C49.9783 49.5999 47.2383 47.3599 47.2383 45.1699V41.9799C47.2383 41.9799 47.2683 41.9199 47.2983 41.9199H65.3483C68.3583 41.9199 70.7983 39.4799 70.7983 36.4699V31.0299C70.7983 22.2399 63.9983 14.9999 55.3783 14.2999C45.4183 13.4899 37.2283 21.5699 37.2283 31.5699V45.1799C37.2283 52.8699 44.4383 59.6099 52.6583 59.6099H55.5283C62.3483 59.6099 67.6083 53.4999 69.8983 50.2799L69.9083 50.2599ZM47.2383 31.0099C47.2383 26.9899 50.7483 23.7799 54.8583 24.2799C58.3083 24.6999 60.8083 27.8199 60.8083 31.2999V31.8399C60.8083 31.8399 60.7783 31.8999 60.7483 31.8999H47.2483V30.9999L47.2383 31.0099ZM83.3883 3.07994L86.6883 17.7499C87.1483 19.8099 88.9783 21.2699 91.0883 21.2699C93.2183 21.2699 95.0583 19.7799 95.5083 17.6899L98.6283 2.96994C98.9083 1.52994 97.7983 0.189941 96.3283 0.189941H85.6583C84.1483 0.189941 83.0383 1.59994 83.3783 3.06994L83.3883 3.07994ZM100.928 15.5099C98.7083 15.5099 96.7983 17.0699 96.3383 19.2299L95.3883 23.6899C94.8783 26.0899 92.5183 27.6999 89.9883 27.1599C88.2483 26.7899 86.9283 25.3599 86.4183 23.0799L85.5483 19.1999C85.0683 17.0499 83.1483 15.5299 80.9483 15.5399C77.5883 15.5399 74.6083 15.5599 72.3883 15.5599C70.7483 15.5599 69.8183 17.4399 70.7983 18.7599L84.7583 37.4599C85.0183 37.8099 85.1583 38.2199 85.1583 38.6599V57.1599C85.1683 58.2599 86.0583 59.1499 87.1483 59.1599L95.0583 59.2299C96.1683 59.2299 97.0783 58.3399 97.0783 57.2299V38.0399C97.0883 37.6099 97.2283 37.1899 97.4883 36.8499L110.938 18.6999C111.918 17.3799 110.978 15.5099 109.328 15.5099C107.138 15.5099 104.208 15.5099 100.918 15.5199L100.928 15.5099ZM14.8383 87.1199C16.6383 85.5499 17.6483 83.2699 17.5983 80.8799C17.5383 77.9799 15.5183 75.4899 12.7483 74.6399L6.7183 72.7999C5.6183 72.4599 5.1883 71.0999 5.9383 70.2299C6.1583 69.9699 6.6583 69.5399 7.4583 69.5399H9.7083C11.1183 69.5799 12.1283 70.5599 12.6683 71.2699C12.9683 71.6599 13.5083 71.7799 13.9483 71.5399L16.6983 70.0199C17.1483 69.7699 17.3183 69.1999 17.0683 68.7399C15.6383 66.1499 12.9183 64.5399 9.9583 64.5399H7.5383C6.5183 64.5399 5.4883 64.7199 4.5683 65.1499C1.5483 66.5599 0.0282974 69.6899 0.548297 72.7399C0.938297 74.9899 2.6483 76.7899 4.8383 77.4599L11.4483 79.4799C12.0883 79.6799 12.5783 80.2499 12.5983 80.9199C12.6383 81.9399 12.2083 82.8599 11.3983 83.4899C10.7183 84.0099 9.8383 84.1899 8.9983 84.0699L7.6283 83.8799C6.3183 83.6999 5.1783 82.9199 4.5283 81.7699L4.4783 81.6799C4.2083 81.1999 3.5983 81.0299 3.1183 81.2999L0.508297 82.7699C0.0282975 83.0399 -0.141703 83.6499 0.128297 84.1299L0.178298 84.2199C1.5883 86.7299 4.0983 88.4399 6.9583 88.8299L8.4483 89.0299C8.8183 89.0799 9.1783 89.1099 9.5483 89.1099C11.4883 89.1099 13.3683 88.4099 14.8483 87.1199H14.8383ZM36.2383 64.5299H20.1683C19.6183 64.5299 19.1683 64.9799 19.1683 65.5299V68.5299C19.1683 69.0799 19.6183 69.5299 20.1683 69.5299H24.8083C25.2983 69.5299 25.6983 69.9299 25.6983 70.4199V87.8099C25.6983 88.3599 26.1483 88.8099 26.6983 88.8099H29.6983C30.2483 88.8099 30.6983 88.3599 30.6983 87.8099V70.4199C30.6983 69.9299 31.0983 69.5299 31.5883 69.5299H36.2383C36.7883 69.5299 37.2383 69.0799 37.2383 68.5299V65.5299C37.2383 64.9799 36.7883 64.5299 36.2383 64.5299ZM56.5183 79.8999V73.7499C56.5183 68.6699 52.3783 64.5299 47.2983 64.5299C42.2183 64.5299 38.0783 68.6699 38.0783 73.7499V79.8999C38.0783 84.9799 42.2183 89.1199 47.2983 89.1199C52.3783 89.1199 56.5183 84.9799 56.5183 79.8999ZM51.5183 73.7499V79.8999C51.5183 82.2299 49.6283 84.1199 47.2983 84.1199C44.9683 84.1199 43.0783 82.2299 43.0783 79.8999V73.7499C43.0783 71.4199 44.9683 69.5299 47.2983 69.5299C49.6283 69.5299 51.5183 71.4199 51.5183 73.7499ZM74.5483 89.1199H78.4883C79.0383 89.1199 79.4883 88.6699 79.4883 88.1199V66.5399C79.4883 65.9899 79.0383 65.5399 78.4883 65.5399H75.4883C74.9383 65.5399 74.4883 65.9899 74.4883 66.5399V76.5299C74.4883 77.5499 73.1483 77.9099 72.6283 77.0399L66.0883 66.0199C65.9083 65.7199 65.5783 65.5299 65.2283 65.5299H61.3983C60.8483 65.5299 60.3983 65.9799 60.3983 66.5399V88.1199C60.3983 88.6699 60.8483 89.1199 61.3983 89.1199H64.3983C64.9483 89.1199 65.3983 88.6699 65.3983 88.1199V78.2999C65.3983 77.2799 66.7383 76.9199 67.2583 77.7899L73.6983 88.6299C73.8783 88.9299 74.2083 89.1199 74.5583 89.1199H74.5483ZM99.6183 86.1199L100.458 84.9799C100.788 84.5399 100.688 83.9099 100.248 83.5799L97.8383 81.7999C97.3983 81.4699 96.7683 81.5699 96.4383 82.0099L95.5983 83.1499C95.1483 83.7599 94.4383 84.1199 93.6783 84.1199H90.6583C89.3583 84.1199 88.2783 83.0499 88.2783 81.7499V79.9199H97.8183C99.5583 79.9199 100.968 78.5099 100.968 76.7699V73.7599C100.968 68.7799 97.0083 64.4999 92.0283 64.5399C89.4683 64.5599 87.0883 65.6499 85.3883 67.5999C83.9083 69.2999 83.2083 71.5299 83.2183 73.7799L83.2783 81.7899C83.3083 85.8199 86.6283 89.1199 90.6583 89.1199H93.6783C96.0183 89.1199 98.2283 88.0099 99.6183 86.1199ZM88.2283 74.1199V73.6099C88.2183 72.6699 88.4783 71.7299 89.0683 70.9899C89.8783 69.9799 91.0783 69.4499 92.3583 69.5299C94.3583 69.6599 95.9783 71.5799 95.9783 73.5899V73.9199C95.9783 74.4699 95.5283 74.9099 94.9883 74.9099H89.0383C88.5983 74.9099 88.2483 74.5599 88.2383 74.1199H88.2283ZM40.7683 97.2199H39.5483V102.04H40.7683C42.0383 102.04 42.9983 101 42.9983 99.6299C42.9983 98.2599 42.0383 97.2199 40.7683 97.2199ZM33.4983 97.2199C32.2983 97.2199 31.3183 98.1999 31.3183 99.3999V99.8699C31.3183 101.07 32.2983 102.05 33.4983 102.05C34.6983 102.05 35.6783 101.07 35.6783 99.8699V99.3999C35.6783 98.1999 34.6983 97.2199 33.4983 97.2199ZM72.5483 97.4399C71.3483 97.4399 70.3683 98.4199 70.3683 99.6199V100.09C70.3683 101.29 71.3483 102.27 72.5483 102.27C73.7483 102.27 74.7283 101.29 74.7283 100.09V99.6199C74.7283 98.4199 73.7483 97.4399 72.5483 97.4399ZM27.4683 98.2599C27.4683 97.6899 26.9983 97.2199 26.4183 97.2199H25.2383V99.3099H26.4183C26.9983 99.3099 27.4683 98.8399 27.4683 98.2599ZM20.0183 97.2199H19.0283V99.6399H20.0083C20.3583 99.6399 20.6383 99.5199 20.8683 99.2999C21.0983 99.0699 21.2283 98.7699 21.2283 98.4399C21.2283 97.7699 20.6883 97.2299 20.0183 97.2299V97.2199ZM100.478 95.3799V103.38C100.478 104.48 99.5783 105.38 98.4783 105.38H2.4783C1.3783 105.38 0.478297 104.48 0.478297 103.38V95.3799C0.478297 94.2799 1.3783 93.3799 2.4783 93.3799H98.4783C99.5783 93.3799 100.478 94.2799 100.478 95.3799ZM22.2383 98.4299C22.2383 97.2099 21.2483 96.2199 20.0283 96.2199H18.0383V102.54H19.0383V100.64H20.0083C20.0083 100.64 20.0183 100.64 20.0283 100.64C20.6183 100.64 21.1683 100.41 21.5883 99.9999C22.0083 99.5799 22.2383 99.0299 22.2383 98.4299ZM28.5883 102.22L26.9483 100.24C27.8283 100.01 28.4783 99.2099 28.4783 98.2599C28.4783 97.1399 27.5583 96.2199 26.4283 96.2199H24.2483V102.54H25.2483V100.31H25.7083L27.8183 102.86L28.5883 102.22ZM36.6783 99.3999C36.6783 97.6499 35.2583 96.2199 33.4983 96.2199C31.7383 96.2199 30.3183 97.6399 30.3183 99.3999V99.8699C30.3183 101.62 31.7383 103.05 33.4983 103.05C35.2583 103.05 36.6783 101.63 36.6783 99.8699V99.3999ZM43.9983 99.6299C43.9983 97.6899 42.6083 96.2199 40.7683 96.2199H38.5483V103.04H40.7683C42.6083 103.04 43.9983 101.57 43.9983 99.6299ZM51.3783 96.7199H50.3783V100.87C50.3783 101.76 49.6583 102.49 48.7683 102.49C47.8783 102.49 47.1583 101.77 47.1583 100.87V96.7199H46.1583V100.87C46.1583 102.31 47.3283 103.49 48.7683 103.49C50.2083 103.49 51.3783 102.32 51.3783 100.87V96.7199ZM54.1083 100.44V99.3299C54.1083 98.1999 55.0283 97.2899 56.1483 97.2899C56.6983 97.2899 57.1483 97.7399 57.1483 98.2899H58.1483C58.1483 97.1899 57.2483 96.2899 56.1483 96.2899C54.4683 96.2899 53.1083 97.6499 53.1083 99.3299V100.44C53.1083 102.12 54.4683 103.48 56.1483 103.48C57.2483 103.48 58.1483 102.58 58.1483 101.48H57.1483C57.1483 102.03 56.6983 102.48 56.1483 102.48C55.0183 102.48 54.1083 101.56 54.1083 100.44ZM64.4083 96.5499H59.6883V97.5499H61.5683V102.54H62.5683V97.5499H64.4083V96.5499ZM67.3383 96.5999H66.3383V102.98H67.3383V96.5999ZM75.7383 99.6099C75.7383 97.8599 74.3183 96.4299 72.5583 96.4299C70.7983 96.4299 69.3783 97.8499 69.3783 99.6099V100.08C69.3783 101.83 70.7983 103.26 72.5583 103.26C74.3183 103.26 75.7383 101.84 75.7383 100.08V99.6099ZM83.3083 96.7999H82.3083V101.45L78.6783 96.5099L77.7783 96.8099V102.98H78.7783V98.3299L82.4083 103.27L83.3083 102.97V96.7999Z" fill="black"/>
</svg>
