<svg width="115" height="83" viewBox="0 0 115 83" fill="none" xmlns="http://www.w3.org/2000/svg">
<path d="M33.7578 73.7881C31.4178 73.7881 29.5078 75.6981 29.5078 78.0381C29.5078 80.3781 31.4178 82.2881 33.7578 82.2881C36.0978 82.2881 38.0078 80.3781 38.0078 78.0381C38.0078 75.6981 36.0978 73.7881 33.7578 73.7881ZM33.7578 79.7781C32.7978 79.7781 32.0078 78.9981 32.0078 78.0281C32.0078 77.0581 32.7878 76.2781 33.7578 76.2781C34.7278 76.2781 35.5078 77.0581 35.5078 78.0281C35.5078 78.9981 34.7278 79.7781 33.7578 79.7781Z" stroke="black" stroke-miterlimit="10"/>
<path d="M63.2684 49.4482L63.2284 50.0382C63.1184 51.7282 64.4084 53.1782 66.0984 53.2482C68.8084 53.3782 71.5084 53.3682 74.2084 53.2282C83.6184 52.7382 91.2084 45.3382 92.2884 35.9782C92.4284 34.7982 92.5484 33.6082 92.6484 32.4282C93.4284 23.7382 86.7084 16.2382 77.9884 15.9582C75.5984 15.8782 73.3684 15.9282 71.3584 16.1282C67.2784 16.5282 64.3484 20.3782 65.0984 24.2882C65.1984 24.8582 65.0984 25.2882 64.5684 25.7882C62.6484 27.4982 61.0584 29.4782 59.6284 31.5882C58.4484 33.3282 59.3784 35.6882 61.4284 36.1682C62.4884 36.4182 63.5684 36.5882 64.6784 36.6882C65.0384 36.7182 65.1184 37.1982 64.7984 37.3582C63.9684 37.7882 63.1884 38.3482 62.4684 39.0482C61.8384 39.6582 61.9084 40.6982 62.5884 41.2482C63.2084 41.7482 63.3184 42.6482 62.8384 43.2882L62.4184 43.8482C62.0384 44.3582 62.3784 45.0882 63.0184 45.1182C64.1184 45.1682 65.0884 45.8882 65.4384 46.9382C64.2384 47.1982 63.3484 48.2182 63.2684 49.4482ZM74.4184 25.7782C74.6084 25.5182 74.8284 25.2982 75.0884 25.0982C75.8584 24.5282 76.8984 24.4182 77.8184 24.6782C78.8084 24.9582 79.4984 25.3282 79.9784 25.7582C80.2984 26.0382 80.1884 26.5582 79.7784 26.6782C78.6884 26.9782 76.8584 26.8182 74.6884 26.4382C74.3784 26.3882 74.2284 26.0182 74.4084 25.7682L74.4184 25.7782Z" stroke="black" stroke-miterlimit="10"/>
<path d="M51.3922 14.7483C48.7922 15.9083 45.1822 16.4683 41.1022 16.7483C40.4322 16.7983 39.9522 17.4083 40.0822 18.0583C40.1822 18.5883 40.6522 18.9783 41.1922 18.9683C46.4922 18.8883 51.4022 18.0583 55.8922 16.4183C56.5322 16.1883 57.2522 16.3483 57.7022 16.8583C58.2622 17.4883 58.2622 18.4383 57.7022 19.0583L55.7722 21.2183C54.7322 22.3883 54.8522 24.1983 56.0522 25.2083L56.3122 25.4283C56.8022 25.8483 57.6022 25.5983 57.7122 24.9583C58.2622 21.5283 62.7222 19.9383 65.6722 16.5283C67.2922 14.6583 69.5922 13.5183 72.0722 13.4783C76.1522 13.4183 80.1622 13.5283 84.1022 13.7683C90.7722 14.1783 95.8222 19.9583 95.2922 26.6183C95.1122 28.8983 94.9622 31.2383 94.8422 33.6383C94.5922 38.7783 98.6622 43.0983 103.812 43.0983C106.382 43.0983 108.482 41.0483 108.542 38.4783C108.752 30.2883 108.542 22.3383 107.822 14.6783C107.312 9.19834 102.702 5.00834 97.2022 5.07834C85.8222 5.20834 75.0422 5.67834 65.1022 6.62834C63.8722 6.74834 62.6522 6.70834 61.4322 6.51834C60.1222 6.31834 58.8422 6.13834 57.6022 5.98834C55.4922 5.72834 53.4722 5.02834 51.6922 3.86834C50.1222 2.84834 48.3722 1.92834 46.5022 1.08834C46.1322 0.91834 45.6822 0.998339 45.3922 1.28834C44.9322 1.74834 45.0422 2.52834 45.6222 2.84834C47.8822 4.10834 50.0222 5.49834 52.0222 7.00834C52.2422 7.17834 52.1022 7.53834 51.8222 7.50834L41.8522 6.41834C41.2522 6.34834 40.6922 6.75834 40.5622 7.34834C40.4222 7.98834 40.8322 8.61834 41.4722 8.75834L50.4422 10.6883C50.6022 10.7183 50.5922 10.9583 50.4322 10.9683C47.0922 11.2083 43.2422 11.0683 39.0422 10.6483C38.2122 10.5683 37.4922 11.2083 37.4922 12.0383C37.4922 12.7583 38.0422 13.3683 38.7622 13.4383C43.0122 13.8583 47.2022 14.1883 51.3322 14.4183C51.5022 14.4183 51.5522 14.6583 51.3922 14.7283V14.7483Z" stroke="black" stroke-miterlimit="10"/>
<path d="M21.2998 63.9984V68.7784H24.2998V59.1284H21.5598L17.5898 64.0584V59.1284H14.5898V68.7784H17.4798L21.2998 63.9984Z" stroke="black" stroke-miterlimit="10"/>
<path d="M12.7891 78.2785V74.2085H10.2891V81.8585H12.8791L16.3891 77.7785V81.8585H18.8891V74.2085H16.3991L12.7891 78.2785Z" stroke="black" stroke-miterlimit="10"/>
<path d="M34.9619 64.0184V68.7784H37.9619V59.1384H34.7219L31.8419 63.2284L28.9819 59.1484L25.9519 59.1284L25.9219 68.7784H28.9219V64.2484L31.9419 68.3084L34.9619 64.0184Z" stroke="black" stroke-miterlimit="10"/>
<path d="M13.04 68.7784V59.1384H9.8L6.92 63.2284L4.07 59.1484L1.03 59.1284L1 68.7784H4V64.2484L7.02 68.3084L10.04 64.0184V68.7784H13.04Z" stroke="black" stroke-miterlimit="10"/>
<path d="M9.44 74.2085H6.53L3.75 77.0485V74.2085H1.25V81.8585H3.75V80.7885L4.93 79.4685L6.72 81.8585H9.63L6.64 77.5685L9.44 74.2085Z" stroke="black" stroke-miterlimit="10"/>
<path d="M25.7419 76.7785H22.9219V74.2085H20.4219V81.8585H22.9219V79.2785H25.7419V81.8585H28.2419V74.2085H25.7419V76.7785Z" stroke="black" stroke-miterlimit="10"/>
<path d="M78.3605 74.0183L78.8505 76.4683C79.6405 76.3083 81.2505 76.2683 81.7605 76.2883C81.3805 76.3483 80.0205 76.4383 79.7105 76.5583C77.9305 77.2883 77.7305 78.5583 77.7305 79.4583C77.7305 80.2483 78.1305 81.0683 78.7905 81.6683C79.3605 82.1783 80.0505 82.4483 80.7605 82.4483C80.8605 82.4483 80.9705 82.4483 81.0705 82.4283C81.8405 82.3383 82.4605 82.1083 82.9605 81.7483H85.1805V76.4583L85.0305 76.1783C84.1605 73.7683 81.9205 73.0383 78.3505 74.0083L78.3605 74.0183ZM80.8005 79.9483C80.5305 79.9783 80.2505 79.6083 80.2305 79.4583C80.2305 79.0583 80.2305 79.0483 80.6605 78.8683C80.9205 78.7583 81.2405 78.7183 81.5205 78.7183C81.6105 78.7183 81.6905 78.7183 81.7705 78.7283C81.7705 79.5983 81.6405 79.8483 80.8105 79.9383L80.8005 79.9483Z" stroke="black" stroke-miterlimit="10"/>
<path d="M98.8672 78.2785V74.2085H96.3672V81.8585H98.9672L102.467 77.7785V81.8585H104.967V74.2085H102.477L98.8672 78.2785Z" stroke="black" stroke-miterlimit="10"/>
<path d="M92.3208 74.2085H91.6208V76.7785H89.5008V74.2085H88.8008H87.0008H86.3008V81.8585H87.0008H88.8008H89.5008V79.2785H91.6208V81.8585H92.3208H94.1208H94.8208V74.2085H94.1208H92.3208Z" stroke="black" stroke-miterlimit="10"/>
<path d="M106.002 76.9382C106.002 77.9382 106.492 78.8182 107.232 79.3782L105.602 82.1982H108.492L109.872 79.9982H110.922V82.1982H113.422V73.8882H109.052C107.362 73.8882 105.992 75.2582 105.992 76.9482L106.002 76.9382ZM110.922 77.4982H109.052C108.742 77.4982 108.492 77.2482 108.492 76.9382C108.492 76.6282 108.742 76.3782 109.052 76.3782H110.922V77.4982Z" stroke="black" stroke-miterlimit="10"/>
<path d="M112.9 57.2684C108.65 56.8484 104.46 56.5184 100.33 56.2884C100.16 56.2884 100.11 56.0484 100.27 55.9784C102.87 54.8184 106.48 54.2584 110.56 53.9784C111.23 53.9284 111.71 53.3184 111.58 52.6684C111.48 52.1384 111.01 51.7484 110.47 51.7584C105.17 51.8384 100.26 52.6684 95.7704 54.3084C95.1304 54.5384 94.4104 54.3784 93.9604 53.8684C93.4004 53.2384 93.4004 52.2884 93.9604 51.6684L95.8904 49.5084C96.9404 48.3384 96.8104 46.5284 95.6104 45.5184L95.3504 45.2984C94.8504 44.8784 94.0604 45.1284 93.9504 45.7684C93.4004 49.1984 88.9404 50.7884 85.9904 54.1984C84.3704 56.0684 82.0704 57.2084 79.5904 57.2484C75.5104 57.3084 71.5004 57.1984 67.5604 56.9584C60.8904 56.5484 55.8404 50.7684 56.3704 44.1084C56.5504 41.8284 56.7004 39.4884 56.8204 37.0884C57.0704 31.9484 53.0004 27.6284 47.8504 27.6284C45.2804 27.6284 43.1804 29.6784 43.1204 32.2484C42.9104 40.4384 43.1204 48.3884 43.8404 56.0484C44.3504 61.5284 48.9604 65.7184 54.4604 65.6484C65.8404 65.5184 76.6204 65.0484 86.5604 64.0984C87.7904 63.9784 89.0104 64.0184 90.2304 64.2084C91.5404 64.4084 92.8204 64.5884 94.0604 64.7384C96.1704 64.9984 98.1904 65.6984 99.9704 66.8584C101.54 67.8784 103.29 68.7984 105.16 69.6384C105.53 69.8084 105.98 69.7284 106.27 69.4384C106.73 68.9784 106.62 68.1984 106.04 67.8784C103.78 66.6184 101.64 65.2284 99.6404 63.7184C99.4204 63.5484 99.5604 63.1884 99.8404 63.2184L109.81 64.3084C110.41 64.3784 110.97 63.9684 111.1 63.3784C111.24 62.7384 110.83 62.1084 110.19 61.9684L101.22 60.0384C101.06 60.0084 101.07 59.7684 101.23 59.7584C104.57 59.5184 108.42 59.6584 112.62 60.0784C113.45 60.1584 114.17 59.5184 114.17 58.6884C114.17 57.9684 113.62 57.3584 112.9 57.2884V57.2684Z" stroke="black" stroke-miterlimit="10"/>
<path d="M47.0416 74.2085H44.1316L41.3516 77.0485V74.2085H38.8516V81.8585H41.3516V80.7885L42.5316 79.4685L44.3216 81.8585H47.2316L44.2416 77.5685L47.0416 74.2085Z" stroke="black" stroke-miterlimit="10"/>
<path d="M52.1875 73.7881C49.8475 73.7881 47.9375 75.6981 47.9375 78.0381C47.9375 80.3781 49.8475 82.2881 52.1875 82.2881C54.5275 82.2881 56.4375 80.3781 56.4375 78.0381C56.4375 75.6981 54.5275 73.7881 52.1875 73.7881ZM52.1875 79.7781C51.2275 79.7781 50.4375 78.9981 50.4375 78.0281C50.4375 77.0581 51.2175 76.2781 52.1875 76.2781C53.1575 76.2781 53.9375 77.0581 53.9375 78.0281C53.9375 78.9981 53.1575 79.7781 52.1875 79.7781Z" stroke="black" stroke-miterlimit="10"/>
<path d="M68.6875 82.0983H71.1875V76.4683H73.7175V82.0983H76.2175V73.9683H68.6875V82.0983Z" stroke="black" stroke-miterlimit="10"/>
<path d="M62.0884 77.3586L59.9084 74.0186L57.1484 74.0686V82.0486H59.6484V78.2486L62.0384 81.3586L64.4284 78.3885V82.0486H66.9284V74.0686L64.1184 74.1186L62.0884 77.3586Z" stroke="black" stroke-miterlimit="10"/>
</svg>
