<svg width="115" height="49" viewBox="0 0 115 49" fill="none" xmlns="http://www.w3.org/2000/svg">
<mask id="path-1-inside-1_899_4582" fill="white">
<path d="M79.26 3.75L69.98 29.57L55.8 31.23C56.16 30.96 56.53 30.66 56.94 30.32C57.59 29.77 58.24 29.18 58.91 28.56C59.57 27.93 60.24 27.27 60.92 26.58C61.6 25.89 62.22 25.2 62.8 24.52C63.55 23.63 64.19 22.81 64.73 22.05C65.26 21.29 65.7 20.55 66.03 19.84C66.36 19.12 66.61 18.4 66.77 17.68C66.93 16.96 67.01 16.18 67.01 15.35C67.01 14.15 66.75 13.09 66.23 12.18C65.71 11.27 65.01 10.5 64.13 9.89C63.25 9.28 62.24 8.81 61.1 8.5C59.96 8.19 58.77 8.03 57.53 8.03C55.6 8.03 53.26 8.08 50.5 10.4C48.74 11.87 47.43 15.13 47.43 17L52.67 16.94C52.87 15.6 53.67 13.94 54.42 13.45C55.26 12.9 55.79 12.74 56.83 12.74C57.61 12.74 57.52 12.72 58.26 12.87C58.93 13.01 59.46 13.39 59.93 13.77C60.39 14.15 60.75 14.59 61.01 15.08C61.27 15.58 61.4 16.09 61.4 16.61C61.4 17.34 61.28 18.05 61.05 18.75C60.82 19.44 60.47 20.15 59.99 20.87C59.51 21.59 58.91 22.35 58.17 23.16C57.43 23.97 56.58 24.87 55.59 25.86C54.9 26.57 54.19 27.24 53.47 27.9C52.75 28.55 52.06 29.15 51.42 29.7C50.77 30.25 50.19 30.74 49.67 31.17C49.21 31.55 48.84 31.85 48.52 32.1L35.76 33.59L45.04 7.77L79.28 3.76L79.26 3.75ZM102.72 25C102.38 24.48 101.92 24.07 101.33 23.76C100.74 23.46 100.03 23.24 99.2 23.11C98.37 22.98 97.47 22.92 96.5 22.92H94.25V20.17L101.01 12.31H90.83V8.1H107.25V11.59L100.17 19.29H101.1C102.04 19.29 102.95 19.44 103.84 19.75C104.73 20.06 105.51 20.52 106.19 21.13C106.87 21.74 107.42 22.51 107.84 23.43C108.07 23.94 108.23 24.49 108.33 25.09L114.3 24.39L111.44 0L86.73 2.89L77.45 28.71L103.04 25.71C102.96 25.46 102.86 25.22 102.72 25.01V25ZM17.24 11.02L0 13.04L2.86 37.43L17.24 35.74V11.01V11.02ZM22.24 10.43V35.16L28.27 34.45L37.55 8.63L22.24 10.42V10.43ZM4.23 47.13H4.84C6.17 47.13 7.25 46.05 7.25 44.72C7.25 43.39 6.17 42.31 4.84 42.31H2.23V48.52H4.23V47.12V47.13ZM4.23 44.31H4.84C5.06 44.31 5.25 44.49 5.25 44.72C5.25 44.95 5.07 45.13 4.84 45.13H4.23V44.31ZM18.1 46.29L19.14 48.52H16.82L16.04 46.89H15.87V48.52H13.87V42.31H16.57C17.83 42.31 18.86 43.34 18.86 44.6C18.86 45.27 18.57 45.87 18.1 46.29ZM15.87 44.89H16.57C16.73 44.89 16.86 44.76 16.86 44.6C16.86 44.44 16.73 44.31 16.57 44.31H15.87V44.9V44.89ZM31.82 45.47V45.34C31.82 43.66 30.46 42.3 28.78 42.3C27.1 42.3 25.74 43.66 25.74 45.34V45.47C25.74 47.15 27.1 48.51 28.78 48.51C30.46 48.51 31.82 47.15 31.82 45.47ZM29.82 45.34V45.47C29.82 46.04 29.35 46.51 28.78 46.51C28.21 46.51 27.74 46.04 27.74 45.47V45.34C27.74 44.77 28.21 44.3 28.78 44.3C29.35 44.3 29.82 44.77 29.82 45.34ZM101.82 45.66V45.53C101.82 43.85 100.46 42.49 98.78 42.49C97.1 42.49 95.74 43.85 95.74 45.53V45.66C95.74 47.34 97.1 48.7 98.78 48.7C100.46 48.7 101.82 47.34 101.82 45.66ZM99.82 45.53V45.66C99.82 46.23 99.35 46.7 98.78 46.7C98.21 46.7 97.74 46.23 97.74 45.66V45.53C97.74 44.96 98.21 44.49 98.78 44.49C99.35 44.49 99.82 44.96 99.82 45.53ZM44.53 45.4C44.53 43.69 43.14 42.29 41.42 42.29H38.6V48.5H41.42C43.13 48.5 44.53 47.11 44.53 45.39V45.4ZM40.6 44.29H41.42C42.03 44.29 42.53 44.79 42.53 45.4C42.53 46.01 42.03 46.51 41.42 46.51H40.6V44.3V44.29ZM56.47 45.73V42.69H54.47V45.73C54.47 46.16 54.12 46.5 53.7 46.5C53.28 46.5 52.93 46.15 52.93 45.73V42.69H50.93V45.73C50.93 47.26 52.17 48.5 53.7 48.5C55.23 48.5 56.47 47.26 56.47 45.73ZM68.38 46.43L66.43 45.97C66.36 46.29 66.08 46.51 65.75 46.51C65.37 46.51 65.05 46.2 65.05 45.81V44.99C65.05 44.61 65.36 44.29 65.75 44.29C66.07 44.29 66.35 44.51 66.43 44.82L68.38 44.36C68.09 43.14 67.01 42.28 65.76 42.28C64.27 42.28 63.06 43.49 63.06 44.98V45.8C63.06 47.29 64.27 48.5 65.76 48.5C67.02 48.5 68.1 47.65 68.38 46.42V46.43ZM79.66 42.48H75.34V44.29H76.5V48.5H78.5V44.29H79.66V42.48ZM88.9 42.48H86.9V48.5H88.9V42.48ZM114.09 48.69V42.48H112.09V44.55L110.53 42.48H108.67V48.69H110.67V46.02L112.23 48.69H114.1H114.09Z"/>
</mask>
<path d="M79.26 3.75L69.98 29.57L55.8 31.23C56.16 30.96 56.53 30.66 56.94 30.32C57.59 29.77 58.24 29.18 58.91 28.56C59.57 27.93 60.24 27.27 60.92 26.58C61.6 25.89 62.22 25.2 62.8 24.52C63.55 23.63 64.19 22.81 64.73 22.05C65.26 21.29 65.7 20.55 66.03 19.84C66.36 19.12 66.61 18.4 66.77 17.68C66.93 16.96 67.01 16.18 67.01 15.35C67.01 14.15 66.75 13.09 66.23 12.18C65.71 11.27 65.01 10.5 64.13 9.89C63.25 9.28 62.24 8.81 61.1 8.5C59.96 8.19 58.77 8.03 57.53 8.03C55.6 8.03 53.26 8.08 50.5 10.4C48.74 11.87 47.43 15.13 47.43 17L52.67 16.94C52.87 15.6 53.67 13.94 54.42 13.45C55.26 12.9 55.79 12.74 56.83 12.74C57.61 12.74 57.52 12.72 58.26 12.87C58.93 13.01 59.46 13.39 59.93 13.77C60.39 14.15 60.75 14.59 61.01 15.08C61.27 15.58 61.4 16.09 61.4 16.61C61.4 17.34 61.28 18.05 61.05 18.75C60.82 19.44 60.47 20.15 59.99 20.87C59.51 21.59 58.91 22.35 58.17 23.16C57.43 23.97 56.58 24.87 55.59 25.86C54.9 26.57 54.19 27.24 53.47 27.9C52.75 28.55 52.06 29.15 51.42 29.7C50.77 30.25 50.19 30.74 49.67 31.17C49.21 31.55 48.84 31.85 48.52 32.1L35.76 33.59L45.04 7.77L79.28 3.76L79.26 3.75ZM102.72 25C102.38 24.48 101.92 24.07 101.33 23.76C100.74 23.46 100.03 23.24 99.2 23.11C98.37 22.98 97.47 22.92 96.5 22.92H94.25V20.17L101.01 12.31H90.83V8.1H107.25V11.59L100.17 19.29H101.1C102.04 19.29 102.95 19.44 103.84 19.75C104.73 20.06 105.51 20.52 106.19 21.13C106.87 21.74 107.42 22.51 107.84 23.43C108.07 23.94 108.23 24.49 108.33 25.09L114.3 24.39L111.44 0L86.73 2.89L77.45 28.71L103.04 25.71C102.96 25.46 102.86 25.22 102.72 25.01V25ZM17.24 11.02L0 13.04L2.86 37.43L17.24 35.74V11.01V11.02ZM22.24 10.43V35.16L28.27 34.45L37.55 8.63L22.24 10.42V10.43ZM4.23 47.13H4.84C6.17 47.13 7.25 46.05 7.25 44.72C7.25 43.39 6.17 42.31 4.84 42.31H2.23V48.52H4.23V47.12V47.13ZM4.23 44.31H4.84C5.06 44.31 5.25 44.49 5.25 44.72C5.25 44.95 5.07 45.13 4.84 45.13H4.23V44.31ZM18.1 46.29L19.14 48.52H16.82L16.04 46.89H15.87V48.52H13.87V42.31H16.57C17.83 42.31 18.86 43.34 18.86 44.6C18.86 45.27 18.57 45.87 18.1 46.29ZM15.87 44.89H16.57C16.73 44.89 16.86 44.76 16.86 44.6C16.86 44.44 16.73 44.31 16.57 44.31H15.87V44.9V44.89ZM31.82 45.47V45.34C31.82 43.66 30.46 42.3 28.78 42.3C27.1 42.3 25.74 43.66 25.74 45.34V45.47C25.74 47.15 27.1 48.51 28.78 48.51C30.46 48.51 31.82 47.15 31.82 45.47ZM29.82 45.34V45.47C29.82 46.04 29.35 46.51 28.78 46.51C28.21 46.51 27.74 46.04 27.74 45.47V45.34C27.74 44.77 28.21 44.3 28.78 44.3C29.35 44.3 29.82 44.77 29.82 45.34ZM101.82 45.66V45.53C101.82 43.85 100.46 42.49 98.78 42.49C97.1 42.49 95.74 43.85 95.74 45.53V45.66C95.74 47.34 97.1 48.7 98.78 48.7C100.46 48.7 101.82 47.34 101.82 45.66ZM99.82 45.53V45.66C99.82 46.23 99.35 46.7 98.78 46.7C98.21 46.7 97.74 46.23 97.74 45.66V45.53C97.74 44.96 98.21 44.49 98.78 44.49C99.35 44.49 99.82 44.96 99.82 45.53ZM44.53 45.4C44.53 43.69 43.14 42.29 41.42 42.29H38.6V48.5H41.42C43.13 48.5 44.53 47.11 44.53 45.39V45.4ZM40.6 44.29H41.42C42.03 44.29 42.53 44.79 42.53 45.4C42.53 46.01 42.03 46.51 41.42 46.51H40.6V44.3V44.29ZM56.47 45.73V42.69H54.47V45.73C54.47 46.16 54.12 46.5 53.7 46.5C53.28 46.5 52.93 46.15 52.93 45.73V42.69H50.93V45.73C50.93 47.26 52.17 48.5 53.7 48.5C55.23 48.5 56.47 47.26 56.47 45.73ZM68.38 46.43L66.43 45.97C66.36 46.29 66.08 46.51 65.75 46.51C65.37 46.51 65.05 46.2 65.05 45.81V44.99C65.05 44.61 65.36 44.29 65.75 44.29C66.07 44.29 66.35 44.51 66.43 44.82L68.38 44.36C68.09 43.14 67.01 42.28 65.76 42.28C64.27 42.28 63.06 43.49 63.06 44.98V45.8C63.06 47.29 64.27 48.5 65.76 48.5C67.02 48.5 68.1 47.65 68.38 46.42V46.43ZM79.66 42.48H75.34V44.29H76.5V48.5H78.5V44.29H79.66V42.48ZM88.9 42.48H86.9V48.5H88.9V42.48ZM114.09 48.69V42.48H112.09V44.55L110.53 42.48H108.67V48.69H110.67V46.02L112.23 48.69H114.1H114.09Z" stroke="black" stroke-width="2" mask="url(#path-1-inside-1_899_4582)"/>
</svg>
