<svg width="115" height="74" viewBox="0 0 115 74" fill="none" xmlns="http://www.w3.org/2000/svg">
<path d="M66.06 69.9219L65.49 72.7019H50.53L51.22 71.5819C51.51 71.1019 51.67 70.5519 51.66 69.9919L51.53 44.9619C51.53 44.3319 51.32 43.7119 50.95 43.2019L50.53 42.6319H54.95L54.69 42.9719C54.3 43.4919 54.09 44.1219 54.09 44.7719V69.2719C54.09 70.6119 55.18 71.7019 56.52 71.7019H63.22C64.16 71.7019 65.04 71.2619 65.61 70.5219L66.06 69.9219ZM17.11 29.7519C16.53 30.5219 15.62 30.9719 14.66 30.9719H8.81C7.01 30.9719 5.55 29.5319 5.53 27.7319L5.25 4.33186C5.24 3.48186 5.59 2.67186 6.21 2.10186L6.43 1.90186H2L2.22 2.12186C2.78 2.68186 3.1 3.45186 3.1 4.24186L3.14 29.2619C3.14 29.8219 2.99 30.3619 2.69 30.8419L2 31.9719H16.96L17.53 29.1919L17.1 29.7619L17.11 29.7519ZM34.27 31.0319L28.93 30.9919C27.38 30.9819 26.12 29.7119 26.12 28.1619V16.3619H33.5C34.1 16.3619 34.67 16.6319 35.05 17.1019L35.38 17.5019V14.5819L35.2 14.8319C34.82 15.3419 34.22 15.6519 33.59 15.6519H26.12V2.61186L33.56 2.49186C34.63 2.47186 35.62 3.07186 36.1 4.03186L36.03 1.82186H22.71L23.08 2.26186C23.39 2.62186 23.56 3.08186 23.56 3.56186V29.5619C23.56 30.0619 23.43 30.5619 23.19 31.0019L22.7 31.9019H36.17L37.17 29.6919L36.04 30.4819C35.52 30.8419 34.91 31.0419 34.27 31.0319ZM36.08 71.8319L30.9 71.7919C29.25 71.7819 27.92 70.4419 27.92 68.7919V57.1619H35.3C35.9 57.1619 36.47 57.4319 36.85 57.9019L37.18 58.3019V55.3819L37 55.6319C36.62 56.1419 36.02 56.4519 35.39 56.4519H27.92V43.4119L35.37 43.4419C36.38 43.4419 37.31 43.9519 37.86 44.7919L37.89 44.8319L37.82 42.6219H24.5L24.87 43.0619C25.18 43.4219 25.35 43.8819 25.35 44.3619V70.3619C25.35 70.8619 25.22 71.3619 24.98 71.8019L24.49 72.7019H37.96L38.96 70.4919L37.82 71.2919C37.31 71.6519 36.7 71.8419 36.07 71.8419L36.08 71.8319ZM73.11 2.28186C73.36 2.73186 73.5 3.24186 73.5 3.75186V29.5419C73.5 29.9619 73.41 30.3819 73.24 30.7719L72.86 31.6119H76.99L76.66 31.0119C76.41 30.5619 76.28 30.0619 76.28 29.5519V3.77186C76.28 3.11186 76.5 2.47186 76.9 1.94186L76.99 1.82186H72.86L73.12 2.28186H73.11ZM75.18 43.3719C75.43 43.8219 75.57 44.3319 75.57 44.8419V70.6319C75.57 71.0519 75.48 71.4719 75.31 71.8619L74.93 72.7019H79.06L78.73 72.1019C78.48 71.6519 78.35 71.1519 78.35 70.6419V44.8619C78.35 44.2019 78.57 43.5619 78.97 43.0319L79.06 42.9119H74.93L75.19 43.3719H75.18ZM113.86 16.8619C113.86 25.5419 106.83 32.5719 98.15 32.5719C89.47 32.5719 82.44 25.5419 82.44 16.8619C82.44 8.18186 89.47 1.15186 98.15 1.15186C106.83 1.15186 113.86 8.18186 113.86 16.8619ZM111.11 16.8619C111.11 8.52186 105.31 1.75186 98.15 1.75186C90.99 1.75186 85.19 8.51186 85.19 16.8619C85.19 25.2119 90.99 31.9719 98.15 31.9719C105.31 31.9719 111.11 25.2119 111.11 16.8619ZM3.2 42.6219C3.76 43.1819 4.08 43.9519 4.08 44.7419V70.5019C4.08 71.2319 3.81 71.9419 3.33 72.4919L3.15 72.6919H7.71L7.53 72.4919C7.05 71.9419 6.78 71.2319 6.78 70.5019V56.9519H13.81C14.84 56.9519 15.81 57.4819 16.35 58.3619L16.5 58.6119V55.8119H6.77V43.4919H14.74C15.83 43.4919 16.83 44.0819 17.36 45.0319L17.54 45.3519V42.5519H3.15L3.2 42.6019V42.6219ZM108.97 70.3819L100.83 56.4219L108.26 44.8719C108.45 44.5819 108.69 44.3219 108.97 44.1019L110.57 42.8919H106.52L106.66 43.4819C106.84 44.2619 106.7 45.0919 106.27 45.7719L100.19 55.3219L94.26 45.1519C93.86 44.4619 93.82 43.6119 94.17 42.9019H88.94L90.6 43.8319C91.07 44.0919 91.46 44.4819 91.73 44.9419L98.93 57.3119L90.73 70.1919C90.73 70.1919 90.67 70.2819 90.64 70.3219L88.94 72.7019H92.08L91.91 71.8819C91.75 71.1119 91.9 70.3119 92.33 69.6519L99.57 58.4019L106.54 70.3719C106.77 70.7619 106.9 71.1919 106.94 71.6419L107.03 72.7019H111.22L109.49 71.0319C109.29 70.8419 109.12 70.6219 108.98 70.3819H108.97ZM63.93 29.1419C63.93 29.4019 63.8 29.6419 63.58 29.7819C60.81 31.6319 59.79 31.2519 56.35 31.2519C49.19 31.2519 43.1 24.7819 43.1 16.4419C43.1 8.10186 48.6 1.76186 55.76 1.76186C59.94 1.76186 64.66 3.07186 67.03 6.65186L66.96 2.60186C63.87 1.59186 60.61 1.06186 56.63 1.00186C47.93 0.871863 40.39 7.56186 40.15 16.2619C39.91 25.1419 47.03 32.4119 55.85 32.4119C61.97 32.4119 63.53 31.9919 67.03 30.2819V19.4719C67.03 19.0719 67.15 18.6919 67.37 18.3619L68.03 17.3819H62.98L63.65 18.3619C63.88 18.7019 64 19.1019 64 19.5119L63.93 29.1419Z" stroke="black"/>
</svg>
