<svg width="114" height="79" viewBox="0 0 114 79" fill="none" xmlns="http://www.w3.org/2000/svg">
<path d="M23.76 51.51V0.540039H41.06L52.65 16.55L57.8 10.48C56.28 18.27 57.76 24.56 61.3 29.8L53.02 41.03L40.69 26.03V51.52H23.76V51.51ZM61.3 51.51H79.15C97.12 27.78 67.08 22.96 84.49 0.540039H66.82C51.63 24.16 78.56 31.58 61.3 51.51ZM1.95 78.08H0L2.29 67.6L5.97 73.93L9.69 67.6L11.93 78.08H9.98L8.84 72.98L5.96 77.89L3.11 72.99L1.95 78.08ZM22.63 69.06V67.06H16.6V78.05H22.63V76.05H18.6V73.13H22.63V71.13H18.6V69.06H22.63ZM33.94 76.42C34.98 75.37 35.54 73.98 35.53 72.5C35.5 69.5 33.03 67.06 30.04 67.06H27.32V78.05H30.04C31.52 78.05 32.91 77.47 33.95 76.42H33.94ZM29.32 69.06H30.04C31.95 69.06 33.51 70.61 33.53 72.52C33.53 73.46 33.18 74.35 32.52 75.01C31.86 75.67 30.98 76.05 30.04 76.05H29.31V69.06H29.32ZM42.26 67.25H40.26V77.96H42.26V67.25ZM53.43 75.61H49.41L48.08 78.06L45.92 78.03L51.55 67.22L57.06 78.06L54.83 78.03L53.43 75.61ZM52.45 73.61L51.49 71.65L50.46 73.61H52.45ZM63.76 72.06C62.55 70.48 62.71 68.82 64.45 67.22H62.11C60.14 69.82 61.03 71.45 61.96 72.94C62.98 74.56 63.19 76.22 61.34 77.99H63.8C65.73 75.73 64.84 73.47 63.76 72.06ZM75.58 76.05H71.82V67.26H69.82V78.05H75.58V76.05ZM88.93 72.89V72.23C88.93 69.38 86.61 67.07 83.77 67.07C80.93 67.07 78.61 69.39 78.61 72.23V72.89C78.61 75.74 80.93 78.05 83.77 78.05C86.61 78.05 88.93 75.73 88.93 72.89ZM86.93 72.23V72.89C86.93 74.63 85.51 76.05 83.77 76.05C82.03 76.05 80.61 74.63 80.61 72.89V72.23C80.61 70.49 82.03 69.07 83.77 69.07C85.51 69.07 86.93 70.49 86.93 72.23ZM113.77 72.89V72.23C113.77 69.38 111.45 67.07 108.61 67.07C105.77 67.07 103.45 69.39 103.45 72.23V72.89C103.45 75.74 105.77 78.05 108.61 78.05C111.45 78.05 113.77 75.73 113.77 72.89ZM111.77 72.23V72.89C111.77 74.63 110.35 76.05 108.61 76.05C106.87 76.05 105.45 74.63 105.45 72.89V72.23C105.45 70.49 106.87 69.07 108.61 69.07C110.35 69.07 111.77 70.49 111.77 72.23ZM100.34 66.87H98.32L96.09 72.06L93.92 66.88H91.75L96.07 77.18L100.35 66.87H100.34Z" fill="black"/>
</svg>
