<svg width="146" height="88" viewBox="0 0 146 88" fill="none" xmlns="http://www.w3.org/2000/svg">
<path d="M36.3458 10.6029C36.3458 4.81325 41.0347 0.110017 46.8066 0.110017H54.3061C60.5991 0.110017 65.713 5.22582 65.713 11.5518V28.0131C65.713 33.5552 61.6274 38.2447 56.157 38.9873C55.5126 38.9873 55.6086 40.115 56.157 40.115C61.4354 40.115 65.713 44.9145 65.713 50.2091V61.3483H54.1005V47.9675C54.1005 45.6571 52.2359 43.7868 49.9326 43.7868H46.7929V34.6829H49.2059C51.9068 34.6829 54.1005 32.4826 54.1005 29.7734V12.9958C54.1005 8.6776 46.7244 8.40256 46.7244 12.9958V26.2254H36.3458V10.6304V10.6029ZM36.3458 61.3346H46.8204V51.8319H36.3458V61.3346ZM71.9786 61.3346H83.221V12.7895C83.221 8.56759 90.3914 8.56759 90.3914 12.7895V61.3346H102.059V12.2807C102.059 5.55587 96.6295 0.110017 89.9252 0.110017H83.8242C77.2844 0.110017 71.9649 5.4321 71.9649 12.0056V61.3483L71.9786 61.3346ZM123.227 59.8769L119.073 59.9456L115.193 61.5959V60.1932L117.277 59.2443L115.193 58.2541V56.9201L119.046 58.5704L123.214 58.5016V59.8769H123.227ZM122.144 43.8556V45.4509H119.526V43.8556H118.155V45.4509H116.633V43.8556H115.262V46.1385H115.303V46.8261H123.255H123.515V43.8694H122.144V43.8556ZM124.009 31.8362V33.2389L115.262 31.6987V30.3372L123.995 29.3196V30.6948L122.35 30.8873V31.5199L124.009 31.8362ZM120.17 31.1486L120.979 31.2861V31.0524L120.17 31.1486ZM123.968 16.6126H121.719L124.379 14.5498L123.543 13.4634L120.321 15.9525C120.143 14.6323 119.018 13.6421 117.661 13.6421C116.057 13.6421 114.768 14.9486 114.768 16.5438V17.9603H115.454L123.968 17.9741V16.5988V16.6126ZM116.139 16.5576C116.139 15.7187 116.825 15.0311 117.661 15.0311C118.36 15.0311 118.936 15.5812 118.977 16.2825V16.6126H116.139V16.5576ZM124.036 2.03532C124.036 0.907644 123.131 0 122.007 0H121.541C120.622 0 119.759 0.44007 119.224 1.18269L118.511 2.17284C118.168 2.65416 117.606 2.92921 117.03 2.92921H116.619C116.194 2.92921 115.851 2.58541 115.851 2.15909V2.02157C115.851 1.66401 116.139 1.37521 116.496 1.37521H118.059V0H116.496C115.385 0 114.48 0.907643 114.48 2.02157V2.15909C114.48 3.34177 115.44 4.30442 116.619 4.30442H117.03C118.059 4.30442 119.032 3.80935 119.622 2.97047L120.334 1.98031C120.609 1.59525 121.061 1.36146 121.541 1.36146H122.007C122.364 1.36146 122.665 1.66401 122.665 2.02157C122.665 2.51664 122.268 2.91546 121.774 2.91546H120.43V4.29067H121.774C123.022 4.29067 124.036 3.27301 124.036 2.02157V2.03532ZM16.8224 74.8392V76.4344H18.9612V87.9725H21.2234V76.3932H23.3622V74.0003H16.8087L16.8224 74.8392ZM52.9077 74.8392V76.4344H55.0465V87.9725H57.3087V76.3932H59.4475V74.0003H52.894L52.9077 74.8392ZM108.653 74.8392V76.4344H110.792V87.9725H113.054V76.3932H115.193V74.0003H108.64L108.653 74.8392ZM40.1024 74.0003V87.9862H42.7073V74.0003H40.1024ZM134.346 74.0003V87.9862H136.951V74.0003H134.346ZM48.918 78.9236H51.1391V76.517C51.1391 75.128 50.0148 74.0003 48.6301 74.0003H47.451C46.0937 74.0003 44.9969 75.1005 44.9969 76.4619V85.4971C44.9969 86.8723 46.1074 88 47.4922 88H48.5478C49.9737 88 51.1391 86.8311 51.1391 85.4008V82.7329H48.918V85.7309C48.918 86.7761 47.451 86.7623 47.451 85.7309V76.8195C47.451 75.348 48.8769 75.3343 48.8769 76.8195L48.918 78.9373V78.9236ZM61.2435 74.0003V85.7034C61.2435 86.9686 62.258 87.9862 63.5194 87.9862H64.9041C66.2477 87.9862 67.3308 86.8861 67.3171 85.5384L67.2074 74.0003H64.9178L65.0138 86.0472C65.0138 86.8311 63.492 86.9686 63.492 86.0472L63.5194 74.0003H61.2298H61.2435ZM117.181 74.0003V85.7034C117.181 86.9686 118.196 87.9862 119.457 87.9862H120.842C122.185 87.9862 123.268 86.8861 123.255 85.5384L123.145 74.0003H120.855L120.951 86.0472C120.951 86.8311 119.43 86.9686 119.43 86.0472L119.457 74.0003H117.167H117.181ZM78.82 74.0003V87.9862H83.9339V85.6209H80.9999V81.0002H83.9339V79.0749H80.9999V76.0494H83.9339V74.0141H78.82V74.0003ZM89.7333 78.9511H91.9407V75.9531C91.9407 74.8804 91.0769 74.0003 89.9938 74.0003H87.526C86.5251 74.0003 85.7025 74.8117 85.7025 75.8294V77.0395C85.7025 78.2635 86.1961 79.4324 87.0598 80.2988L89.0341 82.2516C89.4043 82.6229 89.6099 83.118 89.6099 83.6406V86.2672C89.6099 86.8448 88.2663 86.8448 88.2663 86.2672V82.7054L86.0316 82.6779V85.7721C86.0316 86.9961 87.0187 87.9862 88.2389 87.9862H89.8704C91.0084 87.9862 91.9269 87.0648 91.9269 85.9234V83.5306C91.9269 82.5954 91.5294 81.7153 90.8438 81.0964L88.8833 79.3499C88.4857 79.0061 88.2663 78.4973 88.2663 77.9747V75.5681C88.2663 75.0455 89.6922 75.0455 89.6922 75.5681L89.7196 78.9786L89.7333 78.9511ZM104.828 78.9511H107.036V75.9531C107.036 74.8804 106.172 74.0003 105.089 74.0003H102.621C101.62 74.0003 100.797 74.8117 100.797 75.8294V77.0395C100.797 78.2635 101.291 79.4324 102.155 80.2988L104.129 82.2516C104.499 82.6229 104.705 83.118 104.705 83.6406V86.2672C104.705 86.8448 103.361 86.8448 103.361 86.2672V82.7054L101.126 82.6779V85.7721C101.126 86.9961 102.114 87.9862 103.334 87.9862H104.965C106.103 87.9862 107.022 87.0648 107.022 85.9234V83.5306C107.022 82.5954 106.624 81.7153 105.939 81.0964L103.978 79.3499C103.581 79.0061 103.361 78.4973 103.361 77.9747V75.5681C103.361 75.0455 104.787 75.0455 104.787 75.5681L104.815 78.9786L104.828 78.9511ZM6.67687 87.9862H4.8397L4.40098 84.4519H2.22105L1.80975 87.9862H0L1.63151 74.0003H5.15504L6.66316 87.9862H6.67687ZM4.49695 82.8154L3.37271 76.1181L2.24847 82.8154H4.48324H4.49695ZM15.328 87.9862H13.0658L11.0916 82.4304V87.9862H9.50117V74.0003H12.8602C13.9433 74.0003 14.8344 74.8942 14.8207 75.9806L14.8619 79.8587C14.8619 80.8076 14.3683 81.6878 13.532 82.1278L13.3263 82.2378L15.3417 87.9725L15.328 87.9862ZM13.1892 77.1083C13.1892 76.6545 12.819 75.4443 12.3666 75.4443H10.9819V80.7664H12.2981C12.7916 80.7664 13.1892 80.3676 13.1892 79.8725V76.2557V77.1083ZM75.982 87.9862H73.7198L71.7455 82.4304V87.9862H70.1551V74.0003H73.5141C74.5972 74.0003 75.4884 74.8942 75.4747 75.9806L75.5158 79.8587C75.5158 80.8076 75.0223 81.6878 74.1859 82.1278L73.9803 82.2378L75.9957 87.9725L75.982 87.9862ZM73.8432 77.1083C73.8432 75.8156 73.473 75.4443 73.0206 75.4443H71.6358V80.7664H72.952C73.4456 80.7664 73.8432 80.3676 73.8432 79.8725V76.2557V77.1083ZM37.9224 76.2969V80.6701C37.9224 82.0316 36.8119 83.1455 35.4546 83.1455H34.1384V87.9862H32.0819V74.0003H35.6328C36.8942 74.0003 37.9224 75.0317 37.9224 76.2969ZM35.8111 76.3932C35.8111 75.8706 35.386 75.4443 34.8651 75.4443H33.6037V81.4127H34.8651C35.386 81.4127 35.8111 80.9864 35.8111 80.4638V76.3932ZM132.084 77.2321V85.3321C132.084 86.8036 130.905 87.9862 129.438 87.9862H126.106V74.0141H128.862C130.645 74.0141 132.084 75.458 132.084 77.2458V77.2321ZM129.849 75.9944C129.849 75.8844 129.671 75.5406 129.479 75.5406H128.328V86.391H129.479C129.74 86.391 129.836 86.1572 129.836 85.8959V75.9944H129.849ZM146 85.5521C146 86.8861 144.931 87.9862 143.601 87.9862H141.764C140.447 87.9862 139.378 86.9273 139.364 85.6071L139.227 76.4619C139.213 75.1142 140.283 74.0141 141.626 74.0141H143.518C144.835 74.0141 145.918 75.0867 145.918 76.4069L146 85.5521ZM143.395 84.4519V77.5071C143.368 76.5032 143.121 75.6918 142.819 75.6918H142.381C142.065 75.6918 141.818 76.5307 141.818 77.5484L141.846 84.4932C141.846 85.4971 142.106 86.2947 142.408 86.2947H142.833C143.148 86.2947 143.395 85.4696 143.395 84.4519Z" fill="black"/>
</svg>
