<svg width="118" height="59" viewBox="0 0 118 59" fill="none" xmlns="http://www.w3.org/2000/svg">
<path d="M13.19 57.73H13.69V57.696C18.314 57.4364 21.99 53.5983 21.99 48.91V37.78C21.99 33.0976 19.5814 28.7486 15.6273 26.2474L15.6269 26.2472L11.6669 23.7472L11.6655 23.7463C10.3127 22.8985 9.5 21.4193 9.5 19.82V11.23C9.5 10.2761 10.2861 9.49 11.24 9.49C12.1939 9.49 12.98 10.2761 12.98 11.23V20.9V21.4H13.48H21.48H21.98V20.9V9.3C21.98 4.44386 18.0361 0.5 13.18 0.5H9.3C4.44386 0.5 0.5 4.44386 0.5 9.3V19.83C0.5 24.5123 2.9086 28.8614 6.86271 31.3626L6.86308 31.3628L10.8231 33.8628L10.8245 33.8637C12.1773 34.7115 12.99 36.1907 12.99 37.79V46.99C12.99 47.9539 12.2139 48.73 11.25 48.73C10.2961 48.73 9.51 47.9439 9.51 46.99V37.48V36.98H9.01H1.01H0.51V37.48V48.93C0.51 53.7861 4.45386 57.73 9.31 57.73H13.19ZM24.86 0.5H24.36V1V9V9.5H24.86H29.46V57.24V57.74H29.96H37.96H38.46V57.24V9.5H43.07H43.57V9V1V0.5H43.07H24.86ZM69.74 57.24V56.7411L69.693 56.741L64.2877 0.961771L64.2439 0.509998H63.79H49.19H48.738L48.6925 0.959756L43.0125 57.1998L42.957 57.75H43.51H52.52H52.9893L53.019 57.2817L53.9893 41.99H58.8814L59.871 57.2524L59.9013 57.7189L60.3689 57.72L69.2389 57.74L69.2399 57.2742L69.74 57.25V57.24ZM80.62 57.74H81.12V57.24V34.3542L86.03 34.3958V53.83V53.8438L86.0308 53.8576C86.0408 54.0387 86.0478 54.2216 86.0548 54.4039C86.077 54.9829 86.0989 55.5547 86.2153 56.0353C86.2966 56.3707 86.4286 56.6947 86.6536 56.9852C86.8798 57.2772 87.1813 57.5114 87.5676 57.6926L87.6685 57.74H87.78H95.12H96.9626L95.3727 56.8086C95.0746 56.6339 94.8554 56.2356 94.7265 55.5446C94.6009 54.8713 94.5852 54.0606 94.57 53.2255V39.62C94.57 36.8588 93.8793 34.432 92.4311 32.5682C91.3824 31.2186 89.9557 30.1893 88.16 29.5416C89.4905 29.2713 90.7516 28.9292 91.8152 28.3307C93.5264 27.3678 94.7001 25.7669 95.0365 22.9391L95.04 22.9096V22.88V11.62C95.04 5.47386 90.0662 0.5 83.92 0.5H72.63H72.13V1V57.24H72.62V57.74H72.63H73.13H80.62ZM97.49 0.5H96.99V1V9V9.5H97.49H102.3V57.24V57.74H102.8H110.8H111.3V57.24V9.5H116.11H116.61V9V1V0.5H116.11H97.49ZM54.8201 32.98L56.5117 15.2851L58.0836 32.98H54.8201ZM81.12 9.5H83.91C85.0839 9.5 86.03 10.4461 86.03 11.62V22.88C86.03 23.8339 85.2539 24.61 84.3 24.61H81.12V9.5Z" stroke="black"/>
</svg>
