<svg width="116" height="97" viewBox="0 0 116 97" fill="none" xmlns="http://www.w3.org/2000/svg">
<path fill-rule="evenodd" clip-rule="evenodd" d="M99.6468 41.5256C99.6468 64.4039 81.1002 82.9505 58.2218 82.9505C35.3435 82.9505 16.7969 64.4039 16.7969 41.5256C16.7969 18.6472 35.3435 0.100586 58.2218 0.100586C81.1002 0.100586 99.6468 18.6472 99.6468 41.5256ZM60.3684 57.0771C57.9329 57.8831 55.329 58.3194 52.6233 58.3194C39.0199 58.3194 27.9922 47.2917 27.9922 33.6884C27.9922 20.085 39.0199 9.05731 52.6233 9.05731C66.2266 9.05731 77.2543 20.085 77.2543 33.6884C77.2543 36.3943 76.818 38.9983 76.0118 41.4339C78.8008 43.4702 80.6128 46.7646 80.6128 50.4823C80.6128 56.6656 75.6002 61.6782 69.4168 61.6782C65.6991 61.6782 62.4046 59.8662 60.3684 57.0771Z" fill="black"/>
<circle cx="69.4147" cy="50.4821" r="11.6959" stroke="black"/>
<path fill-rule="evenodd" clip-rule="evenodd" d="M0 89.668H1.2217L2.65588 91.6864L4.19629 89.668H5.31175L3.24017 92.6957V94.9797H2.17782V92.6957L0 89.668ZM6.32099 90.6241V94.9797H10.411V94.2361H7.2771V93.1737H9.29557V92.4832H7.2771V91.474H10.411V90.6241H6.32099ZM11.5265 94.9797V90.6241H12.4295V94.2361H15.351V94.9797H11.5265ZM16.254 90.6241V94.9797H20.0253V94.2361H17.157V90.6241H16.254ZM27.9398 94.9797L26.2932 90.6241H27.3024L28.3116 93.2268L29.6396 90.6241H30.4363L31.6049 93.2268L32.6142 90.6241H33.6234L31.8705 94.9797H31.18L29.9583 92.0583L28.6835 94.9797H27.9398ZM39.307 89.668V94.9797H43.4501C45.0437 94.9797 45.203 92.5894 43.7157 92.2707C44.8843 91.952 44.9374 89.8273 43.4501 89.668H39.307ZM45.7342 94.9797V90.6241H46.7434V94.2892H49.4524V94.9797H45.7342ZM49.9836 94.9797L52.2145 90.6241H52.8519L55.136 94.9797H54.1268L53.4894 93.9705H51.524L50.9397 94.9797H49.9836ZM61.7226 94.9797V90.6241H62.7318V92.377L65.069 90.6241H66.2907L64.166 92.5363L66.2907 94.9797H65.069L63.4223 93.0675L62.7318 93.5455V94.9797H61.7226ZM68.9997 94.9797L71.1244 90.6241H71.8149L74.0458 94.9797H73.0897L72.5054 93.9705H70.487L70.062 94.9797H68.9997ZM75.1082 90.6241V94.9797H75.9581V92.2176L78.8264 94.9797H79.7825V90.6241H78.8264V93.3331L75.9581 90.6241H75.1082ZM81.1636 90.6241V94.9797H84.4038C85.1474 94.9266 85.7317 94.1298 85.8379 93.5455V92.0583C85.8379 91.8458 85.2005 90.6241 84.4038 90.6241H81.1636ZM90.5123 95.0328L88.4407 89.668H89.6624L90.9903 93.0144L92.4245 89.668H93.4337L94.8148 93.0144L96.1959 89.668H97.2582L95.2397 95.0328H94.443L92.8494 91.4208L91.2559 95.0328H90.5123ZM98.2143 90.571V95.0328H99.0642V93.1737H101.72V95.0328H102.676V90.571H101.72V92.3238H99.0642V90.571H98.2143ZM105.013 90.571H104.057V95.0328H105.013V90.571ZM105.81 90.571V91.5802H107.669V95.0328H108.625V91.5802H110.272V90.571H105.81ZM111.122 95.0328V90.571H115.106V91.4208H112.131V92.377H114.15V93.2268H112.131V94.2892H115.318V95.0328H111.122ZM82.1187 94.2364V91.4742H83.1014H84.0841C85.2527 91.8992 85.1464 93.8114 84.0841 94.2364H82.1187ZM71.389 92.0585L70.8047 93.2802H72.0264L71.389 92.0585ZM40.3164 90.5178V91.6864H42.9723C43.5035 91.5271 43.769 90.9428 42.9723 90.5178H40.3164ZM40.3164 92.7488V94.1829H43.0254C43.5566 93.9705 43.8753 93.2268 43.0254 92.7488H40.3164ZM52.4261 92.1113L51.8418 93.2799H51.8438L51.8438 93.28H53.0655L52.428 92.1115L52.4271 92.1133L52.4261 92.1113Z" fill="black"/>
<path fill-rule="evenodd" clip-rule="evenodd" d="M23.1067 95.2454C24.5441 95.2454 25.7094 94.1753 25.7094 92.8551C25.7094 91.535 24.5441 90.4648 23.1067 90.4648C21.6692 90.4648 20.5039 91.535 20.5039 92.8551C20.5039 94.1753 21.6692 95.2454 23.1067 95.2454ZM23.1598 94.3955C24.0399 94.3955 24.7533 93.7297 24.7533 92.9083C24.7533 92.0868 24.0399 91.421 23.1598 91.421C22.2797 91.421 21.5663 92.0868 21.5663 92.9083C21.5663 93.7297 22.2797 94.3955 23.1598 94.3955Z" fill="black"/>
<path d="M59.485 95.0315C60.0371 94.8083 60.4905 94.4248 60.7729 93.9422L59.8389 93.4976C59.5715 93.9684 59.0409 94.2891 58.4301 94.2891C57.5499 94.2891 56.8366 93.6232 56.8366 92.8018C56.8366 91.9804 57.5499 91.3145 58.4301 91.3145C59.0405 91.3145 59.5707 91.6347 59.8383 92.1049L60.7718 91.6597C60.489 91.1772 60.0352 90.7941 59.4829 90.5713C58.9305 90.3485 58.3114 90.2989 57.7242 90.4304C57.1368 90.562 56.6154 90.867 56.2427 91.297C55.8701 91.7269 55.6678 92.2571 55.668 92.8028C55.6682 93.3486 55.8711 93.8785 56.244 94.3082C56.617 94.7379 57.1389 95.0426 57.7263 95.1737C58.3137 95.3048 58.9326 95.2547 59.485 95.0315Z" fill="black"/>
<path d="M34.5312 94.5548C34.5312 94.9362 34.7928 95.2453 35.1155 95.2453C35.484 95.4578 35.0091 95.7765 34.85 95.989C34.85 95.989 34.6904 96.2014 34.85 96.2014C35.7464 96.2014 35.7884 95.0683 35.6998 94.5548C35.6998 94.1734 35.4382 93.8643 35.1155 93.8643C34.7928 93.8643 34.5312 94.1734 34.5312 94.5548Z" fill="black"/>
</svg>
