<svg width="116" height="80" viewBox="0 0 116 80" fill="none" xmlns="http://www.w3.org/2000/svg">
<path d="M24.76 51.97V1H42.06L53.65 17.01L58.8 10.94C57.28 18.73 58.76 25.02 62.3 30.26L54.02 41.49L41.69 26.49V51.98H24.76V51.97ZM62.3 51.97H80.15C98.12 28.24 68.08 23.42 85.49 1H67.82C52.63 24.62 79.56 32.04 62.3 51.97ZM2.95 78.54H1L3.29 68.06L6.97 74.39L10.69 68.06L12.93 78.54H10.98L9.84 73.44L6.96 78.35L4.11 73.45L2.95 78.54ZM23.63 69.52V67.52H17.6V78.51H23.63V76.51H19.6V73.59H23.63V71.59H19.6V69.52H23.63ZM34.94 76.88C35.98 75.83 36.54 74.44 36.53 72.96C36.5 69.96 34.03 67.52 31.04 67.52H28.32V78.51H31.04C32.52 78.51 33.91 77.93 34.95 76.88H34.94ZM30.32 69.52H31.04C32.95 69.52 34.51 71.07 34.53 72.98C34.53 73.92 34.18 74.81 33.52 75.47C32.86 76.13 31.98 76.51 31.04 76.51H30.31V69.52H30.32ZM43.26 67.71H41.26V78.42H43.26V67.71ZM54.43 76.07H50.41L49.08 78.52L46.92 78.49L52.55 67.68L58.06 78.52L55.83 78.49L54.43 76.07ZM53.45 74.07L52.49 72.11L51.46 74.07H53.45ZM64.76 72.52C63.55 70.94 63.71 69.28 65.45 67.68H63.11C61.14 70.28 62.03 71.91 62.96 73.4C63.98 75.02 64.19 76.68 62.34 78.45H64.8C66.73 76.19 65.84 73.93 64.76 72.52ZM76.58 76.51H72.82V67.72H70.82V78.51H76.58V76.51ZM89.93 73.35V72.69C89.93 69.84 87.61 67.53 84.77 67.53C81.93 67.53 79.61 69.85 79.61 72.69V73.35C79.61 76.2 81.93 78.51 84.77 78.51C87.61 78.51 89.93 76.19 89.93 73.35ZM87.93 72.69V73.35C87.93 75.09 86.51 76.51 84.77 76.51C83.03 76.51 81.61 75.09 81.61 73.35V72.69C81.61 70.95 83.03 69.53 84.77 69.53C86.51 69.53 87.93 70.95 87.93 72.69ZM114.77 73.35V72.69C114.77 69.84 112.45 67.53 109.61 67.53C106.77 67.53 104.45 69.85 104.45 72.69V73.35C104.45 76.2 106.77 78.51 109.61 78.51C112.45 78.51 114.77 76.19 114.77 73.35ZM112.77 72.69V73.35C112.77 75.09 111.35 76.51 109.61 76.51C107.87 76.51 106.45 75.09 106.45 73.35V72.69C106.45 70.95 107.87 69.53 109.61 69.53C111.35 69.53 112.77 70.95 112.77 72.69ZM101.34 67.33H99.32L97.09 72.52L94.92 67.34H92.75L97.07 77.64L101.35 67.33H101.34Z" stroke="black" stroke-miterlimit="10"/>
</svg>
