<svg width="99" height="77" viewBox="0 0 99 77" fill="none" xmlns="http://www.w3.org/2000/svg">
<path d="M22.5776 22.3177C21.6776 30.3777 21.7576 38.8277 22.6076 47.5777C22.6776 48.3377 22.0876 48.9977 21.3276 48.9977H15.6876C15.0476 48.9977 14.4976 48.5277 14.3976 47.8977C13.9176 44.9977 13.5976 42.8677 13.3876 40.1377C13.3776 39.9477 13.2176 39.7977 13.0276 39.7977H9.57762C9.39762 39.7977 9.25762 39.9577 9.27762 40.1277C9.47762 42.7177 9.77762 44.7077 10.2376 47.4777C10.3676 48.2677 9.75762 48.9877 8.96762 48.9877H3.23762C2.69762 48.9877 2.19762 48.6577 2.01762 48.1377C-0.252381 41.6377 -1.06238 30.4577 2.01762 21.7177C2.19762 21.2077 2.69762 20.8677 3.23762 20.8677H8.87762C9.69762 20.8677 10.3176 21.6277 10.1476 22.4377C9.61762 24.9877 9.42762 27.2977 9.28762 29.9777C9.27762 30.2477 9.48762 30.4777 9.75762 30.4777H12.8876C13.1576 30.4777 13.3676 30.2677 13.3876 29.9977C13.5276 27.1077 13.7476 24.6077 14.3576 21.8877C14.4876 21.2977 15.0276 20.8777 15.6276 20.8777H21.3176C22.0876 20.8777 22.6876 21.5477 22.5976 22.3177H22.5776ZM27.7776 21.9777C24.1476 41.9077 27.1976 59.7677 39.0976 74.8777C39.8076 75.7877 40.9176 76.2977 42.0676 76.2977H48.1976C48.7676 76.2977 49.1376 75.7177 48.9076 75.1977C39.9776 54.4377 42.6876 34.3577 60.0876 15.1377C60.2476 14.9577 60.0876 14.6777 59.8476 14.7477C56.5776 15.7277 53.4776 16.5677 50.8676 16.9977C48.0176 17.4577 45.3776 18.8677 43.4376 20.9977C40.3376 24.3977 38.1176 29.1977 36.3176 34.6677C36.2076 35.0077 35.7076 34.9477 35.6776 34.5877C35.3276 29.5377 35.6376 24.8177 37.1776 20.6677C37.3576 20.1777 36.9376 19.6677 36.4176 19.7377L29.0776 20.7277C28.4176 20.8177 27.8776 21.3277 27.7576 21.9777H27.7776ZM95.6876 60.1077C92.3076 58.1377 88.5076 56.5377 84.1476 55.4177C83.0376 55.1377 82.4876 53.8777 83.0376 52.8677C83.4176 52.1777 84.2176 51.8177 84.9776 52.0077C88.7376 52.9277 92.3776 54.2477 95.8676 56.0077C96.7976 56.4777 97.9276 55.8477 98.0176 54.8077C98.1976 52.7477 98.3276 50.6577 98.4076 48.5377C98.4476 47.3977 97.5676 46.4277 96.4376 46.3477C92.5376 46.0677 88.8376 45.8977 85.4276 45.8977C84.5576 45.8977 83.8476 45.1977 83.8476 44.3277C83.8476 43.4877 84.5176 42.7877 85.3476 42.7477C89.3176 42.5677 93.1376 42.5177 96.8376 42.5977C97.7376 42.6177 98.4776 41.8977 98.4576 40.9977C98.4176 39.0777 98.3476 37.1377 98.2276 35.1677C98.1876 34.5577 97.6976 34.0577 97.0876 34.0277C92.8676 33.7977 88.5676 33.9277 84.2076 34.2977C76.5176 34.9677 69.8676 40.0477 67.3676 47.3577C66.4876 49.9177 65.8076 52.5277 65.3676 55.1977C65.1976 56.1977 65.8276 57.1377 66.7976 57.4377C75.3576 60.0577 83.8876 64.0177 92.3776 69.1277C93.9076 70.0477 95.8876 69.1677 96.2376 67.4177C96.5376 65.9277 96.7976 64.4177 97.0376 62.8977C97.2176 61.7777 96.6676 60.6777 95.6876 60.1077ZM98.6076 28.8977C98.6076 29.7977 97.8676 30.5377 96.9576 30.5577L85.0876 30.8377C75.9176 31.0577 67.8676 36.6577 64.9876 45.3677L61.9876 54.4477C61.7276 55.2477 60.8976 55.7177 60.0776 55.5277L48.9676 53.0177C48.1976 52.8477 47.6676 52.1277 47.7276 51.3377C48.7676 39.5177 53.0676 28.9177 61.3376 19.7977C65.6776 15.0077 71.0976 11.2877 77.1276 8.94773C82.7476 6.76773 87.8676 4.06773 92.3076 0.687734C93.8576 -0.492266 96.1176 0.367732 96.4576 2.27773C98.0976 11.3577 98.6976 20.1377 98.6076 28.8977ZM87.4476 15.8877C87.3776 15.2777 86.7676 14.8577 86.1876 15.0377C80.1576 16.8677 75.4876 19.3577 73.1376 22.9377C73.0376 23.0977 73.1976 23.2877 73.3776 23.2377C78.2476 21.6177 82.7976 20.4077 86.4076 20.3377C86.9476 20.3277 87.3676 19.9077 87.4476 19.3677C87.5976 18.2677 87.5976 17.1077 87.4476 15.8777V15.8877Z" fill="black"/>
</svg>
