<svg width="91" height="81" viewBox="0 0 91 81" fill="none" xmlns="http://www.w3.org/2000/svg">
<path d="M16.2009 67.7199V43.1099C16.2009 36.8899 11.1609 31.8599 4.95094 31.8599H2.46094V80.3399C2.46094 73.4099 9.25094 68.5299 16.2009 67.7299V67.7199Z" fill="black"/>
<path d="M26.4909 80.33H2.46094C2.46094 76.53 4.50094 73.35 7.48094 71.11C10.4709 68.88 14.4109 67.59 18.2009 67.59H33.7209C40.4009 67.5 44.2609 63.23 46.2609 56.21V56.79C46.2609 71.89 38.1009 79.31 26.4909 80.33Z" fill="black"/>
<path d="M46.26 34.2C46.26 34.2 46.22 34.24 46.21 34.2C44.12 27.11 37.99 23.73 31.25 23.65H20.74C16.95 23.65 12.82 22.96 9.11 21.03C5.4 19.09 2.11 15.9 0 10.9H27.17C34.59 10.55 46.72 18.33 46.27 34.19L46.26 34.2Z" fill="black"/>
<path d="M46.2622 52.4399L58.3122 63.9299C57.0722 68.9099 54.1322 73.1599 50.1722 76.0799C46.5422 78.7599 42.0622 80.3299 37.2622 80.3299H26.4922C38.1022 79.3099 46.2622 71.8899 46.2622 56.7899V52.4399Z" fill="black"/>
<path d="M59.8522 45.9C59.7222 45.74 59.6122 45.57 59.4922 45.4L59.8422 45.04C59.8522 45.33 59.8522 45.61 59.8522 45.9Z" fill="black"/>
<path d="M46.4305 34.4702L58.2005 23.7702C58.2005 23.7702 58.2405 23.7002 58.2205 23.6702C55.0505 16.1102 47.6505 10.9102 39.1205 10.9102H27.4805C39.0305 10.9102 47.4105 24.2002 46.2805 34.4002C46.2805 34.4802 46.3605 34.5302 46.4205 34.4702H46.4305Z" fill="black"/>
<path d="M90.4281 76.4397L88.9381 77.4897C83.4481 81.3497 76.0081 80.7997 71.1481 76.1697L58.3081 63.9297L46.2581 52.4397L40.3681 46.8197C39.3581 45.8597 39.3581 44.2497 40.3581 43.2797L43.8281 40.1797L43.8681 40.1397L57.5781 27.8897L57.8081 27.6797L57.1181 29.1697C55.7781 31.9897 55.5781 35.0297 56.1981 37.9997C56.7381 40.5897 57.9081 43.1197 59.4881 45.3997C59.6081 45.5697 59.7181 45.7397 59.8481 45.8997C60.7981 47.2297 61.8981 48.4497 63.0881 49.5397L90.4281 76.4397Z" fill="black"/>
<path d="M85.4475 18.6802C85.5475 18.6002 85.6675 18.7302 85.5775 18.8202L59.8275 45.0502L59.4775 45.4102C57.8975 43.1302 56.7275 40.6002 56.1875 38.0102C55.5675 35.0402 55.7675 32.0002 57.1075 29.1802L57.7875 27.7102C57.7875 27.7102 57.7975 27.6902 57.8075 27.6802L59.3675 26.1902C59.3675 26.1902 59.4175 26.1602 59.4475 26.1602C68.4775 27.6802 76.9975 25.6602 85.4375 18.6902L85.4475 18.6802Z" fill="black"/>
<path d="M68.6422 25.9602C71.6245 25.9602 74.0422 23.5425 74.0422 20.5602C74.0422 17.5778 71.6245 15.1602 68.6422 15.1602C65.6599 15.1602 63.2422 17.5778 63.2422 20.5602C63.2422 23.5425 65.6599 25.9602 68.6422 25.9602Z" fill="black"/>
<path d="M83.3486 19.2299C85.7179 19.2299 87.6386 17.3092 87.6386 14.9399C87.6386 12.5706 85.7179 10.6499 83.3486 10.6499C80.9793 10.6499 79.0586 12.5706 79.0586 14.9399C79.0586 17.3092 80.9793 19.2299 83.3486 19.2299Z" fill="black"/>
<path d="M75.4212 5.44992C76.7412 5.44992 77.8112 4.37988 77.8112 3.05992C77.8112 1.73996 76.7412 0.669922 75.4212 0.669922C74.1013 0.669922 73.0312 1.73996 73.0312 3.05992C73.0312 4.37988 74.1013 5.44992 75.4212 5.44992Z" fill="black"/>
</svg>
