<svg width="116" height="77" viewBox="0 0 116 77" fill="none" xmlns="http://www.w3.org/2000/svg">
<path d="M39.5994 29.9288C36.2894 30.2088 31.1694 28.9088 30.8794 27.6388C27.6394 27.6388 25.4694 26.7288 24.1494 25.3988C23.8494 25.0988 23.9494 24.5788 24.3394 24.4088C27.0394 23.2288 31.8494 22.6588 34.5094 22.4388M94.9194 13.6988C97.4494 13.3188 100.019 12.6088 102.549 11.5688C103.199 11.2988 103.239 10.3788 102.599 10.0688C100.179 8.90881 97.7594 8.35881 95.5694 8.20881M29.7794 27.5988C33.6594 34.2688 40.7294 37.2188 51.1894 32.9888C51.9694 32.6688 53.3094 32.4688 54.1594 32.4988C57.1094 32.5988 60.1194 33.0988 63.1794 33.8688C64.6994 34.2488 66.0694 35.1188 67.0694 36.3288L69.3494 39.0688L69.2094 36.6488H72.6194L70.7294 34.4188L74.0394 32.8588L70.6994 32.7988C69.3394 32.7688 67.9994 32.5588 66.6994 32.1488L66.5094 32.0888C65.4794 31.7688 64.4394 31.4988 63.3694 31.3488C63.0594 31.3088 62.7494 31.2688 62.4394 31.2388L56.4494 30.6288C61.9994 27.9588 66.5494 23.7088 70.3594 20.2588C74.1694 16.8088 79.2894 14.9088 84.4994 15.0888L90.7794 15.2988C92.5594 15.3588 94.2894 14.5988 95.3794 13.1888C95.3894 13.1688 95.3994 13.1588 95.4194 13.1388C96.5294 11.6888 96.7094 9.63881 95.5794 8.21881C95.5794 8.20881 95.5594 8.19881 95.5494 8.18881C95.1294 7.66881 94.4894 7.37881 93.8294 7.27881C93.0294 7.16881 92.2594 7.15881 91.5194 7.29881L82.7094 9.81881C73.7194 12.0788 61.1194 13.6088 47.2194 14.8688C41.1894 15.4188 35.1094 14.7888 29.3194 13.0388C27.6494 12.5388 26.0094 12.0088 24.4094 11.4688C23.8494 11.2788 23.3394 11.8688 23.6094 12.3888C25.8494 16.7788 29.8794 19.8088 35.9994 21.2488C35.4794 21.3688 35.0494 21.5588 34.6994 21.8088C34.4294 22.0088 34.3994 22.4188 34.6394 22.6588C36.5194 24.4388 39.3194 24.9388 42.8094 24.4888C42.0294 24.7888 41.3594 25.1788 40.7994 25.6888C40.5794 25.8888 40.6694 26.2688 40.9594 26.3288C43.7194 26.9088 46.4494 26.7688 49.1294 25.7288C48.6194 26.2988 48.2294 26.8588 47.9794 27.4188C47.7494 27.9288 48.0994 28.4988 48.6594 28.5188C52.9694 28.7088 56.8494 26.8288 60.3594 23.1188C63.6794 19.6088 62.4594 13.8388 58.0494 11.8588C56.2494 11.0488 54.3594 10.4588 52.4494 9.98881C46.8194 8.58881 42.0594 5.47881 37.9694 1.00881C37.4494 0.438811 36.4994 0.798813 36.4894 1.56881V2.34881C36.4594 5.56881 37.7894 8.65881 40.1694 10.8388L42.0194 12.5388L40.1294 12.1288C39.4394 11.9788 38.8794 12.6988 39.2094 13.3288L39.8994 14.6588M36.1394 33.7488C34.1494 35.2388 32.1794 36.2488 30.2394 36.6388C28.9794 36.8988 27.7294 37.1988 26.5394 37.6888L20.6094 40.1688H24.8394L22.5394 43.2988L26.5994 41.8188L26.6494 44.7788L27.3294 43.3188C28.6194 40.5788 30.9094 38.4488 33.7394 37.3688L40.1994 34.8988M92.4994 8.38881C92.0794 8.38881 91.7394 8.72881 91.7394 9.14881C91.7394 9.56881 92.0794 9.90881 92.4994 9.90881C92.9194 9.90881 93.2594 9.56881 93.2594 9.14881C93.2594 8.72881 92.9194 8.38881 92.4994 8.38881Z" stroke="black" stroke-width="0.75" stroke-miterlimit="10"/>
<path d="M3.85 76.3686H1.89C0.85 76.3686 0 75.5186 0 74.4786V60.2886C0 59.2486 0.85 58.3986 1.89 58.3986H3.85C4.89 58.3986 5.74 59.2486 5.74 60.2886V63.1986C5.74 63.7486 5.29 64.1986 4.74 64.1986C4.19 64.1986 3.74 63.7486 3.74 63.1986V60.3986H1.99V74.3686H3.74V69.4885H3.3C2.75 69.4885 2.3 69.0385 2.3 68.4885C2.3 67.9385 2.75 67.4885 3.3 67.4885H4.12C5.01 67.4885 5.74 68.2186 5.74 69.1086V74.4786C5.74 75.5186 4.89 76.3686 3.85 76.3686ZM13.91 73.3885V61.3686C13.91 59.7286 12.58 58.3885 10.93 58.3885C9.28 58.3885 7.95 59.7186 7.95 61.3686V73.3885C7.95 75.0285 9.29 76.3686 10.93 76.3686C12.57 76.3686 13.91 75.0385 13.91 73.3885ZM11.91 61.3686V73.3885C11.91 73.9285 11.47 74.3686 10.93 74.3686C10.39 74.3686 9.95 73.9285 9.95 73.3885V61.3686C9.95 60.8286 10.39 60.3885 10.93 60.3885C11.47 60.3885 11.91 60.8286 11.91 61.3686ZM21.97 73.3885V61.3686C21.97 59.7286 20.63 58.3885 18.99 58.3885C17.35 58.3885 16.01 59.7186 16.01 61.3686V73.3885C16.01 75.0285 17.34 76.3686 18.99 76.3686C20.64 76.3686 21.97 75.0385 21.97 73.3885ZM19.97 61.3686V73.3885C19.97 73.9285 19.53 74.3686 18.99 74.3686C18.45 74.3686 18.01 73.9285 18.01 73.3885V61.3686C18.01 60.8286 18.45 60.3885 18.99 60.3885C19.53 60.3885 19.97 60.8286 19.97 61.3686ZM29.47 73.6685V70.6285C29.47 69.6285 29.17 68.6586 28.6 67.8286L26.6 64.9185C26.26 64.4285 26.08 63.8486 26.08 63.2486V61.0786C26.08 60.6986 26.39 60.3885 26.78 60.3885C27.17 60.3885 27.47 60.6986 27.47 61.0786V63.1886C27.47 63.7386 27.92 64.1886 28.47 64.1886C29.02 64.1886 29.47 63.7386 29.47 63.1886V61.0786C29.47 59.5886 28.26 58.3885 26.78 58.3885C25.3 58.3885 24.08 59.5986 24.08 61.0786V63.2486C24.08 64.2486 24.38 65.2186 24.95 66.0486L26.95 68.9585C27.29 69.4485 27.47 70.0285 27.47 70.6285V73.6685C27.47 74.0485 27.16 74.3586 26.78 74.3586C26.4 74.3586 26.08 74.0485 26.08 73.6685V72.3885C26.08 71.8385 25.63 71.3885 25.08 71.3885C24.53 71.3885 24.08 71.8385 24.08 72.3885V73.6685C24.08 75.1585 25.29 76.3586 26.78 76.3586C28.27 76.3586 29.47 75.1485 29.47 73.6685ZM35.56 60.3885C36.11 60.3885 36.56 59.9385 36.56 59.3885C36.56 58.8385 36.11 58.3885 35.56 58.3885H32.89C32.03 58.3885 31.33 59.0886 31.33 59.9486V74.7986C31.33 75.6586 32.03 76.3586 32.89 76.3586H35.05C35.6 76.3586 36.05 75.9086 36.05 75.3586C36.05 74.8086 35.6 74.3586 35.05 74.3586H33.33V68.0886H35.1C35.65 68.0886 36.1 67.6386 36.1 67.0886C36.1 66.5386 35.65 66.0886 35.1 66.0886H33.33V60.3885H35.56ZM47.42 74.4686V69.0985C47.42 68.2085 46.69 67.4786 45.8 67.4786H44.98C44.43 67.4786 43.98 67.9286 43.98 68.4786C43.98 69.0286 44.43 69.4786 44.98 69.4786H45.42V74.3586H43.67V60.3885H45.42V63.1886C45.42 63.7386 45.87 64.1886 46.42 64.1886C46.97 64.1886 47.42 63.7386 47.42 63.1886V60.2785C47.42 59.2385 46.57 58.3885 45.53 58.3885H43.57C42.53 58.3885 41.68 59.2385 41.68 60.2785V74.4686C41.68 75.5086 42.53 76.3586 43.57 76.3586H45.53C46.57 76.3586 47.42 75.5086 47.42 74.4686ZM55.59 73.3885V61.3686C55.59 59.7286 54.25 58.3885 52.61 58.3885C50.97 58.3885 49.63 59.7186 49.63 61.3686V73.3885C49.63 75.0285 50.96 76.3686 52.61 76.3686C54.26 76.3686 55.59 75.0385 55.59 73.3885ZM53.59 61.3686V73.3885C53.59 73.9285 53.15 74.3686 52.61 74.3686C52.07 74.3686 51.63 73.9285 51.63 73.3885V61.3686C51.63 60.8286 52.07 60.3885 52.61 60.3885C53.15 60.3885 53.59 60.8286 53.59 61.3686ZM63.65 73.3885V61.3686C63.65 59.7286 62.32 58.3885 60.67 58.3885C59.02 58.3885 57.69 59.7186 57.69 61.3686V73.3885C57.69 75.0285 59.02 76.3686 60.67 76.3686C62.32 76.3686 63.65 75.0385 63.65 73.3885ZM61.65 61.3686V73.3885C61.65 73.9285 61.21 74.3686 60.67 74.3686C60.13 74.3686 59.69 73.9285 59.69 73.3885V61.3686C59.69 60.8286 60.13 60.3885 60.67 60.3885C61.21 60.3885 61.65 60.8286 61.65 61.3686ZM71.15 73.6685V70.6285C71.15 69.6285 70.85 68.6586 70.28 67.8286L68.28 64.9185C67.94 64.4285 67.76 63.8486 67.76 63.2486V61.0786C67.76 60.6986 68.07 60.3885 68.45 60.3885C68.83 60.3885 69.15 60.6986 69.15 61.0786V63.1886C69.15 63.7386 69.6 64.1886 70.15 64.1886C70.7 64.1886 71.15 63.7386 71.15 63.1886V61.0786C71.15 59.5886 69.94 58.3885 68.45 58.3885C66.96 58.3885 65.76 59.5986 65.76 61.0786V63.2486C65.76 64.2486 66.06 65.2186 66.63 66.0486L68.63 68.9585C68.97 69.4485 69.15 70.0285 69.15 70.6285V73.6685C69.15 74.0485 68.84 74.3586 68.45 74.3586C68.06 74.3586 67.76 74.0485 67.76 73.6685V72.3885C67.76 71.8385 67.31 71.3885 66.76 71.3885C66.21 71.3885 65.76 71.8385 65.76 72.3885V73.6685C65.76 75.1585 66.97 76.3586 68.45 76.3586C69.93 76.3586 71.15 75.1485 71.15 73.6685ZM115.27 73.6685V70.6285C115.27 69.6285 114.97 68.6586 114.4 67.8286L112.4 64.9185C112.06 64.4285 111.88 63.8486 111.88 63.2486V61.0786C111.88 60.6986 112.19 60.3885 112.57 60.3885C112.95 60.3885 113.27 60.6986 113.27 61.0786V63.1886C113.27 63.7386 113.72 64.1886 114.27 64.1886C114.82 64.1886 115.27 63.7386 115.27 63.1886V61.0786C115.27 59.5886 114.06 58.3885 112.57 58.3885C111.08 58.3885 109.88 59.5986 109.88 61.0786V63.2486C109.88 64.2486 110.18 65.2186 110.75 66.0486L112.75 68.9585C113.09 69.4485 113.27 70.0285 113.27 70.6285V73.6685C113.27 74.0485 112.96 74.3586 112.57 74.3586C112.18 74.3586 111.88 74.0485 111.88 73.6685V72.3885C111.88 71.8385 111.43 71.3885 110.88 71.3885C110.33 71.3885 109.88 71.8385 109.88 72.3885V73.6685C109.88 75.1585 111.09 76.3586 112.57 76.3586C114.05 76.3586 115.27 75.1485 115.27 73.6685ZM77.24 60.3885C77.79 60.3885 78.24 59.9385 78.24 59.3885C78.24 58.8385 77.79 58.3885 77.24 58.3885H74.57C73.71 58.3885 73.01 59.0886 73.01 59.9486V74.7986C73.01 75.6586 73.71 76.3586 74.57 76.3586H76.73C77.28 76.3586 77.73 75.9086 77.73 75.3586C77.73 74.8086 77.28 74.3586 76.73 74.3586H75.01V68.0886H76.78C77.33 68.0886 77.78 67.6386 77.78 67.0886C77.78 66.5386 77.33 66.0886 76.78 66.0886H75.01V60.3885H77.25H77.24ZM86.67 60.2686C87.22 60.2686 87.67 59.8186 87.67 59.2686C87.67 58.7186 87.22 58.2686 86.67 58.2686H84.02C83.15 58.2686 82.45 58.9786 82.45 59.8386V66.3386C82.21 66.5186 82.05 66.7986 82.05 67.1186C82.05 67.4386 82.21 67.7086 82.45 67.8986V75.4585C82.45 76.0085 82.9 76.4585 83.45 76.4585C84 76.4585 84.45 76.0085 84.45 75.4585V68.1285H86.01C86.56 68.1285 87.01 67.6785 87.01 67.1285C87.01 66.5785 86.56 66.1285 86.01 66.1285H84.45V60.2785H86.67V60.2686ZM90.49 75.4585V59.2686C90.49 58.7186 90.04 58.2686 89.49 58.2686C88.94 58.2686 88.49 58.7186 88.49 59.2686V75.4585C88.49 76.0085 88.94 76.4585 89.49 76.4585C90.04 76.4585 90.49 76.0085 90.49 75.4585ZM97.5 75.4585C97.5 74.9086 97.05 74.4585 96.5 74.4585H94.59V59.2686C94.59 58.7186 94.14 58.2686 93.59 58.2686C93.04 58.2686 92.59 58.7186 92.59 59.2686V74.8485C92.59 75.7285 93.31 76.4486 94.19 76.4486H96.5C97.05 76.4486 97.5 75.9986 97.5 75.4486V75.4585ZM108.17 75.4585V59.2686C108.17 58.7186 107.72 58.2686 107.17 58.2686H105.89C105.4 58.2686 104.98 58.6286 104.9 59.1086L103.37 68.7385L101.67 59.0985C101.59 58.6185 101.17 58.2686 100.69 58.2686H99.68C99.13 58.2686 98.68 58.7186 98.68 59.2686V75.4585C98.68 76.0085 99.13 76.4585 99.68 76.4585C100.23 76.4585 100.68 76.0085 100.68 75.4585V64.9486L102.44 74.9585C102.52 75.4385 102.94 75.7886 103.42 75.7886C103.91 75.7886 104.32 75.4286 104.4 74.9486L106.16 63.8785V75.4585C106.16 76.0085 106.61 76.4585 107.16 76.4585C107.71 76.4585 108.16 76.0085 108.16 75.4585H108.17Z" fill="black"/>
</svg>
