<svg width="176" height="62" viewBox="0 0 176 62" fill="none" xmlns="http://www.w3.org/2000/svg">
<path d="M43.62 11.1401H13.62L3.62 1.14008H53.62L43.62 11.1401ZM3.62 58.3801H53.62L43.62 48.3801H13.62L3.62 58.3801ZM0 4.76008V54.7601L10 44.7601V14.7601L0 4.76008ZM57.24 54.7601V4.76008L47.24 14.7601V44.7601L57.24 54.7601ZM78.24 9.26008C78.24 8.38008 77.94 7.56008 77.44 6.91008C77.94 6.26008 78.24 5.44008 78.24 4.56008C78.24 2.44008 76.51 0.710077 74.39 0.710077H68.52V13.1201H74.39C76.51 13.1201 78.24 11.3901 78.24 9.27008V9.26008ZM71.51 8.41008H74.38C74.85 8.41008 75.23 8.79008 75.23 9.26008C75.23 9.73008 74.85 10.1101 74.38 10.1101H71.51V8.41008ZM71.51 3.71008H74.38C74.85 3.71008 75.23 4.09008 75.23 4.56008C75.23 5.03008 74.85 5.41008 74.38 5.41008H71.51V3.71008ZM74.38 24.5501H68.51V36.9601H74.38C76.5 36.9601 78.23 35.2301 78.23 33.1101C78.23 32.2301 77.93 31.4101 77.43 30.7601C77.93 30.1101 78.23 29.2901 78.23 28.4101C78.23 26.2901 76.5 24.5601 74.38 24.5601V24.5501ZM71.51 27.5501H74.38C74.85 27.5501 75.23 27.9301 75.23 28.4001C75.23 28.8701 74.85 29.2501 74.38 29.2501H71.51V27.5501ZM71.51 32.2501H74.38C74.85 32.2501 75.23 32.6301 75.23 33.1001C75.23 33.5701 74.85 33.9501 74.38 33.9501H71.51V32.2501ZM86.63 10.1201H82.57V1.14008H79.57V13.1201H86.63V10.1201ZM95.64 11.2201H90.84L90.27 12.7001L87.47 12.7501L91.71 0.610077L94.5 0.580078L99.03 12.7201L96.26 12.7401L95.64 11.2301V11.2201ZM94.41 8.22008L93.17 5.20008L92.01 8.22008H94.42H94.41ZM110.01 10.2801L107.42 8.76008C106.82 9.78008 105.71 10.4101 104.53 10.4101C102.68 10.4101 101.18 8.91008 101.18 7.06008C101.18 5.21008 102.68 3.71008 104.53 3.71008C105.56 3.71008 106.52 4.17008 107.16 4.98008L109.51 3.12008C108.3 1.59008 106.48 0.710077 104.53 0.710077C101.03 0.710077 98.18 3.56008 98.18 7.06008C98.18 10.5601 101.03 13.4101 104.53 13.4101C106.77 13.4101 108.87 12.2101 110 10.2801H110.01ZM137.4 57.6701L134.81 56.1501C134.21 57.1701 133.1 57.8001 131.92 57.8001C130.07 57.8001 128.57 56.3001 128.57 54.4501C128.57 52.6001 130.07 51.1001 131.92 51.1001C132.95 51.1001 133.91 51.5601 134.55 52.3701L136.9 50.5101C135.69 48.9801 133.87 48.1001 131.92 48.1001C128.42 48.1001 125.57 50.9501 125.57 54.4501C125.57 57.9501 128.42 60.8001 131.92 60.8001C134.16 60.8001 136.26 59.6001 137.39 57.6701H137.4ZM120.45 1.48008L116.64 1.29008L113.59 4.79008V1.14008H110.59V12.5901H113.59V9.35008L113.77 9.15008L117.19 12.7401H120.67L115.76 6.87008L120.45 1.49008V1.48008ZM103.17 36.7301L98.43 30.3801L102.71 24.7101H99.25L96.58 27.8201L93.93 24.7101H90.56L94.73 30.3801L90.25 36.7401H93.67L96.59 32.9401L99.61 36.7401H103.18L103.17 36.7301ZM91.27 30.6301C91.27 27.1001 88.56 24.2301 85.24 24.2301C81.92 24.2301 79.21 27.1001 79.21 30.6301C79.21 34.1601 81.92 37.0301 85.24 37.0301C88.56 37.0301 91.27 34.1601 91.27 30.6301ZM88.27 30.6301C88.27 32.5001 86.91 34.0301 85.24 34.0301C83.57 34.0301 82.21 32.5101 82.21 30.6301C82.21 28.7501 83.57 27.2301 85.24 27.2301C86.91 27.2301 88.27 28.7501 88.27 30.6301ZM163.59 54.7601C163.59 51.2301 160.88 48.3601 157.56 48.3601C154.24 48.3601 151.53 51.2301 151.53 54.7601C151.53 58.2901 154.24 61.1601 157.56 61.1601C160.88 61.1601 163.59 58.2901 163.59 54.7601ZM160.59 54.7601C160.59 56.6301 159.23 58.1601 157.56 58.1601C155.89 58.1601 154.53 56.6401 154.53 54.7601C154.53 52.8801 155.89 51.3601 157.56 51.3601C159.23 51.3601 160.59 52.8801 160.59 54.7601ZM101.06 54.4501C101.06 50.9201 98.35 48.0501 95.03 48.0501C91.71 48.0501 89 50.9201 89 54.4501C89 57.9801 91.71 60.8501 95.03 60.8501C98.35 60.8501 101.06 57.9801 101.06 54.4501ZM98.06 54.4501C98.06 56.3201 96.7 57.8501 95.03 57.8501C93.36 57.8501 92 56.3301 92 54.4501C92 52.5701 93.36 51.0501 95.03 51.0501C96.7 51.0501 98.06 52.5701 98.06 54.4501ZM71.52 56.3501H73.37C75.57 56.3501 77.36 54.5601 77.36 52.3601C77.36 50.1601 75.57 48.3701 73.37 48.3701H68.52V59.8101H71.52V56.3401V56.3501ZM71.52 51.3801H73.37C73.91 51.3801 74.36 51.8201 74.36 52.3701C74.36 52.9201 73.92 53.3601 73.37 53.3601H71.52V51.3901V51.3801ZM85.88 55.8701L88.46 60.2901H85.14L82.63 56.2601H82.2V59.8201H79.2V48.3801H84.2C86.37 48.3801 88.14 50.1501 88.14 52.3201C88.14 53.8901 87.21 55.2401 85.88 55.8701ZM82.21 53.2601H84.21C84.73 53.2601 85.15 52.8401 85.15 52.3201C85.15 51.8001 84.73 51.3801 84.21 51.3801H82.21V53.2601ZM113.16 54.3401C113.16 51.0601 110.49 48.3901 107.21 48.3901H101.92V60.3001H107.21C110.49 60.3001 113.16 57.6301 113.16 54.3501V54.3401ZM104.92 51.3901H107.21C108.84 51.3901 110.16 52.7201 110.16 54.3401C110.16 55.9601 108.83 57.2901 107.21 57.2901H104.92V51.3801V51.3901ZM124.75 54.8901V48.7501H121.75V54.8901C121.75 56.2201 120.67 57.3001 119.34 57.3001C118.01 57.3001 116.93 56.2201 116.93 54.8901V48.7501H113.93V54.8901C113.93 57.8701 116.35 60.3001 119.34 60.3001C122.33 60.3001 124.75 57.8801 124.75 54.8901ZM146.16 48.3901H137.27V51.3901H140.21V60.1401H143.21V51.3901H146.15V48.3901H146.16ZM150.37 48.7501H147.37V60.1401H150.37V48.7501ZM175.41 60.1401V48.7501H172.41V55.2301L167.82 48.7501H164.75V60.1601H167.75V53.6701L172.11 60.1501H175.42L175.41 60.1401Z" fill="black"/>
</svg>
