<svg width="403" height="457" viewBox="0 0 403 457" fill="none" xmlns="http://www.w3.org/2000/svg">
<rect x="0.517805" y="0.481349" width="386.003" height="441.191" rx="0.5" transform="matrix(0.999328 -0.0366445 0.0362823 0.999342 0.0903052 14.2009)" stroke="#EB0000"/>
<rect x="0.510655" y="0.489003" width="386.001" height="441.193" rx="0.5" transform="matrix(0.999763 -0.0217618 0.0215465 0.999768 3.27083 11.218)" stroke="#D0C802"/>
<rect x="0.491412" y="0.508527" width="386.001" height="441.193" rx="0.5" transform="matrix(0.999852 0.0171986 -0.0170284 0.999855 11.8017 3.64006)" stroke="#5BBA0F"/>
<rect x="0.484773" y="0.514923" width="386.002" height="441.192" rx="0.5" transform="matrix(0.999541 0.0302954 -0.0299959 0.99955 14.7344 3.17793)" stroke="#0098B9"/>
<rect x="0.50655" y="0.493296" width="386.492" height="446.188" rx="0.5" transform="matrix(0.999911 -0.0133204 0.0131886 0.999913 4.63807 6.15181)" stroke="#7C5AE1"/>
<rect x="8.5" y="7.40942" width="386" height="441" rx="0.5" stroke="black"/>
</svg>
