<svg width="396" height="521" viewBox="0 0 396 521" fill="none" xmlns="http://www.w3.org/2000/svg">
<rect x="0.515272" y="0.478609" width="379.491" height="503.132" rx="0.5" transform="matrix(0.999106 -0.0422876 0.0314388 0.999506 -0.014586 16.1929)" stroke="#EB0000"/>
<rect x="0.509128" y="0.487292" width="379.433" height="503.189" rx="0.5" transform="matrix(0.999681 -0.0252428 0.0185749 0.999827 2.94033 14.0129)" stroke="#D0C802"/>
<rect x="0.492561" y="0.509921" width="379.421" height="503.201" rx="0.5" transform="matrix(0.999801 0.0199502 -0.0146795 0.999892 11.8025 4.99023)" stroke="#5BBA0F"/>
<rect x="0.486761" y="0.517402" width="379.463" height="503.16" rx="0.5" transform="matrix(0.999382 0.0351387 -0.0258603 0.999666 13.7754 1.98307)" stroke="#0098B9"/>
<rect x="0.505625" y="0.492242" width="379.896" height="508.904" rx="0.5" transform="matrix(0.999881 -0.0154519 0.0113692 0.999935 4.90853 9.00784)" stroke="#7C5AE1"/>
<rect x="8.5" y="8.5" width="379" height="503" rx="0.5" stroke="black"/>
</svg>
