<svg width="149" height="18" viewBox="0 0 149 18" fill="none" xmlns="http://www.w3.org/2000/svg">
  <path fill-rule="evenodd" clip-rule="evenodd"
    d="M81.3349 1.53784L74.8417 17.9415H80.6514L82.0183 14.5241H88.1697L89.5367 17.9415H95.3463L88.5115 1.53784C87.828 -0.512624 82.0183 -0.512605 81.3349 1.53784ZM0 17.9415L6.83486 1.53784C7.51835 0.170863 12.9862 0.170863 13.6697 1.53784L20.5046 17.9415H15.0367L13.6697 14.8658H7.51835L6.15138 17.9415H0ZM21.8716 17.9415V2.56307C21.8716 1.19609 22.8968 0.512606 23.922 0.512613H35.1995C37.25 0.512613 38.9587 2.56307 38.9587 4.27179V9.39794C38.9587 11.1066 36.9083 12.8154 34.5161 12.8154L39.3005 17.9415H32.4656L28.7064 12.8154C27.6812 11.1066 28.7064 9.05619 30.0734 9.0562H32.4656C34.5161 9.05619 34.5161 4.61353 32.4656 4.61353H28.0229C27.3394 4.61353 26.9977 4.95527 26.9977 5.63876V17.9415H21.8716ZM39.9839 0.512613H58.0963V4.61353H51.6032V17.9415H46.1353V4.61353H39.9839V0.512613ZM74.1583 0.512613V4.95528H66.9817C65.6147 4.95527 64.9312 5.29701 64.9312 6.66399V11.7901C64.9312 13.1571 65.3801 13.5312 66.9817 13.4989H74.1583V17.9415H63.5642C61.5138 17.9415 59.1216 15.5493 59.1216 13.4989V5.98051C59.1216 3.5883 61.8555 0.512606 63.906 0.512613H74.1583ZM98.422 0.512613H111.408V4.61353H101.498C100.814 4.61351 100.472 5.63874 101.156 5.98051L110.041 8.37271C111.067 8.71443 112.092 9.73966 112.092 11.1067V15.5493C112.092 16.9163 111.067 17.9415 109.358 17.9415H96.0298V13.8406H106.624C106.966 13.8406 106.966 13.1571 106.624 12.8154L98.422 10.4232C96.6284 9.7296 95.6881 9.05617 95.6881 7.34748V3.5883C95.6881 1.53782 96.7133 0.512589 98.422 0.512613ZM112.775 0.512613H131.229V4.61353H124.736V17.9415H119.268V4.61353H112.775V0.512613ZM128.154 17.9415L134.989 1.53784C135.672 -0.170898 141.14 -0.170898 141.823 1.53784L149 17.9415H143.19L141.823 14.5241H135.33L133.963 17.9415H128.154ZM8.54297 10.7649L10.2517 5.98047L12.3021 10.7649H8.54297ZM83.043 10.7649L85.0934 5.98047L86.8021 10.7649H83.043ZM138.405 5.98047L136.355 10.7649H140.456L138.405 5.98047Z"
    fill="#272727" />
</svg>